<?xml version="1.0" encoding="utf-8" standalone="no"?>
<!DOCTYPE svg PUBLIC "-//W3C//DTD SVG 1.1//EN"
  "http://www.w3.org/Graphics/SVG/1.1/DTD/svg11.dtd">
<svg xmlns:xlink="http://www.w3.org/1999/xlink" width="368.39952pt" height="391.667104pt" viewBox="0 0 368.39952 391.667104" xmlns="http://www.w3.org/2000/svg" version="1.1">
 <metadata>
  <rdf:RDF xmlns:dc="http://purl.org/dc/elements/1.1/" xmlns:cc="http://creativecommons.org/ns#" xmlns:rdf="http://www.w3.org/1999/02/22-rdf-syntax-ns#">
   <cc:Work>
    <dc:type rdf:resource="http://purl.org/dc/dcmitype/StillImage"/>
    <dc:date>2024-09-04T19:48:50.908826</dc:date>
    <dc:format>image/svg+xml</dc:format>
    <dc:creator>
     <cc:Agent>
      <dc:title>Matplotlib v3.9.2, https://matplotlib.org/</dc:title>
     </cc:Agent>
    </dc:creator>
   </cc:Work>
  </rdf:RDF>
 </metadata>
 <defs>
  <style type="text/css">*{stroke-linejoin: round; stroke-linecap: butt}</style>
 </defs>
 <g id="figure_1">
  <g id="patch_1">
   <path d="M 0 391.667104 
L 368.39952 391.667104 
L 368.39952 0 
L 0 0 
z
" style="fill: #ffffff"/>
  </g>
  <g id="axes_1">
   <g id="patch_2">
    <path d="M 341.51827 211.490781 
C 341.51827 191.249662 337.531211 171.205362 329.78527 152.505006 
C 322.039329 133.804649 310.685145 116.811912 296.372512 102.499279 
C 282.059879 88.186647 265.067142 76.832463 246.366786 69.086522 
C 227.66643 61.34058 207.62213 57.353521 187.38101 57.353521 
C 167.13989 57.353521 147.09559 61.34058 128.395234 69.086522 
C 109.694878 76.832463 92.702141 88.186647 78.389508 102.499279 
C 64.076875 116.811912 52.722691 133.804649 44.97675 152.505006 
C 37.230809 171.205362 33.24375 191.249662 33.24375 211.490781 
C 33.24375 231.731901 37.230809 251.776201 44.97675 270.476557 
C 52.722691 289.176913 64.076875 306.16965 78.389508 320.482283 
C 92.702141 334.794916 109.694878 346.1491 128.395234 353.895041 
C 147.09559 361.640982 167.13989 365.628041 187.38101 365.628041 
C 207.62213 365.628041 227.66643 361.640982 246.366786 353.895041 
C 265.067142 346.1491 282.059879 334.794916 296.372512 320.482283 
C 310.685145 306.16965 322.039329 289.176913 329.78527 270.476557 
C 337.531211 251.776201 341.51827 231.731901 341.51827 211.490781 
M 187.38101 211.490781 
C 187.38101 211.490781 187.38101 211.490781 187.38101 211.490781 
C 187.38101 211.490781 187.38101 211.490781 187.38101 211.490781 
C 187.38101 211.490781 187.38101 211.490781 187.38101 211.490781 
C 187.38101 211.490781 187.38101 211.490781 187.38101 211.490781 
C 187.38101 211.490781 187.38101 211.490781 187.38101 211.490781 
C 187.38101 211.490781 187.38101 211.490781 187.38101 211.490781 
C 187.38101 211.490781 187.38101 211.490781 187.38101 211.490781 
C 187.38101 211.490781 187.38101 211.490781 187.38101 211.490781 
C 187.38101 211.490781 187.38101 211.490781 187.38101 211.490781 
C 187.38101 211.490781 187.38101 211.490781 187.38101 211.490781 
C 187.38101 211.490781 187.38101 211.490781 187.38101 211.490781 
C 187.38101 211.490781 187.38101 211.490781 187.38101 211.490781 
C 187.38101 211.490781 187.38101 211.490781 187.38101 211.490781 
C 187.38101 211.490781 187.38101 211.490781 187.38101 211.490781 
C 187.38101 211.490781 187.38101 211.490781 187.38101 211.490781 
C 187.38101 211.490781 187.38101 211.490781 187.38101 211.490781 
z
" style="fill: #ffffff"/>
   </g>
   <g id="matplotlib.axis_1">
    <g id="xtick_1">
     <g id="line2d_1">
      <path d="M 187.38101 211.490781 
L 341.51827 211.490781 
" clip-path="url(#p475dd395a5)" style="fill: none; stroke: #b0b0b0; stroke-width: 0.8; stroke-linecap: square"/>
     </g>
     <g id="text_1">
      <!-- 0° -->
      <g transform="translate(349.83702 214.250156) scale(0.1 -0.1)">
       <defs>
        <path id="DejaVuSans-30" d="M 2034 4250 
Q 1547 4250 1301 3770 
Q 1056 3291 1056 2328 
Q 1056 1369 1301 889 
Q 1547 409 2034 409 
Q 2525 409 2770 889 
Q 3016 1369 3016 2328 
Q 3016 3291 2770 3770 
Q 2525 4250 2034 4250 
z
M 2034 4750 
Q 2819 4750 3233 4129 
Q 3647 3509 3647 2328 
Q 3647 1150 3233 529 
Q 2819 -91 2034 -91 
Q 1250 -91 836 529 
Q 422 1150 422 2328 
Q 422 3509 836 4129 
Q 1250 4750 2034 4750 
z
" transform="scale(0.015625)"/>
        <path id="DejaVuSans-b0" d="M 1600 4347 
Q 1350 4347 1178 4173 
Q 1006 4000 1006 3750 
Q 1006 3503 1178 3333 
Q 1350 3163 1600 3163 
Q 1850 3163 2022 3333 
Q 2194 3503 2194 3750 
Q 2194 3997 2020 4172 
Q 1847 4347 1600 4347 
z
M 1600 4750 
Q 1800 4750 1984 4673 
Q 2169 4597 2303 4453 
Q 2447 4313 2519 4134 
Q 2591 3956 2591 3750 
Q 2591 3338 2302 3052 
Q 2013 2766 1594 2766 
Q 1172 2766 890 3047 
Q 609 3328 609 3750 
Q 609 4169 896 4459 
Q 1184 4750 1600 4750 
z
" transform="scale(0.015625)"/>
       </defs>
       <use xlink:href="#DejaVuSans-30"/>
       <use xlink:href="#DejaVuSans-b0" x="63.623047"/>
      </g>
     </g>
    </g>
    <g id="xtick_2">
     <g id="line2d_2">
      <path d="M 187.38101 211.490781 
L 296.372512 102.499279 
" clip-path="url(#p475dd395a5)" style="fill: none; stroke: #b0b0b0; stroke-width: 0.8; stroke-linecap: square"/>
     </g>
     <g id="text_2">
      <!-- 45° -->
      <g transform="translate(297.409507 95.35916) scale(0.1 -0.1)">
       <defs>
        <path id="DejaVuSans-34" d="M 2419 4116 
L 825 1625 
L 2419 1625 
L 2419 4116 
z
M 2253 4666 
L 3047 4666 
L 3047 1625 
L 3713 1625 
L 3713 1100 
L 3047 1100 
L 3047 0 
L 2419 0 
L 2419 1100 
L 313 1100 
L 313 1709 
L 2253 4666 
z
" transform="scale(0.015625)"/>
        <path id="DejaVuSans-35" d="M 691 4666 
L 3169 4666 
L 3169 4134 
L 1269 4134 
L 1269 2991 
Q 1406 3038 1543 3061 
Q 1681 3084 1819 3084 
Q 2600 3084 3056 2656 
Q 3513 2228 3513 1497 
Q 3513 744 3044 326 
Q 2575 -91 1722 -91 
Q 1428 -91 1123 -41 
Q 819 9 494 109 
L 494 744 
Q 775 591 1075 516 
Q 1375 441 1709 441 
Q 2250 441 2565 725 
Q 2881 1009 2881 1497 
Q 2881 1984 2565 2268 
Q 2250 2553 1709 2553 
Q 1456 2553 1204 2497 
Q 953 2441 691 2322 
L 691 4666 
z
" transform="scale(0.015625)"/>
       </defs>
       <use xlink:href="#DejaVuSans-34"/>
       <use xlink:href="#DejaVuSans-35" x="63.623047"/>
       <use xlink:href="#DejaVuSans-b0" x="127.246094"/>
      </g>
     </g>
    </g>
    <g id="xtick_3">
     <g id="line2d_3">
      <path d="M 187.38101 211.490781 
L 187.38101 57.353521 
" clip-path="url(#p475dd395a5)" style="fill: none; stroke: #b0b0b0; stroke-width: 0.8; stroke-linecap: square"/>
     </g>
     <g id="text_3">
      <!-- 90° -->
      <g transform="translate(178.51851 46.112896) scale(0.1 -0.1)">
       <defs>
        <path id="DejaVuSans-39" d="M 703 97 
L 703 672 
Q 941 559 1184 500 
Q 1428 441 1663 441 
Q 2288 441 2617 861 
Q 2947 1281 2994 2138 
Q 2813 1869 2534 1725 
Q 2256 1581 1919 1581 
Q 1219 1581 811 2004 
Q 403 2428 403 3163 
Q 403 3881 828 4315 
Q 1253 4750 1959 4750 
Q 2769 4750 3195 4129 
Q 3622 3509 3622 2328 
Q 3622 1225 3098 567 
Q 2575 -91 1691 -91 
Q 1453 -91 1209 -44 
Q 966 3 703 97 
z
M 1959 2075 
Q 2384 2075 2632 2365 
Q 2881 2656 2881 3163 
Q 2881 3666 2632 3958 
Q 2384 4250 1959 4250 
Q 1534 4250 1286 3958 
Q 1038 3666 1038 3163 
Q 1038 2656 1286 2365 
Q 1534 2075 1959 2075 
z
" transform="scale(0.015625)"/>
       </defs>
       <use xlink:href="#DejaVuSans-39"/>
       <use xlink:href="#DejaVuSans-30" x="63.623047"/>
       <use xlink:href="#DejaVuSans-b0" x="127.246094"/>
      </g>
     </g>
    </g>
    <g id="xtick_4">
     <g id="line2d_4">
      <path d="M 187.38101 211.490781 
L 78.389508 102.499279 
" clip-path="url(#p475dd395a5)" style="fill: none; stroke: #b0b0b0; stroke-width: 0.8; stroke-linecap: square"/>
     </g>
     <g id="text_4">
      <!-- 135° -->
      <g transform="translate(56.446263 95.35916) scale(0.1 -0.1)">
       <defs>
        <path id="DejaVuSans-31" d="M 794 531 
L 1825 531 
L 1825 4091 
L 703 3866 
L 703 4441 
L 1819 4666 
L 2450 4666 
L 2450 531 
L 3481 531 
L 3481 0 
L 794 0 
L 794 531 
z
" transform="scale(0.015625)"/>
        <path id="DejaVuSans-33" d="M 2597 2516 
Q 3050 2419 3304 2112 
Q 3559 1806 3559 1356 
Q 3559 666 3084 287 
Q 2609 -91 1734 -91 
Q 1441 -91 1130 -33 
Q 819 25 488 141 
L 488 750 
Q 750 597 1062 519 
Q 1375 441 1716 441 
Q 2309 441 2620 675 
Q 2931 909 2931 1356 
Q 2931 1769 2642 2001 
Q 2353 2234 1838 2234 
L 1294 2234 
L 1294 2753 
L 1863 2753 
Q 2328 2753 2575 2939 
Q 2822 3125 2822 3475 
Q 2822 3834 2567 4026 
Q 2313 4219 1838 4219 
Q 1578 4219 1281 4162 
Q 984 4106 628 3988 
L 628 4550 
Q 988 4650 1302 4700 
Q 1616 4750 1894 4750 
Q 2613 4750 3031 4423 
Q 3450 4097 3450 3541 
Q 3450 3153 3228 2886 
Q 3006 2619 2597 2516 
z
" transform="scale(0.015625)"/>
       </defs>
       <use xlink:href="#DejaVuSans-31"/>
       <use xlink:href="#DejaVuSans-33" x="63.623047"/>
       <use xlink:href="#DejaVuSans-35" x="127.246094"/>
       <use xlink:href="#DejaVuSans-b0" x="190.869141"/>
      </g>
     </g>
    </g>
    <g id="xtick_5">
     <g id="line2d_5">
      <path d="M 187.38101 211.490781 
L 33.24375 211.490781 
" clip-path="url(#p475dd395a5)" style="fill: none; stroke: #b0b0b0; stroke-width: 0.8; stroke-linecap: square"/>
     </g>
     <g id="text_5">
      <!-- 180° -->
      <g transform="translate(7.2 214.250156) scale(0.1 -0.1)">
       <defs>
        <path id="DejaVuSans-38" d="M 2034 2216 
Q 1584 2216 1326 1975 
Q 1069 1734 1069 1313 
Q 1069 891 1326 650 
Q 1584 409 2034 409 
Q 2484 409 2743 651 
Q 3003 894 3003 1313 
Q 3003 1734 2745 1975 
Q 2488 2216 2034 2216 
z
M 1403 2484 
Q 997 2584 770 2862 
Q 544 3141 544 3541 
Q 544 4100 942 4425 
Q 1341 4750 2034 4750 
Q 2731 4750 3128 4425 
Q 3525 4100 3525 3541 
Q 3525 3141 3298 2862 
Q 3072 2584 2669 2484 
Q 3125 2378 3379 2068 
Q 3634 1759 3634 1313 
Q 3634 634 3220 271 
Q 2806 -91 2034 -91 
Q 1263 -91 848 271 
Q 434 634 434 1313 
Q 434 1759 690 2068 
Q 947 2378 1403 2484 
z
M 1172 3481 
Q 1172 3119 1398 2916 
Q 1625 2713 2034 2713 
Q 2441 2713 2670 2916 
Q 2900 3119 2900 3481 
Q 2900 3844 2670 4047 
Q 2441 4250 2034 4250 
Q 1625 4250 1398 4047 
Q 1172 3844 1172 3481 
z
" transform="scale(0.015625)"/>
       </defs>
       <use xlink:href="#DejaVuSans-31"/>
       <use xlink:href="#DejaVuSans-38" x="63.623047"/>
       <use xlink:href="#DejaVuSans-30" x="127.246094"/>
       <use xlink:href="#DejaVuSans-b0" x="190.869141"/>
      </g>
     </g>
    </g>
    <g id="xtick_6">
     <g id="line2d_6">
      <path d="M 187.38101 211.490781 
L 78.389508 320.482283 
" clip-path="url(#p475dd395a5)" style="fill: none; stroke: #b0b0b0; stroke-width: 0.8; stroke-linecap: square"/>
     </g>
     <g id="text_6">
      <!-- 225° -->
      <g transform="translate(56.446263 333.141153) scale(0.1 -0.1)">
       <defs>
        <path id="DejaVuSans-32" d="M 1228 531 
L 3431 531 
L 3431 0 
L 469 0 
L 469 531 
Q 828 903 1448 1529 
Q 2069 2156 2228 2338 
Q 2531 2678 2651 2914 
Q 2772 3150 2772 3378 
Q 2772 3750 2511 3984 
Q 2250 4219 1831 4219 
Q 1534 4219 1204 4116 
Q 875 4013 500 3803 
L 500 4441 
Q 881 4594 1212 4672 
Q 1544 4750 1819 4750 
Q 2544 4750 2975 4387 
Q 3406 4025 3406 3419 
Q 3406 3131 3298 2873 
Q 3191 2616 2906 2266 
Q 2828 2175 2409 1742 
Q 1991 1309 1228 531 
z
" transform="scale(0.015625)"/>
       </defs>
       <use xlink:href="#DejaVuSans-32"/>
       <use xlink:href="#DejaVuSans-32" x="63.623047"/>
       <use xlink:href="#DejaVuSans-35" x="127.246094"/>
       <use xlink:href="#DejaVuSans-b0" x="190.869141"/>
      </g>
     </g>
    </g>
    <g id="xtick_7">
     <g id="line2d_7">
      <path d="M 187.38101 211.490781 
L 187.38101 365.628041 
" clip-path="url(#p475dd395a5)" style="fill: none; stroke: #b0b0b0; stroke-width: 0.8; stroke-linecap: square"/>
     </g>
     <g id="text_7">
      <!-- 270° -->
      <g transform="translate(175.33726 382.387416) scale(0.1 -0.1)">
       <defs>
        <path id="DejaVuSans-37" d="M 525 4666 
L 3525 4666 
L 3525 4397 
L 1831 0 
L 1172 0 
L 2766 4134 
L 525 4134 
L 525 4666 
z
" transform="scale(0.015625)"/>
       </defs>
       <use xlink:href="#DejaVuSans-32"/>
       <use xlink:href="#DejaVuSans-37" x="63.623047"/>
       <use xlink:href="#DejaVuSans-30" x="127.246094"/>
       <use xlink:href="#DejaVuSans-b0" x="190.869141"/>
      </g>
     </g>
    </g>
    <g id="xtick_8">
     <g id="line2d_8">
      <path d="M 187.38101 211.490781 
L 296.372512 320.482283 
" clip-path="url(#p475dd395a5)" style="fill: none; stroke: #b0b0b0; stroke-width: 0.8; stroke-linecap: square"/>
     </g>
     <g id="text_8">
      <!-- 315° -->
      <g transform="translate(294.228257 333.141153) scale(0.1 -0.1)">
       <use xlink:href="#DejaVuSans-33"/>
       <use xlink:href="#DejaVuSans-31" x="63.623047"/>
       <use xlink:href="#DejaVuSans-35" x="127.246094"/>
       <use xlink:href="#DejaVuSans-b0" x="190.869141"/>
      </g>
     </g>
    </g>
   </g>
   <g id="matplotlib.axis_2">
    <g id="ytick_1">
     <g id="line2d_9">
      <path d="M 206.648167 211.490781 
C 206.648167 208.960641 206.149785 206.455104 205.181542 204.117559 
C 204.2133 201.780015 202.794027 199.655923 201.004948 197.866844 
C 199.215869 196.077764 197.091776 194.658491 194.754232 193.690249 
C 192.416687 192.722006 189.91115 192.223624 187.38101 192.223624 
C 184.85087 192.223624 182.345333 192.722006 180.007788 193.690249 
C 177.670244 194.658491 175.546151 196.077764 173.757072 197.866844 
C 171.967993 199.655923 170.54872 201.780015 169.580478 204.117559 
C 168.612235 206.455104 168.113853 208.960641 168.113853 211.490781 
C 168.113853 214.020921 168.612235 216.526459 169.580478 218.864003 
C 170.54872 221.201548 171.967993 223.32564 173.757072 225.114719 
C 175.546151 226.903798 177.670244 228.323071 180.007788 229.291314 
C 182.345333 230.259556 184.85087 230.757939 187.38101 230.757939 
C 189.91115 230.757939 192.416687 230.259556 194.754232 229.291314 
C 197.091776 228.323071 199.215869 226.903798 201.004948 225.114719 
C 202.794027 223.32564 204.2133 221.201548 205.181542 218.864003 
C 206.149785 216.526459 206.648167 214.020921 206.648167 211.490781 
" clip-path="url(#p475dd395a5)" style="fill: none; stroke: #b0b0b0; stroke-width: 0.8; stroke-linecap: square"/>
     </g>
     <g id="text_9">
      <!-- 0.05 -->
      <g transform="translate(195.515355 209.411094) scale(0.1 -0.1)">
       <defs>
        <path id="DejaVuSans-2e" d="M 684 794 
L 1344 794 
L 1344 0 
L 684 0 
L 684 794 
z
" transform="scale(0.015625)"/>
       </defs>
       <use xlink:href="#DejaVuSans-30"/>
       <use xlink:href="#DejaVuSans-2e" x="63.623047"/>
       <use xlink:href="#DejaVuSans-30" x="95.410156"/>
       <use xlink:href="#DejaVuSans-35" x="159.033203"/>
      </g>
     </g>
    </g>
    <g id="ytick_2">
     <g id="line2d_10">
      <path d="M 225.915325 211.490781 
C 225.915325 206.430501 224.91856 201.419426 222.982075 196.744337 
C 221.04559 192.069248 218.207044 187.821064 214.628885 184.242906 
C 211.050727 180.664748 206.802543 177.826202 202.127454 175.889716 
C 197.452365 173.953231 192.44129 172.956466 187.38101 172.956466 
C 182.32073 172.956466 177.309655 173.953231 172.634566 175.889716 
C 167.959477 177.826202 163.711293 180.664748 160.133135 184.242906 
C 156.554976 187.821064 153.71643 192.069248 151.779945 196.744337 
C 149.84346 201.419426 148.846695 206.430501 148.846695 211.490781 
C 148.846695 216.551061 149.84346 221.562136 151.779945 226.237225 
C 153.71643 230.912314 156.554976 235.160498 160.133135 238.738657 
C 163.711293 242.316815 167.959477 245.155361 172.634566 247.091846 
C 177.309655 249.028331 182.32073 250.025096 187.38101 250.025096 
C 192.44129 250.025096 197.452365 249.028331 202.127454 247.091846 
C 206.802543 245.155361 211.050727 242.316815 214.628885 238.738657 
C 218.207044 235.160498 221.04559 230.912314 222.982075 226.237225 
C 224.91856 221.562136 225.915325 216.551061 225.915325 211.490781 
" clip-path="url(#p475dd395a5)" style="fill: none; stroke: #b0b0b0; stroke-width: 0.8; stroke-linecap: square"/>
     </g>
    </g>
    <g id="ytick_3">
     <g id="line2d_11">
      <path d="M 245.182482 211.490781 
C 245.182482 203.900361 243.687335 196.383749 240.782607 189.371115 
C 237.877879 182.358482 233.62006 175.986205 228.252823 170.618968 
C 222.885586 165.251731 216.513309 160.993912 209.500676 158.089184 
C 202.488042 155.184456 194.97143 153.689309 187.38101 153.689309 
C 179.79059 153.689309 172.273978 155.184456 165.261344 158.089184 
C 158.248711 160.993912 151.876434 165.251731 146.509197 170.618968 
C 141.14196 175.986205 136.884141 182.358482 133.979413 189.371115 
C 131.074685 196.383749 129.579538 203.900361 129.579538 211.490781 
C 129.579538 219.081201 131.074685 226.597814 133.979413 233.610447 
C 136.884141 240.623081 141.14196 246.995357 146.509197 252.362594 
C 151.876434 257.729832 158.248711 261.987651 165.261344 264.892379 
C 172.273978 267.797107 179.79059 269.292254 187.38101 269.292254 
C 194.97143 269.292254 202.488042 267.797107 209.500676 264.892379 
C 216.513309 261.987651 222.885586 257.729832 228.252823 252.362594 
C 233.62006 246.995357 237.877879 240.623081 240.782607 233.610447 
C 243.687335 226.597814 245.182482 219.081201 245.182482 211.490781 
" clip-path="url(#p475dd395a5)" style="fill: none; stroke: #b0b0b0; stroke-width: 0.8; stroke-linecap: square"/>
     </g>
     <g id="text_10">
      <!-- 0.15 -->
      <g transform="translate(234.04967 209.411094) scale(0.1 -0.1)">
       <use xlink:href="#DejaVuSans-30"/>
       <use xlink:href="#DejaVuSans-2e" x="63.623047"/>
       <use xlink:href="#DejaVuSans-31" x="95.410156"/>
       <use xlink:href="#DejaVuSans-35" x="159.033203"/>
      </g>
     </g>
    </g>
    <g id="ytick_4">
     <g id="line2d_12">
      <path d="M 264.44964 211.490781 
C 264.44964 201.370221 262.45611 191.348071 258.58314 181.997893 
C 254.710169 172.647715 249.033077 164.151347 241.876761 156.99503 
C 234.720444 149.838714 226.224076 144.161622 216.873898 140.288651 
C 207.52372 136.415681 197.50157 134.422151 187.38101 134.422151 
C 177.26045 134.422151 167.2383 136.415681 157.888122 140.288651 
C 148.537944 144.161622 140.041576 149.838714 132.885259 156.99503 
C 125.728943 164.151347 120.051851 172.647715 116.17888 181.997893 
C 112.30591 191.348071 110.31238 201.370221 110.31238 211.490781 
C 110.31238 221.611341 112.30591 231.633491 116.17888 240.983669 
C 120.051851 250.333847 125.728943 258.830216 132.885259 265.986532 
C 140.041576 273.142849 148.537944 278.819941 157.888122 282.692911 
C 167.2383 286.565882 177.26045 288.559411 187.38101 288.559411 
C 197.50157 288.559411 207.52372 286.565882 216.873898 282.692911 
C 226.224076 278.819941 234.720444 273.142849 241.876761 265.986532 
C 249.033077 258.830216 254.710169 250.333847 258.58314 240.983669 
C 262.45611 231.633491 264.44964 221.611341 264.44964 211.490781 
" clip-path="url(#p475dd395a5)" style="fill: none; stroke: #b0b0b0; stroke-width: 0.8; stroke-linecap: square"/>
     </g>
    </g>
    <g id="ytick_5">
     <g id="line2d_13">
      <path d="M 283.716797 211.490781 
C 283.716797 198.840082 281.224886 186.312394 276.383672 174.624671 
C 271.542459 162.936949 264.446094 152.316488 255.500699 143.371093 
C 246.555303 134.425697 235.934842 127.329332 224.24712 122.488119 
C 212.559397 117.646906 200.03171 115.154994 187.38101 115.154994 
C 174.73031 115.154994 162.202623 117.646906 150.5149 122.488119 
C 138.827178 127.329332 128.206717 134.425697 119.261321 143.371093 
C 110.315926 152.316488 103.219561 162.936949 98.378348 174.624671 
C 93.537134 186.312394 91.045223 198.840082 91.045223 211.490781 
C 91.045223 224.141481 93.537134 236.669169 98.378348 248.356891 
C 103.219561 260.044614 110.315926 270.665074 119.261321 279.61047 
C 128.206717 288.555865 138.827178 295.65223 150.5149 300.493444 
C 162.202623 305.334657 174.73031 307.826569 187.38101 307.826569 
C 200.03171 307.826569 212.559397 305.334657 224.24712 300.493444 
C 235.934842 295.65223 246.555303 288.555865 255.500699 279.61047 
C 264.446094 270.665074 271.542459 260.044614 276.383672 248.356891 
C 281.224886 236.669169 283.716797 224.141481 283.716797 211.490781 
" clip-path="url(#p475dd395a5)" style="fill: none; stroke: #b0b0b0; stroke-width: 0.8; stroke-linecap: square"/>
     </g>
     <g id="text_11">
      <!-- 0.25 -->
      <g transform="translate(272.583985 209.411094) scale(0.1 -0.1)">
       <use xlink:href="#DejaVuSans-30"/>
       <use xlink:href="#DejaVuSans-2e" x="63.623047"/>
       <use xlink:href="#DejaVuSans-32" x="95.410156"/>
       <use xlink:href="#DejaVuSans-35" x="159.033203"/>
      </g>
     </g>
    </g>
    <g id="ytick_6">
     <g id="line2d_14">
      <path d="M 302.983955 211.490781 
C 302.983955 196.309942 299.993661 181.276717 294.184205 167.251449 
C 288.374749 153.226182 279.859111 140.48163 269.124636 129.747155 
C 258.390162 119.01268 245.645609 110.497042 231.620342 104.687586 
C 217.595075 98.878131 202.56185 95.887836 187.38101 95.887836 
C 172.20017 95.887836 157.166945 98.878131 143.141678 104.687586 
C 129.116411 110.497042 116.371858 119.01268 105.637384 129.747155 
C 94.902909 140.48163 86.387271 153.226182 80.577815 167.251449 
C 74.768359 181.276717 71.778065 196.309942 71.778065 211.490781 
C 71.778065 226.671621 74.768359 241.704846 80.577815 255.730113 
C 86.387271 269.75538 94.902909 282.499933 105.637384 293.234408 
C 116.371858 303.968882 129.116411 312.48452 143.141678 318.293976 
C 157.166945 324.103432 172.20017 327.093726 187.38101 327.093726 
C 202.56185 327.093726 217.595075 324.103432 231.620342 318.293976 
C 245.645609 312.48452 258.390162 303.968882 269.124636 293.234408 
C 279.859111 282.499933 288.374749 269.75538 294.184205 255.730113 
C 299.993661 241.704846 302.983955 226.671621 302.983955 211.490781 
" clip-path="url(#p475dd395a5)" style="fill: none; stroke: #b0b0b0; stroke-width: 0.8; stroke-linecap: square"/>
     </g>
    </g>
    <g id="ytick_7">
     <g id="line2d_15">
      <path d="M 322.251112 211.490781 
C 322.251112 193.779802 318.762436 176.241039 311.984737 159.878228 
C 305.207039 143.515416 295.272128 128.646771 282.748574 116.123217 
C 270.22502 103.599663 255.356375 93.664752 238.993564 86.887054 
C 222.630752 80.109356 205.09199 76.620679 187.38101 76.620679 
C 169.67003 76.620679 152.131268 80.109356 135.768456 86.887054 
C 119.405645 93.664752 104.537 103.599663 92.013446 116.123217 
C 79.489892 128.646771 69.554981 143.515416 62.777283 159.878228 
C 55.999584 176.241039 52.510908 193.779802 52.510908 211.490781 
C 52.510908 229.201761 55.999584 246.740523 62.777283 263.103335 
C 69.554981 279.466147 79.489892 294.334792 92.013446 306.858345 
C 104.537 319.381899 119.405645 329.31681 135.768456 336.094508 
C 152.131268 342.872207 169.67003 346.360884 187.38101 346.360884 
C 205.09199 346.360884 222.630752 342.872207 238.993564 336.094508 
C 255.356375 329.31681 270.22502 319.381899 282.748574 306.858345 
C 295.272128 294.334792 305.207039 279.466147 311.984737 263.103335 
C 318.762436 246.740523 322.251112 229.201761 322.251112 211.490781 
" clip-path="url(#p475dd395a5)" style="fill: none; stroke: #b0b0b0; stroke-width: 0.8; stroke-linecap: square"/>
     </g>
     <g id="text_12">
      <!-- 0.35 -->
      <g transform="translate(311.1183 209.411094) scale(0.1 -0.1)">
       <use xlink:href="#DejaVuSans-30"/>
       <use xlink:href="#DejaVuSans-2e" x="63.623047"/>
       <use xlink:href="#DejaVuSans-33" x="95.410156"/>
       <use xlink:href="#DejaVuSans-35" x="159.033203"/>
      </g>
     </g>
    </g>
    <g id="ytick_8">
     <g id="line2d_16">
      <path d="M 341.51827 211.490781 
C 341.51827 191.249662 337.531211 171.205362 329.78527 152.505006 
C 322.039329 133.804649 310.685145 116.811912 296.372512 102.499279 
C 282.059879 88.186647 265.067142 76.832463 246.366786 69.086522 
C 227.66643 61.34058 207.62213 57.353521 187.38101 57.353521 
C 167.13989 57.353521 147.09559 61.34058 128.395234 69.086522 
C 109.694878 76.832463 92.702141 88.186647 78.389508 102.499279 
C 64.076875 116.811912 52.722691 133.804649 44.97675 152.505006 
C 37.230809 171.205362 33.24375 191.249662 33.24375 211.490781 
C 33.24375 231.731901 37.230809 251.776201 44.97675 270.476557 
C 52.722691 289.176913 64.076875 306.16965 78.389508 320.482283 
C 92.702141 334.794916 109.694878 346.1491 128.395234 353.895041 
C 147.09559 361.640982 167.13989 365.628041 187.38101 365.628041 
C 207.62213 365.628041 227.66643 361.640982 246.366786 353.895041 
C 265.067142 346.1491 282.059879 334.794916 296.372512 320.482283 
C 310.685145 306.16965 322.039329 289.176913 329.78527 270.476557 
C 337.531211 251.776201 341.51827 231.731901 341.51827 211.490781 
" clip-path="url(#p475dd395a5)" style="fill: none; stroke: #b0b0b0; stroke-width: 0.8; stroke-linecap: square"/>
     </g>
    </g>
   </g>
   <g id="line2d_17">
    <path d="M 174.873937 331.536026 
L 175.131577 330.394889 
" clip-path="url(#p475dd395a5)" style="fill: none; stroke: #4e87ff; stroke-width: 1.5; stroke-linecap: square"/>
   </g>
   <g id="line2d_18">
    <path d="M 175.131577 330.394889 
L 175.451898 328.615921 
" clip-path="url(#p475dd395a5)" style="fill: none; stroke: #4e87ff; stroke-width: 1.5; stroke-linecap: square"/>
   </g>
   <g id="line2d_19">
    <path d="M 175.451898 328.615921 
L 175.766103 325.90113 
" clip-path="url(#p475dd395a5)" style="fill: none; stroke: #4e87ff; stroke-width: 1.5; stroke-linecap: square"/>
   </g>
   <g id="line2d_20">
    <path d="M 175.766103 325.90113 
L 175.894618 322.26614 
" clip-path="url(#p475dd395a5)" style="fill: none; stroke: #4e87ff; stroke-width: 1.5; stroke-linecap: square"/>
   </g>
   <g id="line2d_21">
    <path d="M 175.894618 322.26614 
L 175.658575 317.78896 
" clip-path="url(#p475dd395a5)" style="fill: none; stroke: #4c87ff; stroke-width: 1.5; stroke-linecap: square"/>
   </g>
   <g id="line2d_22">
    <path d="M 175.658575 317.78896 
L 174.925455 312.587003 
" clip-path="url(#p475dd395a5)" style="fill: none; stroke: #4988ff; stroke-width: 1.5; stroke-linecap: square"/>
   </g>
   <g id="line2d_23">
    <path d="M 174.925455 312.587003 
L 173.627951 306.795432 
" clip-path="url(#p475dd395a5)" style="fill: none; stroke: #4489ff; stroke-width: 1.5; stroke-linecap: square"/>
   </g>
   <g id="line2d_24">
    <path d="M 173.627951 306.795432 
L 171.759071 300.550188 
" clip-path="url(#p475dd395a5)" style="fill: none; stroke: #3c8aff; stroke-width: 1.5; stroke-linecap: square"/>
   </g>
   <g id="line2d_25">
    <path d="M 171.759071 300.550188 
L 169.355338 293.976985 
" clip-path="url(#p475dd395a5)" style="fill: none; stroke: #2d8cff; stroke-width: 1.5; stroke-linecap: square"/>
   </g>
   <g id="line2d_26">
    <path d="M 169.355338 293.976985 
L 166.478384 287.185634 
" clip-path="url(#p475dd395a5)" style="fill: none; stroke: #178fff; stroke-width: 1.5; stroke-linecap: square"/>
   </g>
   <g id="line2d_27">
    <path d="M 166.478384 287.185634 
L 163.2002 280.268238 
" clip-path="url(#p475dd395a5)" style="fill: none; stroke: #0093fe; stroke-width: 1.5; stroke-linecap: square"/>
   </g>
   <g id="line2d_28">
    <path d="M 163.2002 280.268238 
L 159.593294 273.299723 
" clip-path="url(#p475dd395a5)" style="fill: none; stroke: #0097f4; stroke-width: 1.5; stroke-linecap: square"/>
   </g>
   <g id="line2d_29">
    <path d="M 159.593294 273.299723 
L 155.725064 266.339572 
" clip-path="url(#p475dd395a5)" style="fill: none; stroke: #009bea; stroke-width: 1.5; stroke-linecap: square"/>
   </g>
   <g id="line2d_30">
    <path d="M 155.725064 266.339572 
L 151.655143 259.434006 
" clip-path="url(#p475dd395a5)" style="fill: none; stroke: #009ee0; stroke-width: 1.5; stroke-linecap: square"/>
   </g>
   <g id="line2d_31">
    <path d="M 151.655143 259.434006 
L 147.434606 252.618172 
" clip-path="url(#p475dd395a5)" style="fill: none; stroke: #00a1d5; stroke-width: 1.5; stroke-linecap: square"/>
   </g>
   <g id="line2d_32">
    <path d="M 147.434606 252.618172 
L 143.106213 245.918155 
" clip-path="url(#p475dd395a5)" style="fill: none; stroke: #00a4c8; stroke-width: 1.5; stroke-linecap: square"/>
   </g>
   <g id="line2d_33">
    <path d="M 143.106213 245.918155 
L 138.705163 239.35272 
" clip-path="url(#p475dd395a5)" style="fill: none; stroke: #00a6bd; stroke-width: 1.5; stroke-linecap: square"/>
   </g>
   <g id="line2d_34">
    <path d="M 138.705163 239.35272 
L 134.260044 232.93478 
" clip-path="url(#p475dd395a5)" style="fill: none; stroke: #00a7b3; stroke-width: 1.5; stroke-linecap: square"/>
   </g>
   <g id="line2d_35">
    <path d="M 134.260044 232.93478 
L 129.79381 226.672605 
" clip-path="url(#p475dd395a5)" style="fill: none; stroke: #00a9a9; stroke-width: 1.5; stroke-linecap: square"/>
   </g>
   <g id="line2d_36">
    <path d="M 129.79381 226.672605 
L 127.588932 219.903342 
" clip-path="url(#p475dd395a5)" style="fill: none; stroke: #00aaa0; stroke-width: 1.5; stroke-linecap: square"/>
   </g>
   <g id="line2d_37">
    <path d="M 127.588932 219.903342 
L 125.325456 213.187636 
" clip-path="url(#p475dd395a5)" style="fill: none; stroke: #00ab97; stroke-width: 1.5; stroke-linecap: square"/>
   </g>
   <g id="line2d_38">
    <path d="M 125.325456 213.187636 
L 123.015715 206.551091 
" clip-path="url(#p475dd395a5)" style="fill: none; stroke: #00ac8d; stroke-width: 1.5; stroke-linecap: square"/>
   </g>
   <g id="line2d_39">
    <path d="M 123.015715 206.551091 
L 120.67451 200.023127 
" clip-path="url(#p475dd395a5)" style="fill: none; stroke: #00ad83; stroke-width: 1.5; stroke-linecap: square"/>
   </g>
   <g id="line2d_40">
    <path d="M 120.67451 200.023127 
L 118.319286 193.637233 
" clip-path="url(#p475dd395a5)" style="fill: none; stroke: #00ae79; stroke-width: 1.5; stroke-linecap: square"/>
   </g>
   <g id="line2d_41">
    <path d="M 118.319286 193.637233 
L 115.97022 187.431079 
" clip-path="url(#p475dd395a5)" style="fill: none; stroke: #00af6e; stroke-width: 1.5; stroke-linecap: square"/>
   </g>
   <g id="line2d_42">
    <path d="M 115.97022 187.431079 
L 113.650219 181.446459 
" clip-path="url(#p475dd395a5)" style="fill: none; stroke: #00b064; stroke-width: 1.5; stroke-linecap: square"/>
   </g>
   <g id="line2d_43">
    <path d="M 113.650219 181.446459 
L 111.384747 175.728929 
" clip-path="url(#p475dd395a5)" style="fill: none; stroke: #00b158; stroke-width: 1.5; stroke-linecap: square"/>
   </g>
   <g id="line2d_44">
    <path d="M 111.384747 175.728929 
L 109.20144 170.327077 
" clip-path="url(#p475dd395a5)" style="fill: none; stroke: #00b14d; stroke-width: 1.5; stroke-linecap: square"/>
   </g>
   <g id="line2d_45">
    <path d="M 109.20144 170.327077 
L 107.129445 165.291289 
" clip-path="url(#p475dd395a5)" style="fill: none; stroke: #00b240; stroke-width: 1.5; stroke-linecap: square"/>
   </g>
   <g id="line2d_46">
    <path d="M 107.129445 165.291289 
L 105.198436 160.671939 
" clip-path="url(#p475dd395a5)" style="fill: none; stroke: #00b232; stroke-width: 1.5; stroke-linecap: square"/>
   </g>
   <g id="line2d_47">
    <path d="M 105.198436 160.671939 
L 103.437284 156.516958 
" clip-path="url(#p475dd395a5)" style="fill: none; stroke: #00b322; stroke-width: 1.5; stroke-linecap: square"/>
   </g>
   <g id="line2d_48">
    <path d="M 103.437284 156.516958 
L 101.87242 152.868828 
" clip-path="url(#p475dd395a5)" style="fill: none; stroke: #00b307; stroke-width: 1.5; stroke-linecap: square"/>
   </g>
   <g id="line2d_49">
    <path d="M 101.87242 152.868828 
L 100.525958 149.761144 
" clip-path="url(#p475dd395a5)" style="fill: none; stroke: #00b300; stroke-width: 1.5; stroke-linecap: square"/>
   </g>
   <g id="line2d_50">
    <path d="M 100.525958 149.761144 
L 99.41374 147.214997 
" clip-path="url(#p475dd395a5)" style="fill: none; stroke: #00b300; stroke-width: 1.5; stroke-linecap: square"/>
   </g>
   <g id="line2d_51">
    <path d="M 99.41374 147.214997 
L 98.543473 145.235459 
" clip-path="url(#p475dd395a5)" style="fill: none; stroke: #00b200; stroke-width: 1.5; stroke-linecap: square"/>
   </g>
   <g id="line2d_52">
    <path d="M 98.543473 145.235459 
L 97.913086 143.808342 
" clip-path="url(#p475dd395a5)" style="fill: none; stroke: #00b200; stroke-width: 1.5; stroke-linecap: square"/>
   </g>
   <g id="line2d_53">
    <path d="M 97.913086 143.808342 
L 97.509218 142.896971 
" clip-path="url(#p475dd395a5)" style="fill: none; stroke: #00b200; stroke-width: 1.5; stroke-linecap: square"/>
   </g>
   <g id="line2d_54">
    <path d="M 97.509218 142.896971 
L 97.254033 142.322285 
" clip-path="url(#p475dd395a5)" style="fill: none; stroke: #00b200; stroke-width: 1.5; stroke-linecap: square"/>
   </g>
   <g id="line2d_55">
    <path d="M 97.254033 142.322285 
L 97.609014 142.287771 
" clip-path="url(#p475dd395a5)" style="fill: none; stroke: #00b200; stroke-width: 1.5; stroke-linecap: square"/>
   </g>
   <g id="line2d_56">
    <path d="M 97.609014 142.287771 
L 98.174547 142.232638 
" clip-path="url(#p475dd395a5)" style="fill: none; stroke: #00b200; stroke-width: 1.5; stroke-linecap: square"/>
   </g>
   <g id="line2d_57">
    <path d="M 98.174547 142.232638 
L 99.066435 142.145319 
" clip-path="url(#p475dd395a5)" style="fill: none; stroke: #00b200; stroke-width: 1.5; stroke-linecap: square"/>
   </g>
   <g id="line2d_58">
    <path d="M 99.066435 142.145319 
L 100.316204 142.022197 
" clip-path="url(#p475dd395a5)" style="fill: none; stroke: #00b100; stroke-width: 1.5; stroke-linecap: square"/>
   </g>
   <g id="line2d_59">
    <path d="M 100.316204 142.022197 
L 101.944989 141.860384 
" clip-path="url(#p475dd395a5)" style="fill: none; stroke: #00b100; stroke-width: 1.5; stroke-linecap: square"/>
   </g>
   <g id="line2d_60">
    <path d="M 101.944989 141.860384 
L 103.964838 141.657573 
" clip-path="url(#p475dd395a5)" style="fill: none; stroke: #0ab000; stroke-width: 1.5; stroke-linecap: square"/>
   </g>
   <g id="line2d_61">
    <path d="M 103.964838 141.657573 
L 106.37953 141.411957 
" clip-path="url(#p475dd395a5)" style="fill: none; stroke: #23af00; stroke-width: 1.5; stroke-linecap: square"/>
   </g>
   <g id="line2d_62">
    <path d="M 106.37953 141.411957 
L 109.185296 141.122175 
" clip-path="url(#p475dd395a5)" style="fill: none; stroke: #33ae00; stroke-width: 1.5; stroke-linecap: square"/>
   </g>
   <g id="line2d_63">
    <path d="M 109.185296 141.122175 
L 112.371593 140.787273 
" clip-path="url(#p475dd395a5)" style="fill: none; stroke: #40ad00; stroke-width: 1.5; stroke-linecap: square"/>
   </g>
   <g id="line2d_64">
    <path d="M 112.371593 140.787273 
L 115.921965 140.406669 
" clip-path="url(#p475dd395a5)" style="fill: none; stroke: #4bab00; stroke-width: 1.5; stroke-linecap: square"/>
   </g>
   <g id="line2d_65">
    <path d="M 115.921965 140.406669 
L 119.815002 139.980124 
" clip-path="url(#p475dd395a5)" style="fill: none; stroke: #56aa00; stroke-width: 1.5; stroke-linecap: square"/>
   </g>
   <g id="line2d_66">
    <path d="M 119.815002 139.980124 
L 124.025358 139.50771 
" clip-path="url(#p475dd395a5)" style="fill: none; stroke: #60a800; stroke-width: 1.5; stroke-linecap: square"/>
   </g>
   <g id="line2d_67">
    <path d="M 124.025358 139.50771 
L 128.524785 138.989775 
" clip-path="url(#p475dd395a5)" style="fill: none; stroke: #69a600; stroke-width: 1.5; stroke-linecap: square"/>
   </g>
   <g id="line2d_68">
    <path d="M 128.524785 138.989775 
L 133.283134 138.426919 
" clip-path="url(#p475dd395a5)" style="fill: none; stroke: #72a400; stroke-width: 1.5; stroke-linecap: square"/>
   </g>
   <g id="line2d_69">
    <path d="M 133.283134 138.426919 
L 138.269296 137.819958 
" clip-path="url(#p475dd395a5)" style="fill: none; stroke: #7ba100; stroke-width: 1.5; stroke-linecap: square"/>
   </g>
   <g id="line2d_70">
    <path d="M 138.269296 137.819958 
L 143.452032 137.169894 
" clip-path="url(#p475dd395a5)" style="fill: none; stroke: #839f00; stroke-width: 1.5; stroke-linecap: square"/>
   </g>
   <g id="line2d_71">
    <path d="M 143.452032 137.169894 
L 148.800688 136.477886 
" clip-path="url(#p475dd395a5)" style="fill: none; stroke: #8a9d00; stroke-width: 1.5; stroke-linecap: square"/>
   </g>
   <g id="line2d_72">
    <path d="M 148.800688 136.477886 
L 154.285776 135.745224 
" clip-path="url(#p475dd395a5)" style="fill: none; stroke: #929a00; stroke-width: 1.5; stroke-linecap: square"/>
   </g>
   <g id="line2d_73">
    <path d="M 154.285776 135.745224 
L 159.879423 134.973301 
" clip-path="url(#p475dd395a5)" style="fill: none; stroke: #999800; stroke-width: 1.5; stroke-linecap: square"/>
   </g>
   <g id="line2d_74">
    <path d="M 159.879423 134.973301 
L 166.719018 137.223659 
" clip-path="url(#p475dd395a5)" style="fill: none; stroke: #9f9500; stroke-width: 1.5; stroke-linecap: square"/>
   </g>
   <g id="line2d_75">
    <path d="M 166.719018 137.223659 
L 173.762528 139.445547 
" clip-path="url(#p475dd395a5)" style="fill: none; stroke: #a79200; stroke-width: 1.5; stroke-linecap: square"/>
   </g>
   <g id="line2d_76">
    <path d="M 173.762528 139.445547 
L 181.002788 141.632765 
" clip-path="url(#p475dd395a5)" style="fill: none; stroke: #ae8e00; stroke-width: 1.5; stroke-linecap: square"/>
   </g>
   <g id="line2d_77">
    <path d="M 181.002788 141.632765 
L 188.42535 143.778078 
" clip-path="url(#p475dd395a5)" style="fill: none; stroke: #b68a00; stroke-width: 1.5; stroke-linecap: square"/>
   </g>
   <g id="line2d_78">
    <path d="M 188.42535 143.778078 
L 196.006369 145.873075 
" clip-path="url(#p475dd395a5)" style="fill: none; stroke: #be8500; stroke-width: 1.5; stroke-linecap: square"/>
   </g>
   <g id="line2d_79">
    <path d="M 196.006369 145.873075 
L 203.710227 147.908042 
" clip-path="url(#p475dd395a5)" style="fill: none; stroke: #c78000; stroke-width: 1.5; stroke-linecap: square"/>
   </g>
   <g id="line2d_80">
    <path d="M 203.710227 147.908042 
L 211.487026 149.871851 
" clip-path="url(#p475dd395a5)" style="fill: none; stroke: #d07a00; stroke-width: 1.5; stroke-linecap: square"/>
   </g>
   <g id="line2d_81">
    <path d="M 211.487026 149.871851 
L 219.270206 151.751906 
" clip-path="url(#p475dd395a5)" style="fill: none; stroke: #d87200; stroke-width: 1.5; stroke-linecap: square"/>
   </g>
   <g id="line2d_82">
    <path d="M 219.270206 151.751906 
L 226.974714 153.534178 
" clip-path="url(#p475dd395a5)" style="fill: none; stroke: #e16b00; stroke-width: 1.5; stroke-linecap: square"/>
   </g>
   <g id="line2d_83">
    <path d="M 226.974714 153.534178 
L 234.496299 155.203377 
" clip-path="url(#p475dd395a5)" style="fill: none; stroke: #e86300; stroke-width: 1.5; stroke-linecap: square"/>
   </g>
   <g id="line2d_84">
    <path d="M 234.496299 155.203377 
L 241.7127 156.743334 
" clip-path="url(#p475dd395a5)" style="fill: none; stroke: #ee5c00; stroke-width: 1.5; stroke-linecap: square"/>
   </g>
   <g id="line2d_85">
    <path d="M 241.7127 156.743334 
L 248.487531 158.137645 
" clip-path="url(#p475dd395a5)" style="fill: none; stroke: #f45300; stroke-width: 1.5; stroke-linecap: square"/>
   </g>
   <g id="line2d_86">
    <path d="M 248.487531 158.137645 
L 254.677517 159.370633 
" clip-path="url(#p475dd395a5)" style="fill: none; stroke: #f94b00; stroke-width: 1.5; stroke-linecap: square"/>
   </g>
   <g id="line2d_87">
    <path d="M 254.677517 159.370633 
L 260.14329 160.428626 
" clip-path="url(#p475dd395a5)" style="fill: none; stroke: #fe4200; stroke-width: 1.5; stroke-linecap: square"/>
   </g>
   <g id="line2d_88">
    <path d="M 260.14329 160.428626 
L 264.763195 161.301501 
" clip-path="url(#p475dd395a5)" style="fill: none; stroke: #ff3907; stroke-width: 1.5; stroke-linecap: square"/>
   </g>
   <g id="line2d_89">
    <path d="M 264.763195 161.301501 
L 268.448627 161.984354 
" clip-path="url(#p475dd395a5)" style="fill: none; stroke: #ff310e; stroke-width: 1.5; stroke-linecap: square"/>
   </g>
   <g id="line2d_90">
    <path d="M 268.448627 161.984354 
L 271.158872 162.47915 
" clip-path="url(#p475dd395a5)" style="fill: none; stroke: #ff2912; stroke-width: 1.5; stroke-linecap: square"/>
   </g>
   <g id="line2d_91">
    <path d="M 271.158872 162.47915 
L 272.913864 162.796303 
" clip-path="url(#p475dd395a5)" style="fill: none; stroke: #ff2415; stroke-width: 1.5; stroke-linecap: square"/>
   </g>
   <g id="line2d_92">
    <path d="M 272.913864 162.796303 
L 274.030453 162.99678 
" clip-path="url(#p475dd395a5)" style="fill: none; stroke: #ff2117; stroke-width: 1.5; stroke-linecap: square"/>
   </g>
   <g id="line2d_93">
    <path d="M 274.030453 162.99678 
L 274.496096 164.23357 
" clip-path="url(#p475dd395a5)" style="fill: none; stroke: #ff211e; stroke-width: 1.5; stroke-linecap: square"/>
   </g>
   <g id="line2d_94">
    <path d="M 274.496096 164.23357 
L 275.212185 166.158863 
" clip-path="url(#p475dd395a5)" style="fill: none; stroke: #ff1f27; stroke-width: 1.5; stroke-linecap: square"/>
   </g>
   <g id="line2d_95">
    <path d="M 275.212185 166.158863 
L 276.281855 169.090939 
" clip-path="url(#p475dd395a5)" style="fill: none; stroke: #ff1e32; stroke-width: 1.5; stroke-linecap: square"/>
   </g>
   <g id="line2d_96">
    <path d="M 276.281855 169.090939 
L 277.670171 173.006882 
" clip-path="url(#p475dd395a5)" style="fill: none; stroke: #ff1d3e; stroke-width: 1.5; stroke-linecap: square"/>
   </g>
   <g id="line2d_97">
    <path d="M 277.670171 173.006882 
L 279.310468 177.817158 
" clip-path="url(#p475dd395a5)" style="fill: none; stroke: #ff1c4a; stroke-width: 1.5; stroke-linecap: square"/>
   </g>
   <g id="line2d_98">
    <path d="M 279.310468 177.817158 
L 281.118458 183.392481 
" clip-path="url(#p475dd395a5)" style="fill: none; stroke: #ff1a57; stroke-width: 1.5; stroke-linecap: square"/>
   </g>
   <g id="line2d_99">
    <path d="M 281.118458 183.392481 
L 283.00533 189.5882 
" clip-path="url(#p475dd395a5)" style="fill: none; stroke: #ff1863; stroke-width: 1.5; stroke-linecap: square"/>
   </g>
   <g id="line2d_100">
    <path d="M 283.00533 189.5882 
L 284.887519 196.262383 
" clip-path="url(#p475dd395a5)" style="fill: none; stroke: #ff1570; stroke-width: 1.5; stroke-linecap: square"/>
   </g>
   <g id="line2d_101">
    <path d="M 284.887519 196.262383 
L 286.6925 203.286699 
" clip-path="url(#p475dd395a5)" style="fill: none; stroke: #ff117c; stroke-width: 1.5; stroke-linecap: square"/>
   </g>
   <g id="line2d_102">
    <path d="M 286.6925 203.286699 
L 288.361245 210.551302 
" clip-path="url(#p475dd395a5)" style="fill: none; stroke: #ff0d89; stroke-width: 1.5; stroke-linecap: square"/>
   </g>
   <g id="line2d_103">
    <path d="M 288.361245 210.551302 
L 289.848436 217.965714 
" clip-path="url(#p475dd395a5)" style="fill: none; stroke: #ff0695; stroke-width: 1.5; stroke-linecap: square"/>
   </g>
   <g id="line2d_104">
    <path d="M 289.848436 217.965714 
L 291.121409 225.457476 
" clip-path="url(#p475dd395a5)" style="fill: none; stroke: #ff00a1; stroke-width: 1.5; stroke-linecap: square"/>
   </g>
   <g id="line2d_105">
    <path d="M 291.121409 225.457476 
L 292.158527 232.969825 
" clip-path="url(#p475dd395a5)" style="fill: none; stroke: #fd00ad; stroke-width: 1.5; stroke-linecap: square"/>
   </g>
   <g id="line2d_106">
    <path d="M 292.158527 232.969825 
L 292.947407 240.45913 
" clip-path="url(#p475dd395a5)" style="fill: none; stroke: #fb00b8; stroke-width: 1.5; stroke-linecap: square"/>
   </g>
   <g id="line2d_107">
    <path d="M 292.947407 240.45913 
L 293.483216 247.892478 
" clip-path="url(#p475dd395a5)" style="fill: none; stroke: #f800c4; stroke-width: 1.5; stroke-linecap: square"/>
   </g>
   <g id="line2d_108">
    <path d="M 293.483216 247.892478 
L 293.767144 255.245553 
" clip-path="url(#p475dd395a5)" style="fill: none; stroke: #f600cf; stroke-width: 1.5; stroke-linecap: square"/>
   </g>
   <g id="line2d_109">
    <path d="M 293.767144 255.245553 
L 293.805068 262.500866 
" clip-path="url(#p475dd395a5)" style="fill: none; stroke: #f400da; stroke-width: 1.5; stroke-linecap: square"/>
   </g>
   <g id="line2d_110">
    <path d="M 293.805068 262.500866 
L 293.606423 269.646297 
" clip-path="url(#p475dd395a5)" style="fill: none; stroke: #f100e4; stroke-width: 1.5; stroke-linecap: square"/>
   </g>
   <g id="line2d_111">
    <path d="M 293.606423 269.646297 
L 293.183255 276.67392 
" clip-path="url(#p475dd395a5)" style="fill: none; stroke: #ee00ef; stroke-width: 1.5; stroke-linecap: square"/>
   </g>
   <g id="line2d_112">
    <path d="M 293.183255 276.67392 
L 288.293508 281.032086 
" clip-path="url(#p475dd395a5)" style="fill: none; stroke: #e800f6; stroke-width: 1.5; stroke-linecap: square"/>
   </g>
   <g id="line2d_113">
    <path d="M 288.293508 281.032086 
L 283.113078 285.36499 
" clip-path="url(#p475dd395a5)" style="fill: none; stroke: #e200fd; stroke-width: 1.5; stroke-linecap: square"/>
   </g>
   <g id="line2d_114">
    <path d="M 283.113078 285.36499 
L 277.614596 289.654844 
" clip-path="url(#p475dd395a5)" style="fill: none; stroke: #db13ff; stroke-width: 1.5; stroke-linecap: square"/>
   </g>
   <g id="line2d_115">
    <path d="M 277.614596 289.654844 
L 271.771762 293.881386 
" clip-path="url(#p475dd395a5)" style="fill: none; stroke: #d423ff; stroke-width: 1.5; stroke-linecap: square"/>
   </g>
   <g id="line2d_116">
    <path d="M 271.771762 293.881386 
L 265.561358 298.021762 
" clip-path="url(#p475dd395a5)" style="fill: none; stroke: #ca38ff; stroke-width: 1.5; stroke-linecap: square"/>
   </g>
   <g id="line2d_117">
    <path d="M 265.561358 298.021762 
L 258.96617 302.050508 
" clip-path="url(#p475dd395a5)" style="fill: none; stroke: #c048ff; stroke-width: 1.5; stroke-linecap: square"/>
   </g>
   <g id="line2d_118">
    <path d="M 258.96617 302.050508 
L 251.9791 305.939646 
" clip-path="url(#p475dd395a5)" style="fill: none; stroke: #b654ff; stroke-width: 1.5; stroke-linecap: square"/>
   </g>
   <g id="line2d_119">
    <path d="M 251.9791 305.939646 
L 244.608723 309.658963 
" clip-path="url(#p475dd395a5)" style="fill: none; stroke: #ac5dff; stroke-width: 1.5; stroke-linecap: square"/>
   </g>
   <g id="line2d_120">
    <path d="M 244.608723 309.658963 
L 236.886489 313.176507 
" clip-path="url(#p475dd395a5)" style="fill: none; stroke: #a265ff; stroke-width: 1.5; stroke-linecap: square"/>
   </g>
   <g id="line2d_121">
    <path d="M 236.886489 313.176507 
L 228.875524 316.459366 
" clip-path="url(#p475dd395a5)" style="fill: none; stroke: #986bff; stroke-width: 1.5; stroke-linecap: square"/>
   </g>
   <g id="line2d_122">
    <path d="M 228.875524 316.459366 
L 220.680467 319.474758 
" clip-path="url(#p475dd395a5)" style="fill: none; stroke: #8e71ff; stroke-width: 1.5; stroke-linecap: square"/>
   </g>
   <g id="line2d_123">
    <path d="M 220.680467 319.474758 
L 212.456855 322.191451 
" clip-path="url(#p475dd395a5)" style="fill: none; stroke: #8376ff; stroke-width: 1.5; stroke-linecap: square"/>
   </g>
   <g id="line2d_124">
    <path d="M 212.456855 322.191451 
L 204.417133 324.581501 
" clip-path="url(#p475dd395a5)" style="fill: none; stroke: #797aff; stroke-width: 1.5; stroke-linecap: square"/>
   </g>
   <g id="line2d_125">
    <path d="M 204.417133 324.581501 
L 196.828557 326.622274 
" clip-path="url(#p475dd395a5)" style="fill: none; stroke: #6f7eff; stroke-width: 1.5; stroke-linecap: square"/>
   </g>
   <g id="line2d_126">
    <path d="M 196.828557 326.622274 
L 189.996974 328.298676 
" clip-path="url(#p475dd395a5)" style="fill: none; stroke: #6681ff; stroke-width: 1.5; stroke-linecap: square"/>
   </g>
   <g id="line2d_127">
    <path d="M 189.996974 328.298676 
L 184.231362 329.605527 
" clip-path="url(#p475dd395a5)" style="fill: none; stroke: #5d83ff; stroke-width: 1.5; stroke-linecap: square"/>
   </g>
   <g id="line2d_128">
    <path d="M 184.231362 329.605527 
L 179.789246 330.550024 
" clip-path="url(#p475dd395a5)" style="fill: none; stroke: #5685ff; stroke-width: 1.5; stroke-linecap: square"/>
   </g>
   <g id="line2d_129">
    <path d="M 179.789246 330.550024 
L 176.81218 331.154391 
" clip-path="url(#p475dd395a5)" style="fill: none; stroke: #5186ff; stroke-width: 1.5; stroke-linecap: square"/>
   </g>
   <g id="line2d_130">
    <path d="M 176.81218 331.154391 
L 174.873937 331.536026 
" clip-path="url(#p475dd395a5)" style="fill: none; stroke: #4e87ff; stroke-width: 1.5; stroke-linecap: square"/>
   </g>
   <g id="line2d_131">
    <path d="M 174.476965 335.346237 
L 174.327685 334.295461 
" clip-path="url(#p475dd395a5)" style="fill: none; stroke: #4d87ff; stroke-width: 1.5; stroke-linecap: square"/>
   </g>
   <g id="line2d_132">
    <path d="M 174.327685 334.295461 
L 174.049566 332.651054 
" clip-path="url(#p475dd395a5)" style="fill: none; stroke: #4c87ff; stroke-width: 1.5; stroke-linecap: square"/>
   </g>
   <g id="line2d_133">
    <path d="M 174.049566 332.651054 
L 173.524265 330.127279 
" clip-path="url(#p475dd395a5)" style="fill: none; stroke: #4b88ff; stroke-width: 1.5; stroke-linecap: square"/>
   </g>
   <g id="line2d_134">
    <path d="M 173.524265 330.127279 
L 172.644219 326.722146 
" clip-path="url(#p475dd395a5)" style="fill: none; stroke: #4888ff; stroke-width: 1.5; stroke-linecap: square"/>
   </g>
   <g id="line2d_135">
    <path d="M 172.644219 326.722146 
L 171.308248 322.489551 
" clip-path="url(#p475dd395a5)" style="fill: none; stroke: #4489ff; stroke-width: 1.5; stroke-linecap: square"/>
   </g>
   <g id="line2d_136">
    <path d="M 171.308248 322.489551 
L 169.44428 317.521662 
" clip-path="url(#p475dd395a5)" style="fill: none; stroke: #3e8aff; stroke-width: 1.5; stroke-linecap: square"/>
   </g>
   <g id="line2d_137">
    <path d="M 169.44428 317.521662 
L 167.020767 311.931414 
" clip-path="url(#p475dd395a5)" style="fill: none; stroke: #338bff; stroke-width: 1.5; stroke-linecap: square"/>
   </g>
   <g id="line2d_138">
    <path d="M 167.020767 311.931414 
L 164.045487 305.83774 
" clip-path="url(#p475dd395a5)" style="fill: none; stroke: #208dff; stroke-width: 1.5; stroke-linecap: square"/>
   </g>
   <g id="line2d_139">
    <path d="M 164.045487 305.83774 
L 160.556383 299.355029 
" clip-path="url(#p475dd395a5)" style="fill: none; stroke: #0090ff; stroke-width: 1.5; stroke-linecap: square"/>
   </g>
   <g id="line2d_140">
    <path d="M 160.556383 299.355029 
L 156.610021 292.586835 
" clip-path="url(#p475dd395a5)" style="fill: none; stroke: #0093ff; stroke-width: 1.5; stroke-linecap: square"/>
   </g>
   <g id="line2d_141">
    <path d="M 156.610021 292.586835 
L 152.271366 285.623006 
" clip-path="url(#p475dd395a5)" style="fill: none; stroke: #0097fd; stroke-width: 1.5; stroke-linecap: square"/>
   </g>
   <g id="line2d_142">
    <path d="M 152.271366 285.623006 
L 147.606322 278.539137 
" clip-path="url(#p475dd395a5)" style="fill: none; stroke: #009bef; stroke-width: 1.5; stroke-linecap: square"/>
   </g>
   <g id="line2d_143">
    <path d="M 147.606322 278.539137 
L 142.677083 271.397368 
" clip-path="url(#p475dd395a5)" style="fill: none; stroke: #009ee2; stroke-width: 1.5; stroke-linecap: square"/>
   </g>
   <g id="line2d_144">
    <path d="M 142.677083 271.397368 
L 137.539677 264.247848 
" clip-path="url(#p475dd395a5)" style="fill: none; stroke: #00a1d6; stroke-width: 1.5; stroke-linecap: square"/>
   </g>
   <g id="line2d_145">
    <path d="M 137.539677 264.247848 
L 132.24301 257.130406 
" clip-path="url(#p475dd395a5)" style="fill: none; stroke: #00a3cb; stroke-width: 1.5; stroke-linecap: square"/>
   </g>
   <g id="line2d_146">
    <path d="M 132.24301 257.130406 
L 126.828835 250.076194 
" clip-path="url(#p475dd395a5)" style="fill: none; stroke: #00a5c1; stroke-width: 1.5; stroke-linecap: square"/>
   </g>
   <g id="line2d_147">
    <path d="M 126.828835 250.076194 
L 121.332218 243.10918 
" clip-path="url(#p475dd395a5)" style="fill: none; stroke: #00a7b7; stroke-width: 1.5; stroke-linecap: square"/>
   </g>
   <g id="line2d_148">
    <path d="M 121.332218 243.10918 
L 115.78224 236.247437 
" clip-path="url(#p475dd395a5)" style="fill: none; stroke: #00a8af; stroke-width: 1.5; stroke-linecap: square"/>
   </g>
   <g id="line2d_149">
    <path d="M 115.78224 236.247437 
L 110.202766 229.504244 
" clip-path="url(#p475dd395a5)" style="fill: none; stroke: #00a9a7; stroke-width: 1.5; stroke-linecap: square"/>
   </g>
   <g id="line2d_150">
    <path d="M 110.202766 229.504244 
L 107.65161 222.10188 
" clip-path="url(#p475dd395a5)" style="fill: none; stroke: #00aa9f; stroke-width: 1.5; stroke-linecap: square"/>
   </g>
   <g id="line2d_151">
    <path d="M 107.65161 222.10188 
L 105.018717 214.707706 
" clip-path="url(#p475dd395a5)" style="fill: none; stroke: #00ab98; stroke-width: 1.5; stroke-linecap: square"/>
   </g>
   <g id="line2d_152">
    <path d="M 105.018717 214.707706 
L 102.315277 207.345973 
" clip-path="url(#p475dd395a5)" style="fill: none; stroke: #00ac90; stroke-width: 1.5; stroke-linecap: square"/>
   </g>
   <g id="line2d_153">
    <path d="M 102.315277 207.345973 
L 99.555418 200.045599 
" clip-path="url(#p475dd395a5)" style="fill: none; stroke: #00ad87; stroke-width: 1.5; stroke-linecap: square"/>
   </g>
   <g id="line2d_154">
    <path d="M 99.555418 200.045599 
L 96.756585 192.840776 
" clip-path="url(#p475dd395a5)" style="fill: none; stroke: #00ae7f; stroke-width: 1.5; stroke-linecap: square"/>
   </g>
   <g id="line2d_155">
    <path d="M 96.756585 192.840776 
L 93.939898 185.771545 
" clip-path="url(#p475dd395a5)" style="fill: none; stroke: #00ae77; stroke-width: 1.5; stroke-linecap: square"/>
   </g>
   <g id="line2d_156">
    <path d="M 93.939898 185.771545 
L 91.13044 178.884259 
" clip-path="url(#p475dd395a5)" style="fill: none; stroke: #00af6e; stroke-width: 1.5; stroke-linecap: square"/>
   </g>
   <g id="line2d_157">
    <path d="M 91.13044 178.884259 
L 88.357425 172.231813 
" clip-path="url(#p475dd395a5)" style="fill: none; stroke: #00b065; stroke-width: 1.5; stroke-linecap: square"/>
   </g>
   <g id="line2d_158">
    <path d="M 88.357425 172.231813 
L 85.654132 165.873474 
" clip-path="url(#p475dd395a5)" style="fill: none; stroke: #00b05d; stroke-width: 1.5; stroke-linecap: square"/>
   </g>
   <g id="line2d_159">
    <path d="M 85.654132 165.873474 
L 83.057501 159.874106 
" clip-path="url(#p475dd395a5)" style="fill: none; stroke: #00b154; stroke-width: 1.5; stroke-linecap: square"/>
   </g>
   <g id="line2d_160">
    <path d="M 83.057501 159.874106 
L 80.607249 154.302524 
" clip-path="url(#p475dd395a5)" style="fill: none; stroke: #00b14b; stroke-width: 1.5; stroke-linecap: square"/>
   </g>
   <g id="line2d_161">
    <path d="M 80.607249 154.302524 
L 78.344373 149.228757 
" clip-path="url(#p475dd395a5)" style="fill: none; stroke: #00b242; stroke-width: 1.5; stroke-linecap: square"/>
   </g>
   <g id="line2d_162">
    <path d="M 78.344373 149.228757 
L 76.308958 144.720055 
" clip-path="url(#p475dd395a5)" style="fill: none; stroke: #00b238; stroke-width: 1.5; stroke-linecap: square"/>
   </g>
   <g id="line2d_163">
    <path d="M 76.308958 144.720055 
L 74.537314 140.83566 
" clip-path="url(#p475dd395a5)" style="fill: none; stroke: #00b22f; stroke-width: 1.5; stroke-linecap: square"/>
   </g>
   <g id="line2d_164">
    <path d="M 74.537314 140.83566 
L 73.058603 137.620652 
" clip-path="url(#p475dd395a5)" style="fill: none; stroke: #00b327; stroke-width: 1.5; stroke-linecap: square"/>
   </g>
   <g id="line2d_165">
    <path d="M 73.058603 137.620652 
L 71.891289 135.099403 
" clip-path="url(#p475dd395a5)" style="fill: none; stroke: #00b31e; stroke-width: 1.5; stroke-linecap: square"/>
   </g>
   <g id="line2d_166">
    <path d="M 71.891289 135.099403 
L 71.039794 133.269292 
" clip-path="url(#p475dd395a5)" style="fill: none; stroke: #00b316; stroke-width: 1.5; stroke-linecap: square"/>
   </g>
   <g id="line2d_167">
    <path d="M 71.039794 133.269292 
L 70.491545 132.094874 
" clip-path="url(#p475dd395a5)" style="fill: none; stroke: #00b30f; stroke-width: 1.5; stroke-linecap: square"/>
   </g>
   <g id="line2d_168">
    <path d="M 70.491545 132.094874 
L 70.144006 131.35197 
" clip-path="url(#p475dd395a5)" style="fill: none; stroke: #00b30a; stroke-width: 1.5; stroke-linecap: square"/>
   </g>
   <g id="line2d_169">
    <path d="M 70.144006 131.35197 
L 70.656533 131.311851 
" clip-path="url(#p475dd395a5)" style="fill: none; stroke: #00b305; stroke-width: 1.5; stroke-linecap: square"/>
   </g>
   <g id="line2d_170">
    <path d="M 70.656533 131.311851 
L 71.472063 131.247778 
" clip-path="url(#p475dd395a5)" style="fill: none; stroke: #00b300; stroke-width: 1.5; stroke-linecap: square"/>
   </g>
   <g id="line2d_171">
    <path d="M 71.472063 131.247778 
L 72.755754 131.146337 
" clip-path="url(#p475dd395a5)" style="fill: none; stroke: #00b300; stroke-width: 1.5; stroke-linecap: square"/>
   </g>
   <g id="line2d_172">
    <path d="M 72.755754 131.146337 
L 74.549535 131.003374 
" clip-path="url(#p475dd395a5)" style="fill: none; stroke: #00b300; stroke-width: 1.5; stroke-linecap: square"/>
   </g>
   <g id="line2d_173">
    <path d="M 74.549535 131.003374 
L 76.878688 130.815608 
" clip-path="url(#p475dd395a5)" style="fill: none; stroke: #00b300; stroke-width: 1.5; stroke-linecap: square"/>
   </g>
   <g id="line2d_174">
    <path d="M 76.878688 130.815608 
L 79.753791 130.580456 
" clip-path="url(#p475dd395a5)" style="fill: none; stroke: #00b200; stroke-width: 1.5; stroke-linecap: square"/>
   </g>
   <g id="line2d_175">
    <path d="M 79.753791 130.580456 
L 83.172148 130.295938 
" clip-path="url(#p475dd395a5)" style="fill: none; stroke: #00b200; stroke-width: 1.5; stroke-linecap: square"/>
   </g>
   <g id="line2d_176">
    <path d="M 83.172148 130.295938 
L 87.119239 129.960601 
" clip-path="url(#p475dd395a5)" style="fill: none; stroke: #00b100; stroke-width: 1.5; stroke-linecap: square"/>
   </g>
   <g id="line2d_177">
    <path d="M 87.119239 129.960601 
L 91.570354 129.573475 
" clip-path="url(#p475dd395a5)" style="fill: none; stroke: #1cb000; stroke-width: 1.5; stroke-linecap: square"/>
   </g>
   <g id="line2d_178">
    <path d="M 91.570354 129.573475 
L 96.492404 129.134019 
" clip-path="url(#p475dd395a5)" style="fill: none; stroke: #35ae00; stroke-width: 1.5; stroke-linecap: square"/>
   </g>
   <g id="line2d_179">
    <path d="M 96.492404 129.134019 
L 101.845856 128.642082 
" clip-path="url(#p475dd395a5)" style="fill: none; stroke: #46ac00; stroke-width: 1.5; stroke-linecap: square"/>
   </g>
   <g id="line2d_180">
    <path d="M 101.845856 128.642082 
L 107.586668 128.097853 
" clip-path="url(#p475dd395a5)" style="fill: none; stroke: #54aa00; stroke-width: 1.5; stroke-linecap: square"/>
   </g>
   <g id="line2d_181">
    <path d="M 107.586668 128.097853 
L 113.668149 127.501825 
" clip-path="url(#p475dd395a5)" style="fill: none; stroke: #60a800; stroke-width: 1.5; stroke-linecap: square"/>
   </g>
   <g id="line2d_182">
    <path d="M 113.668149 127.501825 
L 120.042624 126.854755 
" clip-path="url(#p475dd395a5)" style="fill: none; stroke: #6ca500; stroke-width: 1.5; stroke-linecap: square"/>
   </g>
   <g id="line2d_183">
    <path d="M 120.042624 126.854755 
L 126.66288 126.157625 
" clip-path="url(#p475dd395a5)" style="fill: none; stroke: #76a300; stroke-width: 1.5; stroke-linecap: square"/>
   </g>
   <g id="line2d_184">
    <path d="M 126.66288 126.157625 
L 133.483332 125.411604 
" clip-path="url(#p475dd395a5)" style="fill: none; stroke: #7fa000; stroke-width: 1.5; stroke-linecap: square"/>
   </g>
   <g id="line2d_185">
    <path d="M 133.483332 125.411604 
L 140.460919 124.618026 
" clip-path="url(#p475dd395a5)" style="fill: none; stroke: #889e00; stroke-width: 1.5; stroke-linecap: square"/>
   </g>
   <g id="line2d_186">
    <path d="M 140.460919 124.618026 
L 147.555739 123.778347 
" clip-path="url(#p475dd395a5)" style="fill: none; stroke: #909b00; stroke-width: 1.5; stroke-linecap: square"/>
   </g>
   <g id="line2d_187">
    <path d="M 147.555739 123.778347 
L 154.731445 122.894131 
" clip-path="url(#p475dd395a5)" style="fill: none; stroke: #989800; stroke-width: 1.5; stroke-linecap: square"/>
   </g>
   <g id="line2d_188">
    <path d="M 154.731445 122.894131 
L 163.340197 125.510286 
" clip-path="url(#p475dd395a5)" style="fill: none; stroke: #9f9500; stroke-width: 1.5; stroke-linecap: square"/>
   </g>
   <g id="line2d_189">
    <path d="M 163.340197 125.510286 
L 172.141572 128.094633 
" clip-path="url(#p475dd395a5)" style="fill: none; stroke: #a79100; stroke-width: 1.5; stroke-linecap: square"/>
   </g>
   <g id="line2d_190">
    <path d="M 172.141572 128.094633 
L 181.116505 130.640084 
" clip-path="url(#p475dd395a5)" style="fill: none; stroke: #af8d00; stroke-width: 1.5; stroke-linecap: square"/>
   </g>
   <g id="line2d_191">
    <path d="M 181.116505 130.640084 
L 190.236696 133.138324 
" clip-path="url(#p475dd395a5)" style="fill: none; stroke: #b88900; stroke-width: 1.5; stroke-linecap: square"/>
   </g>
   <g id="line2d_192">
    <path d="M 190.236696 133.138324 
L 199.462627 135.579646 
" clip-path="url(#p475dd395a5)" style="fill: none; stroke: #c08400; stroke-width: 1.5; stroke-linecap: square"/>
   </g>
   <g id="line2d_193">
    <path d="M 199.462627 135.579646 
L 208.741503 137.952777 
" clip-path="url(#p475dd395a5)" style="fill: none; stroke: #c97e00; stroke-width: 1.5; stroke-linecap: square"/>
   </g>
   <g id="line2d_194">
    <path d="M 208.741503 137.952777 
L 218.005326 140.244737 
" clip-path="url(#p475dd395a5)" style="fill: none; stroke: #d27800; stroke-width: 1.5; stroke-linecap: square"/>
   </g>
   <g id="line2d_195">
    <path d="M 218.005326 140.244737 
L 227.169403 142.440756 
" clip-path="url(#p475dd395a5)" style="fill: none; stroke: #db7000; stroke-width: 1.5; stroke-linecap: square"/>
   </g>
   <g id="line2d_196">
    <path d="M 227.169403 142.440756 
L 236.131699 144.524298 
" clip-path="url(#p475dd395a5)" style="fill: none; stroke: #e46800; stroke-width: 1.5; stroke-linecap: square"/>
   </g>
   <g id="line2d_197">
    <path d="M 236.131699 144.524298 
L 244.77358 146.477258 
" clip-path="url(#p475dd395a5)" style="fill: none; stroke: #ed5e00; stroke-width: 1.5; stroke-linecap: square"/>
   </g>
   <g id="line2d_198">
    <path d="M 244.77358 146.477258 
L 252.962534 148.280408 
" clip-path="url(#p475dd395a5)" style="fill: none; stroke: #f65200; stroke-width: 1.5; stroke-linecap: square"/>
   </g>
   <g id="line2d_199">
    <path d="M 252.962534 148.280408 
L 260.557432 149.914172 
" clip-path="url(#p475dd395a5)" style="fill: none; stroke: #fe4400; stroke-width: 1.5; stroke-linecap: square"/>
   </g>
   <g id="line2d_200">
    <path d="M 260.557432 149.914172 
L 267.41665 151.359785 
" clip-path="url(#p475dd395a5)" style="fill: none; stroke: #ff3600; stroke-width: 1.5; stroke-linecap: square"/>
   </g>
   <g id="line2d_201">
    <path d="M 267.41665 151.359785 
L 273.408921 152.600839 
" clip-path="url(#p475dd395a5)" style="fill: none; stroke: #ff2c00; stroke-width: 1.5; stroke-linecap: square"/>
   </g>
   <g id="line2d_202">
    <path d="M 273.408921 152.600839 
L 278.426163 153.625128 
" clip-path="url(#p475dd395a5)" style="fill: none; stroke: #ff2600; stroke-width: 1.5; stroke-linecap: square"/>
   </g>
   <g id="line2d_203">
    <path d="M 278.426163 153.625128 
L 282.396941 154.426645 
" clip-path="url(#p475dd395a5)" style="fill: none; stroke: #ff2300; stroke-width: 1.5; stroke-linecap: square"/>
   </g>
   <g id="line2d_204">
    <path d="M 282.396941 154.426645 
L 285.298988 155.007527 
" clip-path="url(#p475dd395a5)" style="fill: none; stroke: #ff220e; stroke-width: 1.5; stroke-linecap: square"/>
   </g>
   <g id="line2d_205">
    <path d="M 285.298988 155.007527 
L 287.169981 155.379895 
" clip-path="url(#p475dd395a5)" style="fill: none; stroke: #ff2116; stroke-width: 1.5; stroke-linecap: square"/>
   </g>
   <g id="line2d_206">
    <path d="M 287.169981 155.379895 
L 288.357007 155.61529 
" clip-path="url(#p475dd395a5)" style="fill: none; stroke: #ff211a; stroke-width: 1.5; stroke-linecap: square"/>
   </g>
   <g id="line2d_207">
    <path d="M 288.357007 155.61529 
L 288.906721 157.029815 
" clip-path="url(#p475dd395a5)" style="fill: none; stroke: #ff2020; stroke-width: 1.5; stroke-linecap: square"/>
   </g>
   <g id="line2d_208">
    <path d="M 288.906721 157.029815 
L 289.748376 159.223309 
" clip-path="url(#p475dd395a5)" style="fill: none; stroke: #ff1f28; stroke-width: 1.5; stroke-linecap: square"/>
   </g>
   <g id="line2d_209">
    <path d="M 289.748376 159.223309 
L 290.997583 162.545341 
" clip-path="url(#p475dd395a5)" style="fill: none; stroke: #ff1d32; stroke-width: 1.5; stroke-linecap: square"/>
   </g>
   <g id="line2d_210">
    <path d="M 290.997583 162.545341 
L 292.605412 166.950521 
" clip-path="url(#p475dd395a5)" style="fill: none; stroke: #ff1a3d; stroke-width: 1.5; stroke-linecap: square"/>
   </g>
   <g id="line2d_211">
    <path d="M 292.605412 166.950521 
L 294.486751 172.318175 
" clip-path="url(#p475dd395a5)" style="fill: none; stroke: #ff1549; stroke-width: 1.5; stroke-linecap: square"/>
   </g>
   <g id="line2d_212">
    <path d="M 294.486751 172.318175 
L 296.539026 178.487627 
" clip-path="url(#p475dd395a5)" style="fill: none; stroke: #ff0d55; stroke-width: 1.5; stroke-linecap: square"/>
   </g>
   <g id="line2d_213">
    <path d="M 296.539026 178.487627 
L 298.658314 185.28802 
" clip-path="url(#p475dd395a5)" style="fill: none; stroke: #ff0061; stroke-width: 1.5; stroke-linecap: square"/>
   </g>
   <g id="line2d_214">
    <path d="M 298.658314 185.28802 
L 300.750211 192.558437 
" clip-path="url(#p475dd395a5)" style="fill: none; stroke: #ff006c; stroke-width: 1.5; stroke-linecap: square"/>
   </g>
   <g id="line2d_215">
    <path d="M 300.750211 192.558437 
L 302.735405 200.158415 
" clip-path="url(#p475dd395a5)" style="fill: none; stroke: #ff0078; stroke-width: 1.5; stroke-linecap: square"/>
   </g>
   <g id="line2d_216">
    <path d="M 302.735405 200.158415 
L 304.551316 207.971396 
" clip-path="url(#p475dd395a5)" style="fill: none; stroke: #ff0084; stroke-width: 1.5; stroke-linecap: square"/>
   </g>
   <g id="line2d_217">
    <path d="M 304.551316 207.971396 
L 306.151384 215.90399 
" clip-path="url(#p475dd395a5)" style="fill: none; stroke: #ff0090; stroke-width: 1.5; stroke-linecap: square"/>
   </g>
   <g id="line2d_218">
    <path d="M 306.151384 215.90399 
L 307.503232 223.88327 
" clip-path="url(#p475dd395a5)" style="fill: none; stroke: #ff009c; stroke-width: 1.5; stroke-linecap: square"/>
   </g>
   <g id="line2d_219">
    <path d="M 307.503232 223.88327 
L 308.586457 231.853448 
" clip-path="url(#p475dd395a5)" style="fill: none; stroke: #ff00a8; stroke-width: 1.5; stroke-linecap: square"/>
   </g>
   <g id="line2d_220">
    <path d="M 308.586457 231.853448 
L 309.390462 239.772643 
" clip-path="url(#p475dd395a5)" style="fill: none; stroke: #ff00b3; stroke-width: 1.5; stroke-linecap: square"/>
   </g>
   <g id="line2d_221">
    <path d="M 309.390462 239.772643 
L 309.912489 247.610041 
" clip-path="url(#p475dd395a5)" style="fill: none; stroke: #fe00be; stroke-width: 1.5; stroke-linecap: square"/>
   </g>
   <g id="line2d_222">
    <path d="M 309.912489 247.610041 
L 310.155926 255.343522 
" clip-path="url(#p475dd395a5)" style="fill: none; stroke: #fc00c8; stroke-width: 1.5; stroke-linecap: square"/>
   </g>
   <g id="line2d_223">
    <path d="M 310.155926 255.343522 
L 310.128869 262.957747 
" clip-path="url(#p475dd395a5)" style="fill: none; stroke: #f900d2; stroke-width: 1.5; stroke-linecap: square"/>
   </g>
   <g id="line2d_224">
    <path d="M 310.128869 262.957747 
L 309.842934 270.442619 
" clip-path="url(#p475dd395a5)" style="fill: none; stroke: #f500dc; stroke-width: 1.5; stroke-linecap: square"/>
   </g>
   <g id="line2d_225">
    <path d="M 309.842934 270.442619 
L 309.312266 277.792081 
" clip-path="url(#p475dd395a5)" style="fill: none; stroke: #f200e5; stroke-width: 1.5; stroke-linecap: square"/>
   </g>
   <g id="line2d_226">
    <path d="M 309.312266 277.792081 
L 303.648081 282.414086 
" clip-path="url(#p475dd395a5)" style="fill: none; stroke: #ef00ee; stroke-width: 1.5; stroke-linecap: square"/>
   </g>
   <g id="line2d_227">
    <path d="M 303.648081 282.414086 
L 297.664332 287.000047 
" clip-path="url(#p475dd395a5)" style="fill: none; stroke: #eb00f8; stroke-width: 1.5; stroke-linecap: square"/>
   </g>
   <g id="line2d_228">
    <path d="M 297.664332 287.000047 
L 291.331737 291.531477 
" clip-path="url(#p475dd395a5)" style="fill: none; stroke: #e600ff; stroke-width: 1.5; stroke-linecap: square"/>
   </g>
   <g id="line2d_229">
    <path d="M 291.331737 291.531477 
L 284.622183 295.987419 
" clip-path="url(#p475dd395a5)" style="fill: none; stroke: #df00ff; stroke-width: 1.5; stroke-linecap: square"/>
   </g>
   <g id="line2d_230">
    <path d="M 284.622183 295.987419 
L 277.510872 300.344354 
" clip-path="url(#p475dd395a5)" style="fill: none; stroke: #d41fff; stroke-width: 1.5; stroke-linecap: square"/>
   </g>
   <g id="line2d_231">
    <path d="M 277.510872 300.344354 
L 269.979448 304.576184 
" clip-path="url(#p475dd395a5)" style="fill: none; stroke: #c93aff; stroke-width: 1.5; stroke-linecap: square"/>
   </g>
   <g id="line2d_232">
    <path d="M 269.979448 304.576184 
L 262.0204 308.654354 
" clip-path="url(#p475dd395a5)" style="fill: none; stroke: #be4bff; stroke-width: 1.5; stroke-linecap: square"/>
   </g>
   <g id="line2d_233">
    <path d="M 262.0204 308.654354 
L 253.64307 312.548145 
" clip-path="url(#p475dd395a5)" style="fill: none; stroke: #b356ff; stroke-width: 1.5; stroke-linecap: square"/>
   </g>
   <g id="line2d_234">
    <path d="M 253.64307 312.548145 
L 244.88149 316.225188 
" clip-path="url(#p475dd395a5)" style="fill: none; stroke: #a860ff; stroke-width: 1.5; stroke-linecap: square"/>
   </g>
   <g id="line2d_235">
    <path d="M 244.88149 316.225188 
L 235.804079 319.652262 
" clip-path="url(#p475dd395a5)" style="fill: none; stroke: #9d68ff; stroke-width: 1.5; stroke-linecap: square"/>
   </g>
   <g id="line2d_236">
    <path d="M 235.804079 319.652262 
L 226.524711 322.796385 
" clip-path="url(#p475dd395a5)" style="fill: none; stroke: #936eff; stroke-width: 1.5; stroke-linecap: square"/>
   </g>
   <g id="line2d_237">
    <path d="M 226.524711 322.796385 
L 217.213639 325.62624 
" clip-path="url(#p475dd395a5)" style="fill: none; stroke: #8874ff; stroke-width: 1.5; stroke-linecap: square"/>
   </g>
   <g id="line2d_238">
    <path d="M 217.213639 325.62624 
L 208.105202 328.113899 
" clip-path="url(#p475dd395a5)" style="fill: none; stroke: #7d79ff; stroke-width: 1.5; stroke-linecap: square"/>
   </g>
   <g id="line2d_239">
    <path d="M 208.105202 328.113899 
L 199.497039 330.236831 
" clip-path="url(#p475dd395a5)" style="fill: none; stroke: #727dff; stroke-width: 1.5; stroke-linecap: square"/>
   </g>
   <g id="line2d_240">
    <path d="M 199.497039 330.236831 
L 191.733697 331.980133 
" clip-path="url(#p475dd395a5)" style="fill: none; stroke: #6880ff; stroke-width: 1.5; stroke-linecap: square"/>
   </g>
   <g id="line2d_241">
    <path d="M 191.733697 331.980133 
L 185.167972 333.338935 
" clip-path="url(#p475dd395a5)" style="fill: none; stroke: #5f83ff; stroke-width: 1.5; stroke-linecap: square"/>
   </g>
   <g id="line2d_242">
    <path d="M 185.167972 333.338935 
L 180.09882 334.320966 
" clip-path="url(#p475dd395a5)" style="fill: none; stroke: #5785ff; stroke-width: 1.5; stroke-linecap: square"/>
   </g>
   <g id="line2d_243">
    <path d="M 180.09882 334.320966 
L 176.695542 334.949385 
" clip-path="url(#p475dd395a5)" style="fill: none; stroke: #5286ff; stroke-width: 1.5; stroke-linecap: square"/>
   </g>
   <g id="line2d_244">
    <path d="M 176.695542 334.949385 
L 174.476965 335.346237 
" clip-path="url(#p475dd395a5)" style="fill: none; stroke: #4e87ff; stroke-width: 1.5; stroke-linecap: square"/>
   </g>
   <g id="patch_3">
    <path d="M 341.51827 211.490781 
C 341.51827 191.249662 337.531211 171.205362 329.78527 152.505006 
C 322.039329 133.804649 310.685145 116.811912 296.372512 102.499279 
C 282.059879 88.186647 265.067142 76.832463 246.366786 69.086522 
C 227.66643 61.34058 207.62213 57.353521 187.38101 57.353521 
C 167.13989 57.353521 147.09559 61.34058 128.395234 69.086522 
C 109.694878 76.832463 92.702141 88.186647 78.389508 102.499279 
C 64.076875 116.811912 52.722691 133.804649 44.97675 152.505006 
C 37.230809 171.205362 33.24375 191.249662 33.24375 211.490781 
C 33.24375 231.731901 37.230809 251.776201 44.97675 270.476557 
C 52.722691 289.176913 64.076875 306.16965 78.389508 320.482283 
C 92.702141 334.794916 109.694878 346.1491 128.395234 353.895041 
C 147.09559 361.640982 167.13989 365.628041 187.38101 365.628041 
C 207.62213 365.628041 227.66643 361.640982 246.366786 353.895041 
C 265.067142 346.1491 282.059879 334.794916 296.372512 320.482283 
C 310.685145 306.16965 322.039329 289.176913 329.78527 270.476557 
C 337.531211 251.776201 341.51827 231.731901 341.51827 211.490781 
" style="fill: none; stroke: #000000; stroke-width: 0.8; stroke-linejoin: miter; stroke-linecap: square"/>
   </g>
   <g id="patch_4">
    <path d="M 103.975512 204.222635 
Q 113.670042 205.881524 123.364573 207.540414 
" style="fill: none; stroke: #000000; stroke-linecap: round"/>
   </g>
   <g id="text_13">
    <g id="patch_5">
     <path d="M 77.211186 206.772039 
L 103.978374 206.772039 
L 103.978374 197.093914 
L 77.211186 197.093914 
L 77.211186 206.772039 
z
" style="fill: none"/>
    </g>
    <!-- sRGB -->
    <g transform="translate(77.211186 204.692352) scale(0.1 -0.1)">
     <defs>
      <path id="DejaVuSans-73" d="M 2834 3397 
L 2834 2853 
Q 2591 2978 2328 3040 
Q 2066 3103 1784 3103 
Q 1356 3103 1142 2972 
Q 928 2841 928 2578 
Q 928 2378 1081 2264 
Q 1234 2150 1697 2047 
L 1894 2003 
Q 2506 1872 2764 1633 
Q 3022 1394 3022 966 
Q 3022 478 2636 193 
Q 2250 -91 1575 -91 
Q 1294 -91 989 -36 
Q 684 19 347 128 
L 347 722 
Q 666 556 975 473 
Q 1284 391 1588 391 
Q 1994 391 2212 530 
Q 2431 669 2431 922 
Q 2431 1156 2273 1281 
Q 2116 1406 1581 1522 
L 1381 1569 
Q 847 1681 609 1914 
Q 372 2147 372 2553 
Q 372 3047 722 3315 
Q 1072 3584 1716 3584 
Q 2034 3584 2315 3537 
Q 2597 3491 2834 3397 
z
" transform="scale(0.015625)"/>
      <path id="DejaVuSans-52" d="M 2841 2188 
Q 3044 2119 3236 1894 
Q 3428 1669 3622 1275 
L 4263 0 
L 3584 0 
L 2988 1197 
Q 2756 1666 2539 1819 
Q 2322 1972 1947 1972 
L 1259 1972 
L 1259 0 
L 628 0 
L 628 4666 
L 2053 4666 
Q 2853 4666 3247 4331 
Q 3641 3997 3641 3322 
Q 3641 2881 3436 2590 
Q 3231 2300 2841 2188 
z
M 1259 4147 
L 1259 2491 
L 2053 2491 
Q 2509 2491 2742 2702 
Q 2975 2913 2975 3322 
Q 2975 3731 2742 3939 
Q 2509 4147 2053 4147 
L 1259 4147 
z
" transform="scale(0.015625)"/>
      <path id="DejaVuSans-47" d="M 3809 666 
L 3809 1919 
L 2778 1919 
L 2778 2438 
L 4434 2438 
L 4434 434 
Q 4069 175 3628 42 
Q 3188 -91 2688 -91 
Q 1594 -91 976 548 
Q 359 1188 359 2328 
Q 359 3472 976 4111 
Q 1594 4750 2688 4750 
Q 3144 4750 3555 4637 
Q 3966 4525 4313 4306 
L 4313 3634 
Q 3963 3931 3569 4081 
Q 3175 4231 2741 4231 
Q 1884 4231 1454 3753 
Q 1025 3275 1025 2328 
Q 1025 1384 1454 906 
Q 1884 428 2741 428 
Q 3075 428 3337 486 
Q 3600 544 3809 666 
z
" transform="scale(0.015625)"/>
      <path id="DejaVuSans-42" d="M 1259 2228 
L 1259 519 
L 2272 519 
Q 2781 519 3026 730 
Q 3272 941 3272 1375 
Q 3272 1813 3026 2020 
Q 2781 2228 2272 2228 
L 1259 2228 
z
M 1259 4147 
L 1259 2741 
L 2194 2741 
Q 2656 2741 2882 2914 
Q 3109 3088 3109 3444 
Q 3109 3797 2882 3972 
Q 2656 4147 2194 4147 
L 1259 4147 
z
M 628 4666 
L 2241 4666 
Q 2963 4666 3353 4366 
Q 3744 4066 3744 3513 
Q 3744 3084 3544 2831 
Q 3344 2578 2956 2516 
Q 3422 2416 3680 2098 
Q 3938 1781 3938 1306 
Q 3938 681 3513 340 
Q 3088 0 2303 0 
L 628 0 
L 628 4666 
z
" transform="scale(0.015625)"/>
     </defs>
     <use xlink:href="#DejaVuSans-73"/>
     <use xlink:href="#DejaVuSans-52" x="52.099609"/>
     <use xlink:href="#DejaVuSans-47" x="121.582031"/>
     <use xlink:href="#DejaVuSans-42" x="199.072266"/>
    </g>
   </g>
   <g id="patch_6">
    <path d="M 93.452378 223.119086 
Q 100.616784 222.795536 107.781191 222.471987 
" style="fill: none; stroke: #000000; stroke-linecap: round"/>
   </g>
   <g id="text_14">
    <g id="patch_7">
     <path d="M 81.060243 228.237967 
L 93.452431 228.237967 
L 93.452431 218.559842 
L 81.060243 218.559842 
L 81.060243 228.237967 
z
" style="fill: none"/>
    </g>
    <!-- P3 -->
    <g transform="translate(81.060243 226.158279) scale(0.1 -0.1)">
     <defs>
      <path id="DejaVuSans-50" d="M 1259 4147 
L 1259 2394 
L 2053 2394 
Q 2494 2394 2734 2622 
Q 2975 2850 2975 3272 
Q 2975 3691 2734 3919 
Q 2494 4147 2053 4147 
L 1259 4147 
z
M 628 4666 
L 2053 4666 
Q 2838 4666 3239 4311 
Q 3641 3956 3641 3272 
Q 3641 2581 3239 2228 
Q 2838 1875 2053 1875 
L 1259 1875 
L 1259 0 
L 628 0 
L 628 4666 
z
" transform="scale(0.015625)"/>
     </defs>
     <use xlink:href="#DejaVuSans-50"/>
     <use xlink:href="#DejaVuSans-33" x="60.302734"/>
    </g>
   </g>
   <g id="text_15">
    <!-- Hue &amp; Chroma -->
    <g transform="translate(19.324103 48.270776) scale(0.13 -0.13)">
     <defs>
      <path id="DejaVuSans-Oblique-48" d="M 1081 4666 
L 1716 4666 
L 1344 2753 
L 3634 2753 
L 4006 4666 
L 4641 4666 
L 3731 0 
L 3097 0 
L 3531 2222 
L 1241 2222 
L 806 0 
L 172 0 
L 1081 4666 
z
" transform="scale(0.015625)"/>
      <path id="DejaVuSans-Oblique-75" d="M 428 1388 
L 838 3500 
L 1416 3500 
L 1006 1409 
Q 975 1256 961 1147 
Q 947 1038 947 966 
Q 947 700 1109 554 
Q 1272 409 1569 409 
Q 2031 409 2368 721 
Q 2706 1034 2809 1563 
L 3194 3500 
L 3769 3500 
L 3091 0 
L 2516 0 
L 2631 550 
Q 2388 244 2052 76 
Q 1716 -91 1338 -91 
Q 878 -91 622 161 
Q 366 413 366 863 
Q 366 956 381 1097 
Q 397 1238 428 1388 
z
" transform="scale(0.015625)"/>
      <path id="DejaVuSans-Oblique-65" d="M 3078 2063 
Q 3088 2113 3092 2166 
Q 3097 2219 3097 2272 
Q 3097 2653 2873 2875 
Q 2650 3097 2266 3097 
Q 1838 3097 1509 2826 
Q 1181 2556 1013 2059 
L 3078 2063 
z
M 3578 1613 
L 903 1613 
Q 884 1494 878 1425 
Q 872 1356 872 1306 
Q 872 872 1139 634 
Q 1406 397 1894 397 
Q 2269 397 2603 481 
Q 2938 566 3225 728 
L 3116 159 
Q 2806 34 2476 -28 
Q 2147 -91 1806 -91 
Q 1078 -91 686 257 
Q 294 606 294 1247 
Q 294 1794 489 2264 
Q 684 2734 1063 3103 
Q 1306 3334 1642 3459 
Q 1978 3584 2356 3584 
Q 2950 3584 3301 3228 
Q 3653 2872 3653 2272 
Q 3653 2128 3634 1964 
Q 3616 1800 3578 1613 
z
" transform="scale(0.015625)"/>
      <path id="DejaVuSans-Oblique-20" transform="scale(0.015625)"/>
      <path id="DejaVuSans-Oblique-26" d="M 3022 813 
L 1691 2509 
Q 1313 2234 1117 1925 
Q 922 1616 922 1294 
Q 922 897 1189 656 
Q 1456 416 1900 416 
Q 2194 416 2480 517 
Q 2766 619 3022 813 
z
M 4709 2503 
Q 4569 2006 4339 1593 
Q 4109 1181 3788 844 
L 4441 0 
L 3653 0 
L 3322 434 
Q 2991 175 2609 42 
Q 2228 -91 1813 -91 
Q 1122 -91 711 250 
Q 300 591 300 1153 
Q 300 1634 589 2062 
Q 878 2491 1447 2853 
Q 1350 2997 1304 3145 
Q 1259 3294 1259 3463 
Q 1259 3675 1331 3865 
Q 1403 4056 1538 4213 
Q 1753 4469 2078 4609 
Q 2403 4750 2778 4750 
Q 3022 4750 3269 4694 
Q 3516 4638 3769 4525 
L 3659 3956 
Q 3425 4103 3192 4179 
Q 2959 4256 2741 4256 
Q 2353 4256 2111 4054 
Q 1869 3853 1869 3541 
Q 1869 3403 1928 3268 
Q 1988 3134 2203 2859 
L 3475 1234 
Q 3709 1481 3875 1801 
Q 4041 2122 4128 2503 
L 4709 2503 
z
" transform="scale(0.015625)"/>
      <path id="DejaVuSans-Oblique-43" d="M 4447 4306 
L 4319 3641 
Q 4019 3944 3683 4091 
Q 3347 4238 2956 4238 
Q 2422 4238 2017 3981 
Q 1613 3725 1319 3200 
Q 1131 2863 1032 2486 
Q 934 2109 934 1728 
Q 934 1091 1264 756 
Q 1594 422 2222 422 
Q 2656 422 3056 561 
Q 3456 700 3834 978 
L 3688 231 
Q 3316 72 2936 -9 
Q 2556 -91 2175 -91 
Q 1278 -91 773 396 
Q 269 884 269 1753 
Q 269 2309 461 2846 
Q 653 3384 1013 3828 
Q 1394 4300 1883 4525 
Q 2372 4750 3022 4750 
Q 3422 4750 3780 4639 
Q 4138 4528 4447 4306 
z
" transform="scale(0.015625)"/>
      <path id="DejaVuSans-Oblique-68" d="M 3566 2113 
L 3156 0 
L 2578 0 
L 2988 2091 
Q 3016 2238 3031 2350 
Q 3047 2463 3047 2528 
Q 3047 2791 2881 2937 
Q 2716 3084 2419 3084 
Q 1956 3084 1617 2771 
Q 1278 2459 1178 1941 
L 800 0 
L 225 0 
L 1172 4863 
L 1747 4863 
L 1375 2950 
Q 1594 3244 1934 3414 
Q 2275 3584 2650 3584 
Q 3113 3584 3367 3334 
Q 3622 3084 3622 2631 
Q 3622 2519 3608 2391 
Q 3594 2263 3566 2113 
z
" transform="scale(0.015625)"/>
      <path id="DejaVuSans-Oblique-72" d="M 2853 2969 
Q 2766 3016 2653 3041 
Q 2541 3066 2413 3066 
Q 1953 3066 1609 2717 
Q 1266 2369 1153 1784 
L 800 0 
L 225 0 
L 909 3500 
L 1484 3500 
L 1375 2956 
Q 1603 3259 1920 3421 
Q 2238 3584 2597 3584 
Q 2691 3584 2781 3573 
Q 2872 3563 2963 3538 
L 2853 2969 
z
" transform="scale(0.015625)"/>
      <path id="DejaVuSans-Oblique-6f" d="M 1625 -91 
Q 1009 -91 651 289 
Q 294 669 294 1325 
Q 294 1706 417 2101 
Q 541 2497 738 2766 
Q 1047 3184 1428 3384 
Q 1809 3584 2291 3584 
Q 2888 3584 3255 3212 
Q 3622 2841 3622 2241 
Q 3622 1825 3500 1412 
Q 3378 1000 3181 728 
Q 2875 309 2494 109 
Q 2113 -91 1625 -91 
z
M 891 1344 
Q 891 869 1089 633 
Q 1288 397 1691 397 
Q 2269 397 2648 901 
Q 3028 1406 3028 2181 
Q 3028 2634 2825 2865 
Q 2622 3097 2228 3097 
Q 1903 3097 1650 2945 
Q 1397 2794 1197 2484 
Q 1050 2253 970 1956 
Q 891 1659 891 1344 
z
" transform="scale(0.015625)"/>
      <path id="DejaVuSans-Oblique-6d" d="M 5747 2113 
L 5338 0 
L 4763 0 
L 5166 2094 
Q 5191 2228 5203 2325 
Q 5216 2422 5216 2491 
Q 5216 2772 5059 2928 
Q 4903 3084 4622 3084 
Q 4203 3084 3875 2770 
Q 3547 2456 3450 1953 
L 3066 0 
L 2491 0 
L 2900 2094 
Q 2925 2209 2937 2307 
Q 2950 2406 2950 2484 
Q 2950 2769 2794 2926 
Q 2638 3084 2363 3084 
Q 1938 3084 1609 2770 
Q 1281 2456 1184 1953 
L 800 0 
L 225 0 
L 909 3500 
L 1484 3500 
L 1375 2956 
Q 1609 3263 1923 3423 
Q 2238 3584 2597 3584 
Q 2978 3584 3223 3384 
Q 3469 3184 3519 2828 
Q 3781 3197 4126 3390 
Q 4472 3584 4856 3584 
Q 5306 3584 5551 3325 
Q 5797 3066 5797 2591 
Q 5797 2488 5784 2364 
Q 5772 2241 5747 2113 
z
" transform="scale(0.015625)"/>
      <path id="DejaVuSans-Oblique-61" d="M 3438 1997 
L 3047 0 
L 2472 0 
L 2578 531 
Q 2325 219 2001 64 
Q 1678 -91 1281 -91 
Q 834 -91 548 182 
Q 263 456 263 884 
Q 263 1497 752 1853 
Q 1241 2209 2100 2209 
L 2900 2209 
L 2931 2363 
Q 2938 2388 2941 2417 
Q 2944 2447 2944 2509 
Q 2944 2788 2717 2942 
Q 2491 3097 2081 3097 
Q 1800 3097 1504 3025 
Q 1209 2953 897 2809 
L 997 3341 
Q 1322 3463 1633 3523 
Q 1944 3584 2234 3584 
Q 2853 3584 3176 3315 
Q 3500 3047 3500 2534 
Q 3500 2431 3484 2292 
Q 3469 2153 3438 1997 
z
M 2816 1759 
L 2241 1759 
Q 1534 1759 1195 1570 
Q 856 1381 856 984 
Q 856 709 1029 553 
Q 1203 397 1509 397 
Q 1978 397 2328 733 
Q 2678 1069 2791 1631 
L 2816 1759 
z
" transform="scale(0.015625)"/>
     </defs>
     <use xlink:href="#DejaVuSans-Oblique-48"/>
     <use xlink:href="#DejaVuSans-Oblique-75" x="75.195312"/>
     <use xlink:href="#DejaVuSans-Oblique-65" x="138.574219"/>
     <use xlink:href="#DejaVuSans-Oblique-20" x="200.097656"/>
     <use xlink:href="#DejaVuSans-Oblique-26" x="231.884766"/>
     <use xlink:href="#DejaVuSans-Oblique-20" x="309.863281"/>
     <use xlink:href="#DejaVuSans-Oblique-43" x="341.650391"/>
     <use xlink:href="#DejaVuSans-Oblique-68" x="411.474609"/>
     <use xlink:href="#DejaVuSans-Oblique-72" x="474.853516"/>
     <use xlink:href="#DejaVuSans-Oblique-6f" x="515.966797"/>
     <use xlink:href="#DejaVuSans-Oblique-6d" x="577.148438"/>
     <use xlink:href="#DejaVuSans-Oblique-61" x="674.560547"/>
    </g>
   </g>
   <g id="PathCollection_1">
    <defs>
     <path id="m4992756e45" d="M 0 4.472136 
C 1.186024 4.472136 2.323632 4.000923 3.162278 3.162278 
C 4.000923 2.323632 4.472136 1.186024 4.472136 0 
C 4.472136 -1.186024 4.000923 -2.323632 3.162278 -3.162278 
C 2.323632 -4.000923 1.186024 -4.472136 0 -4.472136 
C -1.186024 -4.472136 -2.323632 -4.000923 -3.162278 -3.162278 
C -4.000923 -2.323632 -4.472136 -1.186024 -4.472136 0 
C -4.472136 1.186024 -4.000923 2.323632 -3.162278 3.162278 
C -2.323632 4.000923 -1.186024 4.472136 0 4.472136 
z
" style="stroke: #000000"/>
    </defs>
    <g clip-path="url(#p475dd395a5)">
     <use xlink:href="#m4992756e45" x="70.144006" y="131.35197" style="fill: #00fb29; stroke: #000000"/>
    </g>
   </g>
  </g>
  <g id="text_16">
   <!-- 1 Color in Oklab -->
   <g transform="translate(20.03976 17.077969) scale(0.13 -0.13)">
    <defs>
     <path id="DejaVuSans-Bold-31" d="M 750 831 
L 1813 831 
L 1813 3847 
L 722 3622 
L 722 4441 
L 1806 4666 
L 2950 4666 
L 2950 831 
L 4013 831 
L 4013 0 
L 750 0 
L 750 831 
z
" transform="scale(0.015625)"/>
     <path id="DejaVuSans-Bold-20" transform="scale(0.015625)"/>
     <path id="DejaVuSans-Bold-43" d="M 4288 256 
Q 3956 84 3597 -3 
Q 3238 -91 2847 -91 
Q 1681 -91 1000 561 
Q 319 1213 319 2328 
Q 319 3447 1000 4098 
Q 1681 4750 2847 4750 
Q 3238 4750 3597 4662 
Q 3956 4575 4288 4403 
L 4288 3438 
Q 3953 3666 3628 3772 
Q 3303 3878 2944 3878 
Q 2300 3878 1931 3465 
Q 1563 3053 1563 2328 
Q 1563 1606 1931 1193 
Q 2300 781 2944 781 
Q 3303 781 3628 887 
Q 3953 994 4288 1222 
L 4288 256 
z
" transform="scale(0.015625)"/>
     <path id="DejaVuSans-Bold-6f" d="M 2203 2784 
Q 1831 2784 1636 2517 
Q 1441 2250 1441 1747 
Q 1441 1244 1636 976 
Q 1831 709 2203 709 
Q 2569 709 2762 976 
Q 2956 1244 2956 1747 
Q 2956 2250 2762 2517 
Q 2569 2784 2203 2784 
z
M 2203 3584 
Q 3106 3584 3614 3096 
Q 4122 2609 4122 1747 
Q 4122 884 3614 396 
Q 3106 -91 2203 -91 
Q 1297 -91 786 396 
Q 275 884 275 1747 
Q 275 2609 786 3096 
Q 1297 3584 2203 3584 
z
" transform="scale(0.015625)"/>
     <path id="DejaVuSans-Bold-6c" d="M 538 4863 
L 1656 4863 
L 1656 0 
L 538 0 
L 538 4863 
z
" transform="scale(0.015625)"/>
     <path id="DejaVuSans-Bold-72" d="M 3138 2547 
Q 2991 2616 2845 2648 
Q 2700 2681 2553 2681 
Q 2122 2681 1889 2404 
Q 1656 2128 1656 1613 
L 1656 0 
L 538 0 
L 538 3500 
L 1656 3500 
L 1656 2925 
Q 1872 3269 2151 3426 
Q 2431 3584 2822 3584 
Q 2878 3584 2943 3579 
Q 3009 3575 3134 3559 
L 3138 2547 
z
" transform="scale(0.015625)"/>
     <path id="DejaVuSans-Bold-69" d="M 538 3500 
L 1656 3500 
L 1656 0 
L 538 0 
L 538 3500 
z
M 538 4863 
L 1656 4863 
L 1656 3950 
L 538 3950 
L 538 4863 
z
" transform="scale(0.015625)"/>
     <path id="DejaVuSans-Bold-6e" d="M 4056 2131 
L 4056 0 
L 2931 0 
L 2931 347 
L 2931 1631 
Q 2931 2084 2911 2256 
Q 2891 2428 2841 2509 
Q 2775 2619 2662 2680 
Q 2550 2741 2406 2741 
Q 2056 2741 1856 2470 
Q 1656 2200 1656 1722 
L 1656 0 
L 538 0 
L 538 3500 
L 1656 3500 
L 1656 2988 
Q 1909 3294 2193 3439 
Q 2478 3584 2822 3584 
Q 3428 3584 3742 3212 
Q 4056 2841 4056 2131 
z
" transform="scale(0.015625)"/>
     <path id="DejaVuSans-Bold-4f" d="M 2719 3878 
Q 2169 3878 1866 3472 
Q 1563 3066 1563 2328 
Q 1563 1594 1866 1187 
Q 2169 781 2719 781 
Q 3272 781 3575 1187 
Q 3878 1594 3878 2328 
Q 3878 3066 3575 3472 
Q 3272 3878 2719 3878 
z
M 2719 4750 
Q 3844 4750 4481 4106 
Q 5119 3463 5119 2328 
Q 5119 1197 4481 553 
Q 3844 -91 2719 -91 
Q 1597 -91 958 553 
Q 319 1197 319 2328 
Q 319 3463 958 4106 
Q 1597 4750 2719 4750 
z
" transform="scale(0.015625)"/>
     <path id="DejaVuSans-Bold-6b" d="M 538 4863 
L 1656 4863 
L 1656 2216 
L 2944 3500 
L 4244 3500 
L 2534 1894 
L 4378 0 
L 3022 0 
L 1656 1459 
L 1656 0 
L 538 0 
L 538 4863 
z
" transform="scale(0.015625)"/>
     <path id="DejaVuSans-Bold-61" d="M 2106 1575 
Q 1756 1575 1579 1456 
Q 1403 1338 1403 1106 
Q 1403 894 1545 773 
Q 1688 653 1941 653 
Q 2256 653 2472 879 
Q 2688 1106 2688 1447 
L 2688 1575 
L 2106 1575 
z
M 3816 1997 
L 3816 0 
L 2688 0 
L 2688 519 
Q 2463 200 2181 54 
Q 1900 -91 1497 -91 
Q 953 -91 614 226 
Q 275 544 275 1050 
Q 275 1666 698 1953 
Q 1122 2241 2028 2241 
L 2688 2241 
L 2688 2328 
Q 2688 2594 2478 2717 
Q 2269 2841 1825 2841 
Q 1466 2841 1156 2769 
Q 847 2697 581 2553 
L 581 3406 
Q 941 3494 1303 3539 
Q 1666 3584 2028 3584 
Q 2975 3584 3395 3211 
Q 3816 2838 3816 1997 
z
" transform="scale(0.015625)"/>
     <path id="DejaVuSans-Bold-62" d="M 2400 722 
Q 2759 722 2948 984 
Q 3138 1247 3138 1747 
Q 3138 2247 2948 2509 
Q 2759 2772 2400 2772 
Q 2041 2772 1848 2508 
Q 1656 2244 1656 1747 
Q 1656 1250 1848 986 
Q 2041 722 2400 722 
z
M 1656 2988 
Q 1888 3294 2169 3439 
Q 2450 3584 2816 3584 
Q 3463 3584 3878 3070 
Q 4294 2556 4294 1747 
Q 4294 938 3878 423 
Q 3463 -91 2816 -91 
Q 2450 -91 2169 54 
Q 1888 200 1656 506 
L 1656 0 
L 538 0 
L 538 4863 
L 1656 4863 
L 1656 2988 
z
" transform="scale(0.015625)"/>
    </defs>
    <use xlink:href="#DejaVuSans-Bold-31"/>
    <use xlink:href="#DejaVuSans-Bold-20" x="69.580078"/>
    <use xlink:href="#DejaVuSans-Bold-43" x="104.394531"/>
    <use xlink:href="#DejaVuSans-Bold-6f" x="177.783203"/>
    <use xlink:href="#DejaVuSans-Bold-6c" x="246.484375"/>
    <use xlink:href="#DejaVuSans-Bold-6f" x="280.761719"/>
    <use xlink:href="#DejaVuSans-Bold-72" x="349.462891"/>
    <use xlink:href="#DejaVuSans-Bold-20" x="398.779297"/>
    <use xlink:href="#DejaVuSans-Bold-69" x="433.59375"/>
    <use xlink:href="#DejaVuSans-Bold-6e" x="467.871094"/>
    <use xlink:href="#DejaVuSans-Bold-20" x="539.0625"/>
    <use xlink:href="#DejaVuSans-Bold-4f" x="573.876953"/>
    <use xlink:href="#DejaVuSans-Bold-6b" x="658.886719"/>
    <use xlink:href="#DejaVuSans-Bold-6c" x="725.390625"/>
    <use xlink:href="#DejaVuSans-Bold-61" x="759.667969"/>
    <use xlink:href="#DejaVuSans-Bold-62" x="827.148438"/>
   </g>
  </g>
 </g>
 <defs>
  <clipPath id="p475dd395a5">
   <path d="M 341.51827 211.490781 
C 341.51827 191.249662 337.531211 171.205362 329.78527 152.505006 
C 322.039329 133.804649 310.685145 116.811912 296.372512 102.499279 
C 282.059879 88.186647 265.067142 76.832463 246.366786 69.086522 
C 227.66643 61.34058 207.62213 57.353521 187.38101 57.353521 
C 167.13989 57.353521 147.09559 61.34058 128.395234 69.086522 
C 109.694878 76.832463 92.702141 88.186647 78.389508 102.499279 
C 64.076875 116.811912 52.722691 133.804649 44.97675 152.505006 
C 37.230809 171.205362 33.24375 191.249662 33.24375 211.490781 
C 33.24375 231.731901 37.230809 251.776201 44.97675 270.476557 
C 52.722691 289.176913 64.076875 306.16965 78.389508 320.482283 
C 92.702141 334.794916 109.694878 346.1491 128.395234 353.895041 
C 147.09559 361.640982 167.13989 365.628041 187.38101 365.628041 
C 207.62213 365.628041 227.66643 361.640982 246.366786 353.895041 
C 265.067142 346.1491 282.059879 334.794916 296.372512 320.482283 
C 310.685145 306.16965 322.039329 289.176913 329.78527 270.476557 
C 337.531211 251.776201 341.51827 231.731901 341.51827 211.490781 
M 187.38101 211.490781 
C 187.38101 211.490781 187.38101 211.490781 187.38101 211.490781 
C 187.38101 211.490781 187.38101 211.490781 187.38101 211.490781 
C 187.38101 211.490781 187.38101 211.490781 187.38101 211.490781 
C 187.38101 211.490781 187.38101 211.490781 187.38101 211.490781 
C 187.38101 211.490781 187.38101 211.490781 187.38101 211.490781 
C 187.38101 211.490781 187.38101 211.490781 187.38101 211.490781 
C 187.38101 211.490781 187.38101 211.490781 187.38101 211.490781 
C 187.38101 211.490781 187.38101 211.490781 187.38101 211.490781 
C 187.38101 211.490781 187.38101 211.490781 187.38101 211.490781 
C 187.38101 211.490781 187.38101 211.490781 187.38101 211.490781 
C 187.38101 211.490781 187.38101 211.490781 187.38101 211.490781 
C 187.38101 211.490781 187.38101 211.490781 187.38101 211.490781 
C 187.38101 211.490781 187.38101 211.490781 187.38101 211.490781 
C 187.38101 211.490781 187.38101 211.490781 187.38101 211.490781 
C 187.38101 211.490781 187.38101 211.490781 187.38101 211.490781 
C 187.38101 211.490781 187.38101 211.490781 187.38101 211.490781 
z
"/>
  </clipPath>
 </defs>
</svg>
