<?xml version="1.0" encoding="utf-8" standalone="no"?>
<!DOCTYPE svg PUBLIC "-//W3C//DTD SVG 1.1//EN"
  "http://www.w3.org/Graphics/SVG/1.1/DTD/svg11.dtd">
<svg xmlns:xlink="http://www.w3.org/1999/xlink" width="337.325pt" height="353.39625pt" viewBox="0 0 337.325 353.39625" xmlns="http://www.w3.org/2000/svg" version="1.1">
 <metadata>
  <rdf:RDF xmlns:dc="http://purl.org/dc/elements/1.1/" xmlns:cc="http://creativecommons.org/ns#" xmlns:rdf="http://www.w3.org/1999/02/22-rdf-syntax-ns#">
   <cc:Work>
    <dc:type rdf:resource="http://purl.org/dc/dcmitype/StillImage"/>
    <dc:date>2024-06-22T22:20:50.388359</dc:date>
    <dc:format>image/svg+xml</dc:format>
    <dc:creator>
     <cc:Agent>
      <dc:title>Matplotlib v3.9.0, https://matplotlib.org/</dc:title>
     </cc:Agent>
    </dc:creator>
   </cc:Work>
  </rdf:RDF>
 </metadata>
 <defs>
  <style type="text/css">*{stroke-linejoin: round; stroke-linecap: butt}</style>
 </defs>
 <g id="figure_1">
  <g id="patch_1">
   <path d="M 0 353.39625 
L 337.325 353.39625 
L 337.325 0 
L 0 0 
z
" style="fill: #ffffff"/>
  </g>
  <g id="axes_1">
   <g id="patch_2">
    <path d="M 310.44375 188.757188 
C 310.44375 170.556402 306.858592 152.532597 299.893453 135.717264 
C 292.928314 118.901931 282.718649 103.622086 269.84875 90.752188 
C 256.978851 77.882289 241.699007 67.672623 224.883674 60.707484 
C 208.068341 53.742345 190.044535 50.157188 171.84375 50.157188 
C 153.642965 50.157188 135.619159 53.742345 118.803826 60.707484 
C 101.988493 67.672623 86.708649 77.882289 73.83875 90.752188 
C 60.968851 103.622086 50.759186 118.901931 43.794047 135.717264 
C 36.828908 152.532597 33.24375 170.556402 33.24375 188.757188 
C 33.24375 206.957973 36.828908 224.981778 43.794047 241.797111 
C 50.759186 258.612444 60.968851 273.892289 73.83875 286.762187 
C 86.708649 299.632086 101.988493 309.841752 118.803826 316.806891 
C 135.619159 323.77203 153.642965 327.357188 171.84375 327.357188 
C 190.044535 327.357188 208.068341 323.77203 224.883674 316.806891 
C 241.699007 309.841752 256.978851 299.632086 269.84875 286.762187 
C 282.718649 273.892289 292.928314 258.612444 299.893453 241.797111 
C 306.858592 224.981778 310.44375 206.957973 310.44375 188.757188 
M 171.84375 188.757188 
C 171.84375 188.757188 171.84375 188.757188 171.84375 188.757188 
C 171.84375 188.757188 171.84375 188.757188 171.84375 188.757188 
C 171.84375 188.757188 171.84375 188.757188 171.84375 188.757188 
C 171.84375 188.757188 171.84375 188.757188 171.84375 188.757188 
C 171.84375 188.757188 171.84375 188.757188 171.84375 188.757188 
C 171.84375 188.757188 171.84375 188.757188 171.84375 188.757188 
C 171.84375 188.757188 171.84375 188.757188 171.84375 188.757188 
C 171.84375 188.757188 171.84375 188.757188 171.84375 188.757188 
C 171.84375 188.757188 171.84375 188.757188 171.84375 188.757188 
C 171.84375 188.757188 171.84375 188.757188 171.84375 188.757188 
C 171.84375 188.757188 171.84375 188.757188 171.84375 188.757188 
C 171.84375 188.757188 171.84375 188.757188 171.84375 188.757188 
C 171.84375 188.757188 171.84375 188.757188 171.84375 188.757188 
C 171.84375 188.757188 171.84375 188.757188 171.84375 188.757188 
C 171.84375 188.757188 171.84375 188.757188 171.84375 188.757188 
C 171.84375 188.757188 171.84375 188.757188 171.84375 188.757188 
z
" style="fill: #ffffff"/>
   </g>
   <g id="matplotlib.axis_1">
    <g id="xtick_1">
     <g id="line2d_1">
      <path d="M 171.84375 188.757188 
L 310.44375 188.757188 
" clip-path="url(#p110e852041)" style="fill: none; stroke: #b0b0b0; stroke-width: 0.8; stroke-linecap: square"/>
     </g>
     <g id="text_1">
      <!-- 0° -->
      <g transform="translate(318.7625 191.516563) scale(0.1 -0.1)">
       <defs>
        <path id="DejaVuSans-30" d="M 2034 4250 
Q 1547 4250 1301 3770 
Q 1056 3291 1056 2328 
Q 1056 1369 1301 889 
Q 1547 409 2034 409 
Q 2525 409 2770 889 
Q 3016 1369 3016 2328 
Q 3016 3291 2770 3770 
Q 2525 4250 2034 4250 
z
M 2034 4750 
Q 2819 4750 3233 4129 
Q 3647 3509 3647 2328 
Q 3647 1150 3233 529 
Q 2819 -91 2034 -91 
Q 1250 -91 836 529 
Q 422 1150 422 2328 
Q 422 3509 836 4129 
Q 1250 4750 2034 4750 
z
" transform="scale(0.015625)"/>
        <path id="DejaVuSans-b0" d="M 1600 4347 
Q 1350 4347 1178 4173 
Q 1006 4000 1006 3750 
Q 1006 3503 1178 3333 
Q 1350 3163 1600 3163 
Q 1850 3163 2022 3333 
Q 2194 3503 2194 3750 
Q 2194 3997 2020 4172 
Q 1847 4347 1600 4347 
z
M 1600 4750 
Q 1800 4750 1984 4673 
Q 2169 4597 2303 4453 
Q 2447 4313 2519 4134 
Q 2591 3956 2591 3750 
Q 2591 3338 2302 3052 
Q 2013 2766 1594 2766 
Q 1172 2766 890 3047 
Q 609 3328 609 3750 
Q 609 4169 896 4459 
Q 1184 4750 1600 4750 
z
" transform="scale(0.015625)"/>
       </defs>
       <use xlink:href="#DejaVuSans-30"/>
       <use xlink:href="#DejaVuSans-b0" x="63.623047"/>
      </g>
     </g>
    </g>
    <g id="xtick_2">
     <g id="line2d_2">
      <path d="M 171.84375 188.757188 
L 269.84875 90.752188 
" clip-path="url(#p110e852041)" style="fill: none; stroke: #b0b0b0; stroke-width: 0.8; stroke-linecap: square"/>
     </g>
     <g id="text_2">
      <!-- 45° -->
      <g transform="translate(270.885745 83.612068) scale(0.1 -0.1)">
       <defs>
        <path id="DejaVuSans-34" d="M 2419 4116 
L 825 1625 
L 2419 1625 
L 2419 4116 
z
M 2253 4666 
L 3047 4666 
L 3047 1625 
L 3713 1625 
L 3713 1100 
L 3047 1100 
L 3047 0 
L 2419 0 
L 2419 1100 
L 313 1100 
L 313 1709 
L 2253 4666 
z
" transform="scale(0.015625)"/>
        <path id="DejaVuSans-35" d="M 691 4666 
L 3169 4666 
L 3169 4134 
L 1269 4134 
L 1269 2991 
Q 1406 3038 1543 3061 
Q 1681 3084 1819 3084 
Q 2600 3084 3056 2656 
Q 3513 2228 3513 1497 
Q 3513 744 3044 326 
Q 2575 -91 1722 -91 
Q 1428 -91 1123 -41 
Q 819 9 494 109 
L 494 744 
Q 775 591 1075 516 
Q 1375 441 1709 441 
Q 2250 441 2565 725 
Q 2881 1009 2881 1497 
Q 2881 1984 2565 2268 
Q 2250 2553 1709 2553 
Q 1456 2553 1204 2497 
Q 953 2441 691 2322 
L 691 4666 
z
" transform="scale(0.015625)"/>
       </defs>
       <use xlink:href="#DejaVuSans-34"/>
       <use xlink:href="#DejaVuSans-35" x="63.623047"/>
       <use xlink:href="#DejaVuSans-b0" x="127.246094"/>
      </g>
     </g>
    </g>
    <g id="xtick_3">
     <g id="line2d_3">
      <path d="M 171.84375 188.757188 
L 171.84375 50.157188 
" clip-path="url(#p110e852041)" style="fill: none; stroke: #b0b0b0; stroke-width: 0.8; stroke-linecap: square"/>
     </g>
     <g id="text_3">
      <!-- 90° -->
      <g transform="translate(162.98125 38.916563) scale(0.1 -0.1)">
       <defs>
        <path id="DejaVuSans-39" d="M 703 97 
L 703 672 
Q 941 559 1184 500 
Q 1428 441 1663 441 
Q 2288 441 2617 861 
Q 2947 1281 2994 2138 
Q 2813 1869 2534 1725 
Q 2256 1581 1919 1581 
Q 1219 1581 811 2004 
Q 403 2428 403 3163 
Q 403 3881 828 4315 
Q 1253 4750 1959 4750 
Q 2769 4750 3195 4129 
Q 3622 3509 3622 2328 
Q 3622 1225 3098 567 
Q 2575 -91 1691 -91 
Q 1453 -91 1209 -44 
Q 966 3 703 97 
z
M 1959 2075 
Q 2384 2075 2632 2365 
Q 2881 2656 2881 3163 
Q 2881 3666 2632 3958 
Q 2384 4250 1959 4250 
Q 1534 4250 1286 3958 
Q 1038 3666 1038 3163 
Q 1038 2656 1286 2365 
Q 1534 2075 1959 2075 
z
" transform="scale(0.015625)"/>
       </defs>
       <use xlink:href="#DejaVuSans-39"/>
       <use xlink:href="#DejaVuSans-30" x="63.623047"/>
       <use xlink:href="#DejaVuSans-b0" x="127.246094"/>
      </g>
     </g>
    </g>
    <g id="xtick_4">
     <g id="line2d_4">
      <path d="M 171.84375 188.757188 
L 73.83875 90.752188 
" clip-path="url(#p110e852041)" style="fill: none; stroke: #b0b0b0; stroke-width: 0.8; stroke-linecap: square"/>
     </g>
     <g id="text_4">
      <!-- 135° -->
      <g transform="translate(51.895505 83.612068) scale(0.1 -0.1)">
       <defs>
        <path id="DejaVuSans-31" d="M 794 531 
L 1825 531 
L 1825 4091 
L 703 3866 
L 703 4441 
L 1819 4666 
L 2450 4666 
L 2450 531 
L 3481 531 
L 3481 0 
L 794 0 
L 794 531 
z
" transform="scale(0.015625)"/>
        <path id="DejaVuSans-33" d="M 2597 2516 
Q 3050 2419 3304 2112 
Q 3559 1806 3559 1356 
Q 3559 666 3084 287 
Q 2609 -91 1734 -91 
Q 1441 -91 1130 -33 
Q 819 25 488 141 
L 488 750 
Q 750 597 1062 519 
Q 1375 441 1716 441 
Q 2309 441 2620 675 
Q 2931 909 2931 1356 
Q 2931 1769 2642 2001 
Q 2353 2234 1838 2234 
L 1294 2234 
L 1294 2753 
L 1863 2753 
Q 2328 2753 2575 2939 
Q 2822 3125 2822 3475 
Q 2822 3834 2567 4026 
Q 2313 4219 1838 4219 
Q 1578 4219 1281 4162 
Q 984 4106 628 3988 
L 628 4550 
Q 988 4650 1302 4700 
Q 1616 4750 1894 4750 
Q 2613 4750 3031 4423 
Q 3450 4097 3450 3541 
Q 3450 3153 3228 2886 
Q 3006 2619 2597 2516 
z
" transform="scale(0.015625)"/>
       </defs>
       <use xlink:href="#DejaVuSans-31"/>
       <use xlink:href="#DejaVuSans-33" x="63.623047"/>
       <use xlink:href="#DejaVuSans-35" x="127.246094"/>
       <use xlink:href="#DejaVuSans-b0" x="190.869141"/>
      </g>
     </g>
    </g>
    <g id="xtick_5">
     <g id="line2d_5">
      <path d="M 171.84375 188.757188 
L 33.24375 188.757188 
" clip-path="url(#p110e852041)" style="fill: none; stroke: #b0b0b0; stroke-width: 0.8; stroke-linecap: square"/>
     </g>
     <g id="text_5">
      <!-- 180° -->
      <g transform="translate(7.2 191.516563) scale(0.1 -0.1)">
       <defs>
        <path id="DejaVuSans-38" d="M 2034 2216 
Q 1584 2216 1326 1975 
Q 1069 1734 1069 1313 
Q 1069 891 1326 650 
Q 1584 409 2034 409 
Q 2484 409 2743 651 
Q 3003 894 3003 1313 
Q 3003 1734 2745 1975 
Q 2488 2216 2034 2216 
z
M 1403 2484 
Q 997 2584 770 2862 
Q 544 3141 544 3541 
Q 544 4100 942 4425 
Q 1341 4750 2034 4750 
Q 2731 4750 3128 4425 
Q 3525 4100 3525 3541 
Q 3525 3141 3298 2862 
Q 3072 2584 2669 2484 
Q 3125 2378 3379 2068 
Q 3634 1759 3634 1313 
Q 3634 634 3220 271 
Q 2806 -91 2034 -91 
Q 1263 -91 848 271 
Q 434 634 434 1313 
Q 434 1759 690 2068 
Q 947 2378 1403 2484 
z
M 1172 3481 
Q 1172 3119 1398 2916 
Q 1625 2713 2034 2713 
Q 2441 2713 2670 2916 
Q 2900 3119 2900 3481 
Q 2900 3844 2670 4047 
Q 2441 4250 2034 4250 
Q 1625 4250 1398 4047 
Q 1172 3844 1172 3481 
z
" transform="scale(0.015625)"/>
       </defs>
       <use xlink:href="#DejaVuSans-31"/>
       <use xlink:href="#DejaVuSans-38" x="63.623047"/>
       <use xlink:href="#DejaVuSans-30" x="127.246094"/>
       <use xlink:href="#DejaVuSans-b0" x="190.869141"/>
      </g>
     </g>
    </g>
    <g id="xtick_6">
     <g id="line2d_6">
      <path d="M 171.84375 188.757188 
L 73.83875 286.762187 
" clip-path="url(#p110e852041)" style="fill: none; stroke: #b0b0b0; stroke-width: 0.8; stroke-linecap: square"/>
     </g>
     <g id="text_6">
      <!-- 225° -->
      <g transform="translate(51.895505 299.421057) scale(0.1 -0.1)">
       <defs>
        <path id="DejaVuSans-32" d="M 1228 531 
L 3431 531 
L 3431 0 
L 469 0 
L 469 531 
Q 828 903 1448 1529 
Q 2069 2156 2228 2338 
Q 2531 2678 2651 2914 
Q 2772 3150 2772 3378 
Q 2772 3750 2511 3984 
Q 2250 4219 1831 4219 
Q 1534 4219 1204 4116 
Q 875 4013 500 3803 
L 500 4441 
Q 881 4594 1212 4672 
Q 1544 4750 1819 4750 
Q 2544 4750 2975 4387 
Q 3406 4025 3406 3419 
Q 3406 3131 3298 2873 
Q 3191 2616 2906 2266 
Q 2828 2175 2409 1742 
Q 1991 1309 1228 531 
z
" transform="scale(0.015625)"/>
       </defs>
       <use xlink:href="#DejaVuSans-32"/>
       <use xlink:href="#DejaVuSans-32" x="63.623047"/>
       <use xlink:href="#DejaVuSans-35" x="127.246094"/>
       <use xlink:href="#DejaVuSans-b0" x="190.869141"/>
      </g>
     </g>
    </g>
    <g id="xtick_7">
     <g id="line2d_7">
      <path d="M 171.84375 188.757188 
L 171.84375 327.357188 
" clip-path="url(#p110e852041)" style="fill: none; stroke: #b0b0b0; stroke-width: 0.8; stroke-linecap: square"/>
     </g>
     <g id="text_7">
      <!-- 270° -->
      <g transform="translate(159.8 344.116563) scale(0.1 -0.1)">
       <defs>
        <path id="DejaVuSans-37" d="M 525 4666 
L 3525 4666 
L 3525 4397 
L 1831 0 
L 1172 0 
L 2766 4134 
L 525 4134 
L 525 4666 
z
" transform="scale(0.015625)"/>
       </defs>
       <use xlink:href="#DejaVuSans-32"/>
       <use xlink:href="#DejaVuSans-37" x="63.623047"/>
       <use xlink:href="#DejaVuSans-30" x="127.246094"/>
       <use xlink:href="#DejaVuSans-b0" x="190.869141"/>
      </g>
     </g>
    </g>
    <g id="xtick_8">
     <g id="line2d_8">
      <path d="M 171.84375 188.757188 
L 269.84875 286.762187 
" clip-path="url(#p110e852041)" style="fill: none; stroke: #b0b0b0; stroke-width: 0.8; stroke-linecap: square"/>
     </g>
     <g id="text_8">
      <!-- 315° -->
      <g transform="translate(267.704495 299.421057) scale(0.1 -0.1)">
       <use xlink:href="#DejaVuSans-33"/>
       <use xlink:href="#DejaVuSans-31" x="63.623047"/>
       <use xlink:href="#DejaVuSans-35" x="127.246094"/>
       <use xlink:href="#DejaVuSans-b0" x="190.869141"/>
      </g>
     </g>
    </g>
   </g>
   <g id="matplotlib.axis_2">
    <g id="ytick_1">
     <g id="line2d_9">
      <path d="M 194.94375 188.757188 
C 194.94375 185.723723 194.346224 182.719756 193.185367 179.9172 
C 192.024511 177.114645 190.3229 174.568004 188.177917 172.423021 
C 186.032934 170.278038 183.486293 168.576427 180.683737 167.41557 
C 177.881182 166.254714 174.877214 165.657188 171.84375 165.657188 
C 168.810286 165.657188 165.806318 166.254714 163.003763 167.41557 
C 160.201207 168.576427 157.654566 170.278038 155.509583 172.423021 
C 153.3646 174.568004 151.662989 177.114645 150.502133 179.9172 
C 149.341276 182.719756 148.74375 185.723723 148.74375 188.757188 
C 148.74375 191.790652 149.341276 194.794619 150.502133 197.597175 
C 151.662989 200.39973 153.3646 202.946371 155.509583 205.091354 
C 157.654566 207.236337 160.201207 208.937948 163.003763 210.098805 
C 165.806318 211.259661 168.810286 211.857188 171.84375 211.857188 
C 174.877214 211.857188 177.881182 211.259661 180.683737 210.098805 
C 183.486293 208.937948 186.032934 207.236337 188.177917 205.091354 
C 190.3229 202.946371 192.024511 200.39973 193.185367 197.597175 
C 194.346224 194.794619 194.94375 191.790652 194.94375 188.757188 
" clip-path="url(#p110e852041)" style="fill: none; stroke: #b0b0b0; stroke-width: 0.8; stroke-linecap: square"/>
     </g>
     <g id="text_9">
      <!-- 0.05 -->
      <g transform="translate(183.810937 186.6775) scale(0.1 -0.1)">
       <defs>
        <path id="DejaVuSans-2e" d="M 684 794 
L 1344 794 
L 1344 0 
L 684 0 
L 684 794 
z
" transform="scale(0.015625)"/>
       </defs>
       <use xlink:href="#DejaVuSans-30"/>
       <use xlink:href="#DejaVuSans-2e" x="63.623047"/>
       <use xlink:href="#DejaVuSans-30" x="95.410156"/>
       <use xlink:href="#DejaVuSans-35" x="159.033203"/>
      </g>
     </g>
    </g>
    <g id="ytick_2">
     <g id="line2d_10">
      <path d="M 218.04375 188.757188 
C 218.04375 182.690259 216.848697 176.682324 214.526984 171.077213 
C 212.205271 165.472102 208.80205 160.37882 204.512083 156.088854 
C 200.222117 151.798888 195.128836 148.395666 189.523725 146.073953 
C 183.918614 143.75224 177.910678 142.557188 171.84375 142.557188 
C 165.776822 142.557188 159.768886 143.75224 154.163775 146.073953 
C 148.558664 148.395666 143.465383 151.798888 139.175417 156.088854 
C 134.88545 160.37882 131.482229 165.472102 129.160516 171.077213 
C 126.838803 176.682324 125.64375 182.690259 125.64375 188.757188 
C 125.64375 194.824116 126.838803 200.832051 129.160516 206.437162 
C 131.482229 212.042273 134.88545 217.135555 139.175417 221.425521 
C 143.465383 225.715487 148.558664 229.118709 154.163775 231.440422 
C 159.768886 233.762135 165.776822 234.957188 171.84375 234.957188 
C 177.910678 234.957188 183.918614 233.762135 189.523725 231.440422 
C 195.128836 229.118709 200.222117 225.715487 204.512083 221.425521 
C 208.80205 217.135555 212.205271 212.042273 214.526984 206.437162 
C 216.848697 200.832051 218.04375 194.824116 218.04375 188.757188 
" clip-path="url(#p110e852041)" style="fill: none; stroke: #b0b0b0; stroke-width: 0.8; stroke-linecap: square"/>
     </g>
    </g>
    <g id="ytick_3">
     <g id="line2d_11">
      <path d="M 241.14375 188.757188 
C 241.14375 179.656795 239.351171 170.644892 235.868602 162.237226 
C 232.386032 153.829559 227.281199 146.189637 220.84625 139.754688 
C 214.411301 133.319738 206.771378 128.214905 198.363712 124.732336 
C 189.956045 121.249766 180.944143 119.457188 171.84375 119.457188 
C 162.743357 119.457188 153.731455 121.249766 145.323788 124.732336 
C 136.916122 128.214905 129.276199 133.319738 122.84125 139.754688 
C 116.406301 146.189637 111.301468 153.829559 107.818898 162.237226 
C 104.336329 170.644892 102.54375 179.656795 102.54375 188.757188 
C 102.54375 197.85758 104.336329 206.869483 107.818898 215.277149 
C 111.301468 223.684816 116.406301 231.324738 122.84125 237.759687 
C 129.276199 244.194637 136.916122 249.29947 145.323788 252.782039 
C 153.731455 256.264609 162.743357 258.057188 171.84375 258.057188 
C 180.944143 258.057188 189.956045 256.264609 198.363712 252.782039 
C 206.771378 249.29947 214.411301 244.194637 220.84625 237.759687 
C 227.281199 231.324738 232.386032 223.684816 235.868602 215.277149 
C 239.351171 206.869483 241.14375 197.85758 241.14375 188.757188 
" clip-path="url(#p110e852041)" style="fill: none; stroke: #b0b0b0; stroke-width: 0.8; stroke-linecap: square"/>
     </g>
     <g id="text_10">
      <!-- 0.15 -->
      <g transform="translate(230.010938 186.6775) scale(0.1 -0.1)">
       <use xlink:href="#DejaVuSans-30"/>
       <use xlink:href="#DejaVuSans-2e" x="63.623047"/>
       <use xlink:href="#DejaVuSans-31" x="95.410156"/>
       <use xlink:href="#DejaVuSans-35" x="159.033203"/>
      </g>
     </g>
    </g>
    <g id="ytick_4">
     <g id="line2d_12">
      <path d="M 264.24375 188.757188 
C 264.24375 176.623331 261.853645 164.60746 257.210219 153.397238 
C 252.566793 142.187016 245.760349 132.000453 237.180417 123.420521 
C 228.600484 114.840588 218.413921 108.034145 207.203699 103.390719 
C 195.993477 98.747293 183.977607 96.357188 171.84375 96.357188 
C 159.709893 96.357188 147.694023 98.747293 136.483801 103.390719 
C 125.273579 108.034145 115.087016 114.840588 106.507083 123.420521 
C 97.927151 132.000453 91.120707 142.187016 86.477281 153.397238 
C 81.833855 164.60746 79.44375 176.623331 79.44375 188.757188 
C 79.44375 200.891044 81.833855 212.906915 86.477281 224.117137 
C 91.120707 235.327359 97.927151 245.513922 106.507083 254.093854 
C 115.087016 262.673787 125.273579 269.48023 136.483801 274.123656 
C 147.694023 278.767082 159.709893 281.157188 171.84375 281.157188 
C 183.977607 281.157188 195.993477 278.767082 207.203699 274.123656 
C 218.413921 269.48023 228.600484 262.673787 237.180417 254.093854 
C 245.760349 245.513922 252.566793 235.327359 257.210219 224.117137 
C 261.853645 212.906915 264.24375 200.891044 264.24375 188.757188 
" clip-path="url(#p110e852041)" style="fill: none; stroke: #b0b0b0; stroke-width: 0.8; stroke-linecap: square"/>
     </g>
    </g>
    <g id="ytick_5">
     <g id="line2d_13">
      <path d="M 287.34375 188.757188 
C 287.34375 173.589866 284.356118 158.570029 278.551836 144.557251 
C 272.747554 130.544474 264.239499 117.81127 253.514583 107.086354 
C 242.789668 96.361439 230.056464 87.853384 216.043686 82.049101 
C 202.030909 76.244819 187.011071 73.257188 171.84375 73.257188 
C 156.676429 73.257188 141.656591 76.244819 127.643814 82.049101 
C 113.631036 87.853384 100.897832 96.361439 90.172917 107.086354 
C 79.448001 117.81127 70.939946 130.544474 65.135664 144.557251 
C 59.331382 158.570029 56.34375 173.589866 56.34375 188.757188 
C 56.34375 203.924509 59.331382 218.944346 65.135664 232.957124 
C 70.939946 246.969901 79.448001 259.703105 90.172917 270.428021 
C 100.897832 281.152936 113.631036 289.660991 127.643814 295.465274 
C 141.656591 301.269556 156.676429 304.257188 171.84375 304.257188 
C 187.011071 304.257188 202.030909 301.269556 216.043686 295.465274 
C 230.056464 289.660991 242.789668 281.152936 253.514583 270.428021 
C 264.239499 259.703105 272.747554 246.969901 278.551836 232.957124 
C 284.356118 218.944346 287.34375 203.924509 287.34375 188.757188 
" clip-path="url(#p110e852041)" style="fill: none; stroke: #b0b0b0; stroke-width: 0.8; stroke-linecap: square"/>
     </g>
     <g id="text_11">
      <!-- 0.25 -->
      <g transform="translate(276.210938 186.6775) scale(0.1 -0.1)">
       <use xlink:href="#DejaVuSans-30"/>
       <use xlink:href="#DejaVuSans-2e" x="63.623047"/>
       <use xlink:href="#DejaVuSans-32" x="95.410156"/>
       <use xlink:href="#DejaVuSans-35" x="159.033203"/>
      </g>
     </g>
    </g>
    <g id="ytick_6">
     <g id="line2d_14">
      <path d="M 310.44375 188.757188 
C 310.44375 170.556402 306.858592 152.532597 299.893453 135.717264 
C 292.928314 118.901931 282.718649 103.622086 269.84875 90.752188 
C 256.978851 77.882289 241.699007 67.672623 224.883674 60.707484 
C 208.068341 53.742345 190.044535 50.157188 171.84375 50.157188 
C 153.642965 50.157188 135.619159 53.742345 118.803826 60.707484 
C 101.988493 67.672623 86.708649 77.882289 73.83875 90.752188 
C 60.968851 103.622086 50.759186 118.901931 43.794047 135.717264 
C 36.828908 152.532597 33.24375 170.556402 33.24375 188.757188 
C 33.24375 206.957973 36.828908 224.981778 43.794047 241.797111 
C 50.759186 258.612444 60.968851 273.892289 73.83875 286.762187 
C 86.708649 299.632086 101.988493 309.841752 118.803826 316.806891 
C 135.619159 323.77203 153.642965 327.357188 171.84375 327.357188 
C 190.044535 327.357188 208.068341 323.77203 224.883674 316.806891 
C 241.699007 309.841752 256.978851 299.632086 269.84875 286.762187 
C 282.718649 273.892289 292.928314 258.612444 299.893453 241.797111 
C 306.858592 224.981778 310.44375 206.957973 310.44375 188.757188 
" clip-path="url(#p110e852041)" style="fill: none; stroke: #b0b0b0; stroke-width: 0.8; stroke-linecap: square"/>
     </g>
    </g>
   </g>
   <g id="PathCollection_1">
    <defs>
     <path id="m0a61d6a5c7" d="M 0 4.472136 
C 1.186024 4.472136 2.323632 4.000923 3.162278 3.162278 
C 4.000923 2.323632 4.472136 1.186024 4.472136 0 
C 4.472136 -1.186024 4.000923 -2.323632 3.162278 -3.162278 
C 2.323632 -4.000923 1.186024 -4.472136 0 -4.472136 
C -1.186024 -4.472136 -2.323632 -4.000923 -3.162278 -3.162278 
C -4.000923 -2.323632 -4.472136 -1.186024 -4.472136 0 
C -4.472136 1.186024 -4.000923 2.323632 -3.162278 3.162278 
C -2.323632 4.000923 -1.186024 4.472136 0 4.472136 
z
" style="stroke: #000000"/>
    </defs>
    <g clip-path="url(#p110e852041)">
     <use xlink:href="#m0a61d6a5c7" x="235.291517" y="246.342693" style="fill: #e187fd; stroke: #000000"/>
    </g>
   </g>
   <g id="PathCollection_2">
    <defs>
     <path id="m9c5d78dafe" d="M 0 4.472136 
C 1.186024 4.472136 2.323632 4.000923 3.162278 3.162278 
C 4.000923 2.323632 4.472136 1.186024 4.472136 0 
C 4.472136 -1.186024 4.000923 -2.323632 3.162278 -3.162278 
C 2.323632 -4.000923 1.186024 -4.472136 0 -4.472136 
C -1.186024 -4.472136 -2.323632 -4.000923 -3.162278 -3.162278 
C -4.000923 -2.323632 -4.472136 -1.186024 -4.472136 0 
C -4.472136 1.186024 -4.000923 2.323632 -3.162278 3.162278 
C -2.323632 4.000923 -1.186024 4.472136 0 4.472136 
z
" style="stroke: #000000"/>
    </defs>
    <g clip-path="url(#p110e852041)">
     <use xlink:href="#m9c5d78dafe" x="192.671863" y="120.408988" style="fill: #f7aa31; stroke: #000000"/>
    </g>
   </g>
   <g id="PathCollection_3">
    <defs>
     <path id="mc8894a50fd" d="M 0 4.472136 
C 1.186024 4.472136 2.323632 4.000923 3.162278 3.162278 
C 4.000923 2.323632 4.472136 1.186024 4.472136 0 
C 4.472136 -1.186024 4.000923 -2.323632 3.162278 -3.162278 
C 2.323632 -4.000923 1.186024 -4.472136 0 -4.472136 
C -1.186024 -4.472136 -2.323632 -4.000923 -3.162278 -3.162278 
C -4.000923 -2.323632 -4.472136 -1.186024 -4.472136 0 
C -4.472136 1.186024 -4.000923 2.323632 -3.162278 3.162278 
C -2.323632 4.000923 -1.186024 4.472136 0 4.472136 
z
" style="stroke: #000000"/>
    </defs>
    <g clip-path="url(#p110e852041)">
     <use xlink:href="#mc8894a50fd" x="213.98169" y="183.37584" style="fill: #ea9eac; stroke: #000000"/>
    </g>
   </g>
   <g id="PathCollection_4">
    <defs>
     <path id="mc779eacbc2" d="M 0 4.472136 
C 1.186024 4.472136 2.323632 4.000923 3.162278 3.162278 
C 4.000923 2.323632 4.472136 1.186024 4.472136 0 
C 4.472136 -1.186024 4.000923 -2.323632 3.162278 -3.162278 
C 2.323632 -4.000923 1.186024 -4.472136 0 -4.472136 
C -1.186024 -4.472136 -2.323632 -4.000923 -3.162278 -3.162278 
C -4.000923 -2.323632 -4.472136 -1.186024 -4.472136 0 
C -4.472136 1.186024 -4.000923 2.323632 -3.162278 3.162278 
C -2.323632 4.000923 -1.186024 4.472136 0 4.472136 
z
" style="stroke: #000000"/>
    </defs>
    <g clip-path="url(#p110e852041)">
     <use xlink:href="#mc779eacbc2" x="247.506759" y="167.912885" style="fill: #ff8995; stroke: #000000"/>
    </g>
   </g>
   <g id="PathCollection_5">
    <defs>
     <path id="m545e474b59" d="M 0 4.472136 
C 1.186024 4.472136 2.323632 4.000923 3.162278 3.162278 
C 4.000923 2.323632 4.472136 1.186024 4.472136 0 
C 4.472136 -1.186024 4.000923 -2.323632 3.162278 -3.162278 
C 2.323632 -4.000923 1.186024 -4.472136 0 -4.472136 
C -1.186024 -4.472136 -2.323632 -4.000923 -3.162278 -3.162278 
C -4.000923 -2.323632 -4.472136 -1.186024 -4.472136 0 
C -4.472136 1.186024 -4.000923 2.323632 -3.162278 3.162278 
C -2.323632 4.000923 -1.186024 4.472136 0 4.472136 
z
" style="stroke: #000000"/>
    </defs>
    <g clip-path="url(#p110e852041)">
     <use xlink:href="#m545e474b59" x="96.10173" y="209.637887" style="fill: #00d3d5; stroke: #000000"/>
    </g>
   </g>
   <g id="patch_3">
    <path d="M 310.44375 188.757188 
C 310.44375 170.556402 306.858592 152.532597 299.893453 135.717264 
C 292.928314 118.901931 282.718649 103.622086 269.84875 90.752188 
C 256.978851 77.882289 241.699007 67.672623 224.883674 60.707484 
C 208.068341 53.742345 190.044535 50.157188 171.84375 50.157188 
C 153.642965 50.157188 135.619159 53.742345 118.803826 60.707484 
C 101.988493 67.672623 86.708649 77.882289 73.83875 90.752188 
C 60.968851 103.622086 50.759186 118.901931 43.794047 135.717264 
C 36.828908 152.532597 33.24375 170.556402 33.24375 188.757188 
C 33.24375 206.957973 36.828908 224.981778 43.794047 241.797111 
C 50.759186 258.612444 60.968851 273.892289 73.83875 286.762187 
C 86.708649 299.632086 101.988493 309.841752 118.803826 316.806891 
C 135.619159 323.77203 153.642965 327.357188 171.84375 327.357188 
C 190.044535 327.357188 208.068341 323.77203 224.883674 316.806891 
C 241.699007 309.841752 256.978851 299.632086 269.84875 286.762187 
C 282.718649 273.892289 292.928314 258.612444 299.893453 241.797111 
C 306.858592 224.981778 310.44375 206.957973 310.44375 188.757188 
" style="fill: none; stroke: #000000; stroke-width: 0.8; stroke-linejoin: miter; stroke-linecap: square"/>
   </g>
   <g id="text_12">
    <!-- Hue &amp; Chroma for 5 Colors in Oklab -->
    <g transform="translate(51.651563 16.318125) scale(0.12 -0.12)">
     <defs>
      <path id="DejaVuSans-Bold-48" d="M 588 4666 
L 1791 4666 
L 1791 2888 
L 3566 2888 
L 3566 4666 
L 4769 4666 
L 4769 0 
L 3566 0 
L 3566 1978 
L 1791 1978 
L 1791 0 
L 588 0 
L 588 4666 
z
" transform="scale(0.015625)"/>
      <path id="DejaVuSans-Bold-75" d="M 500 1363 
L 500 3500 
L 1625 3500 
L 1625 3150 
Q 1625 2866 1622 2436 
Q 1619 2006 1619 1863 
Q 1619 1441 1641 1255 
Q 1663 1069 1716 984 
Q 1784 875 1895 815 
Q 2006 756 2150 756 
Q 2500 756 2700 1025 
Q 2900 1294 2900 1772 
L 2900 3500 
L 4019 3500 
L 4019 0 
L 2900 0 
L 2900 506 
Q 2647 200 2364 54 
Q 2081 -91 1741 -91 
Q 1134 -91 817 281 
Q 500 653 500 1363 
z
" transform="scale(0.015625)"/>
      <path id="DejaVuSans-Bold-65" d="M 4031 1759 
L 4031 1441 
L 1416 1441 
Q 1456 1047 1700 850 
Q 1944 653 2381 653 
Q 2734 653 3104 758 
Q 3475 863 3866 1075 
L 3866 213 
Q 3469 63 3072 -14 
Q 2675 -91 2278 -91 
Q 1328 -91 801 392 
Q 275 875 275 1747 
Q 275 2603 792 3093 
Q 1309 3584 2216 3584 
Q 3041 3584 3536 3087 
Q 4031 2591 4031 1759 
z
M 2881 2131 
Q 2881 2450 2695 2645 
Q 2509 2841 2209 2841 
Q 1884 2841 1681 2658 
Q 1478 2475 1428 2131 
L 2881 2131 
z
" transform="scale(0.015625)"/>
      <path id="DejaVuSans-Bold-20" transform="scale(0.015625)"/>
      <path id="DejaVuSans-Bold-26" d="M 2497 3097 
L 3775 1691 
Q 3941 1909 4027 2181 
Q 4113 2453 4128 2797 
L 5100 2797 
Q 5053 2228 4879 1784 
Q 4706 1341 4397 1006 
L 5313 0 
L 3988 0 
L 3681 341 
Q 3353 122 2990 15 
Q 2628 -91 2222 -91 
Q 1400 -91 892 342 
Q 384 775 384 1459 
Q 384 1916 607 2267 
Q 831 2619 1338 2950 
Q 1206 3116 1143 3281 
Q 1081 3447 1081 3628 
Q 1081 4138 1478 4444 
Q 1875 4750 2534 4750 
Q 2819 4750 3126 4704 
Q 3434 4659 3769 4569 
L 3769 3700 
Q 3475 3850 3212 3922 
Q 2950 3994 2700 3994 
Q 2459 3994 2326 3901 
Q 2194 3809 2194 3641 
Q 2194 3534 2270 3398 
Q 2347 3263 2497 3097 
z
M 1875 2322 
Q 1672 2175 1569 1989 
Q 1466 1803 1466 1581 
Q 1466 1222 1731 969 
Q 1997 716 2369 716 
Q 2578 716 2759 780 
Q 2941 844 3097 972 
L 1875 2322 
z
" transform="scale(0.015625)"/>
      <path id="DejaVuSans-Bold-43" d="M 4288 256 
Q 3956 84 3597 -3 
Q 3238 -91 2847 -91 
Q 1681 -91 1000 561 
Q 319 1213 319 2328 
Q 319 3447 1000 4098 
Q 1681 4750 2847 4750 
Q 3238 4750 3597 4662 
Q 3956 4575 4288 4403 
L 4288 3438 
Q 3953 3666 3628 3772 
Q 3303 3878 2944 3878 
Q 2300 3878 1931 3465 
Q 1563 3053 1563 2328 
Q 1563 1606 1931 1193 
Q 2300 781 2944 781 
Q 3303 781 3628 887 
Q 3953 994 4288 1222 
L 4288 256 
z
" transform="scale(0.015625)"/>
      <path id="DejaVuSans-Bold-68" d="M 4056 2131 
L 4056 0 
L 2931 0 
L 2931 347 
L 2931 1625 
Q 2931 2084 2911 2256 
Q 2891 2428 2841 2509 
Q 2775 2619 2662 2680 
Q 2550 2741 2406 2741 
Q 2056 2741 1856 2470 
Q 1656 2200 1656 1722 
L 1656 0 
L 538 0 
L 538 4863 
L 1656 4863 
L 1656 2988 
Q 1909 3294 2193 3439 
Q 2478 3584 2822 3584 
Q 3428 3584 3742 3212 
Q 4056 2841 4056 2131 
z
" transform="scale(0.015625)"/>
      <path id="DejaVuSans-Bold-72" d="M 3138 2547 
Q 2991 2616 2845 2648 
Q 2700 2681 2553 2681 
Q 2122 2681 1889 2404 
Q 1656 2128 1656 1613 
L 1656 0 
L 538 0 
L 538 3500 
L 1656 3500 
L 1656 2925 
Q 1872 3269 2151 3426 
Q 2431 3584 2822 3584 
Q 2878 3584 2943 3579 
Q 3009 3575 3134 3559 
L 3138 2547 
z
" transform="scale(0.015625)"/>
      <path id="DejaVuSans-Bold-6f" d="M 2203 2784 
Q 1831 2784 1636 2517 
Q 1441 2250 1441 1747 
Q 1441 1244 1636 976 
Q 1831 709 2203 709 
Q 2569 709 2762 976 
Q 2956 1244 2956 1747 
Q 2956 2250 2762 2517 
Q 2569 2784 2203 2784 
z
M 2203 3584 
Q 3106 3584 3614 3096 
Q 4122 2609 4122 1747 
Q 4122 884 3614 396 
Q 3106 -91 2203 -91 
Q 1297 -91 786 396 
Q 275 884 275 1747 
Q 275 2609 786 3096 
Q 1297 3584 2203 3584 
z
" transform="scale(0.015625)"/>
      <path id="DejaVuSans-Bold-6d" d="M 3781 2919 
Q 3994 3244 4286 3414 
Q 4578 3584 4928 3584 
Q 5531 3584 5847 3212 
Q 6163 2841 6163 2131 
L 6163 0 
L 5038 0 
L 5038 1825 
Q 5041 1866 5042 1909 
Q 5044 1953 5044 2034 
Q 5044 2406 4934 2573 
Q 4825 2741 4581 2741 
Q 4263 2741 4089 2478 
Q 3916 2216 3909 1719 
L 3909 0 
L 2784 0 
L 2784 1825 
Q 2784 2406 2684 2573 
Q 2584 2741 2328 2741 
Q 2006 2741 1831 2477 
Q 1656 2213 1656 1722 
L 1656 0 
L 531 0 
L 531 3500 
L 1656 3500 
L 1656 2988 
Q 1863 3284 2130 3434 
Q 2397 3584 2719 3584 
Q 3081 3584 3359 3409 
Q 3638 3234 3781 2919 
z
" transform="scale(0.015625)"/>
      <path id="DejaVuSans-Bold-61" d="M 2106 1575 
Q 1756 1575 1579 1456 
Q 1403 1338 1403 1106 
Q 1403 894 1545 773 
Q 1688 653 1941 653 
Q 2256 653 2472 879 
Q 2688 1106 2688 1447 
L 2688 1575 
L 2106 1575 
z
M 3816 1997 
L 3816 0 
L 2688 0 
L 2688 519 
Q 2463 200 2181 54 
Q 1900 -91 1497 -91 
Q 953 -91 614 226 
Q 275 544 275 1050 
Q 275 1666 698 1953 
Q 1122 2241 2028 2241 
L 2688 2241 
L 2688 2328 
Q 2688 2594 2478 2717 
Q 2269 2841 1825 2841 
Q 1466 2841 1156 2769 
Q 847 2697 581 2553 
L 581 3406 
Q 941 3494 1303 3539 
Q 1666 3584 2028 3584 
Q 2975 3584 3395 3211 
Q 3816 2838 3816 1997 
z
" transform="scale(0.015625)"/>
      <path id="DejaVuSans-Bold-66" d="M 2841 4863 
L 2841 4128 
L 2222 4128 
Q 1984 4128 1890 4042 
Q 1797 3956 1797 3744 
L 1797 3500 
L 2753 3500 
L 2753 2700 
L 1797 2700 
L 1797 0 
L 678 0 
L 678 2700 
L 122 2700 
L 122 3500 
L 678 3500 
L 678 3744 
Q 678 4316 997 4589 
Q 1316 4863 1984 4863 
L 2841 4863 
z
" transform="scale(0.015625)"/>
      <path id="DejaVuSans-Bold-35" d="M 678 4666 
L 3669 4666 
L 3669 3781 
L 1638 3781 
L 1638 3059 
Q 1775 3097 1914 3117 
Q 2053 3138 2203 3138 
Q 3056 3138 3531 2711 
Q 4006 2284 4006 1522 
Q 4006 766 3489 337 
Q 2972 -91 2053 -91 
Q 1656 -91 1267 -14 
Q 878 63 494 219 
L 494 1166 
Q 875 947 1217 837 
Q 1559 728 1863 728 
Q 2300 728 2551 942 
Q 2803 1156 2803 1522 
Q 2803 1891 2551 2103 
Q 2300 2316 1863 2316 
Q 1603 2316 1309 2248 
Q 1016 2181 678 2041 
L 678 4666 
z
" transform="scale(0.015625)"/>
      <path id="DejaVuSans-Bold-6c" d="M 538 4863 
L 1656 4863 
L 1656 0 
L 538 0 
L 538 4863 
z
" transform="scale(0.015625)"/>
      <path id="DejaVuSans-Bold-73" d="M 3272 3391 
L 3272 2541 
Q 2913 2691 2578 2766 
Q 2244 2841 1947 2841 
Q 1628 2841 1473 2761 
Q 1319 2681 1319 2516 
Q 1319 2381 1436 2309 
Q 1553 2238 1856 2203 
L 2053 2175 
Q 2913 2066 3209 1816 
Q 3506 1566 3506 1031 
Q 3506 472 3093 190 
Q 2681 -91 1863 -91 
Q 1516 -91 1145 -36 
Q 775 19 384 128 
L 384 978 
Q 719 816 1070 734 
Q 1422 653 1784 653 
Q 2113 653 2278 743 
Q 2444 834 2444 1013 
Q 2444 1163 2330 1236 
Q 2216 1309 1875 1350 
L 1678 1375 
Q 931 1469 631 1722 
Q 331 1975 331 2491 
Q 331 3047 712 3315 
Q 1094 3584 1881 3584 
Q 2191 3584 2531 3537 
Q 2872 3491 3272 3391 
z
" transform="scale(0.015625)"/>
      <path id="DejaVuSans-Bold-69" d="M 538 3500 
L 1656 3500 
L 1656 0 
L 538 0 
L 538 3500 
z
M 538 4863 
L 1656 4863 
L 1656 3950 
L 538 3950 
L 538 4863 
z
" transform="scale(0.015625)"/>
      <path id="DejaVuSans-Bold-6e" d="M 4056 2131 
L 4056 0 
L 2931 0 
L 2931 347 
L 2931 1631 
Q 2931 2084 2911 2256 
Q 2891 2428 2841 2509 
Q 2775 2619 2662 2680 
Q 2550 2741 2406 2741 
Q 2056 2741 1856 2470 
Q 1656 2200 1656 1722 
L 1656 0 
L 538 0 
L 538 3500 
L 1656 3500 
L 1656 2988 
Q 1909 3294 2193 3439 
Q 2478 3584 2822 3584 
Q 3428 3584 3742 3212 
Q 4056 2841 4056 2131 
z
" transform="scale(0.015625)"/>
      <path id="DejaVuSans-Bold-4f" d="M 2719 3878 
Q 2169 3878 1866 3472 
Q 1563 3066 1563 2328 
Q 1563 1594 1866 1187 
Q 2169 781 2719 781 
Q 3272 781 3575 1187 
Q 3878 1594 3878 2328 
Q 3878 3066 3575 3472 
Q 3272 3878 2719 3878 
z
M 2719 4750 
Q 3844 4750 4481 4106 
Q 5119 3463 5119 2328 
Q 5119 1197 4481 553 
Q 3844 -91 2719 -91 
Q 1597 -91 958 553 
Q 319 1197 319 2328 
Q 319 3463 958 4106 
Q 1597 4750 2719 4750 
z
" transform="scale(0.015625)"/>
      <path id="DejaVuSans-Bold-6b" d="M 538 4863 
L 1656 4863 
L 1656 2216 
L 2944 3500 
L 4244 3500 
L 2534 1894 
L 4378 0 
L 3022 0 
L 1656 1459 
L 1656 0 
L 538 0 
L 538 4863 
z
" transform="scale(0.015625)"/>
      <path id="DejaVuSans-Bold-62" d="M 2400 722 
Q 2759 722 2948 984 
Q 3138 1247 3138 1747 
Q 3138 2247 2948 2509 
Q 2759 2772 2400 2772 
Q 2041 2772 1848 2508 
Q 1656 2244 1656 1747 
Q 1656 1250 1848 986 
Q 2041 722 2400 722 
z
M 1656 2988 
Q 1888 3294 2169 3439 
Q 2450 3584 2816 3584 
Q 3463 3584 3878 3070 
Q 4294 2556 4294 1747 
Q 4294 938 3878 423 
Q 3463 -91 2816 -91 
Q 2450 -91 2169 54 
Q 1888 200 1656 506 
L 1656 0 
L 538 0 
L 538 4863 
L 1656 4863 
L 1656 2988 
z
" transform="scale(0.015625)"/>
     </defs>
     <use xlink:href="#DejaVuSans-Bold-48"/>
     <use xlink:href="#DejaVuSans-Bold-75" x="83.691406"/>
     <use xlink:href="#DejaVuSans-Bold-65" x="154.882812"/>
     <use xlink:href="#DejaVuSans-Bold-20" x="222.705078"/>
     <use xlink:href="#DejaVuSans-Bold-26" x="257.519531"/>
     <use xlink:href="#DejaVuSans-Bold-20" x="344.726562"/>
     <use xlink:href="#DejaVuSans-Bold-43" x="379.541016"/>
     <use xlink:href="#DejaVuSans-Bold-68" x="452.929688"/>
     <use xlink:href="#DejaVuSans-Bold-72" x="524.121094"/>
     <use xlink:href="#DejaVuSans-Bold-6f" x="573.4375"/>
     <use xlink:href="#DejaVuSans-Bold-6d" x="642.138672"/>
     <use xlink:href="#DejaVuSans-Bold-61" x="746.337891"/>
     <use xlink:href="#DejaVuSans-Bold-20" x="813.818359"/>
     <use xlink:href="#DejaVuSans-Bold-66" x="848.632812"/>
     <use xlink:href="#DejaVuSans-Bold-6f" x="892.138672"/>
     <use xlink:href="#DejaVuSans-Bold-72" x="960.839844"/>
     <use xlink:href="#DejaVuSans-Bold-20" x="1010.15625"/>
     <use xlink:href="#DejaVuSans-Bold-35" x="1044.970703"/>
     <use xlink:href="#DejaVuSans-Bold-20" x="1114.550781"/>
     <use xlink:href="#DejaVuSans-Bold-43" x="1149.365234"/>
     <use xlink:href="#DejaVuSans-Bold-6f" x="1222.753906"/>
     <use xlink:href="#DejaVuSans-Bold-6c" x="1291.455078"/>
     <use xlink:href="#DejaVuSans-Bold-6f" x="1325.732422"/>
     <use xlink:href="#DejaVuSans-Bold-72" x="1394.433594"/>
     <use xlink:href="#DejaVuSans-Bold-73" x="1443.75"/>
     <use xlink:href="#DejaVuSans-Bold-20" x="1503.271484"/>
     <use xlink:href="#DejaVuSans-Bold-69" x="1538.085938"/>
     <use xlink:href="#DejaVuSans-Bold-6e" x="1572.363281"/>
     <use xlink:href="#DejaVuSans-Bold-20" x="1643.554688"/>
     <use xlink:href="#DejaVuSans-Bold-4f" x="1678.369141"/>
     <use xlink:href="#DejaVuSans-Bold-6b" x="1763.378906"/>
     <use xlink:href="#DejaVuSans-Bold-6c" x="1829.882812"/>
     <use xlink:href="#DejaVuSans-Bold-61" x="1864.160156"/>
     <use xlink:href="#DejaVuSans-Bold-62" x="1931.640625"/>
    </g>
   </g>
  </g>
 </g>
 <defs>
  <clipPath id="p110e852041">
   <path d="M 310.44375 188.757188 
C 310.44375 170.556402 306.858592 152.532597 299.893453 135.717264 
C 292.928314 118.901931 282.718649 103.622086 269.84875 90.752188 
C 256.978851 77.882289 241.699007 67.672623 224.883674 60.707484 
C 208.068341 53.742345 190.044535 50.157188 171.84375 50.157188 
C 153.642965 50.157188 135.619159 53.742345 118.803826 60.707484 
C 101.988493 67.672623 86.708649 77.882289 73.83875 90.752188 
C 60.968851 103.622086 50.759186 118.901931 43.794047 135.717264 
C 36.828908 152.532597 33.24375 170.556402 33.24375 188.757188 
C 33.24375 206.957973 36.828908 224.981778 43.794047 241.797111 
C 50.759186 258.612444 60.968851 273.892289 73.83875 286.762187 
C 86.708649 299.632086 101.988493 309.841752 118.803826 316.806891 
C 135.619159 323.77203 153.642965 327.357188 171.84375 327.357188 
C 190.044535 327.357188 208.068341 323.77203 224.883674 316.806891 
C 241.699007 309.841752 256.978851 299.632086 269.84875 286.762187 
C 282.718649 273.892289 292.928314 258.612444 299.893453 241.797111 
C 306.858592 224.981778 310.44375 206.957973 310.44375 188.757188 
M 171.84375 188.757188 
C 171.84375 188.757188 171.84375 188.757188 171.84375 188.757188 
C 171.84375 188.757188 171.84375 188.757188 171.84375 188.757188 
C 171.84375 188.757188 171.84375 188.757188 171.84375 188.757188 
C 171.84375 188.757188 171.84375 188.757188 171.84375 188.757188 
C 171.84375 188.757188 171.84375 188.757188 171.84375 188.757188 
C 171.84375 188.757188 171.84375 188.757188 171.84375 188.757188 
C 171.84375 188.757188 171.84375 188.757188 171.84375 188.757188 
C 171.84375 188.757188 171.84375 188.757188 171.84375 188.757188 
C 171.84375 188.757188 171.84375 188.757188 171.84375 188.757188 
C 171.84375 188.757188 171.84375 188.757188 171.84375 188.757188 
C 171.84375 188.757188 171.84375 188.757188 171.84375 188.757188 
C 171.84375 188.757188 171.84375 188.757188 171.84375 188.757188 
C 171.84375 188.757188 171.84375 188.757188 171.84375 188.757188 
C 171.84375 188.757188 171.84375 188.757188 171.84375 188.757188 
C 171.84375 188.757188 171.84375 188.757188 171.84375 188.757188 
C 171.84375 188.757188 171.84375 188.757188 171.84375 188.757188 
z
"/>
  </clipPath>
 </defs>
</svg>
