<?xml version="1.0" encoding="utf-8" standalone="no"?>
<!DOCTYPE svg PUBLIC "-//W3C//DTD SVG 1.1//EN"
  "http://www.w3.org/Graphics/SVG/1.1/DTD/svg11.dtd">
<svg xmlns:xlink="http://www.w3.org/1999/xlink" width="364.39875pt" height="353.39625pt" viewBox="0 0 364.39875 353.39625" xmlns="http://www.w3.org/2000/svg" version="1.1">
 <metadata>
  <rdf:RDF xmlns:dc="http://purl.org/dc/elements/1.1/" xmlns:cc="http://creativecommons.org/ns#" xmlns:rdf="http://www.w3.org/1999/02/22-rdf-syntax-ns#">
   <cc:Work>
    <dc:type rdf:resource="http://purl.org/dc/dcmitype/StillImage"/>
    <dc:date>2024-07-01T10:04:52.375823</dc:date>
    <dc:format>image/svg+xml</dc:format>
    <dc:creator>
     <cc:Agent>
      <dc:title>Matplotlib v3.9.0, https://matplotlib.org/</dc:title>
     </cc:Agent>
    </dc:creator>
   </cc:Work>
  </rdf:RDF>
 </metadata>
 <defs>
  <style type="text/css">*{stroke-linejoin: round; stroke-linecap: butt}</style>
 </defs>
 <g id="figure_1">
  <g id="patch_1">
   <path d="M 0 353.39625 
L 364.39875 353.39625 
L 364.39875 0 
L 0 0 
z
" style="fill: #ffffff"/>
  </g>
  <g id="axes_1">
   <g id="patch_2">
    <path d="M 320.799375 188.757188 
C 320.799375 170.556402 317.214217 152.532597 310.249078 135.717264 
C 303.283939 118.901931 293.074274 103.622086 280.204375 90.752188 
C 267.334476 77.882289 252.054632 67.672623 235.239299 60.707484 
C 218.423966 53.742345 200.40016 50.157188 182.199375 50.157188 
C 163.99859 50.157188 145.974784 53.742345 129.159451 60.707484 
C 112.344118 67.672623 97.064274 77.882289 84.194375 90.752188 
C 71.324476 103.622086 61.114811 118.901931 54.149672 135.717264 
C 47.184533 152.532597 43.599375 170.556402 43.599375 188.757188 
C 43.599375 206.957973 47.184533 224.981778 54.149672 241.797111 
C 61.114811 258.612444 71.324476 273.892289 84.194375 286.762187 
C 97.064274 299.632086 112.344118 309.841752 129.159451 316.806891 
C 145.974784 323.77203 163.99859 327.357188 182.199375 327.357188 
C 200.40016 327.357188 218.423966 323.77203 235.239299 316.806891 
C 252.054632 309.841752 267.334476 299.632086 280.204375 286.762187 
C 293.074274 273.892289 303.283939 258.612444 310.249078 241.797111 
C 317.214217 224.981778 320.799375 206.957973 320.799375 188.757188 
M 182.199375 188.757188 
C 182.199375 188.757188 182.199375 188.757188 182.199375 188.757188 
C 182.199375 188.757188 182.199375 188.757188 182.199375 188.757188 
C 182.199375 188.757188 182.199375 188.757188 182.199375 188.757188 
C 182.199375 188.757188 182.199375 188.757188 182.199375 188.757188 
C 182.199375 188.757188 182.199375 188.757188 182.199375 188.757188 
C 182.199375 188.757188 182.199375 188.757188 182.199375 188.757188 
C 182.199375 188.757188 182.199375 188.757188 182.199375 188.757188 
C 182.199375 188.757188 182.199375 188.757188 182.199375 188.757188 
C 182.199375 188.757188 182.199375 188.757188 182.199375 188.757188 
C 182.199375 188.757188 182.199375 188.757188 182.199375 188.757188 
C 182.199375 188.757188 182.199375 188.757188 182.199375 188.757188 
C 182.199375 188.757188 182.199375 188.757188 182.199375 188.757188 
C 182.199375 188.757188 182.199375 188.757188 182.199375 188.757188 
C 182.199375 188.757188 182.199375 188.757188 182.199375 188.757188 
C 182.199375 188.757188 182.199375 188.757188 182.199375 188.757188 
C 182.199375 188.757188 182.199375 188.757188 182.199375 188.757188 
z
" style="fill: #ffffff"/>
   </g>
   <g id="matplotlib.axis_1">
    <g id="xtick_1">
     <g id="line2d_1">
      <path d="M 182.199375 188.757188 
L 320.799375 188.757188 
" clip-path="url(#p5f353c1df6)" style="fill: none; stroke: #b0b0b0; stroke-width: 0.8; stroke-linecap: square"/>
     </g>
     <g id="text_1">
      <!-- 0° -->
      <g transform="translate(329.118125 191.516563) scale(0.1 -0.1)">
       <defs>
        <path id="DejaVuSans-30" d="M 2034 4250 
Q 1547 4250 1301 3770 
Q 1056 3291 1056 2328 
Q 1056 1369 1301 889 
Q 1547 409 2034 409 
Q 2525 409 2770 889 
Q 3016 1369 3016 2328 
Q 3016 3291 2770 3770 
Q 2525 4250 2034 4250 
z
M 2034 4750 
Q 2819 4750 3233 4129 
Q 3647 3509 3647 2328 
Q 3647 1150 3233 529 
Q 2819 -91 2034 -91 
Q 1250 -91 836 529 
Q 422 1150 422 2328 
Q 422 3509 836 4129 
Q 1250 4750 2034 4750 
z
" transform="scale(0.015625)"/>
        <path id="DejaVuSans-b0" d="M 1600 4347 
Q 1350 4347 1178 4173 
Q 1006 4000 1006 3750 
Q 1006 3503 1178 3333 
Q 1350 3163 1600 3163 
Q 1850 3163 2022 3333 
Q 2194 3503 2194 3750 
Q 2194 3997 2020 4172 
Q 1847 4347 1600 4347 
z
M 1600 4750 
Q 1800 4750 1984 4673 
Q 2169 4597 2303 4453 
Q 2447 4313 2519 4134 
Q 2591 3956 2591 3750 
Q 2591 3338 2302 3052 
Q 2013 2766 1594 2766 
Q 1172 2766 890 3047 
Q 609 3328 609 3750 
Q 609 4169 896 4459 
Q 1184 4750 1600 4750 
z
" transform="scale(0.015625)"/>
       </defs>
       <use xlink:href="#DejaVuSans-30"/>
       <use xlink:href="#DejaVuSans-b0" x="63.623047"/>
      </g>
     </g>
    </g>
    <g id="xtick_2">
     <g id="line2d_2">
      <path d="M 182.199375 188.757188 
L 280.204375 90.752188 
" clip-path="url(#p5f353c1df6)" style="fill: none; stroke: #b0b0b0; stroke-width: 0.8; stroke-linecap: square"/>
     </g>
     <g id="text_2">
      <!-- 45° -->
      <g transform="translate(281.24137 83.612068) scale(0.1 -0.1)">
       <defs>
        <path id="DejaVuSans-34" d="M 2419 4116 
L 825 1625 
L 2419 1625 
L 2419 4116 
z
M 2253 4666 
L 3047 4666 
L 3047 1625 
L 3713 1625 
L 3713 1100 
L 3047 1100 
L 3047 0 
L 2419 0 
L 2419 1100 
L 313 1100 
L 313 1709 
L 2253 4666 
z
" transform="scale(0.015625)"/>
        <path id="DejaVuSans-35" d="M 691 4666 
L 3169 4666 
L 3169 4134 
L 1269 4134 
L 1269 2991 
Q 1406 3038 1543 3061 
Q 1681 3084 1819 3084 
Q 2600 3084 3056 2656 
Q 3513 2228 3513 1497 
Q 3513 744 3044 326 
Q 2575 -91 1722 -91 
Q 1428 -91 1123 -41 
Q 819 9 494 109 
L 494 744 
Q 775 591 1075 516 
Q 1375 441 1709 441 
Q 2250 441 2565 725 
Q 2881 1009 2881 1497 
Q 2881 1984 2565 2268 
Q 2250 2553 1709 2553 
Q 1456 2553 1204 2497 
Q 953 2441 691 2322 
L 691 4666 
z
" transform="scale(0.015625)"/>
       </defs>
       <use xlink:href="#DejaVuSans-34"/>
       <use xlink:href="#DejaVuSans-35" x="63.623047"/>
       <use xlink:href="#DejaVuSans-b0" x="127.246094"/>
      </g>
     </g>
    </g>
    <g id="xtick_3">
     <g id="line2d_3">
      <path d="M 182.199375 188.757188 
L 182.199375 50.157188 
" clip-path="url(#p5f353c1df6)" style="fill: none; stroke: #b0b0b0; stroke-width: 0.8; stroke-linecap: square"/>
     </g>
     <g id="text_3">
      <!-- 90° -->
      <g transform="translate(173.336875 38.916563) scale(0.1 -0.1)">
       <defs>
        <path id="DejaVuSans-39" d="M 703 97 
L 703 672 
Q 941 559 1184 500 
Q 1428 441 1663 441 
Q 2288 441 2617 861 
Q 2947 1281 2994 2138 
Q 2813 1869 2534 1725 
Q 2256 1581 1919 1581 
Q 1219 1581 811 2004 
Q 403 2428 403 3163 
Q 403 3881 828 4315 
Q 1253 4750 1959 4750 
Q 2769 4750 3195 4129 
Q 3622 3509 3622 2328 
Q 3622 1225 3098 567 
Q 2575 -91 1691 -91 
Q 1453 -91 1209 -44 
Q 966 3 703 97 
z
M 1959 2075 
Q 2384 2075 2632 2365 
Q 2881 2656 2881 3163 
Q 2881 3666 2632 3958 
Q 2384 4250 1959 4250 
Q 1534 4250 1286 3958 
Q 1038 3666 1038 3163 
Q 1038 2656 1286 2365 
Q 1534 2075 1959 2075 
z
" transform="scale(0.015625)"/>
       </defs>
       <use xlink:href="#DejaVuSans-39"/>
       <use xlink:href="#DejaVuSans-30" x="63.623047"/>
       <use xlink:href="#DejaVuSans-b0" x="127.246094"/>
      </g>
     </g>
    </g>
    <g id="xtick_4">
     <g id="line2d_4">
      <path d="M 182.199375 188.757188 
L 84.194375 90.752188 
" clip-path="url(#p5f353c1df6)" style="fill: none; stroke: #b0b0b0; stroke-width: 0.8; stroke-linecap: square"/>
     </g>
     <g id="text_4">
      <!-- 135° -->
      <g transform="translate(62.25113 83.612068) scale(0.1 -0.1)">
       <defs>
        <path id="DejaVuSans-31" d="M 794 531 
L 1825 531 
L 1825 4091 
L 703 3866 
L 703 4441 
L 1819 4666 
L 2450 4666 
L 2450 531 
L 3481 531 
L 3481 0 
L 794 0 
L 794 531 
z
" transform="scale(0.015625)"/>
        <path id="DejaVuSans-33" d="M 2597 2516 
Q 3050 2419 3304 2112 
Q 3559 1806 3559 1356 
Q 3559 666 3084 287 
Q 2609 -91 1734 -91 
Q 1441 -91 1130 -33 
Q 819 25 488 141 
L 488 750 
Q 750 597 1062 519 
Q 1375 441 1716 441 
Q 2309 441 2620 675 
Q 2931 909 2931 1356 
Q 2931 1769 2642 2001 
Q 2353 2234 1838 2234 
L 1294 2234 
L 1294 2753 
L 1863 2753 
Q 2328 2753 2575 2939 
Q 2822 3125 2822 3475 
Q 2822 3834 2567 4026 
Q 2313 4219 1838 4219 
Q 1578 4219 1281 4162 
Q 984 4106 628 3988 
L 628 4550 
Q 988 4650 1302 4700 
Q 1616 4750 1894 4750 
Q 2613 4750 3031 4423 
Q 3450 4097 3450 3541 
Q 3450 3153 3228 2886 
Q 3006 2619 2597 2516 
z
" transform="scale(0.015625)"/>
       </defs>
       <use xlink:href="#DejaVuSans-31"/>
       <use xlink:href="#DejaVuSans-33" x="63.623047"/>
       <use xlink:href="#DejaVuSans-35" x="127.246094"/>
       <use xlink:href="#DejaVuSans-b0" x="190.869141"/>
      </g>
     </g>
    </g>
    <g id="xtick_5">
     <g id="line2d_5">
      <path d="M 182.199375 188.757188 
L 43.599375 188.757188 
" clip-path="url(#p5f353c1df6)" style="fill: none; stroke: #b0b0b0; stroke-width: 0.8; stroke-linecap: square"/>
     </g>
     <g id="text_5">
      <!-- 180° -->
      <g transform="translate(17.555625 191.516563) scale(0.1 -0.1)">
       <defs>
        <path id="DejaVuSans-38" d="M 2034 2216 
Q 1584 2216 1326 1975 
Q 1069 1734 1069 1313 
Q 1069 891 1326 650 
Q 1584 409 2034 409 
Q 2484 409 2743 651 
Q 3003 894 3003 1313 
Q 3003 1734 2745 1975 
Q 2488 2216 2034 2216 
z
M 1403 2484 
Q 997 2584 770 2862 
Q 544 3141 544 3541 
Q 544 4100 942 4425 
Q 1341 4750 2034 4750 
Q 2731 4750 3128 4425 
Q 3525 4100 3525 3541 
Q 3525 3141 3298 2862 
Q 3072 2584 2669 2484 
Q 3125 2378 3379 2068 
Q 3634 1759 3634 1313 
Q 3634 634 3220 271 
Q 2806 -91 2034 -91 
Q 1263 -91 848 271 
Q 434 634 434 1313 
Q 434 1759 690 2068 
Q 947 2378 1403 2484 
z
M 1172 3481 
Q 1172 3119 1398 2916 
Q 1625 2713 2034 2713 
Q 2441 2713 2670 2916 
Q 2900 3119 2900 3481 
Q 2900 3844 2670 4047 
Q 2441 4250 2034 4250 
Q 1625 4250 1398 4047 
Q 1172 3844 1172 3481 
z
" transform="scale(0.015625)"/>
       </defs>
       <use xlink:href="#DejaVuSans-31"/>
       <use xlink:href="#DejaVuSans-38" x="63.623047"/>
       <use xlink:href="#DejaVuSans-30" x="127.246094"/>
       <use xlink:href="#DejaVuSans-b0" x="190.869141"/>
      </g>
     </g>
    </g>
    <g id="xtick_6">
     <g id="line2d_6">
      <path d="M 182.199375 188.757188 
L 84.194375 286.762187 
" clip-path="url(#p5f353c1df6)" style="fill: none; stroke: #b0b0b0; stroke-width: 0.8; stroke-linecap: square"/>
     </g>
     <g id="text_6">
      <!-- 225° -->
      <g transform="translate(62.25113 299.421057) scale(0.1 -0.1)">
       <defs>
        <path id="DejaVuSans-32" d="M 1228 531 
L 3431 531 
L 3431 0 
L 469 0 
L 469 531 
Q 828 903 1448 1529 
Q 2069 2156 2228 2338 
Q 2531 2678 2651 2914 
Q 2772 3150 2772 3378 
Q 2772 3750 2511 3984 
Q 2250 4219 1831 4219 
Q 1534 4219 1204 4116 
Q 875 4013 500 3803 
L 500 4441 
Q 881 4594 1212 4672 
Q 1544 4750 1819 4750 
Q 2544 4750 2975 4387 
Q 3406 4025 3406 3419 
Q 3406 3131 3298 2873 
Q 3191 2616 2906 2266 
Q 2828 2175 2409 1742 
Q 1991 1309 1228 531 
z
" transform="scale(0.015625)"/>
       </defs>
       <use xlink:href="#DejaVuSans-32"/>
       <use xlink:href="#DejaVuSans-32" x="63.623047"/>
       <use xlink:href="#DejaVuSans-35" x="127.246094"/>
       <use xlink:href="#DejaVuSans-b0" x="190.869141"/>
      </g>
     </g>
    </g>
    <g id="xtick_7">
     <g id="line2d_7">
      <path d="M 182.199375 188.757188 
L 182.199375 327.357188 
" clip-path="url(#p5f353c1df6)" style="fill: none; stroke: #b0b0b0; stroke-width: 0.8; stroke-linecap: square"/>
     </g>
     <g id="text_7">
      <!-- 270° -->
      <g transform="translate(170.155625 344.116563) scale(0.1 -0.1)">
       <defs>
        <path id="DejaVuSans-37" d="M 525 4666 
L 3525 4666 
L 3525 4397 
L 1831 0 
L 1172 0 
L 2766 4134 
L 525 4134 
L 525 4666 
z
" transform="scale(0.015625)"/>
       </defs>
       <use xlink:href="#DejaVuSans-32"/>
       <use xlink:href="#DejaVuSans-37" x="63.623047"/>
       <use xlink:href="#DejaVuSans-30" x="127.246094"/>
       <use xlink:href="#DejaVuSans-b0" x="190.869141"/>
      </g>
     </g>
    </g>
    <g id="xtick_8">
     <g id="line2d_8">
      <path d="M 182.199375 188.757188 
L 280.204375 286.762187 
" clip-path="url(#p5f353c1df6)" style="fill: none; stroke: #b0b0b0; stroke-width: 0.8; stroke-linecap: square"/>
     </g>
     <g id="text_8">
      <!-- 315° -->
      <g transform="translate(278.06012 299.421057) scale(0.1 -0.1)">
       <use xlink:href="#DejaVuSans-33"/>
       <use xlink:href="#DejaVuSans-31" x="63.623047"/>
       <use xlink:href="#DejaVuSans-35" x="127.246094"/>
       <use xlink:href="#DejaVuSans-b0" x="190.869141"/>
      </g>
     </g>
    </g>
   </g>
   <g id="matplotlib.axis_2">
    <g id="ytick_1">
     <g id="line2d_9">
      <path d="M 205.299375 188.757188 
C 205.299375 185.723723 204.701849 182.719756 203.540992 179.9172 
C 202.380136 177.114645 200.678525 174.568004 198.533542 172.423021 
C 196.388559 170.278038 193.841918 168.576427 191.039362 167.41557 
C 188.236807 166.254714 185.232839 165.657188 182.199375 165.657188 
C 179.165911 165.657188 176.161943 166.254714 173.359388 167.41557 
C 170.556832 168.576427 168.010191 170.278038 165.865208 172.423021 
C 163.720225 174.568004 162.018614 177.114645 160.857758 179.9172 
C 159.696901 182.719756 159.099375 185.723723 159.099375 188.757188 
C 159.099375 191.790652 159.696901 194.794619 160.857758 197.597175 
C 162.018614 200.39973 163.720225 202.946371 165.865208 205.091354 
C 168.010191 207.236337 170.556832 208.937948 173.359388 210.098805 
C 176.161943 211.259661 179.165911 211.857188 182.199375 211.857188 
C 185.232839 211.857188 188.236807 211.259661 191.039362 210.098805 
C 193.841918 208.937948 196.388559 207.236337 198.533542 205.091354 
C 200.678525 202.946371 202.380136 200.39973 203.540992 197.597175 
C 204.701849 194.794619 205.299375 191.790652 205.299375 188.757188 
" clip-path="url(#p5f353c1df6)" style="fill: none; stroke: #b0b0b0; stroke-width: 0.8; stroke-linecap: square"/>
     </g>
     <g id="text_9">
      <!-- 0.05 -->
      <g transform="translate(194.166562 186.6775) scale(0.1 -0.1)">
       <defs>
        <path id="DejaVuSans-2e" d="M 684 794 
L 1344 794 
L 1344 0 
L 684 0 
L 684 794 
z
" transform="scale(0.015625)"/>
       </defs>
       <use xlink:href="#DejaVuSans-30"/>
       <use xlink:href="#DejaVuSans-2e" x="63.623047"/>
       <use xlink:href="#DejaVuSans-30" x="95.410156"/>
       <use xlink:href="#DejaVuSans-35" x="159.033203"/>
      </g>
     </g>
    </g>
    <g id="ytick_2">
     <g id="line2d_10">
      <path d="M 228.399375 188.757188 
C 228.399375 182.690259 227.204322 176.682324 224.882609 171.077213 
C 222.560896 165.472102 219.157675 160.37882 214.867708 156.088854 
C 210.577742 151.798888 205.484461 148.395666 199.87935 146.073953 
C 194.274239 143.75224 188.266303 142.557188 182.199375 142.557188 
C 176.132447 142.557188 170.124511 143.75224 164.5194 146.073953 
C 158.914289 148.395666 153.821008 151.798888 149.531042 156.088854 
C 145.241075 160.37882 141.837854 165.472102 139.516141 171.077213 
C 137.194428 176.682324 135.999375 182.690259 135.999375 188.757188 
C 135.999375 194.824116 137.194428 200.832051 139.516141 206.437162 
C 141.837854 212.042273 145.241075 217.135555 149.531042 221.425521 
C 153.821008 225.715487 158.914289 229.118709 164.5194 231.440422 
C 170.124511 233.762135 176.132447 234.957188 182.199375 234.957188 
C 188.266303 234.957188 194.274239 233.762135 199.87935 231.440422 
C 205.484461 229.118709 210.577742 225.715487 214.867708 221.425521 
C 219.157675 217.135555 222.560896 212.042273 224.882609 206.437162 
C 227.204322 200.832051 228.399375 194.824116 228.399375 188.757188 
" clip-path="url(#p5f353c1df6)" style="fill: none; stroke: #b0b0b0; stroke-width: 0.8; stroke-linecap: square"/>
     </g>
    </g>
    <g id="ytick_3">
     <g id="line2d_11">
      <path d="M 251.499375 188.757188 
C 251.499375 179.656795 249.706796 170.644892 246.224227 162.237226 
C 242.741657 153.829559 237.636824 146.189637 231.201875 139.754688 
C 224.766926 133.319738 217.127003 128.214905 208.719337 124.732336 
C 200.31167 121.249766 191.299768 119.457188 182.199375 119.457188 
C 173.098982 119.457188 164.08708 121.249766 155.679413 124.732336 
C 147.271747 128.214905 139.631824 133.319738 133.196875 139.754688 
C 126.761926 146.189637 121.657093 153.829559 118.174523 162.237226 
C 114.691954 170.644892 112.899375 179.656795 112.899375 188.757188 
C 112.899375 197.85758 114.691954 206.869483 118.174523 215.277149 
C 121.657093 223.684816 126.761926 231.324738 133.196875 237.759687 
C 139.631824 244.194637 147.271747 249.29947 155.679413 252.782039 
C 164.08708 256.264609 173.098982 258.057188 182.199375 258.057188 
C 191.299768 258.057188 200.31167 256.264609 208.719337 252.782039 
C 217.127003 249.29947 224.766926 244.194637 231.201875 237.759687 
C 237.636824 231.324738 242.741657 223.684816 246.224227 215.277149 
C 249.706796 206.869483 251.499375 197.85758 251.499375 188.757188 
" clip-path="url(#p5f353c1df6)" style="fill: none; stroke: #b0b0b0; stroke-width: 0.8; stroke-linecap: square"/>
     </g>
     <g id="text_10">
      <!-- 0.15 -->
      <g transform="translate(240.366562 186.6775) scale(0.1 -0.1)">
       <use xlink:href="#DejaVuSans-30"/>
       <use xlink:href="#DejaVuSans-2e" x="63.623047"/>
       <use xlink:href="#DejaVuSans-31" x="95.410156"/>
       <use xlink:href="#DejaVuSans-35" x="159.033203"/>
      </g>
     </g>
    </g>
    <g id="ytick_4">
     <g id="line2d_12">
      <path d="M 274.599375 188.757188 
C 274.599375 176.623331 272.20927 164.60746 267.565844 153.397238 
C 262.922418 142.187016 256.115974 132.000453 247.536042 123.420521 
C 238.956109 114.840588 228.769546 108.034145 217.559324 103.390719 
C 206.349102 98.747293 194.333232 96.357188 182.199375 96.357188 
C 170.065518 96.357188 158.049648 98.747293 146.839426 103.390719 
C 135.629204 108.034145 125.442641 114.840588 116.862708 123.420521 
C 108.282776 132.000453 101.476332 142.187016 96.832906 153.397238 
C 92.18948 164.60746 89.799375 176.623331 89.799375 188.757188 
C 89.799375 200.891044 92.18948 212.906915 96.832906 224.117137 
C 101.476332 235.327359 108.282776 245.513922 116.862708 254.093854 
C 125.442641 262.673787 135.629204 269.48023 146.839426 274.123656 
C 158.049648 278.767082 170.065518 281.157188 182.199375 281.157188 
C 194.333232 281.157188 206.349102 278.767082 217.559324 274.123656 
C 228.769546 269.48023 238.956109 262.673787 247.536042 254.093854 
C 256.115974 245.513922 262.922418 235.327359 267.565844 224.117137 
C 272.20927 212.906915 274.599375 200.891044 274.599375 188.757188 
" clip-path="url(#p5f353c1df6)" style="fill: none; stroke: #b0b0b0; stroke-width: 0.8; stroke-linecap: square"/>
     </g>
    </g>
    <g id="ytick_5">
     <g id="line2d_13">
      <path d="M 297.699375 188.757188 
C 297.699375 173.589866 294.711743 158.570029 288.907461 144.557251 
C 283.103179 130.544474 274.595124 117.81127 263.870208 107.086354 
C 253.145293 96.361439 240.412089 87.853384 226.399311 82.049101 
C 212.386534 76.244819 197.366696 73.257188 182.199375 73.257188 
C 167.032054 73.257188 152.012216 76.244819 137.999439 82.049101 
C 123.986661 87.853384 111.253457 96.361439 100.528542 107.086354 
C 89.803626 117.81127 81.295571 130.544474 75.491289 144.557251 
C 69.687007 158.570029 66.699375 173.589866 66.699375 188.757188 
C 66.699375 203.924509 69.687007 218.944346 75.491289 232.957124 
C 81.295571 246.969901 89.803626 259.703105 100.528542 270.428021 
C 111.253457 281.152936 123.986661 289.660991 137.999439 295.465274 
C 152.012216 301.269556 167.032054 304.257188 182.199375 304.257188 
C 197.366696 304.257188 212.386534 301.269556 226.399311 295.465274 
C 240.412089 289.660991 253.145293 281.152936 263.870208 270.428021 
C 274.595124 259.703105 283.103179 246.969901 288.907461 232.957124 
C 294.711743 218.944346 297.699375 203.924509 297.699375 188.757188 
" clip-path="url(#p5f353c1df6)" style="fill: none; stroke: #b0b0b0; stroke-width: 0.8; stroke-linecap: square"/>
     </g>
     <g id="text_11">
      <!-- 0.25 -->
      <g transform="translate(286.566562 186.6775) scale(0.1 -0.1)">
       <use xlink:href="#DejaVuSans-30"/>
       <use xlink:href="#DejaVuSans-2e" x="63.623047"/>
       <use xlink:href="#DejaVuSans-32" x="95.410156"/>
       <use xlink:href="#DejaVuSans-35" x="159.033203"/>
      </g>
     </g>
    </g>
    <g id="ytick_6">
     <g id="line2d_14">
      <path d="M 320.799375 188.757188 
C 320.799375 170.556402 317.214217 152.532597 310.249078 135.717264 
C 303.283939 118.901931 293.074274 103.622086 280.204375 90.752188 
C 267.334476 77.882289 252.054632 67.672623 235.239299 60.707484 
C 218.423966 53.742345 200.40016 50.157188 182.199375 50.157188 
C 163.99859 50.157188 145.974784 53.742345 129.159451 60.707484 
C 112.344118 67.672623 97.064274 77.882289 84.194375 90.752188 
C 71.324476 103.622086 61.114811 118.901931 54.149672 135.717264 
C 47.184533 152.532597 43.599375 170.556402 43.599375 188.757188 
C 43.599375 206.957973 47.184533 224.981778 54.149672 241.797111 
C 61.114811 258.612444 71.324476 273.892289 84.194375 286.762187 
C 97.064274 299.632086 112.344118 309.841752 129.159451 316.806891 
C 145.974784 323.77203 163.99859 327.357188 182.199375 327.357188 
C 200.40016 327.357188 218.423966 323.77203 235.239299 316.806891 
C 252.054632 309.841752 267.334476 299.632086 280.204375 286.762187 
C 293.074274 273.892289 303.283939 258.612444 310.249078 241.797111 
C 317.214217 224.981778 320.799375 206.957973 320.799375 188.757188 
" clip-path="url(#p5f353c1df6)" style="fill: none; stroke: #b0b0b0; stroke-width: 0.8; stroke-linecap: square"/>
     </g>
    </g>
   </g>
   <g id="PathCollection_1">
    <defs>
     <path id="m39306f55d1" d="M 0 4.472136 
C 1.186024 4.472136 2.323632 4.000923 3.162278 3.162278 
C 4.000923 2.323632 4.472136 1.186024 4.472136 0 
C 4.472136 -1.186024 4.000923 -2.323632 3.162278 -3.162278 
C 2.323632 -4.000923 1.186024 -4.472136 0 -4.472136 
C -1.186024 -4.472136 -2.323632 -4.000923 -3.162278 -3.162278 
C -4.000923 -2.323632 -4.472136 -1.186024 -4.472136 0 
C -4.472136 1.186024 -4.000923 2.323632 -3.162278 3.162278 
C -2.323632 4.000923 -1.186024 4.472136 0 4.472136 
z
" style="stroke: #000000"/>
    </defs>
    <g clip-path="url(#p5f353c1df6)">
     <use xlink:href="#m39306f55d1" x="234.027722" y="161.228521" style="fill: #9d3f37; stroke: #000000"/>
    </g>
   </g>
   <g id="PathCollection_2">
    <defs>
     <path id="mef0a1689e5" d="M 0 4.472136 
C 1.186024 4.472136 2.323632 4.000923 3.162278 3.162278 
C 4.000923 2.323632 4.472136 1.186024 4.472136 0 
C 4.472136 -1.186024 4.000923 -2.323632 3.162278 -3.162278 
C 2.323632 -4.000923 1.186024 -4.472136 0 -4.472136 
C -1.186024 -4.472136 -2.323632 -4.000923 -3.162278 -3.162278 
C -4.000923 -2.323632 -4.472136 -1.186024 -4.472136 0 
C -4.472136 1.186024 -4.000923 2.323632 -3.162278 3.162278 
C -2.323632 4.000923 -1.186024 4.472136 0 4.472136 
z
" style="stroke: #000000"/>
    </defs>
    <g clip-path="url(#p5f353c1df6)">
     <use xlink:href="#mef0a1689e5" x="140.177301" y="147.233766" style="fill: #568a37; stroke: #000000"/>
    </g>
   </g>
   <g id="PathCollection_3">
    <defs>
     <path id="mf971fdcf9a" d="M 0 4.472136 
C 1.186024 4.472136 2.323632 4.000923 3.162278 3.162278 
C 4.000923 2.323632 4.472136 1.186024 4.472136 0 
C 4.472136 -1.186024 4.000923 -2.323632 3.162278 -3.162278 
C 2.323632 -4.000923 1.186024 -4.472136 0 -4.472136 
C -1.186024 -4.472136 -2.323632 -4.000923 -3.162278 -3.162278 
C -4.000923 -2.323632 -4.472136 -1.186024 -4.472136 0 
C -4.472136 1.186024 -4.000923 2.323632 -3.162278 3.162278 
C -2.323632 4.000923 -1.186024 4.472136 0 4.472136 
z
" style="stroke: #000000"/>
    </defs>
    <g clip-path="url(#p5f353c1df6)">
     <use xlink:href="#mf971fdcf9a" x="190.824139" y="131.874581" style="fill: #c29231; stroke: #000000"/>
    </g>
   </g>
   <g id="PathCollection_4">
    <defs>
     <path id="md9f229219e" d="M 0 4.472136 
C 1.186024 4.472136 2.323632 4.000923 3.162278 3.162278 
C 4.000923 2.323632 4.472136 1.186024 4.472136 0 
C 4.472136 -1.186024 4.000923 -2.323632 3.162278 -3.162278 
C 2.323632 -4.000923 1.186024 -4.472136 0 -4.472136 
C -1.186024 -4.472136 -2.323632 -4.000923 -3.162278 -3.162278 
C -4.000923 -2.323632 -4.472136 -1.186024 -4.472136 0 
C -4.472136 1.186024 -4.000923 2.323632 -3.162278 3.162278 
C -2.323632 4.000923 -1.186024 4.472136 0 4.472136 
z
" style="stroke: #000000"/>
    </defs>
    <g clip-path="url(#p5f353c1df6)">
     <use xlink:href="#md9f229219e" x="178.590568" y="259.553475" style="fill: #3c5bba; stroke: #000000"/>
    </g>
   </g>
   <g id="PathCollection_5">
    <defs>
     <path id="m024f735c65" d="M 0 4.472136 
C 1.186024 4.472136 2.323632 4.000923 3.162278 3.162278 
C 4.000923 2.323632 4.472136 1.186024 4.472136 0 
C 4.472136 -1.186024 4.000923 -2.323632 3.162278 -3.162278 
C 2.323632 -4.000923 1.186024 -4.472136 0 -4.472136 
C -1.186024 -4.472136 -2.323632 -4.000923 -3.162278 -3.162278 
C -4.000923 -2.323632 -4.472136 -1.186024 -4.472136 0 
C -4.472136 1.186024 -4.000923 2.323632 -3.162278 3.162278 
C -2.323632 4.000923 -1.186024 4.472136 0 4.472136 
z
" style="stroke: #000000"/>
    </defs>
    <g clip-path="url(#p5f353c1df6)">
     <use xlink:href="#m024f735c65" x="222.289019" y="240.137944" style="fill: #724198; stroke: #000000"/>
    </g>
   </g>
   <g id="PathCollection_6">
    <defs>
     <path id="m6aaffe6c37" d="M 0 4.472136 
C 1.186024 4.472136 2.323632 4.000923 3.162278 3.162278 
C 4.000923 2.323632 4.472136 1.186024 4.472136 0 
C 4.472136 -1.186024 4.000923 -2.323632 3.162278 -3.162278 
C 2.323632 -4.000923 1.186024 -4.472136 0 -4.472136 
C -1.186024 -4.472136 -2.323632 -4.000923 -3.162278 -3.162278 
C -4.000923 -2.323632 -4.472136 -1.186024 -4.472136 0 
C -4.472136 1.186024 -4.000923 2.323632 -3.162278 3.162278 
C -2.323632 4.000923 -1.186024 4.472136 0 4.472136 
z
" style="stroke: #000000"/>
    </defs>
    <g clip-path="url(#p5f353c1df6)">
     <use xlink:href="#m6aaffe6c37" x="158.51438" y="228.170659" style="fill: #3981ae; stroke: #000000"/>
    </g>
   </g>
   <g id="PathCollection_7">
    <defs>
     <path id="m6af0ae752a" d="M 0 4.472136 
C 1.186024 4.472136 2.323632 4.000923 3.162278 3.162278 
C 4.000923 2.323632 4.472136 1.186024 4.472136 0 
C 4.472136 -1.186024 4.000923 -2.323632 3.162278 -3.162278 
C 2.323632 -4.000923 1.186024 -4.472136 0 -4.472136 
C -1.186024 -4.472136 -2.323632 -4.000923 -3.162278 -3.162278 
C -4.000923 -2.323632 -4.472136 -1.186024 -4.472136 0 
C -4.472136 1.186024 -4.000923 2.323632 -3.162278 3.162278 
C -2.323632 4.000923 -1.186024 4.472136 0 4.472136 
z
" style="stroke: #000000"/>
    </defs>
    <g clip-path="url(#p5f353c1df6)">
     <use xlink:href="#m6af0ae752a" x="250.924382" y="156.35951" style="fill: #de5c56; stroke: #000000"/>
    </g>
   </g>
   <g id="PathCollection_8">
    <defs>
     <path id="m5c8ceda4ab" d="M 0 4.472136 
C 1.186024 4.472136 2.323632 4.000923 3.162278 3.162278 
C 4.000923 2.323632 4.472136 1.186024 4.472136 0 
C 4.472136 -1.186024 4.000923 -2.323632 3.162278 -3.162278 
C 2.323632 -4.000923 1.186024 -4.472136 0 -4.472136 
C -1.186024 -4.472136 -2.323632 -4.000923 -3.162278 -3.162278 
C -4.000923 -2.323632 -4.472136 -1.186024 -4.472136 0 
C -4.472136 1.186024 -4.000923 2.323632 -3.162278 3.162278 
C -2.323632 4.000923 -1.186024 4.472136 0 4.472136 
z
" style="stroke: #000000"/>
    </defs>
    <g clip-path="url(#p5f353c1df6)">
     <use xlink:href="#m5c8ceda4ab" x="122.270352" y="126.300577" style="fill: #7cc93c; stroke: #000000"/>
    </g>
   </g>
   <g id="PathCollection_9">
    <defs>
     <path id="m59de27d7ba" d="M 0 4.472136 
C 1.186024 4.472136 2.323632 4.000923 3.162278 3.162278 
C 4.000923 2.323632 4.472136 1.186024 4.472136 0 
C 4.472136 -1.186024 4.000923 -2.323632 3.162278 -3.162278 
C 2.323632 -4.000923 1.186024 -4.472136 0 -4.472136 
C -1.186024 -4.472136 -2.323632 -4.000923 -3.162278 -3.162278 
C -4.000923 -2.323632 -4.472136 -1.186024 -4.472136 0 
C -4.472136 1.186024 -4.000923 2.323632 -3.162278 3.162278 
C -2.323632 4.000923 -1.186024 4.472136 0 4.472136 
z
" style="stroke: #000000"/>
    </defs>
    <g clip-path="url(#p5f353c1df6)">
     <use xlink:href="#m59de27d7ba" x="195.048111" y="136.094852" style="fill: #f5bf6d; stroke: #000000"/>
    </g>
   </g>
   <g id="PathCollection_10">
    <defs>
     <path id="m5efbde929f" d="M 0 4.472136 
C 1.186024 4.472136 2.323632 4.000923 3.162278 3.162278 
C 4.000923 2.323632 4.472136 1.186024 4.472136 0 
C 4.472136 -1.186024 4.000923 -2.323632 3.162278 -3.162278 
C 2.323632 -4.000923 1.186024 -4.472136 0 -4.472136 
C -1.186024 -4.472136 -2.323632 -4.000923 -3.162278 -3.162278 
C -4.000923 -2.323632 -4.472136 -1.186024 -4.472136 0 
C -4.472136 1.186024 -4.000923 2.323632 -3.162278 3.162278 
C -2.323632 4.000923 -1.186024 4.472136 0 4.472136 
z
" style="stroke: #000000"/>
    </defs>
    <g clip-path="url(#p5f353c1df6)">
     <use xlink:href="#m5efbde929f" x="164.483489" y="250.274815" style="fill: #3478c6; stroke: #000000"/>
    </g>
   </g>
   <g id="PathCollection_11">
    <defs>
     <path id="m6e77943c22" d="M 0 4.472136 
C 1.186024 4.472136 2.323632 4.000923 3.162278 3.162278 
C 4.000923 2.323632 4.472136 1.186024 4.472136 0 
C 4.472136 -1.186024 4.000923 -2.323632 3.162278 -3.162278 
C 2.323632 -4.000923 1.186024 -4.472136 0 -4.472136 
C -1.186024 -4.472136 -2.323632 -4.000923 -3.162278 -3.162278 
C -4.000923 -2.323632 -4.472136 -1.186024 -4.472136 0 
C -4.472136 1.186024 -4.000923 2.323632 -3.162278 3.162278 
C -2.323632 4.000923 -1.186024 4.472136 0 4.472136 
z
" style="stroke: #000000"/>
    </defs>
    <g clip-path="url(#p5f353c1df6)">
     <use xlink:href="#m6e77943c22" x="266.106863" y="248.465629" style="fill: #d557df; stroke: #000000"/>
    </g>
   </g>
   <g id="PathCollection_12">
    <defs>
     <path id="m92aef1ddb8" d="M 0 4.472136 
C 1.186024 4.472136 2.323632 4.000923 3.162278 3.162278 
C 4.000923 2.323632 4.472136 1.186024 4.472136 0 
C 4.472136 -1.186024 4.000923 -2.323632 3.162278 -3.162278 
C 2.323632 -4.000923 1.186024 -4.472136 0 -4.472136 
C -1.186024 -4.472136 -2.323632 -4.000923 -3.162278 -3.162278 
C -4.000923 -2.323632 -4.472136 -1.186024 -4.472136 0 
C -4.472136 1.186024 -4.000923 2.323632 -3.162278 3.162278 
C -2.323632 4.000923 -1.186024 4.472136 0 4.472136 
z
" style="stroke: #000000"/>
    </defs>
    <g clip-path="url(#p5f353c1df6)">
     <use xlink:href="#m92aef1ddb8" x="149.484281" y="220.196339" style="fill: #4ca7c7; stroke: #000000"/>
    </g>
   </g>
   <g id="PathCollection_13">
    <defs>
     <path id="m0f257e9056" d="M 0 4.472136 
C 1.186024 4.472136 2.323632 4.000923 3.162278 3.162278 
C 4.000923 2.323632 4.472136 1.186024 4.472136 0 
C 4.472136 -1.186024 4.000923 -2.323632 3.162278 -3.162278 
C 2.323632 -4.000923 1.186024 -4.472136 0 -4.472136 
C -1.186024 -4.472136 -2.323632 -4.000923 -3.162278 -3.162278 
C -4.000923 -2.323632 -4.472136 -1.186024 -4.472136 0 
C -4.472136 1.186024 -4.000923 2.323632 -3.162278 3.162278 
C -2.323632 4.000923 -1.186024 4.472136 0 4.472136 
z
" style="stroke: #000000"/>
    </defs>
    <g clip-path="url(#p5f353c1df6)">
     <use xlink:href="#m0f257e9056" x="182.199375" y="188.757188" style="fill: #898989; stroke: #000000"/>
    </g>
   </g>
   <g id="patch_3">
    <path d="M 320.799375 188.757188 
C 320.799375 170.556402 317.214217 152.532597 310.249078 135.717264 
C 303.283939 118.901931 293.074274 103.622086 280.204375 90.752188 
C 267.334476 77.882289 252.054632 67.672623 235.239299 60.707484 
C 218.423966 53.742345 200.40016 50.157188 182.199375 50.157188 
C 163.99859 50.157188 145.974784 53.742345 129.159451 60.707484 
C 112.344118 67.672623 97.064274 77.882289 84.194375 90.752188 
C 71.324476 103.622086 61.114811 118.901931 54.149672 135.717264 
C 47.184533 152.532597 43.599375 170.556402 43.599375 188.757188 
C 43.599375 206.957973 47.184533 224.981778 54.149672 241.797111 
C 61.114811 258.612444 71.324476 273.892289 84.194375 286.762187 
C 97.064274 299.632086 112.344118 309.841752 129.159451 316.806891 
C 145.974784 323.77203 163.99859 327.357188 182.199375 327.357188 
C 200.40016 327.357188 218.423966 323.77203 235.239299 316.806891 
C 252.054632 309.841752 267.334476 299.632086 280.204375 286.762187 
C 293.074274 273.892289 303.283939 258.612444 310.249078 241.797111 
C 317.214217 224.981778 320.799375 206.957973 320.799375 188.757188 
" style="fill: none; stroke: #000000; stroke-width: 0.8; stroke-linejoin: miter; stroke-linecap: square"/>
   </g>
   <g id="text_12">
    <!-- iTerm: Hue &amp; Chroma for 12+4 ANSI Colors in Oklab -->
    <g transform="translate(7.2 16.318125) scale(0.12 -0.12)">
     <defs>
      <path id="DejaVuSans-Bold-69" d="M 538 3500 
L 1656 3500 
L 1656 0 
L 538 0 
L 538 3500 
z
M 538 4863 
L 1656 4863 
L 1656 3950 
L 538 3950 
L 538 4863 
z
" transform="scale(0.015625)"/>
      <path id="DejaVuSans-Bold-54" d="M 31 4666 
L 4331 4666 
L 4331 3756 
L 2784 3756 
L 2784 0 
L 1581 0 
L 1581 3756 
L 31 3756 
L 31 4666 
z
" transform="scale(0.015625)"/>
      <path id="DejaVuSans-Bold-65" d="M 4031 1759 
L 4031 1441 
L 1416 1441 
Q 1456 1047 1700 850 
Q 1944 653 2381 653 
Q 2734 653 3104 758 
Q 3475 863 3866 1075 
L 3866 213 
Q 3469 63 3072 -14 
Q 2675 -91 2278 -91 
Q 1328 -91 801 392 
Q 275 875 275 1747 
Q 275 2603 792 3093 
Q 1309 3584 2216 3584 
Q 3041 3584 3536 3087 
Q 4031 2591 4031 1759 
z
M 2881 2131 
Q 2881 2450 2695 2645 
Q 2509 2841 2209 2841 
Q 1884 2841 1681 2658 
Q 1478 2475 1428 2131 
L 2881 2131 
z
" transform="scale(0.015625)"/>
      <path id="DejaVuSans-Bold-72" d="M 3138 2547 
Q 2991 2616 2845 2648 
Q 2700 2681 2553 2681 
Q 2122 2681 1889 2404 
Q 1656 2128 1656 1613 
L 1656 0 
L 538 0 
L 538 3500 
L 1656 3500 
L 1656 2925 
Q 1872 3269 2151 3426 
Q 2431 3584 2822 3584 
Q 2878 3584 2943 3579 
Q 3009 3575 3134 3559 
L 3138 2547 
z
" transform="scale(0.015625)"/>
      <path id="DejaVuSans-Bold-6d" d="M 3781 2919 
Q 3994 3244 4286 3414 
Q 4578 3584 4928 3584 
Q 5531 3584 5847 3212 
Q 6163 2841 6163 2131 
L 6163 0 
L 5038 0 
L 5038 1825 
Q 5041 1866 5042 1909 
Q 5044 1953 5044 2034 
Q 5044 2406 4934 2573 
Q 4825 2741 4581 2741 
Q 4263 2741 4089 2478 
Q 3916 2216 3909 1719 
L 3909 0 
L 2784 0 
L 2784 1825 
Q 2784 2406 2684 2573 
Q 2584 2741 2328 2741 
Q 2006 2741 1831 2477 
Q 1656 2213 1656 1722 
L 1656 0 
L 531 0 
L 531 3500 
L 1656 3500 
L 1656 2988 
Q 1863 3284 2130 3434 
Q 2397 3584 2719 3584 
Q 3081 3584 3359 3409 
Q 3638 3234 3781 2919 
z
" transform="scale(0.015625)"/>
      <path id="DejaVuSans-Bold-3a" d="M 716 3500 
L 1844 3500 
L 1844 2291 
L 716 2291 
L 716 3500 
z
M 716 1209 
L 1844 1209 
L 1844 0 
L 716 0 
L 716 1209 
z
" transform="scale(0.015625)"/>
      <path id="DejaVuSans-Bold-20" transform="scale(0.015625)"/>
      <path id="DejaVuSans-Bold-48" d="M 588 4666 
L 1791 4666 
L 1791 2888 
L 3566 2888 
L 3566 4666 
L 4769 4666 
L 4769 0 
L 3566 0 
L 3566 1978 
L 1791 1978 
L 1791 0 
L 588 0 
L 588 4666 
z
" transform="scale(0.015625)"/>
      <path id="DejaVuSans-Bold-75" d="M 500 1363 
L 500 3500 
L 1625 3500 
L 1625 3150 
Q 1625 2866 1622 2436 
Q 1619 2006 1619 1863 
Q 1619 1441 1641 1255 
Q 1663 1069 1716 984 
Q 1784 875 1895 815 
Q 2006 756 2150 756 
Q 2500 756 2700 1025 
Q 2900 1294 2900 1772 
L 2900 3500 
L 4019 3500 
L 4019 0 
L 2900 0 
L 2900 506 
Q 2647 200 2364 54 
Q 2081 -91 1741 -91 
Q 1134 -91 817 281 
Q 500 653 500 1363 
z
" transform="scale(0.015625)"/>
      <path id="DejaVuSans-Bold-26" d="M 2497 3097 
L 3775 1691 
Q 3941 1909 4027 2181 
Q 4113 2453 4128 2797 
L 5100 2797 
Q 5053 2228 4879 1784 
Q 4706 1341 4397 1006 
L 5313 0 
L 3988 0 
L 3681 341 
Q 3353 122 2990 15 
Q 2628 -91 2222 -91 
Q 1400 -91 892 342 
Q 384 775 384 1459 
Q 384 1916 607 2267 
Q 831 2619 1338 2950 
Q 1206 3116 1143 3281 
Q 1081 3447 1081 3628 
Q 1081 4138 1478 4444 
Q 1875 4750 2534 4750 
Q 2819 4750 3126 4704 
Q 3434 4659 3769 4569 
L 3769 3700 
Q 3475 3850 3212 3922 
Q 2950 3994 2700 3994 
Q 2459 3994 2326 3901 
Q 2194 3809 2194 3641 
Q 2194 3534 2270 3398 
Q 2347 3263 2497 3097 
z
M 1875 2322 
Q 1672 2175 1569 1989 
Q 1466 1803 1466 1581 
Q 1466 1222 1731 969 
Q 1997 716 2369 716 
Q 2578 716 2759 780 
Q 2941 844 3097 972 
L 1875 2322 
z
" transform="scale(0.015625)"/>
      <path id="DejaVuSans-Bold-43" d="M 4288 256 
Q 3956 84 3597 -3 
Q 3238 -91 2847 -91 
Q 1681 -91 1000 561 
Q 319 1213 319 2328 
Q 319 3447 1000 4098 
Q 1681 4750 2847 4750 
Q 3238 4750 3597 4662 
Q 3956 4575 4288 4403 
L 4288 3438 
Q 3953 3666 3628 3772 
Q 3303 3878 2944 3878 
Q 2300 3878 1931 3465 
Q 1563 3053 1563 2328 
Q 1563 1606 1931 1193 
Q 2300 781 2944 781 
Q 3303 781 3628 887 
Q 3953 994 4288 1222 
L 4288 256 
z
" transform="scale(0.015625)"/>
      <path id="DejaVuSans-Bold-68" d="M 4056 2131 
L 4056 0 
L 2931 0 
L 2931 347 
L 2931 1625 
Q 2931 2084 2911 2256 
Q 2891 2428 2841 2509 
Q 2775 2619 2662 2680 
Q 2550 2741 2406 2741 
Q 2056 2741 1856 2470 
Q 1656 2200 1656 1722 
L 1656 0 
L 538 0 
L 538 4863 
L 1656 4863 
L 1656 2988 
Q 1909 3294 2193 3439 
Q 2478 3584 2822 3584 
Q 3428 3584 3742 3212 
Q 4056 2841 4056 2131 
z
" transform="scale(0.015625)"/>
      <path id="DejaVuSans-Bold-6f" d="M 2203 2784 
Q 1831 2784 1636 2517 
Q 1441 2250 1441 1747 
Q 1441 1244 1636 976 
Q 1831 709 2203 709 
Q 2569 709 2762 976 
Q 2956 1244 2956 1747 
Q 2956 2250 2762 2517 
Q 2569 2784 2203 2784 
z
M 2203 3584 
Q 3106 3584 3614 3096 
Q 4122 2609 4122 1747 
Q 4122 884 3614 396 
Q 3106 -91 2203 -91 
Q 1297 -91 786 396 
Q 275 884 275 1747 
Q 275 2609 786 3096 
Q 1297 3584 2203 3584 
z
" transform="scale(0.015625)"/>
      <path id="DejaVuSans-Bold-61" d="M 2106 1575 
Q 1756 1575 1579 1456 
Q 1403 1338 1403 1106 
Q 1403 894 1545 773 
Q 1688 653 1941 653 
Q 2256 653 2472 879 
Q 2688 1106 2688 1447 
L 2688 1575 
L 2106 1575 
z
M 3816 1997 
L 3816 0 
L 2688 0 
L 2688 519 
Q 2463 200 2181 54 
Q 1900 -91 1497 -91 
Q 953 -91 614 226 
Q 275 544 275 1050 
Q 275 1666 698 1953 
Q 1122 2241 2028 2241 
L 2688 2241 
L 2688 2328 
Q 2688 2594 2478 2717 
Q 2269 2841 1825 2841 
Q 1466 2841 1156 2769 
Q 847 2697 581 2553 
L 581 3406 
Q 941 3494 1303 3539 
Q 1666 3584 2028 3584 
Q 2975 3584 3395 3211 
Q 3816 2838 3816 1997 
z
" transform="scale(0.015625)"/>
      <path id="DejaVuSans-Bold-66" d="M 2841 4863 
L 2841 4128 
L 2222 4128 
Q 1984 4128 1890 4042 
Q 1797 3956 1797 3744 
L 1797 3500 
L 2753 3500 
L 2753 2700 
L 1797 2700 
L 1797 0 
L 678 0 
L 678 2700 
L 122 2700 
L 122 3500 
L 678 3500 
L 678 3744 
Q 678 4316 997 4589 
Q 1316 4863 1984 4863 
L 2841 4863 
z
" transform="scale(0.015625)"/>
      <path id="DejaVuSans-Bold-31" d="M 750 831 
L 1813 831 
L 1813 3847 
L 722 3622 
L 722 4441 
L 1806 4666 
L 2950 4666 
L 2950 831 
L 4013 831 
L 4013 0 
L 750 0 
L 750 831 
z
" transform="scale(0.015625)"/>
      <path id="DejaVuSans-Bold-32" d="M 1844 884 
L 3897 884 
L 3897 0 
L 506 0 
L 506 884 
L 2209 2388 
Q 2438 2594 2547 2791 
Q 2656 2988 2656 3200 
Q 2656 3528 2436 3728 
Q 2216 3928 1850 3928 
Q 1569 3928 1234 3808 
Q 900 3688 519 3450 
L 519 4475 
Q 925 4609 1322 4679 
Q 1719 4750 2100 4750 
Q 2938 4750 3402 4381 
Q 3866 4013 3866 3353 
Q 3866 2972 3669 2642 
Q 3472 2313 2841 1759 
L 1844 884 
z
" transform="scale(0.015625)"/>
      <path id="DejaVuSans-Bold-2b" d="M 3053 4013 
L 3053 2375 
L 4684 2375 
L 4684 1638 
L 3053 1638 
L 3053 0 
L 2309 0 
L 2309 1638 
L 678 1638 
L 678 2375 
L 2309 2375 
L 2309 4013 
L 3053 4013 
z
" transform="scale(0.015625)"/>
      <path id="DejaVuSans-Bold-34" d="M 2356 3675 
L 1038 1722 
L 2356 1722 
L 2356 3675 
z
M 2156 4666 
L 3494 4666 
L 3494 1722 
L 4159 1722 
L 4159 850 
L 3494 850 
L 3494 0 
L 2356 0 
L 2356 850 
L 288 850 
L 288 1881 
L 2156 4666 
z
" transform="scale(0.015625)"/>
      <path id="DejaVuSans-Bold-41" d="M 3419 850 
L 1538 850 
L 1241 0 
L 31 0 
L 1759 4666 
L 3194 4666 
L 4922 0 
L 3713 0 
L 3419 850 
z
M 1838 1716 
L 3116 1716 
L 2478 3572 
L 1838 1716 
z
" transform="scale(0.015625)"/>
      <path id="DejaVuSans-Bold-4e" d="M 588 4666 
L 1931 4666 
L 3628 1466 
L 3628 4666 
L 4769 4666 
L 4769 0 
L 3425 0 
L 1728 3200 
L 1728 0 
L 588 0 
L 588 4666 
z
" transform="scale(0.015625)"/>
      <path id="DejaVuSans-Bold-53" d="M 3834 4519 
L 3834 3531 
Q 3450 3703 3084 3790 
Q 2719 3878 2394 3878 
Q 1963 3878 1756 3759 
Q 1550 3641 1550 3391 
Q 1550 3203 1689 3098 
Q 1828 2994 2194 2919 
L 2706 2816 
Q 3484 2659 3812 2340 
Q 4141 2022 4141 1434 
Q 4141 663 3683 286 
Q 3225 -91 2284 -91 
Q 1841 -91 1394 -6 
Q 947 78 500 244 
L 500 1259 
Q 947 1022 1364 901 
Q 1781 781 2169 781 
Q 2563 781 2772 912 
Q 2981 1044 2981 1288 
Q 2981 1506 2839 1625 
Q 2697 1744 2272 1838 
L 1806 1941 
Q 1106 2091 782 2419 
Q 459 2747 459 3303 
Q 459 4000 909 4375 
Q 1359 4750 2203 4750 
Q 2588 4750 2994 4692 
Q 3400 4634 3834 4519 
z
" transform="scale(0.015625)"/>
      <path id="DejaVuSans-Bold-49" d="M 588 4666 
L 1791 4666 
L 1791 0 
L 588 0 
L 588 4666 
z
" transform="scale(0.015625)"/>
      <path id="DejaVuSans-Bold-6c" d="M 538 4863 
L 1656 4863 
L 1656 0 
L 538 0 
L 538 4863 
z
" transform="scale(0.015625)"/>
      <path id="DejaVuSans-Bold-73" d="M 3272 3391 
L 3272 2541 
Q 2913 2691 2578 2766 
Q 2244 2841 1947 2841 
Q 1628 2841 1473 2761 
Q 1319 2681 1319 2516 
Q 1319 2381 1436 2309 
Q 1553 2238 1856 2203 
L 2053 2175 
Q 2913 2066 3209 1816 
Q 3506 1566 3506 1031 
Q 3506 472 3093 190 
Q 2681 -91 1863 -91 
Q 1516 -91 1145 -36 
Q 775 19 384 128 
L 384 978 
Q 719 816 1070 734 
Q 1422 653 1784 653 
Q 2113 653 2278 743 
Q 2444 834 2444 1013 
Q 2444 1163 2330 1236 
Q 2216 1309 1875 1350 
L 1678 1375 
Q 931 1469 631 1722 
Q 331 1975 331 2491 
Q 331 3047 712 3315 
Q 1094 3584 1881 3584 
Q 2191 3584 2531 3537 
Q 2872 3491 3272 3391 
z
" transform="scale(0.015625)"/>
      <path id="DejaVuSans-Bold-6e" d="M 4056 2131 
L 4056 0 
L 2931 0 
L 2931 347 
L 2931 1631 
Q 2931 2084 2911 2256 
Q 2891 2428 2841 2509 
Q 2775 2619 2662 2680 
Q 2550 2741 2406 2741 
Q 2056 2741 1856 2470 
Q 1656 2200 1656 1722 
L 1656 0 
L 538 0 
L 538 3500 
L 1656 3500 
L 1656 2988 
Q 1909 3294 2193 3439 
Q 2478 3584 2822 3584 
Q 3428 3584 3742 3212 
Q 4056 2841 4056 2131 
z
" transform="scale(0.015625)"/>
      <path id="DejaVuSans-Bold-4f" d="M 2719 3878 
Q 2169 3878 1866 3472 
Q 1563 3066 1563 2328 
Q 1563 1594 1866 1187 
Q 2169 781 2719 781 
Q 3272 781 3575 1187 
Q 3878 1594 3878 2328 
Q 3878 3066 3575 3472 
Q 3272 3878 2719 3878 
z
M 2719 4750 
Q 3844 4750 4481 4106 
Q 5119 3463 5119 2328 
Q 5119 1197 4481 553 
Q 3844 -91 2719 -91 
Q 1597 -91 958 553 
Q 319 1197 319 2328 
Q 319 3463 958 4106 
Q 1597 4750 2719 4750 
z
" transform="scale(0.015625)"/>
      <path id="DejaVuSans-Bold-6b" d="M 538 4863 
L 1656 4863 
L 1656 2216 
L 2944 3500 
L 4244 3500 
L 2534 1894 
L 4378 0 
L 3022 0 
L 1656 1459 
L 1656 0 
L 538 0 
L 538 4863 
z
" transform="scale(0.015625)"/>
      <path id="DejaVuSans-Bold-62" d="M 2400 722 
Q 2759 722 2948 984 
Q 3138 1247 3138 1747 
Q 3138 2247 2948 2509 
Q 2759 2772 2400 2772 
Q 2041 2772 1848 2508 
Q 1656 2244 1656 1747 
Q 1656 1250 1848 986 
Q 2041 722 2400 722 
z
M 1656 2988 
Q 1888 3294 2169 3439 
Q 2450 3584 2816 3584 
Q 3463 3584 3878 3070 
Q 4294 2556 4294 1747 
Q 4294 938 3878 423 
Q 3463 -91 2816 -91 
Q 2450 -91 2169 54 
Q 1888 200 1656 506 
L 1656 0 
L 538 0 
L 538 4863 
L 1656 4863 
L 1656 2988 
z
" transform="scale(0.015625)"/>
     </defs>
     <use xlink:href="#DejaVuSans-Bold-69"/>
     <use xlink:href="#DejaVuSans-Bold-54" x="34.277344"/>
     <use xlink:href="#DejaVuSans-Bold-65" x="89.240234"/>
     <use xlink:href="#DejaVuSans-Bold-72" x="157.0625"/>
     <use xlink:href="#DejaVuSans-Bold-6d" x="206.378906"/>
     <use xlink:href="#DejaVuSans-Bold-3a" x="310.578125"/>
     <use xlink:href="#DejaVuSans-Bold-20" x="350.568359"/>
     <use xlink:href="#DejaVuSans-Bold-48" x="385.382812"/>
     <use xlink:href="#DejaVuSans-Bold-75" x="469.074219"/>
     <use xlink:href="#DejaVuSans-Bold-65" x="540.265625"/>
     <use xlink:href="#DejaVuSans-Bold-20" x="608.087891"/>
     <use xlink:href="#DejaVuSans-Bold-26" x="642.902344"/>
     <use xlink:href="#DejaVuSans-Bold-20" x="730.109375"/>
     <use xlink:href="#DejaVuSans-Bold-43" x="764.923828"/>
     <use xlink:href="#DejaVuSans-Bold-68" x="838.3125"/>
     <use xlink:href="#DejaVuSans-Bold-72" x="909.503906"/>
     <use xlink:href="#DejaVuSans-Bold-6f" x="958.820312"/>
     <use xlink:href="#DejaVuSans-Bold-6d" x="1027.521484"/>
     <use xlink:href="#DejaVuSans-Bold-61" x="1131.720703"/>
     <use xlink:href="#DejaVuSans-Bold-20" x="1199.201172"/>
     <use xlink:href="#DejaVuSans-Bold-66" x="1234.015625"/>
     <use xlink:href="#DejaVuSans-Bold-6f" x="1277.521484"/>
     <use xlink:href="#DejaVuSans-Bold-72" x="1346.222656"/>
     <use xlink:href="#DejaVuSans-Bold-20" x="1395.539062"/>
     <use xlink:href="#DejaVuSans-Bold-31" x="1430.353516"/>
     <use xlink:href="#DejaVuSans-Bold-32" x="1499.933594"/>
     <use xlink:href="#DejaVuSans-Bold-2b" x="1569.513672"/>
     <use xlink:href="#DejaVuSans-Bold-34" x="1653.302734"/>
     <use xlink:href="#DejaVuSans-Bold-20" x="1722.882812"/>
     <use xlink:href="#DejaVuSans-Bold-41" x="1757.697266"/>
     <use xlink:href="#DejaVuSans-Bold-4e" x="1835.089844"/>
     <use xlink:href="#DejaVuSans-Bold-53" x="1918.78125"/>
     <use xlink:href="#DejaVuSans-Bold-49" x="1990.802734"/>
     <use xlink:href="#DejaVuSans-Bold-20" x="2028.009766"/>
     <use xlink:href="#DejaVuSans-Bold-43" x="2062.824219"/>
     <use xlink:href="#DejaVuSans-Bold-6f" x="2136.212891"/>
     <use xlink:href="#DejaVuSans-Bold-6c" x="2204.914062"/>
     <use xlink:href="#DejaVuSans-Bold-6f" x="2239.191406"/>
     <use xlink:href="#DejaVuSans-Bold-72" x="2307.892578"/>
     <use xlink:href="#DejaVuSans-Bold-73" x="2357.208984"/>
     <use xlink:href="#DejaVuSans-Bold-20" x="2416.730469"/>
     <use xlink:href="#DejaVuSans-Bold-69" x="2451.544922"/>
     <use xlink:href="#DejaVuSans-Bold-6e" x="2485.822266"/>
     <use xlink:href="#DejaVuSans-Bold-20" x="2557.013672"/>
     <use xlink:href="#DejaVuSans-Bold-4f" x="2591.828125"/>
     <use xlink:href="#DejaVuSans-Bold-6b" x="2676.837891"/>
     <use xlink:href="#DejaVuSans-Bold-6c" x="2743.341797"/>
     <use xlink:href="#DejaVuSans-Bold-61" x="2777.619141"/>
     <use xlink:href="#DejaVuSans-Bold-62" x="2845.099609"/>
    </g>
   </g>
  </g>
 </g>
 <defs>
  <clipPath id="p5f353c1df6">
   <path d="M 320.799375 188.757188 
C 320.799375 170.556402 317.214217 152.532597 310.249078 135.717264 
C 303.283939 118.901931 293.074274 103.622086 280.204375 90.752188 
C 267.334476 77.882289 252.054632 67.672623 235.239299 60.707484 
C 218.423966 53.742345 200.40016 50.157188 182.199375 50.157188 
C 163.99859 50.157188 145.974784 53.742345 129.159451 60.707484 
C 112.344118 67.672623 97.064274 77.882289 84.194375 90.752188 
C 71.324476 103.622086 61.114811 118.901931 54.149672 135.717264 
C 47.184533 152.532597 43.599375 170.556402 43.599375 188.757188 
C 43.599375 206.957973 47.184533 224.981778 54.149672 241.797111 
C 61.114811 258.612444 71.324476 273.892289 84.194375 286.762187 
C 97.064274 299.632086 112.344118 309.841752 129.159451 316.806891 
C 145.974784 323.77203 163.99859 327.357188 182.199375 327.357188 
C 200.40016 327.357188 218.423966 323.77203 235.239299 316.806891 
C 252.054632 309.841752 267.334476 299.632086 280.204375 286.762187 
C 293.074274 273.892289 303.283939 258.612444 310.249078 241.797111 
C 317.214217 224.981778 320.799375 206.957973 320.799375 188.757188 
M 182.199375 188.757188 
C 182.199375 188.757188 182.199375 188.757188 182.199375 188.757188 
C 182.199375 188.757188 182.199375 188.757188 182.199375 188.757188 
C 182.199375 188.757188 182.199375 188.757188 182.199375 188.757188 
C 182.199375 188.757188 182.199375 188.757188 182.199375 188.757188 
C 182.199375 188.757188 182.199375 188.757188 182.199375 188.757188 
C 182.199375 188.757188 182.199375 188.757188 182.199375 188.757188 
C 182.199375 188.757188 182.199375 188.757188 182.199375 188.757188 
C 182.199375 188.757188 182.199375 188.757188 182.199375 188.757188 
C 182.199375 188.757188 182.199375 188.757188 182.199375 188.757188 
C 182.199375 188.757188 182.199375 188.757188 182.199375 188.757188 
C 182.199375 188.757188 182.199375 188.757188 182.199375 188.757188 
C 182.199375 188.757188 182.199375 188.757188 182.199375 188.757188 
C 182.199375 188.757188 182.199375 188.757188 182.199375 188.757188 
C 182.199375 188.757188 182.199375 188.757188 182.199375 188.757188 
C 182.199375 188.757188 182.199375 188.757188 182.199375 188.757188 
C 182.199375 188.757188 182.199375 188.757188 182.199375 188.757188 
z
"/>
  </clipPath>
 </defs>
</svg>
