<svg xmlns="http://www.w3.org/2000/svg" xmlns:xlink="http://www.w3.org/1999/xlink" viewBox="0 0 250 250" style="white-space: pre;"><defs><symbol id="Symbol-1" preserveAspectRatio="none" width="122.4" height="120.4" viewBox="0 0 122.4 120.5" overflow="visible"><g transform="translate(.9,.4)"><path d="M57.1 9.3c0 0 1.8-8.7 3.7-9.2c2-0.5 10.4 1.3 14.5 3.5c5.8 3 9.3 8.1 10.2 14.3c.9 6.7-1.7 12.2-1.7 12.2c0 0 6-3.6 13.2-2.9c7.2 .6 12.6 4.1 14.7 6.7c2 2.5 4.9 5.3 4.5 6.6c-0.4 1.3-7.9 5.9-7.5 7.1c.4 1.2 9.1 .5 10 2c.9 1.6 2.7 11.5-3.8 18.5c-6.6 7.1-13 8.1-13 8.1c0 0 6.5 6.1 6.8 14.4c.3 6.8-1.5 10.9-5.2 12.3c-3.8 1.4-10.7-3-10.7-3c0 0 6 10.7 3.3 12.4c-2.7 1.7-4-1.3-5.1-1c-0.9 .2 .6 2.4-1.4 4.3c-2.1 2-10.9 3.3-18.8-1c-7.8-4.2-10.2-10.9-10.2-10.9c0 0-2.1 8.1-11.8 12.2c-9.6 4.1-16.6-0.9-17.9-1.7c-1.3-0.7-0.8-6.9-0.5-7.9c.3-1.1 1.4-3.5 .6-4c-0.7-0.5-3.3 3.1-5.1 4.2c-1.8 1.2-4.1 2.5-6.4 .5c-2.3-1.9-7.8-8.3-6.4-16.9c1.4-8.6 6.3-13.5 6.3-13.5c0 0-10.3-0.9-15.3-9.6c-5-8.8-4.4-17.5-3.5-18.6c.9-1.2 8.6-1.3 8.6-1.3c0 0-7.3-4.3-6.5-7.6c.7-3.3 4.5-0.8 5.5-1.8c1-1-2.6-4.9 .3-7c2.1-1.5 5.9-4.3 13.2-4.9c7.6-0.7 12.9 3.2 12.9 3.2c0 0-3.2-5.6-1.9-11.8c1.1-5 4.8-9.3 8.2-11.7c3.5-2.5 8.1-4.4 10.2-4.4c2 0 6 8.2 6 8.2Z" fill="#ffbcd8"/><path d="M75.4 41.1c1.4 1.6 4.3-0.6 6.2-3.8c1.4-2.5 3.1-6.7 2.5-7.2c-0.6-0.5-5.1 3-6.7 4.8c-1.5 1.7-3.1 5-2 6.2Z" fill="#fca2c8"/><path d="M83.1 72.1c-0.3 2.3 5.5 4 8.7 4.4c2.9 .3 10.1 .7 10.1-0.3c0-1-5.6-4.9-10.1-5.9c-4-0.8-8.4-0.2-8.7 1.8Z" fill="#fca2c8"/><path d="M61 87.1c-2-0.1-2.8 4.6-2.4 8.2c.3 3.6 1.1 8.3 2 8.4c.8 .1 2.3-5.1 2.7-10c.2-3.1-0.5-6.5-2.3-6.6Z" fill="#fca2c8"/><path d="M19.4 76.6c.1 .7 7 .7 10.8-0.4c3.7-1 6-3.2 5.6-4.8c-0.4-1.6-5.1-1.1-7.7-0.2c-3.4 1.3-8.9 4.7-8.7 5.4Z" fill="#fca2c8"/><path d="M35 29.3c-0.8 .6 1.8 5.5 3.5 7.5c1.7 2.1 4.3 4.4 5.7 3.8c1.3-0.6 .1-4.8-2.9-7.6c-1.4-1.4-5.5-4.2-6.3-3.7Z" fill="#fca2c8"/><path d="M74.1 40.7c-1.8-0.9-7.5 6.8-14.2 6.5c-6.6-0.2-13.5-7.3-14.7-6.2c-1.2 1.1 3.6 8.9 1.1 16.5c-2.3 6.9-10.5 11.6-9.6 13.3c.8 1.6 8.7-1.7 15.3 1.6c7.6 3.9 6.2 13.7 8.9 13.8c2.7 .1 1.5-8.6 8.1-12.8c6.4-4 13.2-0.9 13.8-3c.7-2.4-8-5.4-9.8-13.6c-2.1-9.6 3-15.1 1.1-16.1Z" fill="#bf0477"/><path d="M55.4 53.6c-1.3 .4-4.9 8.6-4.3 9.6c.5 1 7.8 7.3 9.8 7.3c1.9 0 8.2-6.1 8.3-7.1c.1-0.9-3.1-9.2-4.2-9.8c-1-0.6-8.3-0.5-9.6 0Z" fill="#f2a159"/><path d="M64.5 48.8c-1.6 1.5-1.7 4.3 .2 5.9c2 1.6 4.8 1 5.9-0.6c1.1-1.5 1.2-3.6-0.5-5.2c-1.1-0.9-3.6-1.9-5.6-0.1Z" fill="#fdd0b1"/><path d="M67 64.5c-0.3 2.6 1.9 4.6 4.1 4.5c2.9 0 4-2.5 4-4.1c-0.1-2.2-1.6-4.1-4.1-4c-2.4 .1-3.8 1.3-4 3.6Z" fill="#fdd0b1"/><path d="M60.8 69.1c-2 .1-4 1.4-4 4.2c.1 2.7 2.1 3.8 4.1 3.8c2.1 0 3.7-1.4 3.7-3.9c0-2.5-1.8-4.1-3.8-4.1Z" fill="#fdd0b1"/><path d="M48.4 60.7c-2.9 0-4.1 2-4.1 4.3c0 2.2 1.6 3.9 4.3 3.7c2.3 0 3.7-2 3.5-4.2c-0.2-2.3-1.3-3.8-3.7-3.8Z" fill="#fdd0b1"/><path d="M50.4 48.3c-1.7 1.6-1.8 4.4 0 5.8c1.4 1.2 3.9 1.6 5.5-0.1c1.6-1.7 1.3-4.1-0.1-5.5c-1.5-1.4-3.8-1.8-5.4-0.2Z" fill="#fdd0b1"/></g></symbol></defs><g transform="translate(4.4,9.4)"><text y="95.8" fill="#504a4a" font-size="50" font-family="'MD IO 0.6'" letter-spacing="0" word-spacing="0" font-weight="700" style="line-height: 16px;">pretty</text><text x="5" y="194.8" fill="#504a4a" font-size="130" font-family="'MD IO 0.6'" letter-spacing="0" word-spacing="0" font-weight="800" style="line-height: 16px;">tty</text><use width="77.8" height="76.6" xlink:href="#Symbol-1" transform="translate(181,60.8) rotate(28.9) translate(-25.8,-55.2)"/></g></svg>