<?xml version="1.0" encoding="utf-8" standalone="no"?>
<!DOCTYPE svg PUBLIC "-//W3C//DTD SVG 1.1//EN"
  "http://www.w3.org/Graphics/SVG/1.1/DTD/svg11.dtd">
<svg xmlns:xlink="http://www.w3.org/1999/xlink" width="368.39952pt" height="476.39952pt" viewBox="0 0 368.39952 476.39952" xmlns="http://www.w3.org/2000/svg" version="1.1">
 <metadata>
  <rdf:RDF xmlns:dc="http://purl.org/dc/elements/1.1/" xmlns:cc="http://creativecommons.org/ns#" xmlns:rdf="http://www.w3.org/1999/02/22-rdf-syntax-ns#">
   <cc:Work>
    <dc:type rdf:resource="http://purl.org/dc/dcmitype/StillImage"/>
    <dc:date>2024-07-09T15:28:02.369385</dc:date>
    <dc:format>image/svg+xml</dc:format>
    <dc:creator>
     <cc:Agent>
      <dc:title>Matplotlib v3.9.1, https://matplotlib.org/</dc:title>
     </cc:Agent>
    </dc:creator>
   </cc:Work>
  </rdf:RDF>
 </metadata>
 <defs>
  <style type="text/css">*{stroke-linejoin: round; stroke-linecap: butt}</style>
 </defs>
 <g id="figure_1">
  <g id="patch_1">
   <path d="M 0 476.39952 
L 368.39952 476.39952 
L 368.39952 0 
L 0 0 
z
" style="fill: #ffffff"/>
  </g>
  <g id="axes_1">
   <g id="patch_2">
    <path d="M 341.51827 204.459371 
C 341.51827 184.218252 337.531211 164.173952 329.78527 145.473596 
C 322.039329 126.773239 310.685145 109.780502 296.372512 95.467869 
C 282.059879 81.155237 265.067142 69.801053 246.366786 62.055112 
C 227.66643 54.30917 207.62213 50.322111 187.38101 50.322111 
C 167.13989 50.322111 147.09559 54.30917 128.395234 62.055112 
C 109.694878 69.801053 92.702141 81.155237 78.389508 95.467869 
C 64.076875 109.780502 52.722691 126.773239 44.97675 145.473596 
C 37.230809 164.173952 33.24375 184.218252 33.24375 204.459371 
C 33.24375 224.700491 37.230809 244.744791 44.97675 263.445147 
C 52.722691 282.145503 64.076875 299.13824 78.389508 313.450873 
C 92.702141 327.763506 109.694878 339.11769 128.395234 346.863631 
C 147.09559 354.609572 167.13989 358.596631 187.38101 358.596631 
C 207.62213 358.596631 227.66643 354.609572 246.366786 346.863631 
C 265.067142 339.11769 282.059879 327.763506 296.372512 313.450873 
C 310.685145 299.13824 322.039329 282.145503 329.78527 263.445147 
C 337.531211 244.744791 341.51827 224.700491 341.51827 204.459371 
M 187.38101 204.459371 
C 187.38101 204.459371 187.38101 204.459371 187.38101 204.459371 
C 187.38101 204.459371 187.38101 204.459371 187.38101 204.459371 
C 187.38101 204.459371 187.38101 204.459371 187.38101 204.459371 
C 187.38101 204.459371 187.38101 204.459371 187.38101 204.459371 
C 187.38101 204.459371 187.38101 204.459371 187.38101 204.459371 
C 187.38101 204.459371 187.38101 204.459371 187.38101 204.459371 
C 187.38101 204.459371 187.38101 204.459371 187.38101 204.459371 
C 187.38101 204.459371 187.38101 204.459371 187.38101 204.459371 
C 187.38101 204.459371 187.38101 204.459371 187.38101 204.459371 
C 187.38101 204.459371 187.38101 204.459371 187.38101 204.459371 
C 187.38101 204.459371 187.38101 204.459371 187.38101 204.459371 
C 187.38101 204.459371 187.38101 204.459371 187.38101 204.459371 
C 187.38101 204.459371 187.38101 204.459371 187.38101 204.459371 
C 187.38101 204.459371 187.38101 204.459371 187.38101 204.459371 
C 187.38101 204.459371 187.38101 204.459371 187.38101 204.459371 
C 187.38101 204.459371 187.38101 204.459371 187.38101 204.459371 
z
" style="fill: #ffffff"/>
   </g>
   <g id="matplotlib.axis_1">
    <g id="xtick_1">
     <g id="line2d_1">
      <path d="M 187.38101 204.459371 
L 341.51827 204.459371 
" clip-path="url(#p27efb3ac80)" style="fill: none; stroke: #b0b0b0; stroke-width: 0.8; stroke-linecap: square"/>
     </g>
     <g id="text_1">
      <!-- 0° -->
      <g transform="translate(349.83702 207.218746) scale(0.1 -0.1)">
       <defs>
        <path id="DejaVuSans-30" d="M 2034 4250 
Q 1547 4250 1301 3770 
Q 1056 3291 1056 2328 
Q 1056 1369 1301 889 
Q 1547 409 2034 409 
Q 2525 409 2770 889 
Q 3016 1369 3016 2328 
Q 3016 3291 2770 3770 
Q 2525 4250 2034 4250 
z
M 2034 4750 
Q 2819 4750 3233 4129 
Q 3647 3509 3647 2328 
Q 3647 1150 3233 529 
Q 2819 -91 2034 -91 
Q 1250 -91 836 529 
Q 422 1150 422 2328 
Q 422 3509 836 4129 
Q 1250 4750 2034 4750 
z
" transform="scale(0.015625)"/>
        <path id="DejaVuSans-b0" d="M 1600 4347 
Q 1350 4347 1178 4173 
Q 1006 4000 1006 3750 
Q 1006 3503 1178 3333 
Q 1350 3163 1600 3163 
Q 1850 3163 2022 3333 
Q 2194 3503 2194 3750 
Q 2194 3997 2020 4172 
Q 1847 4347 1600 4347 
z
M 1600 4750 
Q 1800 4750 1984 4673 
Q 2169 4597 2303 4453 
Q 2447 4313 2519 4134 
Q 2591 3956 2591 3750 
Q 2591 3338 2302 3052 
Q 2013 2766 1594 2766 
Q 1172 2766 890 3047 
Q 609 3328 609 3750 
Q 609 4169 896 4459 
Q 1184 4750 1600 4750 
z
" transform="scale(0.015625)"/>
       </defs>
       <use xlink:href="#DejaVuSans-30"/>
       <use xlink:href="#DejaVuSans-b0" x="63.623047"/>
      </g>
     </g>
    </g>
    <g id="xtick_2">
     <g id="line2d_2">
      <path d="M 187.38101 204.459371 
L 296.372512 95.467869 
" clip-path="url(#p27efb3ac80)" style="fill: none; stroke: #b0b0b0; stroke-width: 0.8; stroke-linecap: square"/>
     </g>
     <g id="text_2">
      <!-- 45° -->
      <g transform="translate(297.409507 88.32775) scale(0.1 -0.1)">
       <defs>
        <path id="DejaVuSans-34" d="M 2419 4116 
L 825 1625 
L 2419 1625 
L 2419 4116 
z
M 2253 4666 
L 3047 4666 
L 3047 1625 
L 3713 1625 
L 3713 1100 
L 3047 1100 
L 3047 0 
L 2419 0 
L 2419 1100 
L 313 1100 
L 313 1709 
L 2253 4666 
z
" transform="scale(0.015625)"/>
        <path id="DejaVuSans-35" d="M 691 4666 
L 3169 4666 
L 3169 4134 
L 1269 4134 
L 1269 2991 
Q 1406 3038 1543 3061 
Q 1681 3084 1819 3084 
Q 2600 3084 3056 2656 
Q 3513 2228 3513 1497 
Q 3513 744 3044 326 
Q 2575 -91 1722 -91 
Q 1428 -91 1123 -41 
Q 819 9 494 109 
L 494 744 
Q 775 591 1075 516 
Q 1375 441 1709 441 
Q 2250 441 2565 725 
Q 2881 1009 2881 1497 
Q 2881 1984 2565 2268 
Q 2250 2553 1709 2553 
Q 1456 2553 1204 2497 
Q 953 2441 691 2322 
L 691 4666 
z
" transform="scale(0.015625)"/>
       </defs>
       <use xlink:href="#DejaVuSans-34"/>
       <use xlink:href="#DejaVuSans-35" x="63.623047"/>
       <use xlink:href="#DejaVuSans-b0" x="127.246094"/>
      </g>
     </g>
    </g>
    <g id="xtick_3">
     <g id="line2d_3">
      <path d="M 187.38101 204.459371 
L 187.38101 50.322111 
" clip-path="url(#p27efb3ac80)" style="fill: none; stroke: #b0b0b0; stroke-width: 0.8; stroke-linecap: square"/>
     </g>
     <g id="text_3">
      <!-- 90° -->
      <g transform="translate(178.51851 39.081486) scale(0.1 -0.1)">
       <defs>
        <path id="DejaVuSans-39" d="M 703 97 
L 703 672 
Q 941 559 1184 500 
Q 1428 441 1663 441 
Q 2288 441 2617 861 
Q 2947 1281 2994 2138 
Q 2813 1869 2534 1725 
Q 2256 1581 1919 1581 
Q 1219 1581 811 2004 
Q 403 2428 403 3163 
Q 403 3881 828 4315 
Q 1253 4750 1959 4750 
Q 2769 4750 3195 4129 
Q 3622 3509 3622 2328 
Q 3622 1225 3098 567 
Q 2575 -91 1691 -91 
Q 1453 -91 1209 -44 
Q 966 3 703 97 
z
M 1959 2075 
Q 2384 2075 2632 2365 
Q 2881 2656 2881 3163 
Q 2881 3666 2632 3958 
Q 2384 4250 1959 4250 
Q 1534 4250 1286 3958 
Q 1038 3666 1038 3163 
Q 1038 2656 1286 2365 
Q 1534 2075 1959 2075 
z
" transform="scale(0.015625)"/>
       </defs>
       <use xlink:href="#DejaVuSans-39"/>
       <use xlink:href="#DejaVuSans-30" x="63.623047"/>
       <use xlink:href="#DejaVuSans-b0" x="127.246094"/>
      </g>
     </g>
    </g>
    <g id="xtick_4">
     <g id="line2d_4">
      <path d="M 187.38101 204.459371 
L 78.389508 95.467869 
" clip-path="url(#p27efb3ac80)" style="fill: none; stroke: #b0b0b0; stroke-width: 0.8; stroke-linecap: square"/>
     </g>
     <g id="text_4">
      <!-- 135° -->
      <g transform="translate(56.446263 88.32775) scale(0.1 -0.1)">
       <defs>
        <path id="DejaVuSans-31" d="M 794 531 
L 1825 531 
L 1825 4091 
L 703 3866 
L 703 4441 
L 1819 4666 
L 2450 4666 
L 2450 531 
L 3481 531 
L 3481 0 
L 794 0 
L 794 531 
z
" transform="scale(0.015625)"/>
        <path id="DejaVuSans-33" d="M 2597 2516 
Q 3050 2419 3304 2112 
Q 3559 1806 3559 1356 
Q 3559 666 3084 287 
Q 2609 -91 1734 -91 
Q 1441 -91 1130 -33 
Q 819 25 488 141 
L 488 750 
Q 750 597 1062 519 
Q 1375 441 1716 441 
Q 2309 441 2620 675 
Q 2931 909 2931 1356 
Q 2931 1769 2642 2001 
Q 2353 2234 1838 2234 
L 1294 2234 
L 1294 2753 
L 1863 2753 
Q 2328 2753 2575 2939 
Q 2822 3125 2822 3475 
Q 2822 3834 2567 4026 
Q 2313 4219 1838 4219 
Q 1578 4219 1281 4162 
Q 984 4106 628 3988 
L 628 4550 
Q 988 4650 1302 4700 
Q 1616 4750 1894 4750 
Q 2613 4750 3031 4423 
Q 3450 4097 3450 3541 
Q 3450 3153 3228 2886 
Q 3006 2619 2597 2516 
z
" transform="scale(0.015625)"/>
       </defs>
       <use xlink:href="#DejaVuSans-31"/>
       <use xlink:href="#DejaVuSans-33" x="63.623047"/>
       <use xlink:href="#DejaVuSans-35" x="127.246094"/>
       <use xlink:href="#DejaVuSans-b0" x="190.869141"/>
      </g>
     </g>
    </g>
    <g id="xtick_5">
     <g id="line2d_5">
      <path d="M 187.38101 204.459371 
L 33.24375 204.459371 
" clip-path="url(#p27efb3ac80)" style="fill: none; stroke: #b0b0b0; stroke-width: 0.8; stroke-linecap: square"/>
     </g>
     <g id="text_5">
      <!-- 180° -->
      <g transform="translate(7.2 207.218746) scale(0.1 -0.1)">
       <defs>
        <path id="DejaVuSans-38" d="M 2034 2216 
Q 1584 2216 1326 1975 
Q 1069 1734 1069 1313 
Q 1069 891 1326 650 
Q 1584 409 2034 409 
Q 2484 409 2743 651 
Q 3003 894 3003 1313 
Q 3003 1734 2745 1975 
Q 2488 2216 2034 2216 
z
M 1403 2484 
Q 997 2584 770 2862 
Q 544 3141 544 3541 
Q 544 4100 942 4425 
Q 1341 4750 2034 4750 
Q 2731 4750 3128 4425 
Q 3525 4100 3525 3541 
Q 3525 3141 3298 2862 
Q 3072 2584 2669 2484 
Q 3125 2378 3379 2068 
Q 3634 1759 3634 1313 
Q 3634 634 3220 271 
Q 2806 -91 2034 -91 
Q 1263 -91 848 271 
Q 434 634 434 1313 
Q 434 1759 690 2068 
Q 947 2378 1403 2484 
z
M 1172 3481 
Q 1172 3119 1398 2916 
Q 1625 2713 2034 2713 
Q 2441 2713 2670 2916 
Q 2900 3119 2900 3481 
Q 2900 3844 2670 4047 
Q 2441 4250 2034 4250 
Q 1625 4250 1398 4047 
Q 1172 3844 1172 3481 
z
" transform="scale(0.015625)"/>
       </defs>
       <use xlink:href="#DejaVuSans-31"/>
       <use xlink:href="#DejaVuSans-38" x="63.623047"/>
       <use xlink:href="#DejaVuSans-30" x="127.246094"/>
       <use xlink:href="#DejaVuSans-b0" x="190.869141"/>
      </g>
     </g>
    </g>
    <g id="xtick_6">
     <g id="line2d_6">
      <path d="M 187.38101 204.459371 
L 78.389508 313.450873 
" clip-path="url(#p27efb3ac80)" style="fill: none; stroke: #b0b0b0; stroke-width: 0.8; stroke-linecap: square"/>
     </g>
     <g id="text_6">
      <!-- 225° -->
      <g transform="translate(56.446263 326.109743) scale(0.1 -0.1)">
       <defs>
        <path id="DejaVuSans-32" d="M 1228 531 
L 3431 531 
L 3431 0 
L 469 0 
L 469 531 
Q 828 903 1448 1529 
Q 2069 2156 2228 2338 
Q 2531 2678 2651 2914 
Q 2772 3150 2772 3378 
Q 2772 3750 2511 3984 
Q 2250 4219 1831 4219 
Q 1534 4219 1204 4116 
Q 875 4013 500 3803 
L 500 4441 
Q 881 4594 1212 4672 
Q 1544 4750 1819 4750 
Q 2544 4750 2975 4387 
Q 3406 4025 3406 3419 
Q 3406 3131 3298 2873 
Q 3191 2616 2906 2266 
Q 2828 2175 2409 1742 
Q 1991 1309 1228 531 
z
" transform="scale(0.015625)"/>
       </defs>
       <use xlink:href="#DejaVuSans-32"/>
       <use xlink:href="#DejaVuSans-32" x="63.623047"/>
       <use xlink:href="#DejaVuSans-35" x="127.246094"/>
       <use xlink:href="#DejaVuSans-b0" x="190.869141"/>
      </g>
     </g>
    </g>
    <g id="xtick_7">
     <g id="line2d_7">
      <path d="M 187.38101 204.459371 
L 187.38101 358.596631 
" clip-path="url(#p27efb3ac80)" style="fill: none; stroke: #b0b0b0; stroke-width: 0.8; stroke-linecap: square"/>
     </g>
     <g id="text_7">
      <!-- 270° -->
      <g transform="translate(175.33726 375.356006) scale(0.1 -0.1)">
       <defs>
        <path id="DejaVuSans-37" d="M 525 4666 
L 3525 4666 
L 3525 4397 
L 1831 0 
L 1172 0 
L 2766 4134 
L 525 4134 
L 525 4666 
z
" transform="scale(0.015625)"/>
       </defs>
       <use xlink:href="#DejaVuSans-32"/>
       <use xlink:href="#DejaVuSans-37" x="63.623047"/>
       <use xlink:href="#DejaVuSans-30" x="127.246094"/>
       <use xlink:href="#DejaVuSans-b0" x="190.869141"/>
      </g>
     </g>
    </g>
    <g id="xtick_8">
     <g id="line2d_8">
      <path d="M 187.38101 204.459371 
L 296.372512 313.450873 
" clip-path="url(#p27efb3ac80)" style="fill: none; stroke: #b0b0b0; stroke-width: 0.8; stroke-linecap: square"/>
     </g>
     <g id="text_8">
      <!-- 315° -->
      <g transform="translate(294.228257 326.109743) scale(0.1 -0.1)">
       <use xlink:href="#DejaVuSans-33"/>
       <use xlink:href="#DejaVuSans-31" x="63.623047"/>
       <use xlink:href="#DejaVuSans-35" x="127.246094"/>
       <use xlink:href="#DejaVuSans-b0" x="190.869141"/>
      </g>
     </g>
    </g>
   </g>
   <g id="matplotlib.axis_2">
    <g id="ytick_1">
     <g id="line2d_9">
      <path d="M 206.648167 204.459371 
C 206.648167 201.929231 206.149785 199.423694 205.181542 197.086149 
C 204.2133 194.748605 202.794027 192.624513 201.004948 190.835434 
C 199.215869 189.046354 197.091776 187.627081 194.754232 186.658839 
C 192.416687 185.690596 189.91115 185.192214 187.38101 185.192214 
C 184.85087 185.192214 182.345333 185.690596 180.007788 186.658839 
C 177.670244 187.627081 175.546151 189.046354 173.757072 190.835434 
C 171.967993 192.624513 170.54872 194.748605 169.580478 197.086149 
C 168.612235 199.423694 168.113853 201.929231 168.113853 204.459371 
C 168.113853 206.989511 168.612235 209.495049 169.580478 211.832593 
C 170.54872 214.170138 171.967993 216.29423 173.757072 218.083309 
C 175.546151 219.872388 177.670244 221.291661 180.007788 222.259904 
C 182.345333 223.228146 184.85087 223.726529 187.38101 223.726529 
C 189.91115 223.726529 192.416687 223.228146 194.754232 222.259904 
C 197.091776 221.291661 199.215869 219.872388 201.004948 218.083309 
C 202.794027 216.29423 204.2133 214.170138 205.181542 211.832593 
C 206.149785 209.495049 206.648167 206.989511 206.648167 204.459371 
" clip-path="url(#p27efb3ac80)" style="fill: none; stroke: #b0b0b0; stroke-width: 0.8; stroke-linecap: square"/>
     </g>
     <g id="text_9">
      <!-- 0.05 -->
      <g transform="translate(195.515355 202.379684) scale(0.1 -0.1)">
       <defs>
        <path id="DejaVuSans-2e" d="M 684 794 
L 1344 794 
L 1344 0 
L 684 0 
L 684 794 
z
" transform="scale(0.015625)"/>
       </defs>
       <use xlink:href="#DejaVuSans-30"/>
       <use xlink:href="#DejaVuSans-2e" x="63.623047"/>
       <use xlink:href="#DejaVuSans-30" x="95.410156"/>
       <use xlink:href="#DejaVuSans-35" x="159.033203"/>
      </g>
     </g>
    </g>
    <g id="ytick_2">
     <g id="line2d_10">
      <path d="M 225.915325 204.459371 
C 225.915325 199.399091 224.91856 194.388016 222.982075 189.712927 
C 221.04559 185.037838 218.207044 180.789654 214.628885 177.211496 
C 211.050727 173.633338 206.802543 170.794792 202.127454 168.858306 
C 197.452365 166.921821 192.44129 165.925056 187.38101 165.925056 
C 182.32073 165.925056 177.309655 166.921821 172.634566 168.858306 
C 167.959477 170.794792 163.711293 173.633338 160.133135 177.211496 
C 156.554976 180.789654 153.71643 185.037838 151.779945 189.712927 
C 149.84346 194.388016 148.846695 199.399091 148.846695 204.459371 
C 148.846695 209.519651 149.84346 214.530726 151.779945 219.205815 
C 153.71643 223.880904 156.554976 228.129088 160.133135 231.707247 
C 163.711293 235.285405 167.959477 238.123951 172.634566 240.060436 
C 177.309655 241.996921 182.32073 242.993686 187.38101 242.993686 
C 192.44129 242.993686 197.452365 241.996921 202.127454 240.060436 
C 206.802543 238.123951 211.050727 235.285405 214.628885 231.707247 
C 218.207044 228.129088 221.04559 223.880904 222.982075 219.205815 
C 224.91856 214.530726 225.915325 209.519651 225.915325 204.459371 
" clip-path="url(#p27efb3ac80)" style="fill: none; stroke: #b0b0b0; stroke-width: 0.8; stroke-linecap: square"/>
     </g>
    </g>
    <g id="ytick_3">
     <g id="line2d_11">
      <path d="M 245.182482 204.459371 
C 245.182482 196.868951 243.687335 189.352339 240.782607 182.339705 
C 237.877879 175.327072 233.62006 168.954795 228.252823 163.587558 
C 222.885586 158.220321 216.513309 153.962502 209.500676 151.057774 
C 202.488042 148.153046 194.97143 146.657899 187.38101 146.657899 
C 179.79059 146.657899 172.273978 148.153046 165.261344 151.057774 
C 158.248711 153.962502 151.876434 158.220321 146.509197 163.587558 
C 141.14196 168.954795 136.884141 175.327072 133.979413 182.339705 
C 131.074685 189.352339 129.579538 196.868951 129.579538 204.459371 
C 129.579538 212.049791 131.074685 219.566404 133.979413 226.579037 
C 136.884141 233.591671 141.14196 239.963947 146.509197 245.331184 
C 151.876434 250.698422 158.248711 254.956241 165.261344 257.860969 
C 172.273978 260.765697 179.79059 262.260844 187.38101 262.260844 
C 194.97143 262.260844 202.488042 260.765697 209.500676 257.860969 
C 216.513309 254.956241 222.885586 250.698422 228.252823 245.331184 
C 233.62006 239.963947 237.877879 233.591671 240.782607 226.579037 
C 243.687335 219.566404 245.182482 212.049791 245.182482 204.459371 
" clip-path="url(#p27efb3ac80)" style="fill: none; stroke: #b0b0b0; stroke-width: 0.8; stroke-linecap: square"/>
     </g>
     <g id="text_10">
      <!-- 0.15 -->
      <g transform="translate(234.04967 202.379684) scale(0.1 -0.1)">
       <use xlink:href="#DejaVuSans-30"/>
       <use xlink:href="#DejaVuSans-2e" x="63.623047"/>
       <use xlink:href="#DejaVuSans-31" x="95.410156"/>
       <use xlink:href="#DejaVuSans-35" x="159.033203"/>
      </g>
     </g>
    </g>
    <g id="ytick_4">
     <g id="line2d_12">
      <path d="M 264.44964 204.459371 
C 264.44964 194.338811 262.45611 184.316661 258.58314 174.966483 
C 254.710169 165.616305 249.033077 157.119937 241.876761 149.96362 
C 234.720444 142.807304 226.224076 137.130212 216.873898 133.257241 
C 207.52372 129.384271 197.50157 127.390741 187.38101 127.390741 
C 177.26045 127.390741 167.2383 129.384271 157.888122 133.257241 
C 148.537944 137.130212 140.041576 142.807304 132.885259 149.96362 
C 125.728943 157.119937 120.051851 165.616305 116.17888 174.966483 
C 112.30591 184.316661 110.31238 194.338811 110.31238 204.459371 
C 110.31238 214.579931 112.30591 224.602081 116.17888 233.952259 
C 120.051851 243.302437 125.728943 251.798806 132.885259 258.955122 
C 140.041576 266.111439 148.537944 271.788531 157.888122 275.661501 
C 167.2383 279.534472 177.26045 281.528001 187.38101 281.528001 
C 197.50157 281.528001 207.52372 279.534472 216.873898 275.661501 
C 226.224076 271.788531 234.720444 266.111439 241.876761 258.955122 
C 249.033077 251.798806 254.710169 243.302437 258.58314 233.952259 
C 262.45611 224.602081 264.44964 214.579931 264.44964 204.459371 
" clip-path="url(#p27efb3ac80)" style="fill: none; stroke: #b0b0b0; stroke-width: 0.8; stroke-linecap: square"/>
     </g>
    </g>
    <g id="ytick_5">
     <g id="line2d_13">
      <path d="M 283.716797 204.459371 
C 283.716797 191.808672 281.224886 179.280984 276.383672 167.593261 
C 271.542459 155.905539 264.446094 145.285078 255.500699 136.339683 
C 246.555303 127.394287 235.934842 120.297922 224.24712 115.456709 
C 212.559397 110.615496 200.03171 108.123584 187.38101 108.123584 
C 174.73031 108.123584 162.202623 110.615496 150.5149 115.456709 
C 138.827178 120.297922 128.206717 127.394287 119.261321 136.339683 
C 110.315926 145.285078 103.219561 155.905539 98.378348 167.593261 
C 93.537134 179.280984 91.045223 191.808672 91.045223 204.459371 
C 91.045223 217.110071 93.537134 229.637759 98.378348 241.325481 
C 103.219561 253.013204 110.315926 263.633664 119.261321 272.57906 
C 128.206717 281.524455 138.827178 288.62082 150.5149 293.462034 
C 162.202623 298.303247 174.73031 300.795159 187.38101 300.795159 
C 200.03171 300.795159 212.559397 298.303247 224.24712 293.462034 
C 235.934842 288.62082 246.555303 281.524455 255.500699 272.57906 
C 264.446094 263.633664 271.542459 253.013204 276.383672 241.325481 
C 281.224886 229.637759 283.716797 217.110071 283.716797 204.459371 
" clip-path="url(#p27efb3ac80)" style="fill: none; stroke: #b0b0b0; stroke-width: 0.8; stroke-linecap: square"/>
     </g>
     <g id="text_11">
      <!-- 0.25 -->
      <g transform="translate(272.583985 202.379684) scale(0.1 -0.1)">
       <use xlink:href="#DejaVuSans-30"/>
       <use xlink:href="#DejaVuSans-2e" x="63.623047"/>
       <use xlink:href="#DejaVuSans-32" x="95.410156"/>
       <use xlink:href="#DejaVuSans-35" x="159.033203"/>
      </g>
     </g>
    </g>
    <g id="ytick_6">
     <g id="line2d_14">
      <path d="M 302.983955 204.459371 
C 302.983955 189.278532 299.993661 174.245306 294.184205 160.220039 
C 288.374749 146.194772 279.859111 133.45022 269.124636 122.715745 
C 258.390162 111.98127 245.645609 103.465632 231.620342 97.656176 
C 217.595075 91.846721 202.56185 88.856426 187.38101 88.856426 
C 172.20017 88.856426 157.166945 91.846721 143.141678 97.656176 
C 129.116411 103.465632 116.371858 111.98127 105.637384 122.715745 
C 94.902909 133.45022 86.387271 146.194772 80.577815 160.220039 
C 74.768359 174.245306 71.778065 189.278532 71.778065 204.459371 
C 71.778065 219.640211 74.768359 234.673436 80.577815 248.698703 
C 86.387271 262.72397 94.902909 275.468523 105.637384 286.202998 
C 116.371858 296.937472 129.116411 305.45311 143.141678 311.262566 
C 157.166945 317.072022 172.20017 320.062316 187.38101 320.062316 
C 202.56185 320.062316 217.595075 317.072022 231.620342 311.262566 
C 245.645609 305.45311 258.390162 296.937472 269.124636 286.202998 
C 279.859111 275.468523 288.374749 262.72397 294.184205 248.698703 
C 299.993661 234.673436 302.983955 219.640211 302.983955 204.459371 
" clip-path="url(#p27efb3ac80)" style="fill: none; stroke: #b0b0b0; stroke-width: 0.8; stroke-linecap: square"/>
     </g>
    </g>
    <g id="ytick_7">
     <g id="line2d_15">
      <path d="M 322.251112 204.459371 
C 322.251112 186.748392 318.762436 169.209629 311.984737 152.846817 
C 305.207039 136.484006 295.272128 121.615361 282.748574 109.091807 
C 270.22502 96.568253 255.356375 86.633342 238.993564 79.855644 
C 222.630752 73.077946 205.09199 69.589269 187.38101 69.589269 
C 169.67003 69.589269 152.131268 73.077946 135.768456 79.855644 
C 119.405645 86.633342 104.537 96.568253 92.013446 109.091807 
C 79.489892 121.615361 69.554981 136.484006 62.777283 152.846817 
C 55.999584 169.209629 52.510908 186.748392 52.510908 204.459371 
C 52.510908 222.170351 55.999584 239.709113 62.777283 256.071925 
C 69.554981 272.434737 79.489892 287.303382 92.013446 299.826935 
C 104.537 312.350489 119.405645 322.2854 135.768456 329.063098 
C 152.131268 335.840797 169.67003 339.329474 187.38101 339.329474 
C 205.09199 339.329474 222.630752 335.840797 238.993564 329.063098 
C 255.356375 322.2854 270.22502 312.350489 282.748574 299.826935 
C 295.272128 287.303382 305.207039 272.434737 311.984737 256.071925 
C 318.762436 239.709113 322.251112 222.170351 322.251112 204.459371 
" clip-path="url(#p27efb3ac80)" style="fill: none; stroke: #b0b0b0; stroke-width: 0.8; stroke-linecap: square"/>
     </g>
     <g id="text_12">
      <!-- 0.35 -->
      <g transform="translate(311.1183 202.379684) scale(0.1 -0.1)">
       <use xlink:href="#DejaVuSans-30"/>
       <use xlink:href="#DejaVuSans-2e" x="63.623047"/>
       <use xlink:href="#DejaVuSans-33" x="95.410156"/>
       <use xlink:href="#DejaVuSans-35" x="159.033203"/>
      </g>
     </g>
    </g>
    <g id="ytick_8">
     <g id="line2d_16">
      <path d="M 341.51827 204.459371 
C 341.51827 184.218252 337.531211 164.173952 329.78527 145.473596 
C 322.039329 126.773239 310.685145 109.780502 296.372512 95.467869 
C 282.059879 81.155237 265.067142 69.801053 246.366786 62.055112 
C 227.66643 54.30917 207.62213 50.322111 187.38101 50.322111 
C 167.13989 50.322111 147.09559 54.30917 128.395234 62.055112 
C 109.694878 69.801053 92.702141 81.155237 78.389508 95.467869 
C 64.076875 109.780502 52.722691 126.773239 44.97675 145.473596 
C 37.230809 164.173952 33.24375 184.218252 33.24375 204.459371 
C 33.24375 224.700491 37.230809 244.744791 44.97675 263.445147 
C 52.722691 282.145503 64.076875 299.13824 78.389508 313.450873 
C 92.702141 327.763506 109.694878 339.11769 128.395234 346.863631 
C 147.09559 354.609572 167.13989 358.596631 187.38101 358.596631 
C 207.62213 358.596631 227.66643 354.609572 246.366786 346.863631 
C 265.067142 339.11769 282.059879 327.763506 296.372512 313.450873 
C 310.685145 299.13824 322.039329 282.145503 329.78527 263.445147 
C 337.531211 244.744791 341.51827 224.700491 341.51827 204.459371 
" clip-path="url(#p27efb3ac80)" style="fill: none; stroke: #b0b0b0; stroke-width: 0.8; stroke-linecap: square"/>
     </g>
    </g>
   </g>
   <g id="PathCollection_1">
    <defs>
     <path id="m9c9a287c39" d="M 0 4.472136 
C 1.186024 4.472136 2.323632 4.000923 3.162278 3.162278 
C 4.000923 2.323632 4.472136 1.186024 4.472136 0 
C 4.472136 -1.186024 4.000923 -2.323632 3.162278 -3.162278 
C 2.323632 -4.000923 1.186024 -4.472136 0 -4.472136 
C -1.186024 -4.472136 -2.323632 -4.000923 -3.162278 -3.162278 
C -4.000923 -2.323632 -4.472136 -1.186024 -4.472136 0 
C -4.472136 1.186024 -4.000923 2.323632 -3.162278 3.162278 
C -2.323632 4.000923 -1.186024 4.472136 0 4.472136 
z
" style="stroke: #000000"/>
    </defs>
    <g clip-path="url(#p27efb3ac80)">
     <use xlink:href="#m9c9a287c39" x="187.38101" y="204.459371" style="fill: #6b6b6b; stroke: #000000"/>
    </g>
   </g>
   <g id="line2d_17">
    <path d="M 274.030453 155.96537 
L 272.977852 155.776409 
" clip-path="url(#p27efb3ac80)" style="fill: none; stroke: #eba599; stroke-width: 1.5; stroke-linecap: square"/>
   </g>
   <g id="line2d_18">
    <path d="M 272.977852 155.776409 
L 271.376442 155.487196 
" clip-path="url(#p27efb3ac80)" style="fill: none; stroke: #eaa599; stroke-width: 1.5; stroke-linecap: square"/>
   </g>
   <g id="line2d_19">
    <path d="M 271.376442 155.487196 
L 268.917586 155.039 
" clip-path="url(#p27efb3ac80)" style="fill: none; stroke: #e9a699; stroke-width: 1.5; stroke-linecap: square"/>
   </g>
   <g id="line2d_20">
    <path d="M 268.917586 155.039 
L 265.57712 154.421909 
" clip-path="url(#p27efb3ac80)" style="fill: none; stroke: #e8a798; stroke-width: 1.5; stroke-linecap: square"/>
   </g>
   <g id="line2d_21">
    <path d="M 265.57712 154.421909 
L 261.381712 153.633083 
" clip-path="url(#p27efb3ac80)" style="fill: none; stroke: #e6a898; stroke-width: 1.5; stroke-linecap: square"/>
   </g>
   <g id="line2d_22">
    <path d="M 261.381712 153.633083 
L 256.399303 152.675539 
" clip-path="url(#p27efb3ac80)" style="fill: none; stroke: #e4a997; stroke-width: 1.5; stroke-linecap: square"/>
   </g>
   <g id="line2d_23">
    <path d="M 256.399303 152.675539 
L 250.727895 151.556888 
" clip-path="url(#p27efb3ac80)" style="fill: none; stroke: #e2aa97; stroke-width: 1.5; stroke-linecap: square"/>
   </g>
   <g id="line2d_24">
    <path d="M 250.727895 151.556888 
L 244.48359 150.288032 
" clip-path="url(#p27efb3ac80)" style="fill: none; stroke: #dfac96; stroke-width: 1.5; stroke-linecap: square"/>
   </g>
   <g id="line2d_25">
    <path d="M 244.48359 150.288032 
L 237.789341 148.881926 
" clip-path="url(#p27efb3ac80)" style="fill: none; stroke: #ddad95; stroke-width: 1.5; stroke-linecap: square"/>
   </g>
   <g id="line2d_26">
    <path d="M 237.789341 148.881926 
L 230.765621 147.352498 
" clip-path="url(#p27efb3ac80)" style="fill: none; stroke: #daaf95; stroke-width: 1.5; stroke-linecap: square"/>
   </g>
   <g id="line2d_27">
    <path d="M 230.765621 147.352498 
L 223.523645 145.713798 
" clip-path="url(#p27efb3ac80)" style="fill: none; stroke: #d7b094; stroke-width: 1.5; stroke-linecap: square"/>
   </g>
   <g id="line2d_28">
    <path d="M 223.523645 145.713798 
L 216.161182 143.979392 
" clip-path="url(#p27efb3ac80)" style="fill: none; stroke: #d4b293; stroke-width: 1.5; stroke-linecap: square"/>
   </g>
   <g id="line2d_29">
    <path d="M 216.161182 143.979392 
L 208.760637 142.161959 
" clip-path="url(#p27efb3ac80)" style="fill: none; stroke: #d1b392; stroke-width: 1.5; stroke-linecap: square"/>
   </g>
   <g id="line2d_30">
    <path d="M 208.760637 142.161959 
L 201.388838 140.273079 
" clip-path="url(#p27efb3ac80)" style="fill: none; stroke: #ceb590; stroke-width: 1.5; stroke-linecap: square"/>
   </g>
   <g id="line2d_31">
    <path d="M 201.388838 140.273079 
L 194.097982 138.323141 
" clip-path="url(#p27efb3ac80)" style="fill: none; stroke: #cab78f; stroke-width: 1.5; stroke-linecap: square"/>
   </g>
   <g id="line2d_32">
    <path d="M 194.097982 138.323141 
L 186.927244 136.321343 
" clip-path="url(#p27efb3ac80)" style="fill: none; stroke: #c7b88e; stroke-width: 1.5; stroke-linecap: square"/>
   </g>
   <g id="line2d_33">
    <path d="M 186.927244 136.321343 
L 179.904679 134.275754 
" clip-path="url(#p27efb3ac80)" style="fill: none; stroke: #c4b98d; stroke-width: 1.5; stroke-linecap: square"/>
   </g>
   <g id="line2d_34">
    <path d="M 179.904679 134.275754 
L 173.049154 132.193398 
" clip-path="url(#p27efb3ac80)" style="fill: none; stroke: #c1bb8c; stroke-width: 1.5; stroke-linecap: square"/>
   </g>
   <g id="line2d_35">
    <path d="M 173.049154 132.193398 
L 166.372162 130.08036 
" clip-path="url(#p27efb3ac80)" style="fill: none; stroke: #bebc8a; stroke-width: 1.5; stroke-linecap: square"/>
   </g>
   <g id="line2d_36">
    <path d="M 166.372162 130.08036 
L 159.879423 127.941891 
" clip-path="url(#p27efb3ac80)" style="fill: none; stroke: #bbbd89; stroke-width: 1.5; stroke-linecap: square"/>
   </g>
   <g id="line2d_37">
    <path d="M 159.879423 127.941891 
L 154.563104 128.676138 
" clip-path="url(#p27efb3ac80)" style="fill: none; stroke: #b8be8a; stroke-width: 1.5; stroke-linecap: square"/>
   </g>
   <g id="line2d_38">
    <path d="M 154.563104 128.676138 
L 149.343531 129.375017 
" clip-path="url(#p27efb3ac80)" style="fill: none; stroke: #b5c08a; stroke-width: 1.5; stroke-linecap: square"/>
   </g>
   <g id="line2d_39">
    <path d="M 149.343531 129.375017 
L 144.244489 130.037326 
" clip-path="url(#p27efb3ac80)" style="fill: none; stroke: #b2c18b; stroke-width: 1.5; stroke-linecap: square"/>
   </g>
   <g id="line2d_40">
    <path d="M 144.244489 130.037326 
L 139.291111 130.661948 
" clip-path="url(#p27efb3ac80)" style="fill: none; stroke: #afc28b; stroke-width: 1.5; stroke-linecap: square"/>
   </g>
   <g id="line2d_41">
    <path d="M 139.291111 130.661948 
L 134.509541 131.247868 
" clip-path="url(#p27efb3ac80)" style="fill: none; stroke: #adc28c; stroke-width: 1.5; stroke-linecap: square"/>
   </g>
   <g id="line2d_42">
    <path d="M 134.509541 131.247868 
L 129.926508 131.794192 
" clip-path="url(#p27efb3ac80)" style="fill: none; stroke: #aac38c; stroke-width: 1.5; stroke-linecap: square"/>
   </g>
   <g id="line2d_43">
    <path d="M 129.926508 131.794192 
L 125.568789 132.300175 
" clip-path="url(#p27efb3ac80)" style="fill: none; stroke: #a7c48d; stroke-width: 1.5; stroke-linecap: square"/>
   </g>
   <g id="line2d_44">
    <path d="M 125.568789 132.300175 
L 121.462594 132.765239 
" clip-path="url(#p27efb3ac80)" style="fill: none; stroke: #a4c58d; stroke-width: 1.5; stroke-linecap: square"/>
   </g>
   <g id="line2d_45">
    <path d="M 121.462594 132.765239 
L 117.632863 133.189002 
" clip-path="url(#p27efb3ac80)" style="fill: none; stroke: #a2c68d; stroke-width: 1.5; stroke-linecap: square"/>
   </g>
   <g id="line2d_46">
    <path d="M 117.632863 133.189002 
L 114.102504 133.571296 
" clip-path="url(#p27efb3ac80)" style="fill: none; stroke: #a0c68e; stroke-width: 1.5; stroke-linecap: square"/>
   </g>
   <g id="line2d_47">
    <path d="M 114.102504 133.571296 
L 110.891595 133.912198 
" clip-path="url(#p27efb3ac80)" style="fill: none; stroke: #9ec78e; stroke-width: 1.5; stroke-linecap: square"/>
   </g>
   <g id="line2d_48">
    <path d="M 110.891595 133.912198 
L 108.016593 134.212048 
" clip-path="url(#p27efb3ac80)" style="fill: none; stroke: #9cc78e; stroke-width: 1.5; stroke-linecap: square"/>
   </g>
   <g id="line2d_49">
    <path d="M 108.016593 134.212048 
L 105.489559 134.471476 
" clip-path="url(#p27efb3ac80)" style="fill: none; stroke: #9ac88e; stroke-width: 1.5; stroke-linecap: square"/>
   </g>
   <g id="line2d_50">
    <path d="M 105.489559 134.471476 
L 103.317444 134.691428 
" clip-path="url(#p27efb3ac80)" style="fill: none; stroke: #98c88f; stroke-width: 1.5; stroke-linecap: square"/>
   </g>
   <g id="line2d_51">
    <path d="M 103.317444 134.691428 
L 101.501454 134.87319 
" clip-path="url(#p27efb3ac80)" style="fill: none; stroke: #97c98f; stroke-width: 1.5; stroke-linecap: square"/>
   </g>
   <g id="line2d_52">
    <path d="M 101.501454 134.87319 
L 100.036468 135.018424 
" clip-path="url(#p27efb3ac80)" style="fill: none; stroke: #96c98f; stroke-width: 1.5; stroke-linecap: square"/>
   </g>
   <g id="line2d_53">
    <path d="M 100.036468 135.018424 
L 98.910481 135.12921 
" clip-path="url(#p27efb3ac80)" style="fill: none; stroke: #95c98f; stroke-width: 1.5; stroke-linecap: square"/>
   </g>
   <g id="line2d_54">
    <path d="M 98.910481 135.12921 
L 98.103928 135.208122 
" clip-path="url(#p27efb3ac80)" style="fill: none; stroke: #95c98f; stroke-width: 1.5; stroke-linecap: square"/>
   </g>
   <g id="line2d_55">
    <path d="M 98.103928 135.208122 
L 97.588571 135.258351 
" clip-path="url(#p27efb3ac80)" style="fill: none; stroke: #94c98f; stroke-width: 1.5; stroke-linecap: square"/>
   </g>
   <g id="line2d_56">
    <path d="M 97.588571 135.258351 
L 97.254033 135.290875 
" clip-path="url(#p27efb3ac80)" style="fill: none; stroke: #94c98f; stroke-width: 1.5; stroke-linecap: square"/>
   </g>
   <g id="line2d_57">
    <path d="M 97.254033 135.290875 
L 97.494557 135.83252 
" clip-path="url(#p27efb3ac80)" style="fill: none; stroke: #94c990; stroke-width: 1.5; stroke-linecap: square"/>
   </g>
   <g id="line2d_58">
    <path d="M 97.494557 135.83252 
L 97.862833 136.663406 
" clip-path="url(#p27efb3ac80)" style="fill: none; stroke: #94c990; stroke-width: 1.5; stroke-linecap: square"/>
   </g>
   <g id="line2d_59">
    <path d="M 97.862833 136.663406 
L 98.433814 137.95539 
" clip-path="url(#p27efb3ac80)" style="fill: none; stroke: #94c991; stroke-width: 1.5; stroke-linecap: square"/>
   </g>
   <g id="line2d_60">
    <path d="M 98.433814 137.95539 
L 99.220246 139.742508 
" clip-path="url(#p27efb3ac80)" style="fill: none; stroke: #94c992; stroke-width: 1.5; stroke-linecap: square"/>
   </g>
   <g id="line2d_61">
    <path d="M 99.220246 139.742508 
L 100.225489 142.040055 
" clip-path="url(#p27efb3ac80)" style="fill: none; stroke: #94c994; stroke-width: 1.5; stroke-linecap: square"/>
   </g>
   <g id="line2d_62">
    <path d="M 100.225489 142.040055 
L 101.44469 144.847132 
" clip-path="url(#p27efb3ac80)" style="fill: none; stroke: #94c996; stroke-width: 1.5; stroke-linecap: square"/>
   </g>
   <g id="line2d_63">
    <path d="M 101.44469 144.847132 
L 102.866012 148.149105 
" clip-path="url(#p27efb3ac80)" style="fill: none; stroke: #94c998; stroke-width: 1.5; stroke-linecap: square"/>
   </g>
   <g id="line2d_64">
    <path d="M 102.866012 148.149105 
L 104.472038 151.920276 
" clip-path="url(#p27efb3ac80)" style="fill: none; stroke: #94c89a; stroke-width: 1.5; stroke-linecap: square"/>
   </g>
   <g id="line2d_65">
    <path d="M 104.472038 151.920276 
L 106.241281 156.126682 
" clip-path="url(#p27efb3ac80)" style="fill: none; stroke: #94c89d; stroke-width: 1.5; stroke-linecap: square"/>
   </g>
   <g id="line2d_66">
    <path d="M 106.241281 156.126682 
L 108.149673 160.728841 
" clip-path="url(#p27efb3ac80)" style="fill: none; stroke: #94c8a0; stroke-width: 1.5; stroke-linecap: square"/>
   </g>
   <g id="line2d_67">
    <path d="M 108.149673 160.728841 
L 110.171922 165.684237 
" clip-path="url(#p27efb3ac80)" style="fill: none; stroke: #94c7a3; stroke-width: 1.5; stroke-linecap: square"/>
   </g>
   <g id="line2d_68">
    <path d="M 110.171922 165.684237 
L 112.282666 170.949426 
" clip-path="url(#p27efb3ac80)" style="fill: none; stroke: #94c7a6; stroke-width: 1.5; stroke-linecap: square"/>
   </g>
   <g id="line2d_69">
    <path d="M 112.282666 170.949426 
L 114.457371 176.48169 
" clip-path="url(#p27efb3ac80)" style="fill: none; stroke: #94c7a9; stroke-width: 1.5; stroke-linecap: square"/>
   </g>
   <g id="line2d_70">
    <path d="M 114.457371 176.48169 
L 116.672982 182.240233 
" clip-path="url(#p27efb3ac80)" style="fill: none; stroke: #94c6ad; stroke-width: 1.5; stroke-linecap: square"/>
   </g>
   <g id="line2d_71">
    <path d="M 116.672982 182.240233 
L 118.90835 188.186989 
" clip-path="url(#p27efb3ac80)" style="fill: none; stroke: #94c6b1; stroke-width: 1.5; stroke-linecap: square"/>
   </g>
   <g id="line2d_72">
    <path d="M 118.90835 188.186989 
L 121.14447 194.287076 
" clip-path="url(#p27efb3ac80)" style="fill: none; stroke: #94c6b4; stroke-width: 1.5; stroke-linecap: square"/>
   </g>
   <g id="line2d_73">
    <path d="M 121.14447 194.287076 
L 123.364573 200.509004 
" clip-path="url(#p27efb3ac80)" style="fill: none; stroke: #93c5b8; stroke-width: 1.5; stroke-linecap: square"/>
   </g>
   <g id="line2d_74">
    <path d="M 123.364573 200.509004 
L 125.554108 206.824686 
" clip-path="url(#p27efb3ac80)" style="fill: none; stroke: #93c5bc; stroke-width: 1.5; stroke-linecap: square"/>
   </g>
   <g id="line2d_75">
    <path d="M 125.554108 206.824686 
L 127.70066 213.20932 
" clip-path="url(#p27efb3ac80)" style="fill: none; stroke: #93c4bf; stroke-width: 1.5; stroke-linecap: square"/>
   </g>
   <g id="line2d_76">
    <path d="M 127.70066 213.20932 
L 129.79381 219.641195 
" clip-path="url(#p27efb3ac80)" style="fill: none; stroke: #93c4c3; stroke-width: 1.5; stroke-linecap: square"/>
   </g>
   <g id="line2d_77">
    <path d="M 129.79381 219.641195 
L 134.037064 225.58651 
" clip-path="url(#p27efb3ac80)" style="fill: none; stroke: #94c3c6; stroke-width: 1.5; stroke-linecap: square"/>
   </g>
   <g id="line2d_78">
    <path d="M 134.037064 225.58651 
L 138.262214 231.67271 
" clip-path="url(#p27efb3ac80)" style="fill: none; stroke: #95c2ca; stroke-width: 1.5; stroke-linecap: square"/>
   </g>
   <g id="line2d_79">
    <path d="M 138.262214 231.67271 
L 142.449919 237.892975 
" clip-path="url(#p27efb3ac80)" style="fill: none; stroke: #96c1cd; stroke-width: 1.5; stroke-linecap: square"/>
   </g>
   <g id="line2d_80">
    <path d="M 142.449919 237.892975 
L 146.576327 244.236797 
" clip-path="url(#p27efb3ac80)" style="fill: none; stroke: #98c0d1; stroke-width: 1.5; stroke-linecap: square"/>
   </g>
   <g id="line2d_81">
    <path d="M 146.576327 244.236797 
L 150.612321 250.689066 
" clip-path="url(#p27efb3ac80)" style="fill: none; stroke: #99c0d4; stroke-width: 1.5; stroke-linecap: square"/>
   </g>
   <g id="line2d_82">
    <path d="M 150.612321 250.689066 
L 154.522775 257.228967 
" clip-path="url(#p27efb3ac80)" style="fill: none; stroke: #9abfd8; stroke-width: 1.5; stroke-linecap: square"/>
   </g>
   <g id="line2d_83">
    <path d="M 154.522775 257.228967 
L 158.265909 263.828685 
" clip-path="url(#p27efb3ac80)" style="fill: none; stroke: #9abedc; stroke-width: 1.5; stroke-linecap: square"/>
   </g>
   <g id="line2d_84">
    <path d="M 158.265909 263.828685 
L 161.792956 270.451902 
" clip-path="url(#p27efb3ac80)" style="fill: none; stroke: #9bbddf; stroke-width: 1.5; stroke-linecap: square"/>
   </g>
   <g id="line2d_85">
    <path d="M 161.792956 270.451902 
L 165.048447 277.052131 
" clip-path="url(#p27efb3ac80)" style="fill: none; stroke: #9cbce3; stroke-width: 1.5; stroke-linecap: square"/>
   </g>
   <g id="line2d_86">
    <path d="M 165.048447 277.052131 
L 167.971619 283.570995 
" clip-path="url(#p27efb3ac80)" style="fill: none; stroke: #9cbbe6; stroke-width: 1.5; stroke-linecap: square"/>
   </g>
   <g id="line2d_87">
    <path d="M 167.971619 283.570995 
L 170.49965 289.936676 
" clip-path="url(#p27efb3ac80)" style="fill: none; stroke: #9cbbea; stroke-width: 1.5; stroke-linecap: square"/>
   </g>
   <g id="line2d_88">
    <path d="M 170.49965 289.936676 
L 172.573601 296.062954 
" clip-path="url(#p27efb3ac80)" style="fill: none; stroke: #9cbaed; stroke-width: 1.5; stroke-linecap: square"/>
   </g>
   <g id="line2d_89">
    <path d="M 172.573601 296.062954 
L 174.147823 301.849503 
" clip-path="url(#p27efb3ac80)" style="fill: none; stroke: #9cbaf0; stroke-width: 1.5; stroke-linecap: square"/>
   </g>
   <g id="line2d_90">
    <path d="M 174.147823 301.849503 
L 175.20287 307.184382 
" clip-path="url(#p27efb3ac80)" style="fill: none; stroke: #9bb9f3; stroke-width: 1.5; stroke-linecap: square"/>
   </g>
   <g id="line2d_91">
    <path d="M 175.20287 307.184382 
L 175.76008 311.949837 
" clip-path="url(#p27efb3ac80)" style="fill: none; stroke: #9ab9f6; stroke-width: 1.5; stroke-linecap: square"/>
   </g>
   <g id="line2d_92">
    <path d="M 175.76008 311.949837 
L 175.892805 316.032314 
" clip-path="url(#p27efb3ac80)" style="fill: none; stroke: #9ab9f8; stroke-width: 1.5; stroke-linecap: square"/>
   </g>
   <g id="line2d_93">
    <path d="M 175.892805 316.032314 
L 175.726153 319.336797 
" clip-path="url(#p27efb3ac80)" style="fill: none; stroke: #99b8fa; stroke-width: 1.5; stroke-linecap: square"/>
   </g>
   <g id="line2d_94">
    <path d="M 175.726153 319.336797 
L 175.417485 321.80412 
" clip-path="url(#p27efb3ac80)" style="fill: none; stroke: #98b8fb; stroke-width: 1.5; stroke-linecap: square"/>
   </g>
   <g id="line2d_95">
    <path d="M 175.417485 321.80412 
L 175.117989 323.428673 
" clip-path="url(#p27efb3ac80)" style="fill: none; stroke: #97b8fc; stroke-width: 1.5; stroke-linecap: square"/>
   </g>
   <g id="line2d_96">
    <path d="M 175.117989 323.428673 
L 174.873937 324.504616 
" clip-path="url(#p27efb3ac80)" style="fill: none; stroke: #97b8fd; stroke-width: 1.5; stroke-linecap: square"/>
   </g>
   <g id="line2d_97">
    <path d="M 174.873937 324.504616 
L 176.702055 324.144911 
" clip-path="url(#p27efb3ac80)" style="fill: none; stroke: #98b8fc; stroke-width: 1.5; stroke-linecap: square"/>
   </g>
   <g id="line2d_98">
    <path d="M 176.702055 324.144911 
L 179.424623 323.593844 
" clip-path="url(#p27efb3ac80)" style="fill: none; stroke: #9ab8fc; stroke-width: 1.5; stroke-linecap: square"/>
   </g>
   <g id="line2d_99">
    <path d="M 179.424623 323.593844 
L 183.475585 322.738532 
" clip-path="url(#p27efb3ac80)" style="fill: none; stroke: #9db7fb; stroke-width: 1.5; stroke-linecap: square"/>
   </g>
   <g id="line2d_100">
    <path d="M 183.475585 322.738532 
L 188.749194 321.558164 
" clip-path="url(#p27efb3ac80)" style="fill: none; stroke: #a0b6fb; stroke-width: 1.5; stroke-linecap: square"/>
   </g>
   <g id="line2d_101">
    <path d="M 188.749194 321.558164 
L 195.037318 320.044514 
" clip-path="url(#p27efb3ac80)" style="fill: none; stroke: #a5b5fa; stroke-width: 1.5; stroke-linecap: square"/>
   </g>
   <g id="line2d_102">
    <path d="M 195.037318 320.044514 
L 202.079788 318.19985 
" clip-path="url(#p27efb3ac80)" style="fill: none; stroke: #a9b3f8; stroke-width: 1.5; stroke-linecap: square"/>
   </g>
   <g id="line2d_103">
    <path d="M 202.079788 318.19985 
L 209.609427 316.035006 
" clip-path="url(#p27efb3ac80)" style="fill: none; stroke: #aeb2f7; stroke-width: 1.5; stroke-linecap: square"/>
   </g>
   <g id="line2d_104">
    <path d="M 209.609427 316.035006 
L 217.383855 313.567528 
" clip-path="url(#p27efb3ac80)" style="fill: none; stroke: #b2b0f6; stroke-width: 1.5; stroke-linecap: square"/>
   </g>
   <g id="line2d_105">
    <path d="M 217.383855 313.567528 
L 225.2025 310.819903 
" clip-path="url(#p27efb3ac80)" style="fill: none; stroke: #b7aff4; stroke-width: 1.5; stroke-linecap: square"/>
   </g>
   <g id="line2d_106">
    <path d="M 225.2025 310.819903 
L 232.911648 307.817929 
" clip-path="url(#p27efb3ac80)" style="fill: none; stroke: #bcadf2; stroke-width: 1.5; stroke-linecap: square"/>
   </g>
   <g id="line2d_107">
    <path d="M 232.911648 307.817929 
L 240.401848 304.589265 
" clip-path="url(#p27efb3ac80)" style="fill: none; stroke: #c0acf0; stroke-width: 1.5; stroke-linecap: square"/>
   </g>
   <g id="line2d_108">
    <path d="M 240.401848 304.589265 
L 247.601466 301.162219 
" clip-path="url(#p27efb3ac80)" style="fill: none; stroke: #c4aaee; stroke-width: 1.5; stroke-linecap: square"/>
   </g>
   <g id="line2d_109">
    <path d="M 247.601466 301.162219 
L 254.469019 297.564766 
" clip-path="url(#p27efb3ac80)" style="fill: none; stroke: #c8a9ec; stroke-width: 1.5; stroke-linecap: square"/>
   </g>
   <g id="line2d_110">
    <path d="M 254.469019 297.564766 
L 260.985799 293.823814 
" clip-path="url(#p27efb3ac80)" style="fill: none; stroke: #cca7ea; stroke-width: 1.5; stroke-linecap: square"/>
   </g>
   <g id="line2d_111">
    <path d="M 260.985799 293.823814 
L 267.149497 289.964684 
" clip-path="url(#p27efb3ac80)" style="fill: none; stroke: #d0a6e7; stroke-width: 1.5; stroke-linecap: square"/>
   </g>
   <g id="line2d_112">
    <path d="M 267.149497 289.964684 
L 272.969057 286.010792 
" clip-path="url(#p27efb3ac80)" style="fill: none; stroke: #d3a5e5; stroke-width: 1.5; stroke-linecap: square"/>
   </g>
   <g id="line2d_113">
    <path d="M 272.969057 286.010792 
L 278.460702 281.983468 
" clip-path="url(#p27efb3ac80)" style="fill: none; stroke: #d6a4e3; stroke-width: 1.5; stroke-linecap: square"/>
   </g>
   <g id="line2d_114">
    <path d="M 278.460702 281.983468 
L 283.644985 277.901914 
" clip-path="url(#p27efb3ac80)" style="fill: none; stroke: #d9a2e0; stroke-width: 1.5; stroke-linecap: square"/>
   </g>
   <g id="line2d_115">
    <path d="M 283.644985 277.901914 
L 288.544671 273.78323 
" clip-path="url(#p27efb3ac80)" style="fill: none; stroke: #dca1de; stroke-width: 1.5; stroke-linecap: square"/>
   </g>
   <g id="line2d_116">
    <path d="M 288.544671 273.78323 
L 293.183255 269.64251 
" clip-path="url(#p27efb3ac80)" style="fill: none; stroke: #dfa0dc; stroke-width: 1.5; stroke-linecap: square"/>
   </g>
   <g id="line2d_117">
    <path d="M 293.183255 269.64251 
L 293.590488 262.969117 
" clip-path="url(#p27efb3ac80)" style="fill: none; stroke: #e0a0d8; stroke-width: 1.5; stroke-linecap: square"/>
   </g>
   <g id="line2d_118">
    <path d="M 293.590488 262.969117 
L 293.795668 256.189104 
" clip-path="url(#p27efb3ac80)" style="fill: none; stroke: #e2a0d4; stroke-width: 1.5; stroke-linecap: square"/>
   </g>
   <g id="line2d_119">
    <path d="M 293.795668 256.189104 
L 293.78832 249.309023 
" clip-path="url(#p27efb3ac80)" style="fill: none; stroke: #e3a0d0; stroke-width: 1.5; stroke-linecap: square"/>
   </g>
   <g id="line2d_120">
    <path d="M 293.78832 249.309023 
L 293.560024 242.338752 
" clip-path="url(#p27efb3ac80)" style="fill: none; stroke: #e4a0cc; stroke-width: 1.5; stroke-linecap: square"/>
   </g>
   <g id="line2d_121">
    <path d="M 293.560024 242.338752 
L 293.10513 235.292385 
" clip-path="url(#p27efb3ac80)" style="fill: none; stroke: #e5a1c8; stroke-width: 1.5; stroke-linecap: square"/>
   </g>
   <g id="line2d_122">
    <path d="M 293.10513 235.292385 
L 292.421607 228.189311 
" clip-path="url(#p27efb3ac80)" style="fill: none; stroke: #e6a1c4; stroke-width: 1.5; stroke-linecap: square"/>
   </g>
   <g id="line2d_123">
    <path d="M 292.421607 228.189311 
L 291.512041 221.055532 
" clip-path="url(#p27efb3ac80)" style="fill: none; stroke: #e7a1c0; stroke-width: 1.5; stroke-linecap: square"/>
   </g>
   <g id="line2d_124">
    <path d="M 291.512041 221.055532 
L 290.384771 213.925229 
" clip-path="url(#p27efb3ac80)" style="fill: none; stroke: #e7a1bc; stroke-width: 1.5; stroke-linecap: square"/>
   </g>
   <g id="line2d_125">
    <path d="M 290.384771 213.925229 
L 289.055178 206.842566 
" clip-path="url(#p27efb3ac80)" style="fill: none; stroke: #e8a2b8; stroke-width: 1.5; stroke-linecap: square"/>
   </g>
   <g id="line2d_126">
    <path d="M 289.055178 206.842566 
L 287.547047 199.863655 
" clip-path="url(#p27efb3ac80)" style="fill: none; stroke: #e9a2b4; stroke-width: 1.5; stroke-linecap: square"/>
   </g>
   <g id="line2d_127">
    <path d="M 287.547047 199.863655 
L 285.893911 193.058494 
" clip-path="url(#p27efb3ac80)" style="fill: none; stroke: #e9a2b0; stroke-width: 1.5; stroke-linecap: square"/>
   </g>
   <g id="line2d_128">
    <path d="M 285.893911 193.058494 
L 284.140136 186.512482 
" clip-path="url(#p27efb3ac80)" style="fill: none; stroke: #eaa3ac; stroke-width: 1.5; stroke-linecap: square"/>
   </g>
   <g id="line2d_129">
    <path d="M 284.140136 186.512482 
L 282.341372 180.326807 
" clip-path="url(#p27efb3ac80)" style="fill: none; stroke: #eaa3a8; stroke-width: 1.5; stroke-linecap: square"/>
   </g>
   <g id="line2d_130">
    <path d="M 282.341372 180.326807 
L 280.563768 174.616672 
" clip-path="url(#p27efb3ac80)" style="fill: none; stroke: #eaa3a5; stroke-width: 1.5; stroke-linecap: square"/>
   </g>
   <g id="line2d_131">
    <path d="M 280.563768 174.616672 
L 278.881212 169.505973 
" clip-path="url(#p27efb3ac80)" style="fill: none; stroke: #eba4a2; stroke-width: 1.5; stroke-linecap: square"/>
   </g>
   <g id="line2d_132">
    <path d="M 278.881212 169.505973 
L 277.369872 165.11713 
" clip-path="url(#p27efb3ac80)" style="fill: none; stroke: #eba49f; stroke-width: 1.5; stroke-linecap: square"/>
   </g>
   <g id="line2d_133">
    <path d="M 277.369872 165.11713 
L 276.099813 161.555554 
" clip-path="url(#p27efb3ac80)" style="fill: none; stroke: #eba49d; stroke-width: 1.5; stroke-linecap: square"/>
   </g>
   <g id="line2d_134">
    <path d="M 276.099813 161.555554 
L 275.124434 158.889958 
" clip-path="url(#p27efb3ac80)" style="fill: none; stroke: #eba49b; stroke-width: 1.5; stroke-linecap: square"/>
   </g>
   <g id="line2d_135">
    <path d="M 275.124434 158.889958 
L 274.469626 157.131539 
" clip-path="url(#p27efb3ac80)" style="fill: none; stroke: #eba49a; stroke-width: 1.5; stroke-linecap: square"/>
   </g>
   <g id="line2d_136">
    <path d="M 274.469626 157.131539 
L 274.030453 155.96537 
" clip-path="url(#p27efb3ac80)" style="fill: none; stroke: #eba499; stroke-width: 1.5; stroke-linecap: square"/>
   </g>
   <g id="patch_3">
    <path d="M 341.51827 204.459371 
C 341.51827 184.218252 337.531211 164.173952 329.78527 145.473596 
C 322.039329 126.773239 310.685145 109.780502 296.372512 95.467869 
C 282.059879 81.155237 265.067142 69.801053 246.366786 62.055112 
C 227.66643 54.30917 207.62213 50.322111 187.38101 50.322111 
C 167.13989 50.322111 147.09559 54.30917 128.395234 62.055112 
C 109.694878 69.801053 92.702141 81.155237 78.389508 95.467869 
C 64.076875 109.780502 52.722691 126.773239 44.97675 145.473596 
C 37.230809 164.173952 33.24375 184.218252 33.24375 204.459371 
C 33.24375 224.700491 37.230809 244.744791 44.97675 263.445147 
C 52.722691 282.145503 64.076875 299.13824 78.389508 313.450873 
C 92.702141 327.763506 109.694878 339.11769 128.395234 346.863631 
C 147.09559 354.609572 167.13989 358.596631 187.38101 358.596631 
C 207.62213 358.596631 227.66643 354.609572 246.366786 346.863631 
C 265.067142 339.11769 282.059879 327.763506 296.372512 313.450873 
C 310.685145 299.13824 322.039329 282.145503 329.78527 263.445147 
C 337.531211 244.744791 341.51827 224.700491 341.51827 204.459371 
" style="fill: none; stroke: #000000; stroke-width: 0.8; stroke-linejoin: miter; stroke-linecap: square"/>
   </g>
   <g id="patch_4">
    <path d="M 103.975512 197.191225 
Q 113.670042 198.850114 123.364573 200.509004 
" style="fill: none; stroke: #000000; stroke-linecap: round"/>
   </g>
   <g id="text_13">
    <g id="patch_5">
     <path d="M 77.211186 199.740629 
L 103.978374 199.740629 
L 103.978374 190.062504 
L 77.211186 190.062504 
L 77.211186 199.740629 
z
" style="fill: none"/>
    </g>
    <!-- sRGB -->
    <g transform="translate(77.211186 197.660942) scale(0.1 -0.1)">
     <defs>
      <path id="DejaVuSans-73" d="M 2834 3397 
L 2834 2853 
Q 2591 2978 2328 3040 
Q 2066 3103 1784 3103 
Q 1356 3103 1142 2972 
Q 928 2841 928 2578 
Q 928 2378 1081 2264 
Q 1234 2150 1697 2047 
L 1894 2003 
Q 2506 1872 2764 1633 
Q 3022 1394 3022 966 
Q 3022 478 2636 193 
Q 2250 -91 1575 -91 
Q 1294 -91 989 -36 
Q 684 19 347 128 
L 347 722 
Q 666 556 975 473 
Q 1284 391 1588 391 
Q 1994 391 2212 530 
Q 2431 669 2431 922 
Q 2431 1156 2273 1281 
Q 2116 1406 1581 1522 
L 1381 1569 
Q 847 1681 609 1914 
Q 372 2147 372 2553 
Q 372 3047 722 3315 
Q 1072 3584 1716 3584 
Q 2034 3584 2315 3537 
Q 2597 3491 2834 3397 
z
" transform="scale(0.015625)"/>
      <path id="DejaVuSans-52" d="M 2841 2188 
Q 3044 2119 3236 1894 
Q 3428 1669 3622 1275 
L 4263 0 
L 3584 0 
L 2988 1197 
Q 2756 1666 2539 1819 
Q 2322 1972 1947 1972 
L 1259 1972 
L 1259 0 
L 628 0 
L 628 4666 
L 2053 4666 
Q 2853 4666 3247 4331 
Q 3641 3997 3641 3322 
Q 3641 2881 3436 2590 
Q 3231 2300 2841 2188 
z
M 1259 4147 
L 1259 2491 
L 2053 2491 
Q 2509 2491 2742 2702 
Q 2975 2913 2975 3322 
Q 2975 3731 2742 3939 
Q 2509 4147 2053 4147 
L 1259 4147 
z
" transform="scale(0.015625)"/>
      <path id="DejaVuSans-47" d="M 3809 666 
L 3809 1919 
L 2778 1919 
L 2778 2438 
L 4434 2438 
L 4434 434 
Q 4069 175 3628 42 
Q 3188 -91 2688 -91 
Q 1594 -91 976 548 
Q 359 1188 359 2328 
Q 359 3472 976 4111 
Q 1594 4750 2688 4750 
Q 3144 4750 3555 4637 
Q 3966 4525 4313 4306 
L 4313 3634 
Q 3963 3931 3569 4081 
Q 3175 4231 2741 4231 
Q 1884 4231 1454 3753 
Q 1025 3275 1025 2328 
Q 1025 1384 1454 906 
Q 1884 428 2741 428 
Q 3075 428 3337 486 
Q 3600 544 3809 666 
z
" transform="scale(0.015625)"/>
      <path id="DejaVuSans-42" d="M 1259 2228 
L 1259 519 
L 2272 519 
Q 2781 519 3026 730 
Q 3272 941 3272 1375 
Q 3272 1813 3026 2020 
Q 2781 2228 2272 2228 
L 1259 2228 
z
M 1259 4147 
L 1259 2741 
L 2194 2741 
Q 2656 2741 2882 2914 
Q 3109 3088 3109 3444 
Q 3109 3797 2882 3972 
Q 2656 4147 2194 4147 
L 1259 4147 
z
M 628 4666 
L 2241 4666 
Q 2963 4666 3353 4366 
Q 3744 4066 3744 3513 
Q 3744 3084 3544 2831 
Q 3344 2578 2956 2516 
Q 3422 2416 3680 2098 
Q 3938 1781 3938 1306 
Q 3938 681 3513 340 
Q 3088 0 2303 0 
L 628 0 
L 628 4666 
z
" transform="scale(0.015625)"/>
     </defs>
     <use xlink:href="#DejaVuSans-73"/>
     <use xlink:href="#DejaVuSans-52" x="52.099609"/>
     <use xlink:href="#DejaVuSans-47" x="121.582031"/>
     <use xlink:href="#DejaVuSans-42" x="199.072266"/>
    </g>
   </g>
   <g id="text_14">
    <!-- Hue &amp; Chroma -->
    <g transform="translate(19.324103 41.239366) scale(0.13 -0.13)">
     <defs>
      <path id="DejaVuSans-Oblique-48" d="M 1081 4666 
L 1716 4666 
L 1344 2753 
L 3634 2753 
L 4006 4666 
L 4641 4666 
L 3731 0 
L 3097 0 
L 3531 2222 
L 1241 2222 
L 806 0 
L 172 0 
L 1081 4666 
z
" transform="scale(0.015625)"/>
      <path id="DejaVuSans-Oblique-75" d="M 428 1388 
L 838 3500 
L 1416 3500 
L 1006 1409 
Q 975 1256 961 1147 
Q 947 1038 947 966 
Q 947 700 1109 554 
Q 1272 409 1569 409 
Q 2031 409 2368 721 
Q 2706 1034 2809 1563 
L 3194 3500 
L 3769 3500 
L 3091 0 
L 2516 0 
L 2631 550 
Q 2388 244 2052 76 
Q 1716 -91 1338 -91 
Q 878 -91 622 161 
Q 366 413 366 863 
Q 366 956 381 1097 
Q 397 1238 428 1388 
z
" transform="scale(0.015625)"/>
      <path id="DejaVuSans-Oblique-65" d="M 3078 2063 
Q 3088 2113 3092 2166 
Q 3097 2219 3097 2272 
Q 3097 2653 2873 2875 
Q 2650 3097 2266 3097 
Q 1838 3097 1509 2826 
Q 1181 2556 1013 2059 
L 3078 2063 
z
M 3578 1613 
L 903 1613 
Q 884 1494 878 1425 
Q 872 1356 872 1306 
Q 872 872 1139 634 
Q 1406 397 1894 397 
Q 2269 397 2603 481 
Q 2938 566 3225 728 
L 3116 159 
Q 2806 34 2476 -28 
Q 2147 -91 1806 -91 
Q 1078 -91 686 257 
Q 294 606 294 1247 
Q 294 1794 489 2264 
Q 684 2734 1063 3103 
Q 1306 3334 1642 3459 
Q 1978 3584 2356 3584 
Q 2950 3584 3301 3228 
Q 3653 2872 3653 2272 
Q 3653 2128 3634 1964 
Q 3616 1800 3578 1613 
z
" transform="scale(0.015625)"/>
      <path id="DejaVuSans-Oblique-20" transform="scale(0.015625)"/>
      <path id="DejaVuSans-Oblique-26" d="M 3022 813 
L 1691 2509 
Q 1313 2234 1117 1925 
Q 922 1616 922 1294 
Q 922 897 1189 656 
Q 1456 416 1900 416 
Q 2194 416 2480 517 
Q 2766 619 3022 813 
z
M 4709 2503 
Q 4569 2006 4339 1593 
Q 4109 1181 3788 844 
L 4441 0 
L 3653 0 
L 3322 434 
Q 2991 175 2609 42 
Q 2228 -91 1813 -91 
Q 1122 -91 711 250 
Q 300 591 300 1153 
Q 300 1634 589 2062 
Q 878 2491 1447 2853 
Q 1350 2997 1304 3145 
Q 1259 3294 1259 3463 
Q 1259 3675 1331 3865 
Q 1403 4056 1538 4213 
Q 1753 4469 2078 4609 
Q 2403 4750 2778 4750 
Q 3022 4750 3269 4694 
Q 3516 4638 3769 4525 
L 3659 3956 
Q 3425 4103 3192 4179 
Q 2959 4256 2741 4256 
Q 2353 4256 2111 4054 
Q 1869 3853 1869 3541 
Q 1869 3403 1928 3268 
Q 1988 3134 2203 2859 
L 3475 1234 
Q 3709 1481 3875 1801 
Q 4041 2122 4128 2503 
L 4709 2503 
z
" transform="scale(0.015625)"/>
      <path id="DejaVuSans-Oblique-43" d="M 4447 4306 
L 4319 3641 
Q 4019 3944 3683 4091 
Q 3347 4238 2956 4238 
Q 2422 4238 2017 3981 
Q 1613 3725 1319 3200 
Q 1131 2863 1032 2486 
Q 934 2109 934 1728 
Q 934 1091 1264 756 
Q 1594 422 2222 422 
Q 2656 422 3056 561 
Q 3456 700 3834 978 
L 3688 231 
Q 3316 72 2936 -9 
Q 2556 -91 2175 -91 
Q 1278 -91 773 396 
Q 269 884 269 1753 
Q 269 2309 461 2846 
Q 653 3384 1013 3828 
Q 1394 4300 1883 4525 
Q 2372 4750 3022 4750 
Q 3422 4750 3780 4639 
Q 4138 4528 4447 4306 
z
" transform="scale(0.015625)"/>
      <path id="DejaVuSans-Oblique-68" d="M 3566 2113 
L 3156 0 
L 2578 0 
L 2988 2091 
Q 3016 2238 3031 2350 
Q 3047 2463 3047 2528 
Q 3047 2791 2881 2937 
Q 2716 3084 2419 3084 
Q 1956 3084 1617 2771 
Q 1278 2459 1178 1941 
L 800 0 
L 225 0 
L 1172 4863 
L 1747 4863 
L 1375 2950 
Q 1594 3244 1934 3414 
Q 2275 3584 2650 3584 
Q 3113 3584 3367 3334 
Q 3622 3084 3622 2631 
Q 3622 2519 3608 2391 
Q 3594 2263 3566 2113 
z
" transform="scale(0.015625)"/>
      <path id="DejaVuSans-Oblique-72" d="M 2853 2969 
Q 2766 3016 2653 3041 
Q 2541 3066 2413 3066 
Q 1953 3066 1609 2717 
Q 1266 2369 1153 1784 
L 800 0 
L 225 0 
L 909 3500 
L 1484 3500 
L 1375 2956 
Q 1603 3259 1920 3421 
Q 2238 3584 2597 3584 
Q 2691 3584 2781 3573 
Q 2872 3563 2963 3538 
L 2853 2969 
z
" transform="scale(0.015625)"/>
      <path id="DejaVuSans-Oblique-6f" d="M 1625 -91 
Q 1009 -91 651 289 
Q 294 669 294 1325 
Q 294 1706 417 2101 
Q 541 2497 738 2766 
Q 1047 3184 1428 3384 
Q 1809 3584 2291 3584 
Q 2888 3584 3255 3212 
Q 3622 2841 3622 2241 
Q 3622 1825 3500 1412 
Q 3378 1000 3181 728 
Q 2875 309 2494 109 
Q 2113 -91 1625 -91 
z
M 891 1344 
Q 891 869 1089 633 
Q 1288 397 1691 397 
Q 2269 397 2648 901 
Q 3028 1406 3028 2181 
Q 3028 2634 2825 2865 
Q 2622 3097 2228 3097 
Q 1903 3097 1650 2945 
Q 1397 2794 1197 2484 
Q 1050 2253 970 1956 
Q 891 1659 891 1344 
z
" transform="scale(0.015625)"/>
      <path id="DejaVuSans-Oblique-6d" d="M 5747 2113 
L 5338 0 
L 4763 0 
L 5166 2094 
Q 5191 2228 5203 2325 
Q 5216 2422 5216 2491 
Q 5216 2772 5059 2928 
Q 4903 3084 4622 3084 
Q 4203 3084 3875 2770 
Q 3547 2456 3450 1953 
L 3066 0 
L 2491 0 
L 2900 2094 
Q 2925 2209 2937 2307 
Q 2950 2406 2950 2484 
Q 2950 2769 2794 2926 
Q 2638 3084 2363 3084 
Q 1938 3084 1609 2770 
Q 1281 2456 1184 1953 
L 800 0 
L 225 0 
L 909 3500 
L 1484 3500 
L 1375 2956 
Q 1609 3263 1923 3423 
Q 2238 3584 2597 3584 
Q 2978 3584 3223 3384 
Q 3469 3184 3519 2828 
Q 3781 3197 4126 3390 
Q 4472 3584 4856 3584 
Q 5306 3584 5551 3325 
Q 5797 3066 5797 2591 
Q 5797 2488 5784 2364 
Q 5772 2241 5747 2113 
z
" transform="scale(0.015625)"/>
      <path id="DejaVuSans-Oblique-61" d="M 3438 1997 
L 3047 0 
L 2472 0 
L 2578 531 
Q 2325 219 2001 64 
Q 1678 -91 1281 -91 
Q 834 -91 548 182 
Q 263 456 263 884 
Q 263 1497 752 1853 
Q 1241 2209 2100 2209 
L 2900 2209 
L 2931 2363 
Q 2938 2388 2941 2417 
Q 2944 2447 2944 2509 
Q 2944 2788 2717 2942 
Q 2491 3097 2081 3097 
Q 1800 3097 1504 3025 
Q 1209 2953 897 2809 
L 997 3341 
Q 1322 3463 1633 3523 
Q 1944 3584 2234 3584 
Q 2853 3584 3176 3315 
Q 3500 3047 3500 2534 
Q 3500 2431 3484 2292 
Q 3469 2153 3438 1997 
z
M 2816 1759 
L 2241 1759 
Q 1534 1759 1195 1570 
Q 856 1381 856 984 
Q 856 709 1029 553 
Q 1203 397 1509 397 
Q 1978 397 2328 733 
Q 2678 1069 2791 1631 
L 2816 1759 
z
" transform="scale(0.015625)"/>
     </defs>
     <use xlink:href="#DejaVuSans-Oblique-48"/>
     <use xlink:href="#DejaVuSans-Oblique-75" x="75.195312"/>
     <use xlink:href="#DejaVuSans-Oblique-65" x="138.574219"/>
     <use xlink:href="#DejaVuSans-Oblique-20" x="200.097656"/>
     <use xlink:href="#DejaVuSans-Oblique-26" x="231.884766"/>
     <use xlink:href="#DejaVuSans-Oblique-20" x="309.863281"/>
     <use xlink:href="#DejaVuSans-Oblique-43" x="341.650391"/>
     <use xlink:href="#DejaVuSans-Oblique-68" x="411.474609"/>
     <use xlink:href="#DejaVuSans-Oblique-72" x="474.853516"/>
     <use xlink:href="#DejaVuSans-Oblique-6f" x="515.966797"/>
     <use xlink:href="#DejaVuSans-Oblique-6d" x="577.148438"/>
     <use xlink:href="#DejaVuSans-Oblique-61" x="674.560547"/>
    </g>
   </g>
   <g id="PathCollection_2">
    <defs>
     <path id="mddc8a44a81" d="M 0 4.472136 
C 1.186024 4.472136 2.323632 4.000923 3.162278 3.162278 
C 4.000923 2.323632 4.472136 1.186024 4.472136 0 
C 4.472136 -1.186024 4.000923 -2.323632 3.162278 -3.162278 
C 2.323632 -4.000923 1.186024 -4.472136 0 -4.472136 
C -1.186024 -4.472136 -2.323632 -4.000923 -3.162278 -3.162278 
C -4.000923 -2.323632 -4.472136 -1.186024 -4.472136 0 
C -4.472136 1.186024 -4.000923 2.323632 -3.162278 3.162278 
C -2.323632 4.000923 -1.186024 4.472136 0 4.472136 
z
" style="stroke: #000000"/>
    </defs>
    <g clip-path="url(#p27efb3ac80)">
     <use xlink:href="#mddc8a44a81" x="246.558542" y="171.340228" style="fill: #990000; stroke: #000000"/>
    </g>
   </g>
   <g id="PathCollection_3">
    <defs>
     <path id="m4cc89967cd" d="M 0 4.472136 
C 1.186024 4.472136 2.323632 4.000923 3.162278 3.162278 
C 4.000923 2.323632 4.472136 1.186024 4.472136 0 
C 4.472136 -1.186024 4.000923 -2.323632 3.162278 -3.162278 
C 2.323632 -4.000923 1.186024 -4.472136 0 -4.472136 
C -1.186024 -4.472136 -2.323632 -4.000923 -3.162278 -3.162278 
C -4.000923 -2.323632 -4.472136 -1.186024 -4.472136 0 
C -4.472136 1.186024 -4.000923 2.323632 -3.162278 3.162278 
C -2.323632 4.000923 -1.186024 4.472136 0 4.472136 
z
" style="stroke: #000000"/>
    </defs>
    <g clip-path="url(#p27efb3ac80)">
     <use xlink:href="#m4cc89967cd" x="267.395618" y="159.678605" style="fill: #e60000; stroke: #000000"/>
    </g>
   </g>
   <g id="PathCollection_4">
    <defs>
     <path id="m7d2df9003c" d="M 0 4.472136 
C 1.186024 4.472136 2.323632 4.000923 3.162278 3.162278 
C 4.000923 2.323632 4.472136 1.186024 4.472136 0 
C 4.472136 -1.186024 4.000923 -2.323632 3.162278 -3.162278 
C 2.323632 -4.000923 1.186024 -4.472136 0 -4.472136 
C -1.186024 -4.472136 -2.323632 -4.000923 -3.162278 -3.162278 
C -4.000923 -2.323632 -4.472136 -1.186024 -4.472136 0 
C -4.472136 1.186024 -4.000923 2.323632 -3.162278 3.162278 
C -2.323632 4.000923 -1.186024 4.472136 0 4.472136 
z
" style="stroke: #000000"/>
    </defs>
    <g clip-path="url(#p27efb3ac80)">
     <use xlink:href="#m7d2df9003c" x="168.598707" y="152.201498" style="fill: #999900; stroke: #000000"/>
    </g>
   </g>
   <g id="PathCollection_5">
    <defs>
     <path id="md66aa6a95f" d="M 0 4.472136 
C 1.186024 4.472136 2.323632 4.000923 3.162278 3.162278 
C 4.000923 2.323632 4.472136 1.186024 4.472136 0 
C 4.472136 -1.186024 4.000923 -2.323632 3.162278 -3.162278 
C 2.323632 -4.000923 1.186024 -4.472136 0 -4.472136 
C -1.186024 -4.472136 -2.323632 -4.000923 -3.162278 -3.162278 
C -4.000923 -2.323632 -4.472136 -1.186024 -4.472136 0 
C -4.472136 1.186024 -4.000923 2.323632 -3.162278 3.162278 
C -2.323632 4.000923 -1.186024 4.472136 0 4.472136 
z
" style="stroke: #000000"/>
    </defs>
    <g clip-path="url(#p27efb3ac80)">
     <use xlink:href="#md66aa6a95f" x="161.985247" y="133.800911" style="fill: #e6e600; stroke: #000000"/>
    </g>
   </g>
   <g id="PathCollection_6">
    <defs>
     <path id="m81edb370ff" d="M 0 4.472136 
C 1.186024 4.472136 2.323632 4.000923 3.162278 3.162278 
C 4.000923 2.323632 4.472136 1.186024 4.472136 0 
C 4.472136 -1.186024 4.000923 -2.323632 3.162278 -3.162278 
C 2.323632 -4.000923 1.186024 -4.472136 0 -4.472136 
C -1.186024 -4.472136 -2.323632 -4.000923 -3.162278 -3.162278 
C -4.000923 -2.323632 -4.472136 -1.186024 -4.472136 0 
C -4.472136 1.186024 -4.000923 2.323632 -3.162278 3.162278 
C -2.323632 4.000923 -1.186024 4.472136 0 4.472136 
z
" style="stroke: #000000"/>
    </defs>
    <g clip-path="url(#p27efb3ac80)">
     <use xlink:href="#m81edb370ff" x="122.097122" y="154.356855" style="fill: #00a600; stroke: #000000"/>
    </g>
   </g>
   <g id="PathCollection_7">
    <defs>
     <path id="m2292479d26" d="M 0 4.472136 
C 1.186024 4.472136 2.323632 4.000923 3.162278 3.162278 
C 4.000923 2.323632 4.472136 1.186024 4.472136 0 
C 4.472136 -1.186024 4.000923 -2.323632 3.162278 -3.162278 
C 2.323632 -4.000923 1.186024 -4.472136 0 -4.472136 
C -1.186024 -4.472136 -2.323632 -4.000923 -3.162278 -3.162278 
C -4.000923 -2.323632 -4.472136 -1.186024 -4.472136 0 
C -4.472136 1.186024 -4.000923 2.323632 -3.162278 3.162278 
C -2.323632 4.000923 -1.186024 4.472136 0 4.472136 
z
" style="stroke: #000000"/>
    </defs>
    <g clip-path="url(#p27efb3ac80)">
     <use xlink:href="#m2292479d26" x="107.659931" y="143.276945" style="fill: #00d900; stroke: #000000"/>
    </g>
   </g>
   <g id="PathCollection_8">
    <defs>
     <path id="m2046e8d896" d="M 0 4.472136 
C 1.186024 4.472136 2.323632 4.000923 3.162278 3.162278 
C 4.000923 2.323632 4.472136 1.186024 4.472136 0 
C 4.472136 -1.186024 4.000923 -2.323632 3.162278 -3.162278 
C 2.323632 -4.000923 1.186024 -4.472136 0 -4.472136 
C -1.186024 -4.472136 -2.323632 -4.000923 -3.162278 -3.162278 
C -4.000923 -2.323632 -4.472136 -1.186024 -4.472136 0 
C -4.472136 1.186024 -4.000923 2.323632 -3.162278 3.162278 
C -2.323632 4.000923 -1.186024 4.472136 0 4.472136 
z
" style="stroke: #000000"/>
    </defs>
    <g clip-path="url(#p27efb3ac80)">
     <use xlink:href="#m2046e8d896" x="147.851048" y="222.463485" style="fill: #00a6b3; stroke: #000000"/>
    </g>
   </g>
   <g id="PathCollection_9">
    <defs>
     <path id="m2aaf6cf9e3" d="M 0 4.472136 
C 1.186024 4.472136 2.323632 4.000923 3.162278 3.162278 
C 4.000923 2.323632 4.472136 1.186024 4.472136 0 
C 4.472136 -1.186024 4.000923 -2.323632 3.162278 -3.162278 
C 2.323632 -4.000923 1.186024 -4.472136 0 -4.472136 
C -1.186024 -4.472136 -2.323632 -4.000923 -3.162278 -3.162278 
C -4.000923 -2.323632 -4.472136 -1.186024 -4.472136 0 
C -4.472136 1.186024 -4.000923 2.323632 -3.162278 3.162278 
C -2.323632 4.000923 -1.186024 4.472136 0 4.472136 
z
" style="stroke: #000000"/>
    </defs>
    <g clip-path="url(#p27efb3ac80)">
     <use xlink:href="#m2aaf6cf9e3" x="134.20332" y="218.478707" style="fill: #00e6e6; stroke: #000000"/>
    </g>
   </g>
   <g id="PathCollection_10">
    <defs>
     <path id="mbf922be293" d="M 0 4.472136 
C 1.186024 4.472136 2.323632 4.000923 3.162278 3.162278 
C 4.000923 2.323632 4.472136 1.186024 4.472136 0 
C 4.472136 -1.186024 4.000923 -2.323632 3.162278 -3.162278 
C 2.323632 -4.000923 1.186024 -4.472136 0 -4.472136 
C -1.186024 -4.472136 -2.323632 -4.000923 -3.162278 -3.162278 
C -4.000923 -2.323632 -4.472136 -1.186024 -4.472136 0 
C -4.472136 1.186024 -4.000923 2.323632 -3.162278 3.162278 
C -2.323632 4.000923 -1.186024 4.472136 0 4.472136 
z
" style="stroke: #000000"/>
    </defs>
    <g clip-path="url(#p27efb3ac80)">
     <use xlink:href="#mbf922be293" x="177.810947" y="296.314639" style="fill: #0000b3; stroke: #000000"/>
    </g>
   </g>
   <g id="PathCollection_11">
    <defs>
     <path id="m734a7aec9a" d="M 0 4.472136 
C 1.186024 4.472136 2.323632 4.000923 3.162278 3.162278 
C 4.000923 2.323632 4.472136 1.186024 4.472136 0 
C 4.472136 -1.186024 4.000923 -2.323632 3.162278 -3.162278 
C 2.323632 -4.000923 1.186024 -4.472136 0 -4.472136 
C -1.186024 -4.472136 -2.323632 -4.000923 -3.162278 -3.162278 
C -4.000923 -2.323632 -4.472136 -1.186024 -4.472136 0 
C -4.472136 1.186024 -4.000923 2.323632 -3.162278 3.162278 
C -2.323632 4.000923 -1.186024 4.472136 0 4.472136 
z
" style="stroke: #000000"/>
    </defs>
    <g clip-path="url(#p27efb3ac80)">
     <use xlink:href="#m734a7aec9a" x="174.873937" y="324.504616" style="fill: #0000ff; stroke: #000000"/>
    </g>
   </g>
   <g id="PathCollection_12">
    <defs>
     <path id="m400499a8d0" d="M 0 4.472136 
C 1.186024 4.472136 2.323632 4.000923 3.162278 3.162278 
C 4.000923 2.323632 4.472136 1.186024 4.472136 0 
C 4.472136 -1.186024 4.000923 -2.323632 3.162278 -3.162278 
C 2.323632 -4.000923 1.186024 -4.472136 0 -4.472136 
C -1.186024 -4.472136 -2.323632 -4.000923 -3.162278 -3.162278 
C -4.000923 -2.323632 -4.472136 -1.186024 -4.472136 0 
C -4.472136 1.186024 -4.000923 2.323632 -3.162278 3.162278 
C -2.323632 4.000923 -1.186024 4.472136 0 4.472136 
z
" style="stroke: #000000"/>
    </defs>
    <g clip-path="url(#p27efb3ac80)">
     <use xlink:href="#m400499a8d0" x="268.337932" y="254.335688" style="fill: #b300b3; stroke: #000000"/>
    </g>
   </g>
   <g id="PathCollection_13">
    <defs>
     <path id="mef6bc9b2cc" d="M 0 4.472136 
C 1.186024 4.472136 2.323632 4.000923 3.162278 3.162278 
C 4.000923 2.323632 4.472136 1.186024 4.472136 0 
C 4.472136 -1.186024 4.000923 -2.323632 3.162278 -3.162278 
C 2.323632 -4.000923 1.186024 -4.472136 0 -4.472136 
C -1.186024 -4.472136 -2.323632 -4.000923 -3.162278 -3.162278 
C -4.000923 -2.323632 -4.472136 -1.186024 -4.472136 0 
C -4.472136 1.186024 -4.000923 2.323632 -3.162278 3.162278 
C -2.323632 4.000923 -1.186024 4.472136 0 4.472136 
z
" style="stroke: #000000"/>
    </defs>
    <g clip-path="url(#p27efb3ac80)">
     <use xlink:href="#mef6bc9b2cc" x="285.08187" y="264.651371" style="fill: #e600e6; stroke: #000000"/>
    </g>
   </g>
  </g>
  <g id="axes_2">
   <g id="patch_6">
    <path d="M 65.161419 463.320614 
L 309.600601 463.320614 
L 309.600601 392.814747 
L 65.161419 392.814747 
z
" style="fill: #ffffff"/>
   </g>
   <g id="matplotlib.axis_3">
    <g id="ytick_9">
     <g id="line2d_137">
      <path d="M 65.161419 463.320614 
L 309.600601 463.320614 
" clip-path="url(#pa4b2b16b67)" style="fill: none; stroke: #b0b0b0; stroke-width: 0.8; stroke-linecap: square"/>
     </g>
     <g id="line2d_138">
      <defs>
       <path id="mc29bc81c91" d="M 0 0 
L -3.5 0 
" style="stroke: #000000; stroke-width: 0.8"/>
      </defs>
      <g>
       <use xlink:href="#mc29bc81c91" x="65.161419" y="463.320614" style="stroke: #000000; stroke-width: 0.8"/>
      </g>
     </g>
     <g id="text_15">
      <!-- 0.0 -->
      <g transform="translate(42.258294 467.119832) scale(0.1 -0.1)">
       <use xlink:href="#DejaVuSans-30"/>
       <use xlink:href="#DejaVuSans-2e" x="63.623047"/>
       <use xlink:href="#DejaVuSans-30" x="95.410156"/>
      </g>
     </g>
    </g>
    <g id="ytick_10">
     <g id="line2d_139">
      <path d="M 65.161419 428.067681 
L 309.600601 428.067681 
" clip-path="url(#pa4b2b16b67)" style="fill: none; stroke: #b0b0b0; stroke-width: 0.8; stroke-linecap: square"/>
     </g>
     <g id="line2d_140">
      <g>
       <use xlink:href="#mc29bc81c91" x="65.161419" y="428.067681" style="stroke: #000000; stroke-width: 0.8"/>
      </g>
     </g>
     <g id="text_16">
      <!-- 0.5 -->
      <g transform="translate(42.258294 431.866899) scale(0.1 -0.1)">
       <use xlink:href="#DejaVuSans-30"/>
       <use xlink:href="#DejaVuSans-2e" x="63.623047"/>
       <use xlink:href="#DejaVuSans-35" x="95.410156"/>
      </g>
     </g>
    </g>
    <g id="ytick_11">
     <g id="line2d_141">
      <path d="M 65.161419 392.814747 
L 309.600601 392.814747 
" clip-path="url(#pa4b2b16b67)" style="fill: none; stroke: #b0b0b0; stroke-width: 0.8; stroke-linecap: square"/>
     </g>
     <g id="line2d_142">
      <g>
       <use xlink:href="#mc29bc81c91" x="65.161419" y="392.814747" style="stroke: #000000; stroke-width: 0.8"/>
      </g>
     </g>
     <g id="text_17">
      <!-- 1.0 -->
      <g transform="translate(42.258294 396.613966) scale(0.1 -0.1)">
       <use xlink:href="#DejaVuSans-31"/>
       <use xlink:href="#DejaVuSans-2e" x="63.623047"/>
       <use xlink:href="#DejaVuSans-30" x="95.410156"/>
      </g>
     </g>
    </g>
    <g id="ytick_12">
     <g id="line2d_143">
      <path d="M 65.161419 445.694147 
L 309.600601 445.694147 
" clip-path="url(#pa4b2b16b67)" style="fill: none; stroke: #b0b0b0; stroke-width: 0.8; stroke-linecap: square"/>
     </g>
     <g id="line2d_144">
      <defs>
       <path id="mb68dfd0e9e" d="M 0 0 
L -2 0 
" style="stroke: #000000; stroke-width: 0.6"/>
      </defs>
      <g>
       <use xlink:href="#mb68dfd0e9e" x="65.161419" y="445.694147" style="stroke: #000000; stroke-width: 0.6"/>
      </g>
     </g>
    </g>
    <g id="ytick_13">
     <g id="line2d_145">
      <path d="M 65.161419 410.441214 
L 309.600601 410.441214 
" clip-path="url(#pa4b2b16b67)" style="fill: none; stroke: #b0b0b0; stroke-width: 0.8; stroke-linecap: square"/>
     </g>
     <g id="line2d_146">
      <g>
       <use xlink:href="#mb68dfd0e9e" x="65.161419" y="410.441214" style="stroke: #000000; stroke-width: 0.6"/>
      </g>
     </g>
    </g>
   </g>
   <g id="patch_7">
    <path d="M 65.161419 463.320614 
L 65.161419 392.814747 
" style="fill: none; stroke: #000000; stroke-width: 0.8; stroke-linejoin: miter; stroke-linecap: square"/>
   </g>
   <g id="patch_8">
    <path d="M 309.600601 463.320614 
L 309.600601 392.814747 
" style="fill: none; stroke: #000000; stroke-width: 0.8; stroke-linejoin: miter; stroke-linecap: square"/>
   </g>
   <g id="patch_9">
    <path d="M 65.161419 463.320614 
L 309.600601 463.320614 
" style="fill: none; stroke: #000000; stroke-width: 0.8; stroke-linejoin: miter; stroke-linecap: square"/>
   </g>
   <g id="patch_10">
    <path d="M 65.161419 392.814747 
L 309.600601 392.814747 
" style="fill: none; stroke: #000000; stroke-width: 0.8; stroke-linejoin: miter; stroke-linecap: square"/>
   </g>
   <g id="patch_11">
    <path d="M 76.27229 463.320614 
L 91.33788 463.320614 
L 91.33788 439.320365 
L 76.27229 439.320365 
z
" clip-path="url(#pa4b2b16b67)" style="fill: #990000"/>
   </g>
   <g id="patch_12">
    <path d="M 95.104277 463.320614 
L 110.169866 463.320614 
L 110.169866 427.173207 
L 95.104277 427.173207 
z
" clip-path="url(#pa4b2b16b67)" style="fill: #e60000"/>
   </g>
   <g id="patch_13">
    <path d="M 113.936263 463.320614 
L 129.001852 463.320614 
L 129.001852 420.569599 
L 113.936263 420.569599 
z
" clip-path="url(#pa4b2b16b67)" style="fill: #999900"/>
   </g>
   <g id="patch_14">
    <path d="M 132.76825 463.320614 
L 147.833839 463.320614 
L 147.833839 401.527425 
L 132.76825 401.527425 
z
" clip-path="url(#pa4b2b16b67)" style="fill: #e6e600"/>
   </g>
   <g id="patch_15">
    <path d="M 151.600236 463.320614 
L 166.665825 463.320614 
L 166.665825 423.29545 
L 151.600236 423.29545 
z
" clip-path="url(#pa4b2b16b67)" style="fill: #00a600"/>
   </g>
   <g id="patch_16">
    <path d="M 170.432222 463.320614 
L 185.497811 463.320614 
L 185.497811 411.969583 
L 170.432222 411.969583 
z
" clip-path="url(#pa4b2b16b67)" style="fill: #00d900"/>
   </g>
   <g id="patch_17">
    <path d="M 189.264209 463.320614 
L 204.329798 463.320614 
L 204.329798 420.604692 
L 189.264209 420.604692 
z
" clip-path="url(#pa4b2b16b67)" style="fill: #00a6b3"/>
   </g>
   <g id="patch_18">
    <path d="M 208.096195 463.320614 
L 223.161784 463.320614 
L 223.161784 406.26542 
L 208.096195 406.26542 
z
" clip-path="url(#pa4b2b16b67)" style="fill: #00e6e6"/>
   </g>
   <g id="patch_19">
    <path d="M 226.928181 463.320614 
L 241.99377 463.320614 
L 241.99377 445.83774 
L 226.928181 445.83774 
z
" clip-path="url(#pa4b2b16b67)" style="fill: #0000b3"/>
   </g>
   <g id="patch_20">
    <path d="M 245.760168 463.320614 
L 260.825757 463.320614 
L 260.825757 437.475607 
L 245.760168 437.475607 
z
" clip-path="url(#pa4b2b16b67)" style="fill: #0000ff"/>
   </g>
   <g id="patch_21">
    <path d="M 264.592154 463.320614 
L 279.657743 463.320614 
L 279.657743 430.652002 
L 264.592154 430.652002 
z
" clip-path="url(#pa4b2b16b67)" style="fill: #b300b3"/>
   </g>
   <g id="patch_22">
    <path d="M 283.42414 463.320614 
L 298.48973 463.320614 
L 298.48973 421.640144 
L 283.42414 421.640144 
z
" clip-path="url(#pa4b2b16b67)" style="fill: #e600e6"/>
   </g>
  </g>
  <g id="text_18">
   <!-- Terminal.app: 12+4 ANSI Colors in Oklab -->
   <g transform="translate(20.03976 17.077969) scale(0.13 -0.13)">
    <defs>
     <path id="DejaVuSans-Bold-54" d="M 31 4666 
L 4331 4666 
L 4331 3756 
L 2784 3756 
L 2784 0 
L 1581 0 
L 1581 3756 
L 31 3756 
L 31 4666 
z
" transform="scale(0.015625)"/>
     <path id="DejaVuSans-Bold-65" d="M 4031 1759 
L 4031 1441 
L 1416 1441 
Q 1456 1047 1700 850 
Q 1944 653 2381 653 
Q 2734 653 3104 758 
Q 3475 863 3866 1075 
L 3866 213 
Q 3469 63 3072 -14 
Q 2675 -91 2278 -91 
Q 1328 -91 801 392 
Q 275 875 275 1747 
Q 275 2603 792 3093 
Q 1309 3584 2216 3584 
Q 3041 3584 3536 3087 
Q 4031 2591 4031 1759 
z
M 2881 2131 
Q 2881 2450 2695 2645 
Q 2509 2841 2209 2841 
Q 1884 2841 1681 2658 
Q 1478 2475 1428 2131 
L 2881 2131 
z
" transform="scale(0.015625)"/>
     <path id="DejaVuSans-Bold-72" d="M 3138 2547 
Q 2991 2616 2845 2648 
Q 2700 2681 2553 2681 
Q 2122 2681 1889 2404 
Q 1656 2128 1656 1613 
L 1656 0 
L 538 0 
L 538 3500 
L 1656 3500 
L 1656 2925 
Q 1872 3269 2151 3426 
Q 2431 3584 2822 3584 
Q 2878 3584 2943 3579 
Q 3009 3575 3134 3559 
L 3138 2547 
z
" transform="scale(0.015625)"/>
     <path id="DejaVuSans-Bold-6d" d="M 3781 2919 
Q 3994 3244 4286 3414 
Q 4578 3584 4928 3584 
Q 5531 3584 5847 3212 
Q 6163 2841 6163 2131 
L 6163 0 
L 5038 0 
L 5038 1825 
Q 5041 1866 5042 1909 
Q 5044 1953 5044 2034 
Q 5044 2406 4934 2573 
Q 4825 2741 4581 2741 
Q 4263 2741 4089 2478 
Q 3916 2216 3909 1719 
L 3909 0 
L 2784 0 
L 2784 1825 
Q 2784 2406 2684 2573 
Q 2584 2741 2328 2741 
Q 2006 2741 1831 2477 
Q 1656 2213 1656 1722 
L 1656 0 
L 531 0 
L 531 3500 
L 1656 3500 
L 1656 2988 
Q 1863 3284 2130 3434 
Q 2397 3584 2719 3584 
Q 3081 3584 3359 3409 
Q 3638 3234 3781 2919 
z
" transform="scale(0.015625)"/>
     <path id="DejaVuSans-Bold-69" d="M 538 3500 
L 1656 3500 
L 1656 0 
L 538 0 
L 538 3500 
z
M 538 4863 
L 1656 4863 
L 1656 3950 
L 538 3950 
L 538 4863 
z
" transform="scale(0.015625)"/>
     <path id="DejaVuSans-Bold-6e" d="M 4056 2131 
L 4056 0 
L 2931 0 
L 2931 347 
L 2931 1631 
Q 2931 2084 2911 2256 
Q 2891 2428 2841 2509 
Q 2775 2619 2662 2680 
Q 2550 2741 2406 2741 
Q 2056 2741 1856 2470 
Q 1656 2200 1656 1722 
L 1656 0 
L 538 0 
L 538 3500 
L 1656 3500 
L 1656 2988 
Q 1909 3294 2193 3439 
Q 2478 3584 2822 3584 
Q 3428 3584 3742 3212 
Q 4056 2841 4056 2131 
z
" transform="scale(0.015625)"/>
     <path id="DejaVuSans-Bold-61" d="M 2106 1575 
Q 1756 1575 1579 1456 
Q 1403 1338 1403 1106 
Q 1403 894 1545 773 
Q 1688 653 1941 653 
Q 2256 653 2472 879 
Q 2688 1106 2688 1447 
L 2688 1575 
L 2106 1575 
z
M 3816 1997 
L 3816 0 
L 2688 0 
L 2688 519 
Q 2463 200 2181 54 
Q 1900 -91 1497 -91 
Q 953 -91 614 226 
Q 275 544 275 1050 
Q 275 1666 698 1953 
Q 1122 2241 2028 2241 
L 2688 2241 
L 2688 2328 
Q 2688 2594 2478 2717 
Q 2269 2841 1825 2841 
Q 1466 2841 1156 2769 
Q 847 2697 581 2553 
L 581 3406 
Q 941 3494 1303 3539 
Q 1666 3584 2028 3584 
Q 2975 3584 3395 3211 
Q 3816 2838 3816 1997 
z
" transform="scale(0.015625)"/>
     <path id="DejaVuSans-Bold-6c" d="M 538 4863 
L 1656 4863 
L 1656 0 
L 538 0 
L 538 4863 
z
" transform="scale(0.015625)"/>
     <path id="DejaVuSans-Bold-2e" d="M 653 1209 
L 1778 1209 
L 1778 0 
L 653 0 
L 653 1209 
z
" transform="scale(0.015625)"/>
     <path id="DejaVuSans-Bold-70" d="M 1656 506 
L 1656 -1331 
L 538 -1331 
L 538 3500 
L 1656 3500 
L 1656 2988 
Q 1888 3294 2169 3439 
Q 2450 3584 2816 3584 
Q 3463 3584 3878 3070 
Q 4294 2556 4294 1747 
Q 4294 938 3878 423 
Q 3463 -91 2816 -91 
Q 2450 -91 2169 54 
Q 1888 200 1656 506 
z
M 2400 2772 
Q 2041 2772 1848 2508 
Q 1656 2244 1656 1747 
Q 1656 1250 1848 986 
Q 2041 722 2400 722 
Q 2759 722 2948 984 
Q 3138 1247 3138 1747 
Q 3138 2247 2948 2509 
Q 2759 2772 2400 2772 
z
" transform="scale(0.015625)"/>
     <path id="DejaVuSans-Bold-3a" d="M 716 3500 
L 1844 3500 
L 1844 2291 
L 716 2291 
L 716 3500 
z
M 716 1209 
L 1844 1209 
L 1844 0 
L 716 0 
L 716 1209 
z
" transform="scale(0.015625)"/>
     <path id="DejaVuSans-Bold-20" transform="scale(0.015625)"/>
     <path id="DejaVuSans-Bold-31" d="M 750 831 
L 1813 831 
L 1813 3847 
L 722 3622 
L 722 4441 
L 1806 4666 
L 2950 4666 
L 2950 831 
L 4013 831 
L 4013 0 
L 750 0 
L 750 831 
z
" transform="scale(0.015625)"/>
     <path id="DejaVuSans-Bold-32" d="M 1844 884 
L 3897 884 
L 3897 0 
L 506 0 
L 506 884 
L 2209 2388 
Q 2438 2594 2547 2791 
Q 2656 2988 2656 3200 
Q 2656 3528 2436 3728 
Q 2216 3928 1850 3928 
Q 1569 3928 1234 3808 
Q 900 3688 519 3450 
L 519 4475 
Q 925 4609 1322 4679 
Q 1719 4750 2100 4750 
Q 2938 4750 3402 4381 
Q 3866 4013 3866 3353 
Q 3866 2972 3669 2642 
Q 3472 2313 2841 1759 
L 1844 884 
z
" transform="scale(0.015625)"/>
     <path id="DejaVuSans-Bold-2b" d="M 3053 4013 
L 3053 2375 
L 4684 2375 
L 4684 1638 
L 3053 1638 
L 3053 0 
L 2309 0 
L 2309 1638 
L 678 1638 
L 678 2375 
L 2309 2375 
L 2309 4013 
L 3053 4013 
z
" transform="scale(0.015625)"/>
     <path id="DejaVuSans-Bold-34" d="M 2356 3675 
L 1038 1722 
L 2356 1722 
L 2356 3675 
z
M 2156 4666 
L 3494 4666 
L 3494 1722 
L 4159 1722 
L 4159 850 
L 3494 850 
L 3494 0 
L 2356 0 
L 2356 850 
L 288 850 
L 288 1881 
L 2156 4666 
z
" transform="scale(0.015625)"/>
     <path id="DejaVuSans-Bold-41" d="M 3419 850 
L 1538 850 
L 1241 0 
L 31 0 
L 1759 4666 
L 3194 4666 
L 4922 0 
L 3713 0 
L 3419 850 
z
M 1838 1716 
L 3116 1716 
L 2478 3572 
L 1838 1716 
z
" transform="scale(0.015625)"/>
     <path id="DejaVuSans-Bold-4e" d="M 588 4666 
L 1931 4666 
L 3628 1466 
L 3628 4666 
L 4769 4666 
L 4769 0 
L 3425 0 
L 1728 3200 
L 1728 0 
L 588 0 
L 588 4666 
z
" transform="scale(0.015625)"/>
     <path id="DejaVuSans-Bold-53" d="M 3834 4519 
L 3834 3531 
Q 3450 3703 3084 3790 
Q 2719 3878 2394 3878 
Q 1963 3878 1756 3759 
Q 1550 3641 1550 3391 
Q 1550 3203 1689 3098 
Q 1828 2994 2194 2919 
L 2706 2816 
Q 3484 2659 3812 2340 
Q 4141 2022 4141 1434 
Q 4141 663 3683 286 
Q 3225 -91 2284 -91 
Q 1841 -91 1394 -6 
Q 947 78 500 244 
L 500 1259 
Q 947 1022 1364 901 
Q 1781 781 2169 781 
Q 2563 781 2772 912 
Q 2981 1044 2981 1288 
Q 2981 1506 2839 1625 
Q 2697 1744 2272 1838 
L 1806 1941 
Q 1106 2091 782 2419 
Q 459 2747 459 3303 
Q 459 4000 909 4375 
Q 1359 4750 2203 4750 
Q 2588 4750 2994 4692 
Q 3400 4634 3834 4519 
z
" transform="scale(0.015625)"/>
     <path id="DejaVuSans-Bold-49" d="M 588 4666 
L 1791 4666 
L 1791 0 
L 588 0 
L 588 4666 
z
" transform="scale(0.015625)"/>
     <path id="DejaVuSans-Bold-43" d="M 4288 256 
Q 3956 84 3597 -3 
Q 3238 -91 2847 -91 
Q 1681 -91 1000 561 
Q 319 1213 319 2328 
Q 319 3447 1000 4098 
Q 1681 4750 2847 4750 
Q 3238 4750 3597 4662 
Q 3956 4575 4288 4403 
L 4288 3438 
Q 3953 3666 3628 3772 
Q 3303 3878 2944 3878 
Q 2300 3878 1931 3465 
Q 1563 3053 1563 2328 
Q 1563 1606 1931 1193 
Q 2300 781 2944 781 
Q 3303 781 3628 887 
Q 3953 994 4288 1222 
L 4288 256 
z
" transform="scale(0.015625)"/>
     <path id="DejaVuSans-Bold-6f" d="M 2203 2784 
Q 1831 2784 1636 2517 
Q 1441 2250 1441 1747 
Q 1441 1244 1636 976 
Q 1831 709 2203 709 
Q 2569 709 2762 976 
Q 2956 1244 2956 1747 
Q 2956 2250 2762 2517 
Q 2569 2784 2203 2784 
z
M 2203 3584 
Q 3106 3584 3614 3096 
Q 4122 2609 4122 1747 
Q 4122 884 3614 396 
Q 3106 -91 2203 -91 
Q 1297 -91 786 396 
Q 275 884 275 1747 
Q 275 2609 786 3096 
Q 1297 3584 2203 3584 
z
" transform="scale(0.015625)"/>
     <path id="DejaVuSans-Bold-73" d="M 3272 3391 
L 3272 2541 
Q 2913 2691 2578 2766 
Q 2244 2841 1947 2841 
Q 1628 2841 1473 2761 
Q 1319 2681 1319 2516 
Q 1319 2381 1436 2309 
Q 1553 2238 1856 2203 
L 2053 2175 
Q 2913 2066 3209 1816 
Q 3506 1566 3506 1031 
Q 3506 472 3093 190 
Q 2681 -91 1863 -91 
Q 1516 -91 1145 -36 
Q 775 19 384 128 
L 384 978 
Q 719 816 1070 734 
Q 1422 653 1784 653 
Q 2113 653 2278 743 
Q 2444 834 2444 1013 
Q 2444 1163 2330 1236 
Q 2216 1309 1875 1350 
L 1678 1375 
Q 931 1469 631 1722 
Q 331 1975 331 2491 
Q 331 3047 712 3315 
Q 1094 3584 1881 3584 
Q 2191 3584 2531 3537 
Q 2872 3491 3272 3391 
z
" transform="scale(0.015625)"/>
     <path id="DejaVuSans-Bold-4f" d="M 2719 3878 
Q 2169 3878 1866 3472 
Q 1563 3066 1563 2328 
Q 1563 1594 1866 1187 
Q 2169 781 2719 781 
Q 3272 781 3575 1187 
Q 3878 1594 3878 2328 
Q 3878 3066 3575 3472 
Q 3272 3878 2719 3878 
z
M 2719 4750 
Q 3844 4750 4481 4106 
Q 5119 3463 5119 2328 
Q 5119 1197 4481 553 
Q 3844 -91 2719 -91 
Q 1597 -91 958 553 
Q 319 1197 319 2328 
Q 319 3463 958 4106 
Q 1597 4750 2719 4750 
z
" transform="scale(0.015625)"/>
     <path id="DejaVuSans-Bold-6b" d="M 538 4863 
L 1656 4863 
L 1656 2216 
L 2944 3500 
L 4244 3500 
L 2534 1894 
L 4378 0 
L 3022 0 
L 1656 1459 
L 1656 0 
L 538 0 
L 538 4863 
z
" transform="scale(0.015625)"/>
     <path id="DejaVuSans-Bold-62" d="M 2400 722 
Q 2759 722 2948 984 
Q 3138 1247 3138 1747 
Q 3138 2247 2948 2509 
Q 2759 2772 2400 2772 
Q 2041 2772 1848 2508 
Q 1656 2244 1656 1747 
Q 1656 1250 1848 986 
Q 2041 722 2400 722 
z
M 1656 2988 
Q 1888 3294 2169 3439 
Q 2450 3584 2816 3584 
Q 3463 3584 3878 3070 
Q 4294 2556 4294 1747 
Q 4294 938 3878 423 
Q 3463 -91 2816 -91 
Q 2450 -91 2169 54 
Q 1888 200 1656 506 
L 1656 0 
L 538 0 
L 538 4863 
L 1656 4863 
L 1656 2988 
z
" transform="scale(0.015625)"/>
    </defs>
    <use xlink:href="#DejaVuSans-Bold-54"/>
    <use xlink:href="#DejaVuSans-Bold-65" x="54.962891"/>
    <use xlink:href="#DejaVuSans-Bold-72" x="122.785156"/>
    <use xlink:href="#DejaVuSans-Bold-6d" x="172.101562"/>
    <use xlink:href="#DejaVuSans-Bold-69" x="276.300781"/>
    <use xlink:href="#DejaVuSans-Bold-6e" x="310.578125"/>
    <use xlink:href="#DejaVuSans-Bold-61" x="381.769531"/>
    <use xlink:href="#DejaVuSans-Bold-6c" x="449.25"/>
    <use xlink:href="#DejaVuSans-Bold-2e" x="483.527344"/>
    <use xlink:href="#DejaVuSans-Bold-61" x="521.515625"/>
    <use xlink:href="#DejaVuSans-Bold-70" x="588.996094"/>
    <use xlink:href="#DejaVuSans-Bold-70" x="660.578125"/>
    <use xlink:href="#DejaVuSans-Bold-3a" x="732.160156"/>
    <use xlink:href="#DejaVuSans-Bold-20" x="772.150391"/>
    <use xlink:href="#DejaVuSans-Bold-31" x="806.964844"/>
    <use xlink:href="#DejaVuSans-Bold-32" x="876.544922"/>
    <use xlink:href="#DejaVuSans-Bold-2b" x="946.125"/>
    <use xlink:href="#DejaVuSans-Bold-34" x="1029.914062"/>
    <use xlink:href="#DejaVuSans-Bold-20" x="1099.494141"/>
    <use xlink:href="#DejaVuSans-Bold-41" x="1134.308594"/>
    <use xlink:href="#DejaVuSans-Bold-4e" x="1211.701172"/>
    <use xlink:href="#DejaVuSans-Bold-53" x="1295.392578"/>
    <use xlink:href="#DejaVuSans-Bold-49" x="1367.414062"/>
    <use xlink:href="#DejaVuSans-Bold-20" x="1404.621094"/>
    <use xlink:href="#DejaVuSans-Bold-43" x="1439.435547"/>
    <use xlink:href="#DejaVuSans-Bold-6f" x="1512.824219"/>
    <use xlink:href="#DejaVuSans-Bold-6c" x="1581.525391"/>
    <use xlink:href="#DejaVuSans-Bold-6f" x="1615.802734"/>
    <use xlink:href="#DejaVuSans-Bold-72" x="1684.503906"/>
    <use xlink:href="#DejaVuSans-Bold-73" x="1733.820312"/>
    <use xlink:href="#DejaVuSans-Bold-20" x="1793.341797"/>
    <use xlink:href="#DejaVuSans-Bold-69" x="1828.15625"/>
    <use xlink:href="#DejaVuSans-Bold-6e" x="1862.433594"/>
    <use xlink:href="#DejaVuSans-Bold-20" x="1933.625"/>
    <use xlink:href="#DejaVuSans-Bold-4f" x="1968.439453"/>
    <use xlink:href="#DejaVuSans-Bold-6b" x="2053.449219"/>
    <use xlink:href="#DejaVuSans-Bold-6c" x="2119.953125"/>
    <use xlink:href="#DejaVuSans-Bold-61" x="2154.230469"/>
    <use xlink:href="#DejaVuSans-Bold-62" x="2221.710938"/>
   </g>
  </g>
  <g id="text_19">
   <!-- Lr -->
   <g transform="translate(20.39976 432.41976) scale(0.13 -0.13)">
    <defs>
     <path id="DejaVuSans-Oblique-4c" d="M 1075 4666 
L 1709 4666 
L 909 525 
L 3181 525 
L 3078 0 
L 172 0 
L 1075 4666 
z
" transform="scale(0.015625)"/>
    </defs>
    <use xlink:href="#DejaVuSans-Oblique-4c"/>
    <use xlink:href="#DejaVuSans-Oblique-72" x="55.712891"/>
   </g>
  </g>
 </g>
 <defs>
  <clipPath id="p27efb3ac80">
   <path d="M 341.51827 204.459371 
C 341.51827 184.218252 337.531211 164.173952 329.78527 145.473596 
C 322.039329 126.773239 310.685145 109.780502 296.372512 95.467869 
C 282.059879 81.155237 265.067142 69.801053 246.366786 62.055112 
C 227.66643 54.30917 207.62213 50.322111 187.38101 50.322111 
C 167.13989 50.322111 147.09559 54.30917 128.395234 62.055112 
C 109.694878 69.801053 92.702141 81.155237 78.389508 95.467869 
C 64.076875 109.780502 52.722691 126.773239 44.97675 145.473596 
C 37.230809 164.173952 33.24375 184.218252 33.24375 204.459371 
C 33.24375 224.700491 37.230809 244.744791 44.97675 263.445147 
C 52.722691 282.145503 64.076875 299.13824 78.389508 313.450873 
C 92.702141 327.763506 109.694878 339.11769 128.395234 346.863631 
C 147.09559 354.609572 167.13989 358.596631 187.38101 358.596631 
C 207.62213 358.596631 227.66643 354.609572 246.366786 346.863631 
C 265.067142 339.11769 282.059879 327.763506 296.372512 313.450873 
C 310.685145 299.13824 322.039329 282.145503 329.78527 263.445147 
C 337.531211 244.744791 341.51827 224.700491 341.51827 204.459371 
M 187.38101 204.459371 
C 187.38101 204.459371 187.38101 204.459371 187.38101 204.459371 
C 187.38101 204.459371 187.38101 204.459371 187.38101 204.459371 
C 187.38101 204.459371 187.38101 204.459371 187.38101 204.459371 
C 187.38101 204.459371 187.38101 204.459371 187.38101 204.459371 
C 187.38101 204.459371 187.38101 204.459371 187.38101 204.459371 
C 187.38101 204.459371 187.38101 204.459371 187.38101 204.459371 
C 187.38101 204.459371 187.38101 204.459371 187.38101 204.459371 
C 187.38101 204.459371 187.38101 204.459371 187.38101 204.459371 
C 187.38101 204.459371 187.38101 204.459371 187.38101 204.459371 
C 187.38101 204.459371 187.38101 204.459371 187.38101 204.459371 
C 187.38101 204.459371 187.38101 204.459371 187.38101 204.459371 
C 187.38101 204.459371 187.38101 204.459371 187.38101 204.459371 
C 187.38101 204.459371 187.38101 204.459371 187.38101 204.459371 
C 187.38101 204.459371 187.38101 204.459371 187.38101 204.459371 
C 187.38101 204.459371 187.38101 204.459371 187.38101 204.459371 
C 187.38101 204.459371 187.38101 204.459371 187.38101 204.459371 
z
"/>
  </clipPath>
  <clipPath id="pa4b2b16b67">
   <rect x="65.161419" y="392.814747" width="244.439183" height="70.505866"/>
  </clipPath>
 </defs>
</svg>
