<?xml version="1.0" encoding="utf-8" standalone="no"?>
<!DOCTYPE svg PUBLIC "-//W3C//DTD SVG 1.1//EN"
  "http://www.w3.org/Graphics/SVG/1.1/DTD/svg11.dtd">
<svg xmlns:xlink="http://www.w3.org/1999/xlink" width="414.988125pt" height="353.39625pt" viewBox="0 0 414.988125 353.39625" xmlns="http://www.w3.org/2000/svg" version="1.1">
 <metadata>
  <rdf:RDF xmlns:dc="http://purl.org/dc/elements/1.1/" xmlns:cc="http://creativecommons.org/ns#" xmlns:rdf="http://www.w3.org/1999/02/22-rdf-syntax-ns#">
   <cc:Work>
    <dc:type rdf:resource="http://purl.org/dc/dcmitype/StillImage"/>
    <dc:date>2024-07-01T09:31:47.346694</dc:date>
    <dc:format>image/svg+xml</dc:format>
    <dc:creator>
     <cc:Agent>
      <dc:title>Matplotlib v3.9.0, https://matplotlib.org/</dc:title>
     </cc:Agent>
    </dc:creator>
   </cc:Work>
  </rdf:RDF>
 </metadata>
 <defs>
  <style type="text/css">*{stroke-linejoin: round; stroke-linecap: butt}</style>
 </defs>
 <g id="figure_1">
  <g id="patch_1">
   <path d="M 0 353.39625 
L 414.988125 353.39625 
L 414.988125 0 
L 0 0 
z
" style="fill: #ffffff"/>
  </g>
  <g id="axes_1">
   <g id="patch_2">
    <path d="M 346.094062 188.757188 
C 346.094062 170.556402 342.508905 152.532597 335.543766 135.717264 
C 328.578627 118.901931 318.368961 103.622086 305.499062 90.752188 
C 292.629164 77.882289 277.349319 67.672623 260.533986 60.707484 
C 243.718653 53.742345 225.694848 50.157188 207.494062 50.157188 
C 189.293277 50.157188 171.269472 53.742345 154.454139 60.707484 
C 137.638806 67.672623 122.358961 77.882289 109.489063 90.752188 
C 96.619164 103.622086 86.409498 118.901931 79.444359 135.717264 
C 72.47922 152.532597 68.894062 170.556402 68.894062 188.757188 
C 68.894062 206.957973 72.47922 224.981778 79.444359 241.797111 
C 86.409498 258.612444 96.619164 273.892289 109.489063 286.762187 
C 122.358961 299.632086 137.638806 309.841752 154.454139 316.806891 
C 171.269472 323.77203 189.293277 327.357188 207.494062 327.357188 
C 225.694848 327.357188 243.718653 323.77203 260.533986 316.806891 
C 277.349319 309.841752 292.629164 299.632086 305.499062 286.762187 
C 318.368961 273.892289 328.578627 258.612444 335.543766 241.797111 
C 342.508905 224.981778 346.094062 206.957973 346.094062 188.757188 
M 207.494062 188.757188 
C 207.494062 188.757188 207.494062 188.757188 207.494062 188.757188 
C 207.494062 188.757188 207.494062 188.757188 207.494062 188.757188 
C 207.494062 188.757188 207.494062 188.757188 207.494062 188.757188 
C 207.494062 188.757188 207.494062 188.757188 207.494062 188.757188 
C 207.494062 188.757188 207.494062 188.757188 207.494062 188.757188 
C 207.494062 188.757188 207.494062 188.757188 207.494062 188.757188 
C 207.494062 188.757188 207.494062 188.757188 207.494062 188.757188 
C 207.494062 188.757188 207.494062 188.757188 207.494062 188.757188 
C 207.494062 188.757188 207.494062 188.757188 207.494062 188.757188 
C 207.494062 188.757188 207.494062 188.757188 207.494062 188.757188 
C 207.494062 188.757188 207.494062 188.757188 207.494062 188.757188 
C 207.494062 188.757188 207.494062 188.757188 207.494062 188.757188 
C 207.494062 188.757188 207.494062 188.757188 207.494062 188.757188 
C 207.494062 188.757188 207.494062 188.757188 207.494062 188.757188 
C 207.494062 188.757188 207.494062 188.757188 207.494062 188.757188 
C 207.494062 188.757188 207.494062 188.757188 207.494062 188.757188 
z
" style="fill: #ffffff"/>
   </g>
   <g id="matplotlib.axis_1">
    <g id="xtick_1">
     <g id="line2d_1">
      <path d="M 207.494062 188.757188 
L 346.094062 188.757188 
" clip-path="url(#pa2241965be)" style="fill: none; stroke: #b0b0b0; stroke-width: 0.8; stroke-linecap: square"/>
     </g>
     <g id="text_1">
      <!-- 0° -->
      <g transform="translate(354.412812 191.516563) scale(0.1 -0.1)">
       <defs>
        <path id="DejaVuSans-30" d="M 2034 4250 
Q 1547 4250 1301 3770 
Q 1056 3291 1056 2328 
Q 1056 1369 1301 889 
Q 1547 409 2034 409 
Q 2525 409 2770 889 
Q 3016 1369 3016 2328 
Q 3016 3291 2770 3770 
Q 2525 4250 2034 4250 
z
M 2034 4750 
Q 2819 4750 3233 4129 
Q 3647 3509 3647 2328 
Q 3647 1150 3233 529 
Q 2819 -91 2034 -91 
Q 1250 -91 836 529 
Q 422 1150 422 2328 
Q 422 3509 836 4129 
Q 1250 4750 2034 4750 
z
" transform="scale(0.015625)"/>
        <path id="DejaVuSans-b0" d="M 1600 4347 
Q 1350 4347 1178 4173 
Q 1006 4000 1006 3750 
Q 1006 3503 1178 3333 
Q 1350 3163 1600 3163 
Q 1850 3163 2022 3333 
Q 2194 3503 2194 3750 
Q 2194 3997 2020 4172 
Q 1847 4347 1600 4347 
z
M 1600 4750 
Q 1800 4750 1984 4673 
Q 2169 4597 2303 4453 
Q 2447 4313 2519 4134 
Q 2591 3956 2591 3750 
Q 2591 3338 2302 3052 
Q 2013 2766 1594 2766 
Q 1172 2766 890 3047 
Q 609 3328 609 3750 
Q 609 4169 896 4459 
Q 1184 4750 1600 4750 
z
" transform="scale(0.015625)"/>
       </defs>
       <use xlink:href="#DejaVuSans-30"/>
       <use xlink:href="#DejaVuSans-b0" x="63.623047"/>
      </g>
     </g>
    </g>
    <g id="xtick_2">
     <g id="line2d_2">
      <path d="M 207.494062 188.757188 
L 305.499062 90.752188 
" clip-path="url(#pa2241965be)" style="fill: none; stroke: #b0b0b0; stroke-width: 0.8; stroke-linecap: square"/>
     </g>
     <g id="text_2">
      <!-- 45° -->
      <g transform="translate(306.536057 83.612068) scale(0.1 -0.1)">
       <defs>
        <path id="DejaVuSans-34" d="M 2419 4116 
L 825 1625 
L 2419 1625 
L 2419 4116 
z
M 2253 4666 
L 3047 4666 
L 3047 1625 
L 3713 1625 
L 3713 1100 
L 3047 1100 
L 3047 0 
L 2419 0 
L 2419 1100 
L 313 1100 
L 313 1709 
L 2253 4666 
z
" transform="scale(0.015625)"/>
        <path id="DejaVuSans-35" d="M 691 4666 
L 3169 4666 
L 3169 4134 
L 1269 4134 
L 1269 2991 
Q 1406 3038 1543 3061 
Q 1681 3084 1819 3084 
Q 2600 3084 3056 2656 
Q 3513 2228 3513 1497 
Q 3513 744 3044 326 
Q 2575 -91 1722 -91 
Q 1428 -91 1123 -41 
Q 819 9 494 109 
L 494 744 
Q 775 591 1075 516 
Q 1375 441 1709 441 
Q 2250 441 2565 725 
Q 2881 1009 2881 1497 
Q 2881 1984 2565 2268 
Q 2250 2553 1709 2553 
Q 1456 2553 1204 2497 
Q 953 2441 691 2322 
L 691 4666 
z
" transform="scale(0.015625)"/>
       </defs>
       <use xlink:href="#DejaVuSans-34"/>
       <use xlink:href="#DejaVuSans-35" x="63.623047"/>
       <use xlink:href="#DejaVuSans-b0" x="127.246094"/>
      </g>
     </g>
    </g>
    <g id="xtick_3">
     <g id="line2d_3">
      <path d="M 207.494062 188.757188 
L 207.494062 50.157188 
" clip-path="url(#pa2241965be)" style="fill: none; stroke: #b0b0b0; stroke-width: 0.8; stroke-linecap: square"/>
     </g>
     <g id="text_3">
      <!-- 90° -->
      <g transform="translate(198.631562 38.916563) scale(0.1 -0.1)">
       <defs>
        <path id="DejaVuSans-39" d="M 703 97 
L 703 672 
Q 941 559 1184 500 
Q 1428 441 1663 441 
Q 2288 441 2617 861 
Q 2947 1281 2994 2138 
Q 2813 1869 2534 1725 
Q 2256 1581 1919 1581 
Q 1219 1581 811 2004 
Q 403 2428 403 3163 
Q 403 3881 828 4315 
Q 1253 4750 1959 4750 
Q 2769 4750 3195 4129 
Q 3622 3509 3622 2328 
Q 3622 1225 3098 567 
Q 2575 -91 1691 -91 
Q 1453 -91 1209 -44 
Q 966 3 703 97 
z
M 1959 2075 
Q 2384 2075 2632 2365 
Q 2881 2656 2881 3163 
Q 2881 3666 2632 3958 
Q 2384 4250 1959 4250 
Q 1534 4250 1286 3958 
Q 1038 3666 1038 3163 
Q 1038 2656 1286 2365 
Q 1534 2075 1959 2075 
z
" transform="scale(0.015625)"/>
       </defs>
       <use xlink:href="#DejaVuSans-39"/>
       <use xlink:href="#DejaVuSans-30" x="63.623047"/>
       <use xlink:href="#DejaVuSans-b0" x="127.246094"/>
      </g>
     </g>
    </g>
    <g id="xtick_4">
     <g id="line2d_4">
      <path d="M 207.494062 188.757188 
L 109.489063 90.752188 
" clip-path="url(#pa2241965be)" style="fill: none; stroke: #b0b0b0; stroke-width: 0.8; stroke-linecap: square"/>
     </g>
     <g id="text_4">
      <!-- 135° -->
      <g transform="translate(87.545818 83.612068) scale(0.1 -0.1)">
       <defs>
        <path id="DejaVuSans-31" d="M 794 531 
L 1825 531 
L 1825 4091 
L 703 3866 
L 703 4441 
L 1819 4666 
L 2450 4666 
L 2450 531 
L 3481 531 
L 3481 0 
L 794 0 
L 794 531 
z
" transform="scale(0.015625)"/>
        <path id="DejaVuSans-33" d="M 2597 2516 
Q 3050 2419 3304 2112 
Q 3559 1806 3559 1356 
Q 3559 666 3084 287 
Q 2609 -91 1734 -91 
Q 1441 -91 1130 -33 
Q 819 25 488 141 
L 488 750 
Q 750 597 1062 519 
Q 1375 441 1716 441 
Q 2309 441 2620 675 
Q 2931 909 2931 1356 
Q 2931 1769 2642 2001 
Q 2353 2234 1838 2234 
L 1294 2234 
L 1294 2753 
L 1863 2753 
Q 2328 2753 2575 2939 
Q 2822 3125 2822 3475 
Q 2822 3834 2567 4026 
Q 2313 4219 1838 4219 
Q 1578 4219 1281 4162 
Q 984 4106 628 3988 
L 628 4550 
Q 988 4650 1302 4700 
Q 1616 4750 1894 4750 
Q 2613 4750 3031 4423 
Q 3450 4097 3450 3541 
Q 3450 3153 3228 2886 
Q 3006 2619 2597 2516 
z
" transform="scale(0.015625)"/>
       </defs>
       <use xlink:href="#DejaVuSans-31"/>
       <use xlink:href="#DejaVuSans-33" x="63.623047"/>
       <use xlink:href="#DejaVuSans-35" x="127.246094"/>
       <use xlink:href="#DejaVuSans-b0" x="190.869141"/>
      </g>
     </g>
    </g>
    <g id="xtick_5">
     <g id="line2d_5">
      <path d="M 207.494062 188.757188 
L 68.894062 188.757188 
" clip-path="url(#pa2241965be)" style="fill: none; stroke: #b0b0b0; stroke-width: 0.8; stroke-linecap: square"/>
     </g>
     <g id="text_5">
      <!-- 180° -->
      <g transform="translate(42.850312 191.516563) scale(0.1 -0.1)">
       <defs>
        <path id="DejaVuSans-38" d="M 2034 2216 
Q 1584 2216 1326 1975 
Q 1069 1734 1069 1313 
Q 1069 891 1326 650 
Q 1584 409 2034 409 
Q 2484 409 2743 651 
Q 3003 894 3003 1313 
Q 3003 1734 2745 1975 
Q 2488 2216 2034 2216 
z
M 1403 2484 
Q 997 2584 770 2862 
Q 544 3141 544 3541 
Q 544 4100 942 4425 
Q 1341 4750 2034 4750 
Q 2731 4750 3128 4425 
Q 3525 4100 3525 3541 
Q 3525 3141 3298 2862 
Q 3072 2584 2669 2484 
Q 3125 2378 3379 2068 
Q 3634 1759 3634 1313 
Q 3634 634 3220 271 
Q 2806 -91 2034 -91 
Q 1263 -91 848 271 
Q 434 634 434 1313 
Q 434 1759 690 2068 
Q 947 2378 1403 2484 
z
M 1172 3481 
Q 1172 3119 1398 2916 
Q 1625 2713 2034 2713 
Q 2441 2713 2670 2916 
Q 2900 3119 2900 3481 
Q 2900 3844 2670 4047 
Q 2441 4250 2034 4250 
Q 1625 4250 1398 4047 
Q 1172 3844 1172 3481 
z
" transform="scale(0.015625)"/>
       </defs>
       <use xlink:href="#DejaVuSans-31"/>
       <use xlink:href="#DejaVuSans-38" x="63.623047"/>
       <use xlink:href="#DejaVuSans-30" x="127.246094"/>
       <use xlink:href="#DejaVuSans-b0" x="190.869141"/>
      </g>
     </g>
    </g>
    <g id="xtick_6">
     <g id="line2d_6">
      <path d="M 207.494062 188.757188 
L 109.489063 286.762187 
" clip-path="url(#pa2241965be)" style="fill: none; stroke: #b0b0b0; stroke-width: 0.8; stroke-linecap: square"/>
     </g>
     <g id="text_6">
      <!-- 225° -->
      <g transform="translate(87.545818 299.421057) scale(0.1 -0.1)">
       <defs>
        <path id="DejaVuSans-32" d="M 1228 531 
L 3431 531 
L 3431 0 
L 469 0 
L 469 531 
Q 828 903 1448 1529 
Q 2069 2156 2228 2338 
Q 2531 2678 2651 2914 
Q 2772 3150 2772 3378 
Q 2772 3750 2511 3984 
Q 2250 4219 1831 4219 
Q 1534 4219 1204 4116 
Q 875 4013 500 3803 
L 500 4441 
Q 881 4594 1212 4672 
Q 1544 4750 1819 4750 
Q 2544 4750 2975 4387 
Q 3406 4025 3406 3419 
Q 3406 3131 3298 2873 
Q 3191 2616 2906 2266 
Q 2828 2175 2409 1742 
Q 1991 1309 1228 531 
z
" transform="scale(0.015625)"/>
       </defs>
       <use xlink:href="#DejaVuSans-32"/>
       <use xlink:href="#DejaVuSans-32" x="63.623047"/>
       <use xlink:href="#DejaVuSans-35" x="127.246094"/>
       <use xlink:href="#DejaVuSans-b0" x="190.869141"/>
      </g>
     </g>
    </g>
    <g id="xtick_7">
     <g id="line2d_7">
      <path d="M 207.494062 188.757188 
L 207.494062 327.357188 
" clip-path="url(#pa2241965be)" style="fill: none; stroke: #b0b0b0; stroke-width: 0.8; stroke-linecap: square"/>
     </g>
     <g id="text_7">
      <!-- 270° -->
      <g transform="translate(195.450312 344.116563) scale(0.1 -0.1)">
       <defs>
        <path id="DejaVuSans-37" d="M 525 4666 
L 3525 4666 
L 3525 4397 
L 1831 0 
L 1172 0 
L 2766 4134 
L 525 4134 
L 525 4666 
z
" transform="scale(0.015625)"/>
       </defs>
       <use xlink:href="#DejaVuSans-32"/>
       <use xlink:href="#DejaVuSans-37" x="63.623047"/>
       <use xlink:href="#DejaVuSans-30" x="127.246094"/>
       <use xlink:href="#DejaVuSans-b0" x="190.869141"/>
      </g>
     </g>
    </g>
    <g id="xtick_8">
     <g id="line2d_8">
      <path d="M 207.494062 188.757188 
L 305.499062 286.762187 
" clip-path="url(#pa2241965be)" style="fill: none; stroke: #b0b0b0; stroke-width: 0.8; stroke-linecap: square"/>
     </g>
     <g id="text_8">
      <!-- 315° -->
      <g transform="translate(303.354807 299.421057) scale(0.1 -0.1)">
       <use xlink:href="#DejaVuSans-33"/>
       <use xlink:href="#DejaVuSans-31" x="63.623047"/>
       <use xlink:href="#DejaVuSans-35" x="127.246094"/>
       <use xlink:href="#DejaVuSans-b0" x="190.869141"/>
      </g>
     </g>
    </g>
   </g>
   <g id="matplotlib.axis_2">
    <g id="ytick_1">
     <g id="line2d_9">
      <path d="M 224.819062 188.757188 
C 224.819062 186.482089 224.370918 184.229114 223.500275 182.127197 
C 222.629633 180.02528 221.353425 178.1153 219.744687 176.506563 
C 218.13595 174.897825 216.22597 173.621617 214.124053 172.750975 
C 212.022136 171.880332 209.769161 171.432188 207.494062 171.432188 
C 205.218964 171.432188 202.965989 171.880332 200.864072 172.750975 
C 198.762155 173.621617 196.852175 174.897825 195.243438 176.506563 
C 193.6347 178.1153 192.358492 180.02528 191.48785 182.127197 
C 190.617207 184.229114 190.169062 186.482089 190.169062 188.757188 
C 190.169062 191.032286 190.617207 193.285261 191.48785 195.387178 
C 192.358492 197.489095 193.6347 199.399075 195.243438 201.007812 
C 196.852175 202.61655 198.762155 203.892758 200.864072 204.7634 
C 202.965989 205.634043 205.218964 206.082188 207.494062 206.082188 
C 209.769161 206.082188 212.022136 205.634043 214.124053 204.7634 
C 216.22597 203.892758 218.13595 202.61655 219.744687 201.007812 
C 221.353425 199.399075 222.629633 197.489095 223.500275 195.387178 
C 224.370918 193.285261 224.819062 191.032286 224.819062 188.757188 
" clip-path="url(#pa2241965be)" style="fill: none; stroke: #b0b0b0; stroke-width: 0.8; stroke-linecap: square"/>
     </g>
     <g id="text_9">
      <!-- 0.05 -->
      <g transform="translate(213.68625 186.6775) scale(0.1 -0.1)">
       <defs>
        <path id="DejaVuSans-2e" d="M 684 794 
L 1344 794 
L 1344 0 
L 684 0 
L 684 794 
z
" transform="scale(0.015625)"/>
       </defs>
       <use xlink:href="#DejaVuSans-30"/>
       <use xlink:href="#DejaVuSans-2e" x="63.623047"/>
       <use xlink:href="#DejaVuSans-30" x="95.410156"/>
       <use xlink:href="#DejaVuSans-35" x="159.033203"/>
      </g>
     </g>
    </g>
    <g id="ytick_2">
     <g id="line2d_10">
      <path d="M 242.144062 188.757188 
C 242.144062 184.206991 241.247773 179.70104 239.506488 175.497207 
C 237.765204 171.293373 235.212787 167.473412 231.995312 164.255938 
C 228.777838 161.038463 224.957877 158.486046 220.754043 156.744762 
C 216.55021 155.003477 212.044259 154.107188 207.494062 154.107188 
C 202.943866 154.107188 198.437915 155.003477 194.234082 156.744762 
C 190.030248 158.486046 186.210287 161.038463 182.992813 164.255938 
C 179.775338 167.473412 177.222921 171.293373 175.481637 175.497207 
C 173.740352 179.70104 172.844062 184.206991 172.844062 188.757188 
C 172.844062 193.307384 173.740352 197.813335 175.481637 202.017168 
C 177.222921 206.221002 179.775338 210.040963 182.992813 213.258437 
C 186.210287 216.475912 190.030248 219.028329 194.234082 220.769613 
C 198.437915 222.510898 202.943866 223.407188 207.494062 223.407188 
C 212.044259 223.407188 216.55021 222.510898 220.754043 220.769613 
C 224.957877 219.028329 228.777838 216.475912 231.995312 213.258437 
C 235.212787 210.040963 237.765204 206.221002 239.506488 202.017168 
C 241.247773 197.813335 242.144062 193.307384 242.144062 188.757188 
" clip-path="url(#pa2241965be)" style="fill: none; stroke: #b0b0b0; stroke-width: 0.8; stroke-linecap: square"/>
     </g>
    </g>
    <g id="ytick_3">
     <g id="line2d_11">
      <path d="M 259.469062 188.757188 
C 259.469062 181.931893 258.124628 175.172966 255.512701 168.867216 
C 252.900774 162.561466 249.072149 156.831525 244.245937 152.005313 
C 239.419725 147.179101 233.689784 143.350476 227.384034 140.738549 
C 221.078284 138.126622 214.319357 136.782188 207.494062 136.782188 
C 200.668768 136.782188 193.909841 138.126622 187.604091 140.738549 
C 181.298341 143.350476 175.5684 147.179101 170.742188 152.005313 
C 165.915976 156.831525 162.087351 162.561466 159.475424 168.867216 
C 156.863497 175.172966 155.519062 181.931893 155.519062 188.757188 
C 155.519062 195.582482 156.863497 202.341409 159.475424 208.647159 
C 162.087351 214.952909 165.915976 220.68285 170.742188 225.509062 
C 175.5684 230.335274 181.298341 234.163899 187.604091 236.775826 
C 193.909841 239.387753 200.668768 240.732188 207.494062 240.732188 
C 214.319357 240.732188 221.078284 239.387753 227.384034 236.775826 
C 233.689784 234.163899 239.419725 230.335274 244.245937 225.509062 
C 249.072149 220.68285 252.900774 214.952909 255.512701 208.647159 
C 258.124628 202.341409 259.469062 195.582482 259.469062 188.757188 
" clip-path="url(#pa2241965be)" style="fill: none; stroke: #b0b0b0; stroke-width: 0.8; stroke-linecap: square"/>
     </g>
     <g id="text_10">
      <!-- 0.15 -->
      <g transform="translate(248.33625 186.6775) scale(0.1 -0.1)">
       <use xlink:href="#DejaVuSans-30"/>
       <use xlink:href="#DejaVuSans-2e" x="63.623047"/>
       <use xlink:href="#DejaVuSans-31" x="95.410156"/>
       <use xlink:href="#DejaVuSans-35" x="159.033203"/>
      </g>
     </g>
    </g>
    <g id="ytick_4">
     <g id="line2d_12">
      <path d="M 276.794062 188.757188 
C 276.794062 179.656795 275.001484 170.644892 271.518914 162.237226 
C 268.036345 153.829559 262.931512 146.189637 256.496562 139.754688 
C 250.061613 133.319738 242.421691 128.214905 234.014024 124.732336 
C 225.606358 121.249766 216.594455 119.457188 207.494062 119.457188 
C 198.39367 119.457188 189.381767 121.249766 180.974101 124.732336 
C 172.566434 128.214905 164.926512 133.319738 158.491563 139.754688 
C 152.056613 146.189637 146.95178 153.829559 143.469211 162.237226 
C 139.986641 170.644892 138.194062 179.656795 138.194062 188.757188 
C 138.194062 197.85758 139.986641 206.869483 143.469211 215.277149 
C 146.95178 223.684816 152.056613 231.324738 158.491563 237.759687 
C 164.926512 244.194637 172.566434 249.29947 180.974101 252.782039 
C 189.381767 256.264609 198.39367 258.057188 207.494062 258.057188 
C 216.594455 258.057188 225.606358 256.264609 234.014024 252.782039 
C 242.421691 249.29947 250.061613 244.194637 256.496562 237.759687 
C 262.931512 231.324738 268.036345 223.684816 271.518914 215.277149 
C 275.001484 206.869483 276.794062 197.85758 276.794062 188.757188 
" clip-path="url(#pa2241965be)" style="fill: none; stroke: #b0b0b0; stroke-width: 0.8; stroke-linecap: square"/>
     </g>
    </g>
    <g id="ytick_5">
     <g id="line2d_13">
      <path d="M 294.119062 188.757188 
C 294.119062 177.381697 291.878339 166.116818 287.525127 155.607235 
C 283.171915 145.097652 276.790874 135.547749 268.747187 127.504063 
C 260.703501 119.460376 251.153598 113.079335 240.644015 108.726123 
C 230.134432 104.372911 218.869553 102.132188 207.494062 102.132188 
C 196.118572 102.132188 184.853693 104.372911 174.34411 108.726123 
C 163.834527 113.079335 154.284624 119.460376 146.240938 127.504063 
C 138.197251 135.547749 131.81621 145.097652 127.462998 155.607235 
C 123.109786 166.116818 120.869062 177.381697 120.869062 188.757188 
C 120.869062 200.132678 123.109786 211.397557 127.462998 221.90714 
C 131.81621 232.416723 138.197251 241.966626 146.240938 250.010312 
C 154.284624 258.053999 163.834527 264.43504 174.34411 268.788252 
C 184.853693 273.141464 196.118572 275.382188 207.494062 275.382188 
C 218.869553 275.382188 230.134432 273.141464 240.644015 268.788252 
C 251.153598 264.43504 260.703501 258.053999 268.747187 250.010312 
C 276.790874 241.966626 283.171915 232.416723 287.525127 221.90714 
C 291.878339 211.397557 294.119062 200.132678 294.119062 188.757188 
" clip-path="url(#pa2241965be)" style="fill: none; stroke: #b0b0b0; stroke-width: 0.8; stroke-linecap: square"/>
     </g>
     <g id="text_11">
      <!-- 0.25 -->
      <g transform="translate(282.98625 186.6775) scale(0.1 -0.1)">
       <use xlink:href="#DejaVuSans-30"/>
       <use xlink:href="#DejaVuSans-2e" x="63.623047"/>
       <use xlink:href="#DejaVuSans-32" x="95.410156"/>
       <use xlink:href="#DejaVuSans-35" x="159.033203"/>
      </g>
     </g>
    </g>
    <g id="ytick_6">
     <g id="line2d_14">
      <path d="M 311.444062 188.757188 
C 311.444062 175.106599 308.755194 161.588744 303.53134 148.977245 
C 298.307486 136.365745 290.650236 124.905862 280.997812 115.253438 
C 271.345388 105.601014 259.885505 97.943764 247.274005 92.71991 
C 234.662506 87.496056 221.144651 84.807188 207.494062 84.807188 
C 193.843474 84.807188 180.325619 87.496056 167.71412 92.71991 
C 155.10262 97.943764 143.642737 105.601014 133.990313 115.253438 
C 124.337889 124.905862 116.680639 136.365745 111.456785 148.977245 
C 106.232931 161.588744 103.544062 175.106599 103.544062 188.757188 
C 103.544062 202.407776 106.232931 215.925631 111.456785 228.53713 
C 116.680639 241.14863 124.337889 252.608513 133.990313 262.260937 
C 143.642737 271.913361 155.10262 279.570611 167.71412 284.794465 
C 180.325619 290.018319 193.843474 292.707188 207.494062 292.707188 
C 221.144651 292.707188 234.662506 290.018319 247.274005 284.794465 
C 259.885505 279.570611 271.345388 271.913361 280.997812 262.260937 
C 290.650236 252.608513 298.307486 241.14863 303.53134 228.53713 
C 308.755194 215.925631 311.444062 202.407776 311.444062 188.757188 
" clip-path="url(#pa2241965be)" style="fill: none; stroke: #b0b0b0; stroke-width: 0.8; stroke-linecap: square"/>
     </g>
    </g>
    <g id="ytick_7">
     <g id="line2d_15">
      <path d="M 328.769062 188.757188 
C 328.769062 172.8315 325.632049 157.060671 319.537553 142.347254 
C 313.443056 127.633838 304.509599 114.263974 293.248437 103.002813 
C 281.987276 91.741651 268.617412 82.808194 253.903996 76.713697 
C 239.190579 70.619201 223.41975 67.482188 207.494062 67.482188 
C 191.568375 67.482188 175.797546 70.619201 161.084129 76.713697 
C 146.370713 82.808194 133.000849 91.741651 121.739688 103.002813 
C 110.478526 114.263974 101.545069 127.633838 95.450572 142.347254 
C 89.356076 157.060671 86.219062 172.8315 86.219062 188.757188 
C 86.219062 204.682875 89.356076 220.453704 95.450572 235.167121 
C 101.545069 249.880537 110.478526 263.250401 121.739688 274.511562 
C 133.000849 285.772724 146.370713 294.706181 161.084129 300.800678 
C 175.797546 306.895174 191.568375 310.032188 207.494062 310.032188 
C 223.41975 310.032188 239.190579 306.895174 253.903996 300.800678 
C 268.617412 294.706181 281.987276 285.772724 293.248437 274.511562 
C 304.509599 263.250401 313.443056 249.880537 319.537553 235.167121 
C 325.632049 220.453704 328.769062 204.682875 328.769062 188.757188 
" clip-path="url(#pa2241965be)" style="fill: none; stroke: #b0b0b0; stroke-width: 0.8; stroke-linecap: square"/>
     </g>
     <g id="text_12">
      <!-- 0.35 -->
      <g transform="translate(317.63625 186.6775) scale(0.1 -0.1)">
       <use xlink:href="#DejaVuSans-30"/>
       <use xlink:href="#DejaVuSans-2e" x="63.623047"/>
       <use xlink:href="#DejaVuSans-33" x="95.410156"/>
       <use xlink:href="#DejaVuSans-35" x="159.033203"/>
      </g>
     </g>
    </g>
    <g id="ytick_8">
     <g id="line2d_16">
      <path d="M 346.094062 188.757188 
C 346.094062 170.556402 342.508905 152.532597 335.543766 135.717264 
C 328.578627 118.901931 318.368961 103.622086 305.499062 90.752188 
C 292.629164 77.882289 277.349319 67.672623 260.533986 60.707484 
C 243.718653 53.742345 225.694848 50.157188 207.494062 50.157188 
C 189.293277 50.157188 171.269472 53.742345 154.454139 60.707484 
C 137.638806 67.672623 122.358961 77.882289 109.489063 90.752188 
C 96.619164 103.622086 86.409498 118.901931 79.444359 135.717264 
C 72.47922 152.532597 68.894062 170.556402 68.894062 188.757188 
C 68.894062 206.957973 72.47922 224.981778 79.444359 241.797111 
C 86.409498 258.612444 96.619164 273.892289 109.489063 286.762187 
C 122.358961 299.632086 137.638806 309.841752 154.454139 316.806891 
C 171.269472 323.77203 189.293277 327.357188 207.494062 327.357188 
C 225.694848 327.357188 243.718653 323.77203 260.533986 316.806891 
C 277.349319 309.841752 292.629164 299.632086 305.499062 286.762187 
C 318.368961 273.892289 328.578627 258.612444 335.543766 241.797111 
C 342.508905 224.981778 346.094062 206.957973 346.094062 188.757188 
" clip-path="url(#pa2241965be)" style="fill: none; stroke: #b0b0b0; stroke-width: 0.8; stroke-linecap: square"/>
     </g>
    </g>
   </g>
   <g id="PathCollection_1">
    <defs>
     <path id="mc14c05af35" d="M 0 4.472136 
C 1.186024 4.472136 2.323632 4.000923 3.162278 3.162278 
C 4.000923 2.323632 4.472136 1.186024 4.472136 0 
C 4.472136 -1.186024 4.000923 -2.323632 3.162278 -3.162278 
C 2.323632 -4.000923 1.186024 -4.472136 0 -4.472136 
C -1.186024 -4.472136 -2.323632 -4.000923 -3.162278 -3.162278 
C -4.000923 -2.323632 -4.472136 -1.186024 -4.472136 0 
C -4.472136 1.186024 -4.000923 2.323632 -3.162278 3.162278 
C -2.323632 4.000923 -1.186024 4.472136 0 4.472136 
z
" style="stroke: #000000"/>
    </defs>
    <g clip-path="url(#pa2241965be)">
     <use xlink:href="#mc14c05af35" x="260.706413" y="158.976502" style="fill: #990000; stroke: #000000"/>
    </g>
   </g>
   <g id="PathCollection_2">
    <defs>
     <path id="mb1aaaf603a" d="M 0 4.472136 
C 1.186024 4.472136 2.323632 4.000923 3.162278 3.162278 
C 4.000923 2.323632 4.472136 1.186024 4.472136 0 
C 4.472136 -1.186024 4.000923 -2.323632 3.162278 -3.162278 
C 2.323632 -4.000923 1.186024 -4.472136 0 -4.472136 
C -1.186024 -4.472136 -2.323632 -4.000923 -3.162278 -3.162278 
C -4.000923 -2.323632 -4.472136 -1.186024 -4.472136 0 
C -4.472136 1.186024 -4.000923 2.323632 -3.162278 3.162278 
C -2.323632 4.000923 -1.186024 4.472136 0 4.472136 
z
" style="stroke: #000000"/>
    </defs>
    <g clip-path="url(#pa2241965be)">
     <use xlink:href="#mb1aaaf603a" x="148.790885" y="143.705078" style="fill: #00a600; stroke: #000000"/>
    </g>
   </g>
   <g id="PathCollection_3">
    <defs>
     <path id="m01a37a6717" d="M 0 4.472136 
C 1.186024 4.472136 2.323632 4.000923 3.162278 3.162278 
C 4.000923 2.323632 4.472136 1.186024 4.472136 0 
C 4.472136 -1.186024 4.000923 -2.323632 3.162278 -3.162278 
C 2.323632 -4.000923 1.186024 -4.472136 0 -4.472136 
C -1.186024 -4.472136 -2.323632 -4.000923 -3.162278 -3.162278 
C -4.000923 -2.323632 -4.472136 -1.186024 -4.472136 0 
C -4.472136 1.186024 -4.000923 2.323632 -3.162278 3.162278 
C -2.323632 4.000923 -1.186024 4.472136 0 4.472136 
z
" style="stroke: #000000"/>
    </defs>
    <g clip-path="url(#pa2241965be)">
     <use xlink:href="#m01a37a6717" x="190.605043" y="141.766984" style="fill: #999900; stroke: #000000"/>
    </g>
   </g>
   <g id="PathCollection_4">
    <defs>
     <path id="m03747cd894" d="M 0 4.472136 
C 1.186024 4.472136 2.323632 4.000923 3.162278 3.162278 
C 4.000923 2.323632 4.472136 1.186024 4.472136 0 
C 4.472136 -1.186024 4.000923 -2.323632 3.162278 -3.162278 
C 2.323632 -4.000923 1.186024 -4.472136 0 -4.472136 
C -1.186024 -4.472136 -2.323632 -4.000923 -3.162278 -3.162278 
C -4.000923 -2.323632 -4.472136 -1.186024 -4.472136 0 
C -4.472136 1.186024 -4.000923 2.323632 -3.162278 3.162278 
C -2.323632 4.000923 -1.186024 4.472136 0 4.472136 
z
" style="stroke: #000000"/>
    </defs>
    <g clip-path="url(#pa2241965be)">
     <use xlink:href="#m03747cd894" x="198.888676" y="271.35331" style="fill: #0000b3; stroke: #000000"/>
    </g>
   </g>
   <g id="PathCollection_5">
    <defs>
     <path id="m1bbaec1125" d="M 0 4.472136 
C 1.186024 4.472136 2.323632 4.000923 3.162278 3.162278 
C 4.000923 2.323632 4.472136 1.186024 4.472136 0 
C 4.472136 -1.186024 4.000923 -2.323632 3.162278 -3.162278 
C 2.323632 -4.000923 1.186024 -4.472136 0 -4.472136 
C -1.186024 -4.472136 -2.323632 -4.000923 -3.162278 -3.162278 
C -4.000923 -2.323632 -4.472136 -1.186024 -4.472136 0 
C -4.472136 1.186024 -4.000923 2.323632 -3.162278 3.162278 
C -2.323632 4.000923 -1.186024 4.472136 0 4.472136 
z
" style="stroke: #000000"/>
    </defs>
    <g clip-path="url(#pa2241965be)">
     <use xlink:href="#m1bbaec1125" x="280.290409" y="233.605899" style="fill: #b300b3; stroke: #000000"/>
    </g>
   </g>
   <g id="PathCollection_6">
    <defs>
     <path id="m39ff56af4c" d="M 0 4.472136 
C 1.186024 4.472136 2.323632 4.000923 3.162278 3.162278 
C 4.000923 2.323632 4.472136 1.186024 4.472136 0 
C 4.472136 -1.186024 4.000923 -2.323632 3.162278 -3.162278 
C 2.323632 -4.000923 1.186024 -4.472136 0 -4.472136 
C -1.186024 -4.472136 -2.323632 -4.000923 -3.162278 -3.162278 
C -4.000923 -2.323632 -4.472136 -1.186024 -4.472136 0 
C -4.472136 1.186024 -4.000923 2.323632 -3.162278 3.162278 
C -2.323632 4.000923 -1.186024 4.472136 0 4.472136 
z
" style="stroke: #000000"/>
    </defs>
    <g clip-path="url(#pa2241965be)">
     <use xlink:href="#m39ff56af4c" x="171.948778" y="204.94646" style="fill: #00a6b3; stroke: #000000"/>
    </g>
   </g>
   <g id="PathCollection_7">
    <defs>
     <path id="md0a762e891" d="M 0 4.472136 
C 1.186024 4.472136 2.323632 4.000923 3.162278 3.162278 
C 4.000923 2.323632 4.472136 1.186024 4.472136 0 
C 4.472136 -1.186024 4.000923 -2.323632 3.162278 -3.162278 
C 2.323632 -4.000923 1.186024 -4.472136 0 -4.472136 
C -1.186024 -4.472136 -2.323632 -4.000923 -3.162278 -3.162278 
C -4.000923 -2.323632 -4.472136 -1.186024 -4.472136 0 
C -4.472136 1.186024 -4.000923 2.323632 -3.162278 3.162278 
C -2.323632 4.000923 -1.186024 4.472136 0 4.472136 
z
" style="stroke: #000000"/>
    </defs>
    <g clip-path="url(#pa2241965be)">
     <use xlink:href="#md0a762e891" x="279.443081" y="148.490388" style="fill: #e60000; stroke: #000000"/>
    </g>
   </g>
   <g id="PathCollection_8">
    <defs>
     <path id="m722b69b44d" d="M 0 4.472136 
C 1.186024 4.472136 2.323632 4.000923 3.162278 3.162278 
C 4.000923 2.323632 4.472136 1.186024 4.472136 0 
C 4.472136 -1.186024 4.000923 -2.323632 3.162278 -3.162278 
C 2.323632 -4.000923 1.186024 -4.472136 0 -4.472136 
C -1.186024 -4.472136 -2.323632 -4.000923 -3.162278 -3.162278 
C -4.000923 -2.323632 -4.472136 -1.186024 -4.472136 0 
C -4.472136 1.186024 -4.000923 2.323632 -3.162278 3.162278 
C -2.323632 4.000923 -1.186024 4.472136 0 4.472136 
z
" style="stroke: #000000"/>
    </defs>
    <g clip-path="url(#pa2241965be)">
     <use xlink:href="#m722b69b44d" x="135.808985" y="133.742039" style="fill: #00d900; stroke: #000000"/>
    </g>
   </g>
   <g id="PathCollection_9">
    <defs>
     <path id="mc76112c460" d="M 0 4.472136 
C 1.186024 4.472136 2.323632 4.000923 3.162278 3.162278 
C 4.000923 2.323632 4.472136 1.186024 4.472136 0 
C 4.472136 -1.186024 4.000923 -2.323632 3.162278 -3.162278 
C 2.323632 -4.000923 1.186024 -4.472136 0 -4.472136 
C -1.186024 -4.472136 -2.323632 -4.000923 -3.162278 -3.162278 
C -4.000923 -2.323632 -4.472136 -1.186024 -4.472136 0 
C -4.472136 1.186024 -4.000923 2.323632 -3.162278 3.162278 
C -2.323632 4.000923 -1.186024 4.472136 0 4.472136 
z
" style="stroke: #000000"/>
    </defs>
    <g clip-path="url(#pa2241965be)">
     <use xlink:href="#mc76112c460" x="184.658229" y="125.221203" style="fill: #e6e600; stroke: #000000"/>
    </g>
   </g>
   <g id="PathCollection_10">
    <defs>
     <path id="mbf5631c5ad" d="M 0 4.472136 
C 1.186024 4.472136 2.323632 4.000923 3.162278 3.162278 
C 4.000923 2.323632 4.472136 1.186024 4.472136 0 
C 4.472136 -1.186024 4.000923 -2.323632 3.162278 -3.162278 
C 2.323632 -4.000923 1.186024 -4.472136 0 -4.472136 
C -1.186024 -4.472136 -2.323632 -4.000923 -3.162278 -3.162278 
C -4.000923 -2.323632 -4.472136 -1.186024 -4.472136 0 
C -4.472136 1.186024 -4.000923 2.323632 -3.162278 3.162278 
C -2.323632 4.000923 -1.186024 4.472136 0 4.472136 
z
" style="stroke: #000000"/>
    </defs>
    <g clip-path="url(#pa2241965be)">
     <use xlink:href="#mbf5631c5ad" x="196.247721" y="296.701697" style="fill: #0000ff; stroke: #000000"/>
    </g>
   </g>
   <g id="PathCollection_11">
    <defs>
     <path id="m47e259e5c4" d="M 0 4.472136 
C 1.186024 4.472136 2.323632 4.000923 3.162278 3.162278 
C 4.000923 2.323632 4.472136 1.186024 4.472136 0 
C 4.472136 -1.186024 4.000923 -2.323632 3.162278 -3.162278 
C 2.323632 -4.000923 1.186024 -4.472136 0 -4.472136 
C -1.186024 -4.472136 -2.323632 -4.000923 -3.162278 -3.162278 
C -4.000923 -2.323632 -4.472136 -1.186024 -4.472136 0 
C -4.472136 1.186024 -4.000923 2.323632 -3.162278 3.162278 
C -2.323632 4.000923 -1.186024 4.472136 0 4.472136 
z
" style="stroke: #000000"/>
    </defs>
    <g clip-path="url(#pa2241965be)">
     <use xlink:href="#m47e259e5c4" x="295.346534" y="242.881746" style="fill: #e600e6; stroke: #000000"/>
    </g>
   </g>
   <g id="PathCollection_12">
    <defs>
     <path id="mb7a2226aec" d="M 0 4.472136 
C 1.186024 4.472136 2.323632 4.000923 3.162278 3.162278 
C 4.000923 2.323632 4.472136 1.186024 4.472136 0 
C 4.472136 -1.186024 4.000923 -2.323632 3.162278 -3.162278 
C 2.323632 -4.000923 1.186024 -4.472136 0 -4.472136 
C -1.186024 -4.472136 -2.323632 -4.000923 -3.162278 -3.162278 
C -4.000923 -2.323632 -4.472136 -1.186024 -4.472136 0 
C -4.472136 1.186024 -4.000923 2.323632 -3.162278 3.162278 
C -2.323632 4.000923 -1.186024 4.472136 0 4.472136 
z
" style="stroke: #000000"/>
    </defs>
    <g clip-path="url(#pa2241965be)">
     <use xlink:href="#mb7a2226aec" x="159.676761" y="201.363354" style="fill: #00e6e6; stroke: #000000"/>
    </g>
   </g>
   <g id="PathCollection_13">
    <defs>
     <path id="m5f269f0804" d="M 0 4.472136 
C 1.186024 4.472136 2.323632 4.000923 3.162278 3.162278 
C 4.000923 2.323632 4.472136 1.186024 4.472136 0 
C 4.472136 -1.186024 4.000923 -2.323632 3.162278 -3.162278 
C 2.323632 -4.000923 1.186024 -4.472136 0 -4.472136 
C -1.186024 -4.472136 -2.323632 -4.000923 -3.162278 -3.162278 
C -4.000923 -2.323632 -4.472136 -1.186024 -4.472136 0 
C -4.472136 1.186024 -4.000923 2.323632 -3.162278 3.162278 
C -2.323632 4.000923 -1.186024 4.472136 0 4.472136 
z
" style="stroke: #000000"/>
    </defs>
    <g clip-path="url(#pa2241965be)">
     <use xlink:href="#m5f269f0804" x="207.494062" y="188.757188" style="fill: #747474; stroke: #000000"/>
    </g>
   </g>
   <g id="patch_3">
    <path d="M 346.094062 188.757188 
C 346.094062 170.556402 342.508905 152.532597 335.543766 135.717264 
C 328.578627 118.901931 318.368961 103.622086 305.499062 90.752188 
C 292.629164 77.882289 277.349319 67.672623 260.533986 60.707484 
C 243.718653 53.742345 225.694848 50.157188 207.494062 50.157188 
C 189.293277 50.157188 171.269472 53.742345 154.454139 60.707484 
C 137.638806 67.672623 122.358961 77.882289 109.489063 90.752188 
C 96.619164 103.622086 86.409498 118.901931 79.444359 135.717264 
C 72.47922 152.532597 68.894062 170.556402 68.894062 188.757188 
C 68.894062 206.957973 72.47922 224.981778 79.444359 241.797111 
C 86.409498 258.612444 96.619164 273.892289 109.489063 286.762187 
C 122.358961 299.632086 137.638806 309.841752 154.454139 316.806891 
C 171.269472 323.77203 189.293277 327.357188 207.494062 327.357188 
C 225.694848 327.357188 243.718653 323.77203 260.533986 316.806891 
C 277.349319 309.841752 292.629164 299.632086 305.499062 286.762187 
C 318.368961 273.892289 328.578627 258.612444 335.543766 241.797111 
C 342.508905 224.981778 346.094062 206.957973 346.094062 188.757188 
" style="fill: none; stroke: #000000; stroke-width: 0.8; stroke-linejoin: miter; stroke-linecap: square"/>
   </g>
   <g id="text_13">
    <!-- Terminal.app: Hue &amp; Chroma for 12+4 ANSI Colors in Oklab -->
    <g transform="translate(7.2 16.318125) scale(0.12 -0.12)">
     <defs>
      <path id="DejaVuSans-Bold-54" d="M 31 4666 
L 4331 4666 
L 4331 3756 
L 2784 3756 
L 2784 0 
L 1581 0 
L 1581 3756 
L 31 3756 
L 31 4666 
z
" transform="scale(0.015625)"/>
      <path id="DejaVuSans-Bold-65" d="M 4031 1759 
L 4031 1441 
L 1416 1441 
Q 1456 1047 1700 850 
Q 1944 653 2381 653 
Q 2734 653 3104 758 
Q 3475 863 3866 1075 
L 3866 213 
Q 3469 63 3072 -14 
Q 2675 -91 2278 -91 
Q 1328 -91 801 392 
Q 275 875 275 1747 
Q 275 2603 792 3093 
Q 1309 3584 2216 3584 
Q 3041 3584 3536 3087 
Q 4031 2591 4031 1759 
z
M 2881 2131 
Q 2881 2450 2695 2645 
Q 2509 2841 2209 2841 
Q 1884 2841 1681 2658 
Q 1478 2475 1428 2131 
L 2881 2131 
z
" transform="scale(0.015625)"/>
      <path id="DejaVuSans-Bold-72" d="M 3138 2547 
Q 2991 2616 2845 2648 
Q 2700 2681 2553 2681 
Q 2122 2681 1889 2404 
Q 1656 2128 1656 1613 
L 1656 0 
L 538 0 
L 538 3500 
L 1656 3500 
L 1656 2925 
Q 1872 3269 2151 3426 
Q 2431 3584 2822 3584 
Q 2878 3584 2943 3579 
Q 3009 3575 3134 3559 
L 3138 2547 
z
" transform="scale(0.015625)"/>
      <path id="DejaVuSans-Bold-6d" d="M 3781 2919 
Q 3994 3244 4286 3414 
Q 4578 3584 4928 3584 
Q 5531 3584 5847 3212 
Q 6163 2841 6163 2131 
L 6163 0 
L 5038 0 
L 5038 1825 
Q 5041 1866 5042 1909 
Q 5044 1953 5044 2034 
Q 5044 2406 4934 2573 
Q 4825 2741 4581 2741 
Q 4263 2741 4089 2478 
Q 3916 2216 3909 1719 
L 3909 0 
L 2784 0 
L 2784 1825 
Q 2784 2406 2684 2573 
Q 2584 2741 2328 2741 
Q 2006 2741 1831 2477 
Q 1656 2213 1656 1722 
L 1656 0 
L 531 0 
L 531 3500 
L 1656 3500 
L 1656 2988 
Q 1863 3284 2130 3434 
Q 2397 3584 2719 3584 
Q 3081 3584 3359 3409 
Q 3638 3234 3781 2919 
z
" transform="scale(0.015625)"/>
      <path id="DejaVuSans-Bold-69" d="M 538 3500 
L 1656 3500 
L 1656 0 
L 538 0 
L 538 3500 
z
M 538 4863 
L 1656 4863 
L 1656 3950 
L 538 3950 
L 538 4863 
z
" transform="scale(0.015625)"/>
      <path id="DejaVuSans-Bold-6e" d="M 4056 2131 
L 4056 0 
L 2931 0 
L 2931 347 
L 2931 1631 
Q 2931 2084 2911 2256 
Q 2891 2428 2841 2509 
Q 2775 2619 2662 2680 
Q 2550 2741 2406 2741 
Q 2056 2741 1856 2470 
Q 1656 2200 1656 1722 
L 1656 0 
L 538 0 
L 538 3500 
L 1656 3500 
L 1656 2988 
Q 1909 3294 2193 3439 
Q 2478 3584 2822 3584 
Q 3428 3584 3742 3212 
Q 4056 2841 4056 2131 
z
" transform="scale(0.015625)"/>
      <path id="DejaVuSans-Bold-61" d="M 2106 1575 
Q 1756 1575 1579 1456 
Q 1403 1338 1403 1106 
Q 1403 894 1545 773 
Q 1688 653 1941 653 
Q 2256 653 2472 879 
Q 2688 1106 2688 1447 
L 2688 1575 
L 2106 1575 
z
M 3816 1997 
L 3816 0 
L 2688 0 
L 2688 519 
Q 2463 200 2181 54 
Q 1900 -91 1497 -91 
Q 953 -91 614 226 
Q 275 544 275 1050 
Q 275 1666 698 1953 
Q 1122 2241 2028 2241 
L 2688 2241 
L 2688 2328 
Q 2688 2594 2478 2717 
Q 2269 2841 1825 2841 
Q 1466 2841 1156 2769 
Q 847 2697 581 2553 
L 581 3406 
Q 941 3494 1303 3539 
Q 1666 3584 2028 3584 
Q 2975 3584 3395 3211 
Q 3816 2838 3816 1997 
z
" transform="scale(0.015625)"/>
      <path id="DejaVuSans-Bold-6c" d="M 538 4863 
L 1656 4863 
L 1656 0 
L 538 0 
L 538 4863 
z
" transform="scale(0.015625)"/>
      <path id="DejaVuSans-Bold-2e" d="M 653 1209 
L 1778 1209 
L 1778 0 
L 653 0 
L 653 1209 
z
" transform="scale(0.015625)"/>
      <path id="DejaVuSans-Bold-70" d="M 1656 506 
L 1656 -1331 
L 538 -1331 
L 538 3500 
L 1656 3500 
L 1656 2988 
Q 1888 3294 2169 3439 
Q 2450 3584 2816 3584 
Q 3463 3584 3878 3070 
Q 4294 2556 4294 1747 
Q 4294 938 3878 423 
Q 3463 -91 2816 -91 
Q 2450 -91 2169 54 
Q 1888 200 1656 506 
z
M 2400 2772 
Q 2041 2772 1848 2508 
Q 1656 2244 1656 1747 
Q 1656 1250 1848 986 
Q 2041 722 2400 722 
Q 2759 722 2948 984 
Q 3138 1247 3138 1747 
Q 3138 2247 2948 2509 
Q 2759 2772 2400 2772 
z
" transform="scale(0.015625)"/>
      <path id="DejaVuSans-Bold-3a" d="M 716 3500 
L 1844 3500 
L 1844 2291 
L 716 2291 
L 716 3500 
z
M 716 1209 
L 1844 1209 
L 1844 0 
L 716 0 
L 716 1209 
z
" transform="scale(0.015625)"/>
      <path id="DejaVuSans-Bold-20" transform="scale(0.015625)"/>
      <path id="DejaVuSans-Bold-48" d="M 588 4666 
L 1791 4666 
L 1791 2888 
L 3566 2888 
L 3566 4666 
L 4769 4666 
L 4769 0 
L 3566 0 
L 3566 1978 
L 1791 1978 
L 1791 0 
L 588 0 
L 588 4666 
z
" transform="scale(0.015625)"/>
      <path id="DejaVuSans-Bold-75" d="M 500 1363 
L 500 3500 
L 1625 3500 
L 1625 3150 
Q 1625 2866 1622 2436 
Q 1619 2006 1619 1863 
Q 1619 1441 1641 1255 
Q 1663 1069 1716 984 
Q 1784 875 1895 815 
Q 2006 756 2150 756 
Q 2500 756 2700 1025 
Q 2900 1294 2900 1772 
L 2900 3500 
L 4019 3500 
L 4019 0 
L 2900 0 
L 2900 506 
Q 2647 200 2364 54 
Q 2081 -91 1741 -91 
Q 1134 -91 817 281 
Q 500 653 500 1363 
z
" transform="scale(0.015625)"/>
      <path id="DejaVuSans-Bold-26" d="M 2497 3097 
L 3775 1691 
Q 3941 1909 4027 2181 
Q 4113 2453 4128 2797 
L 5100 2797 
Q 5053 2228 4879 1784 
Q 4706 1341 4397 1006 
L 5313 0 
L 3988 0 
L 3681 341 
Q 3353 122 2990 15 
Q 2628 -91 2222 -91 
Q 1400 -91 892 342 
Q 384 775 384 1459 
Q 384 1916 607 2267 
Q 831 2619 1338 2950 
Q 1206 3116 1143 3281 
Q 1081 3447 1081 3628 
Q 1081 4138 1478 4444 
Q 1875 4750 2534 4750 
Q 2819 4750 3126 4704 
Q 3434 4659 3769 4569 
L 3769 3700 
Q 3475 3850 3212 3922 
Q 2950 3994 2700 3994 
Q 2459 3994 2326 3901 
Q 2194 3809 2194 3641 
Q 2194 3534 2270 3398 
Q 2347 3263 2497 3097 
z
M 1875 2322 
Q 1672 2175 1569 1989 
Q 1466 1803 1466 1581 
Q 1466 1222 1731 969 
Q 1997 716 2369 716 
Q 2578 716 2759 780 
Q 2941 844 3097 972 
L 1875 2322 
z
" transform="scale(0.015625)"/>
      <path id="DejaVuSans-Bold-43" d="M 4288 256 
Q 3956 84 3597 -3 
Q 3238 -91 2847 -91 
Q 1681 -91 1000 561 
Q 319 1213 319 2328 
Q 319 3447 1000 4098 
Q 1681 4750 2847 4750 
Q 3238 4750 3597 4662 
Q 3956 4575 4288 4403 
L 4288 3438 
Q 3953 3666 3628 3772 
Q 3303 3878 2944 3878 
Q 2300 3878 1931 3465 
Q 1563 3053 1563 2328 
Q 1563 1606 1931 1193 
Q 2300 781 2944 781 
Q 3303 781 3628 887 
Q 3953 994 4288 1222 
L 4288 256 
z
" transform="scale(0.015625)"/>
      <path id="DejaVuSans-Bold-68" d="M 4056 2131 
L 4056 0 
L 2931 0 
L 2931 347 
L 2931 1625 
Q 2931 2084 2911 2256 
Q 2891 2428 2841 2509 
Q 2775 2619 2662 2680 
Q 2550 2741 2406 2741 
Q 2056 2741 1856 2470 
Q 1656 2200 1656 1722 
L 1656 0 
L 538 0 
L 538 4863 
L 1656 4863 
L 1656 2988 
Q 1909 3294 2193 3439 
Q 2478 3584 2822 3584 
Q 3428 3584 3742 3212 
Q 4056 2841 4056 2131 
z
" transform="scale(0.015625)"/>
      <path id="DejaVuSans-Bold-6f" d="M 2203 2784 
Q 1831 2784 1636 2517 
Q 1441 2250 1441 1747 
Q 1441 1244 1636 976 
Q 1831 709 2203 709 
Q 2569 709 2762 976 
Q 2956 1244 2956 1747 
Q 2956 2250 2762 2517 
Q 2569 2784 2203 2784 
z
M 2203 3584 
Q 3106 3584 3614 3096 
Q 4122 2609 4122 1747 
Q 4122 884 3614 396 
Q 3106 -91 2203 -91 
Q 1297 -91 786 396 
Q 275 884 275 1747 
Q 275 2609 786 3096 
Q 1297 3584 2203 3584 
z
" transform="scale(0.015625)"/>
      <path id="DejaVuSans-Bold-66" d="M 2841 4863 
L 2841 4128 
L 2222 4128 
Q 1984 4128 1890 4042 
Q 1797 3956 1797 3744 
L 1797 3500 
L 2753 3500 
L 2753 2700 
L 1797 2700 
L 1797 0 
L 678 0 
L 678 2700 
L 122 2700 
L 122 3500 
L 678 3500 
L 678 3744 
Q 678 4316 997 4589 
Q 1316 4863 1984 4863 
L 2841 4863 
z
" transform="scale(0.015625)"/>
      <path id="DejaVuSans-Bold-31" d="M 750 831 
L 1813 831 
L 1813 3847 
L 722 3622 
L 722 4441 
L 1806 4666 
L 2950 4666 
L 2950 831 
L 4013 831 
L 4013 0 
L 750 0 
L 750 831 
z
" transform="scale(0.015625)"/>
      <path id="DejaVuSans-Bold-32" d="M 1844 884 
L 3897 884 
L 3897 0 
L 506 0 
L 506 884 
L 2209 2388 
Q 2438 2594 2547 2791 
Q 2656 2988 2656 3200 
Q 2656 3528 2436 3728 
Q 2216 3928 1850 3928 
Q 1569 3928 1234 3808 
Q 900 3688 519 3450 
L 519 4475 
Q 925 4609 1322 4679 
Q 1719 4750 2100 4750 
Q 2938 4750 3402 4381 
Q 3866 4013 3866 3353 
Q 3866 2972 3669 2642 
Q 3472 2313 2841 1759 
L 1844 884 
z
" transform="scale(0.015625)"/>
      <path id="DejaVuSans-Bold-2b" d="M 3053 4013 
L 3053 2375 
L 4684 2375 
L 4684 1638 
L 3053 1638 
L 3053 0 
L 2309 0 
L 2309 1638 
L 678 1638 
L 678 2375 
L 2309 2375 
L 2309 4013 
L 3053 4013 
z
" transform="scale(0.015625)"/>
      <path id="DejaVuSans-Bold-34" d="M 2356 3675 
L 1038 1722 
L 2356 1722 
L 2356 3675 
z
M 2156 4666 
L 3494 4666 
L 3494 1722 
L 4159 1722 
L 4159 850 
L 3494 850 
L 3494 0 
L 2356 0 
L 2356 850 
L 288 850 
L 288 1881 
L 2156 4666 
z
" transform="scale(0.015625)"/>
      <path id="DejaVuSans-Bold-41" d="M 3419 850 
L 1538 850 
L 1241 0 
L 31 0 
L 1759 4666 
L 3194 4666 
L 4922 0 
L 3713 0 
L 3419 850 
z
M 1838 1716 
L 3116 1716 
L 2478 3572 
L 1838 1716 
z
" transform="scale(0.015625)"/>
      <path id="DejaVuSans-Bold-4e" d="M 588 4666 
L 1931 4666 
L 3628 1466 
L 3628 4666 
L 4769 4666 
L 4769 0 
L 3425 0 
L 1728 3200 
L 1728 0 
L 588 0 
L 588 4666 
z
" transform="scale(0.015625)"/>
      <path id="DejaVuSans-Bold-53" d="M 3834 4519 
L 3834 3531 
Q 3450 3703 3084 3790 
Q 2719 3878 2394 3878 
Q 1963 3878 1756 3759 
Q 1550 3641 1550 3391 
Q 1550 3203 1689 3098 
Q 1828 2994 2194 2919 
L 2706 2816 
Q 3484 2659 3812 2340 
Q 4141 2022 4141 1434 
Q 4141 663 3683 286 
Q 3225 -91 2284 -91 
Q 1841 -91 1394 -6 
Q 947 78 500 244 
L 500 1259 
Q 947 1022 1364 901 
Q 1781 781 2169 781 
Q 2563 781 2772 912 
Q 2981 1044 2981 1288 
Q 2981 1506 2839 1625 
Q 2697 1744 2272 1838 
L 1806 1941 
Q 1106 2091 782 2419 
Q 459 2747 459 3303 
Q 459 4000 909 4375 
Q 1359 4750 2203 4750 
Q 2588 4750 2994 4692 
Q 3400 4634 3834 4519 
z
" transform="scale(0.015625)"/>
      <path id="DejaVuSans-Bold-49" d="M 588 4666 
L 1791 4666 
L 1791 0 
L 588 0 
L 588 4666 
z
" transform="scale(0.015625)"/>
      <path id="DejaVuSans-Bold-73" d="M 3272 3391 
L 3272 2541 
Q 2913 2691 2578 2766 
Q 2244 2841 1947 2841 
Q 1628 2841 1473 2761 
Q 1319 2681 1319 2516 
Q 1319 2381 1436 2309 
Q 1553 2238 1856 2203 
L 2053 2175 
Q 2913 2066 3209 1816 
Q 3506 1566 3506 1031 
Q 3506 472 3093 190 
Q 2681 -91 1863 -91 
Q 1516 -91 1145 -36 
Q 775 19 384 128 
L 384 978 
Q 719 816 1070 734 
Q 1422 653 1784 653 
Q 2113 653 2278 743 
Q 2444 834 2444 1013 
Q 2444 1163 2330 1236 
Q 2216 1309 1875 1350 
L 1678 1375 
Q 931 1469 631 1722 
Q 331 1975 331 2491 
Q 331 3047 712 3315 
Q 1094 3584 1881 3584 
Q 2191 3584 2531 3537 
Q 2872 3491 3272 3391 
z
" transform="scale(0.015625)"/>
      <path id="DejaVuSans-Bold-4f" d="M 2719 3878 
Q 2169 3878 1866 3472 
Q 1563 3066 1563 2328 
Q 1563 1594 1866 1187 
Q 2169 781 2719 781 
Q 3272 781 3575 1187 
Q 3878 1594 3878 2328 
Q 3878 3066 3575 3472 
Q 3272 3878 2719 3878 
z
M 2719 4750 
Q 3844 4750 4481 4106 
Q 5119 3463 5119 2328 
Q 5119 1197 4481 553 
Q 3844 -91 2719 -91 
Q 1597 -91 958 553 
Q 319 1197 319 2328 
Q 319 3463 958 4106 
Q 1597 4750 2719 4750 
z
" transform="scale(0.015625)"/>
      <path id="DejaVuSans-Bold-6b" d="M 538 4863 
L 1656 4863 
L 1656 2216 
L 2944 3500 
L 4244 3500 
L 2534 1894 
L 4378 0 
L 3022 0 
L 1656 1459 
L 1656 0 
L 538 0 
L 538 4863 
z
" transform="scale(0.015625)"/>
      <path id="DejaVuSans-Bold-62" d="M 2400 722 
Q 2759 722 2948 984 
Q 3138 1247 3138 1747 
Q 3138 2247 2948 2509 
Q 2759 2772 2400 2772 
Q 2041 2772 1848 2508 
Q 1656 2244 1656 1747 
Q 1656 1250 1848 986 
Q 2041 722 2400 722 
z
M 1656 2988 
Q 1888 3294 2169 3439 
Q 2450 3584 2816 3584 
Q 3463 3584 3878 3070 
Q 4294 2556 4294 1747 
Q 4294 938 3878 423 
Q 3463 -91 2816 -91 
Q 2450 -91 2169 54 
Q 1888 200 1656 506 
L 1656 0 
L 538 0 
L 538 4863 
L 1656 4863 
L 1656 2988 
z
" transform="scale(0.015625)"/>
     </defs>
     <use xlink:href="#DejaVuSans-Bold-54"/>
     <use xlink:href="#DejaVuSans-Bold-65" x="54.962891"/>
     <use xlink:href="#DejaVuSans-Bold-72" x="122.785156"/>
     <use xlink:href="#DejaVuSans-Bold-6d" x="172.101562"/>
     <use xlink:href="#DejaVuSans-Bold-69" x="276.300781"/>
     <use xlink:href="#DejaVuSans-Bold-6e" x="310.578125"/>
     <use xlink:href="#DejaVuSans-Bold-61" x="381.769531"/>
     <use xlink:href="#DejaVuSans-Bold-6c" x="449.25"/>
     <use xlink:href="#DejaVuSans-Bold-2e" x="483.527344"/>
     <use xlink:href="#DejaVuSans-Bold-61" x="521.515625"/>
     <use xlink:href="#DejaVuSans-Bold-70" x="588.996094"/>
     <use xlink:href="#DejaVuSans-Bold-70" x="660.578125"/>
     <use xlink:href="#DejaVuSans-Bold-3a" x="732.160156"/>
     <use xlink:href="#DejaVuSans-Bold-20" x="772.150391"/>
     <use xlink:href="#DejaVuSans-Bold-48" x="806.964844"/>
     <use xlink:href="#DejaVuSans-Bold-75" x="890.65625"/>
     <use xlink:href="#DejaVuSans-Bold-65" x="961.847656"/>
     <use xlink:href="#DejaVuSans-Bold-20" x="1029.669922"/>
     <use xlink:href="#DejaVuSans-Bold-26" x="1064.484375"/>
     <use xlink:href="#DejaVuSans-Bold-20" x="1151.691406"/>
     <use xlink:href="#DejaVuSans-Bold-43" x="1186.505859"/>
     <use xlink:href="#DejaVuSans-Bold-68" x="1259.894531"/>
     <use xlink:href="#DejaVuSans-Bold-72" x="1331.085938"/>
     <use xlink:href="#DejaVuSans-Bold-6f" x="1380.402344"/>
     <use xlink:href="#DejaVuSans-Bold-6d" x="1449.103516"/>
     <use xlink:href="#DejaVuSans-Bold-61" x="1553.302734"/>
     <use xlink:href="#DejaVuSans-Bold-20" x="1620.783203"/>
     <use xlink:href="#DejaVuSans-Bold-66" x="1655.597656"/>
     <use xlink:href="#DejaVuSans-Bold-6f" x="1699.103516"/>
     <use xlink:href="#DejaVuSans-Bold-72" x="1767.804688"/>
     <use xlink:href="#DejaVuSans-Bold-20" x="1817.121094"/>
     <use xlink:href="#DejaVuSans-Bold-31" x="1851.935547"/>
     <use xlink:href="#DejaVuSans-Bold-32" x="1921.515625"/>
     <use xlink:href="#DejaVuSans-Bold-2b" x="1991.095703"/>
     <use xlink:href="#DejaVuSans-Bold-34" x="2074.884766"/>
     <use xlink:href="#DejaVuSans-Bold-20" x="2144.464844"/>
     <use xlink:href="#DejaVuSans-Bold-41" x="2179.279297"/>
     <use xlink:href="#DejaVuSans-Bold-4e" x="2256.671875"/>
     <use xlink:href="#DejaVuSans-Bold-53" x="2340.363281"/>
     <use xlink:href="#DejaVuSans-Bold-49" x="2412.384766"/>
     <use xlink:href="#DejaVuSans-Bold-20" x="2449.591797"/>
     <use xlink:href="#DejaVuSans-Bold-43" x="2484.40625"/>
     <use xlink:href="#DejaVuSans-Bold-6f" x="2557.794922"/>
     <use xlink:href="#DejaVuSans-Bold-6c" x="2626.496094"/>
     <use xlink:href="#DejaVuSans-Bold-6f" x="2660.773438"/>
     <use xlink:href="#DejaVuSans-Bold-72" x="2729.474609"/>
     <use xlink:href="#DejaVuSans-Bold-73" x="2778.791016"/>
     <use xlink:href="#DejaVuSans-Bold-20" x="2838.3125"/>
     <use xlink:href="#DejaVuSans-Bold-69" x="2873.126953"/>
     <use xlink:href="#DejaVuSans-Bold-6e" x="2907.404297"/>
     <use xlink:href="#DejaVuSans-Bold-20" x="2978.595703"/>
     <use xlink:href="#DejaVuSans-Bold-4f" x="3013.410156"/>
     <use xlink:href="#DejaVuSans-Bold-6b" x="3098.419922"/>
     <use xlink:href="#DejaVuSans-Bold-6c" x="3164.923828"/>
     <use xlink:href="#DejaVuSans-Bold-61" x="3199.201172"/>
     <use xlink:href="#DejaVuSans-Bold-62" x="3266.681641"/>
    </g>
   </g>
  </g>
 </g>
 <defs>
  <clipPath id="pa2241965be">
   <path d="M 346.094062 188.757188 
C 346.094062 170.556402 342.508905 152.532597 335.543766 135.717264 
C 328.578627 118.901931 318.368961 103.622086 305.499062 90.752188 
C 292.629164 77.882289 277.349319 67.672623 260.533986 60.707484 
C 243.718653 53.742345 225.694848 50.157188 207.494062 50.157188 
C 189.293277 50.157188 171.269472 53.742345 154.454139 60.707484 
C 137.638806 67.672623 122.358961 77.882289 109.489063 90.752188 
C 96.619164 103.622086 86.409498 118.901931 79.444359 135.717264 
C 72.47922 152.532597 68.894062 170.556402 68.894062 188.757188 
C 68.894062 206.957973 72.47922 224.981778 79.444359 241.797111 
C 86.409498 258.612444 96.619164 273.892289 109.489063 286.762187 
C 122.358961 299.632086 137.638806 309.841752 154.454139 316.806891 
C 171.269472 323.77203 189.293277 327.357188 207.494062 327.357188 
C 225.694848 327.357188 243.718653 323.77203 260.533986 316.806891 
C 277.349319 309.841752 292.629164 299.632086 305.499062 286.762187 
C 318.368961 273.892289 328.578627 258.612444 335.543766 241.797111 
C 342.508905 224.981778 346.094062 206.957973 346.094062 188.757188 
M 207.494062 188.757188 
C 207.494062 188.757188 207.494062 188.757188 207.494062 188.757188 
C 207.494062 188.757188 207.494062 188.757188 207.494062 188.757188 
C 207.494062 188.757188 207.494062 188.757188 207.494062 188.757188 
C 207.494062 188.757188 207.494062 188.757188 207.494062 188.757188 
C 207.494062 188.757188 207.494062 188.757188 207.494062 188.757188 
C 207.494062 188.757188 207.494062 188.757188 207.494062 188.757188 
C 207.494062 188.757188 207.494062 188.757188 207.494062 188.757188 
C 207.494062 188.757188 207.494062 188.757188 207.494062 188.757188 
C 207.494062 188.757188 207.494062 188.757188 207.494062 188.757188 
C 207.494062 188.757188 207.494062 188.757188 207.494062 188.757188 
C 207.494062 188.757188 207.494062 188.757188 207.494062 188.757188 
C 207.494062 188.757188 207.494062 188.757188 207.494062 188.757188 
C 207.494062 188.757188 207.494062 188.757188 207.494062 188.757188 
C 207.494062 188.757188 207.494062 188.757188 207.494062 188.757188 
C 207.494062 188.757188 207.494062 188.757188 207.494062 188.757188 
C 207.494062 188.757188 207.494062 188.757188 207.494062 188.757188 
z
"/>
  </clipPath>
 </defs>
</svg>
