<?xml version="1.0" encoding="utf-8" standalone="no"?>
<!DOCTYPE svg PUBLIC "-//W3C//DTD SVG 1.1//EN"
  "http://www.w3.org/Graphics/SVG/1.1/DTD/svg11.dtd">
<svg xmlns:xlink="http://www.w3.org/1999/xlink" width="360pt" height="396pt" viewBox="0 0 360 396" xmlns="http://www.w3.org/2000/svg" version="1.1">
 <metadata>
  <rdf:RDF xmlns:dc="http://purl.org/dc/elements/1.1/" xmlns:cc="http://creativecommons.org/ns#" xmlns:rdf="http://www.w3.org/1999/02/22-rdf-syntax-ns#">
   <cc:Work>
    <dc:type rdf:resource="http://purl.org/dc/dcmitype/StillImage"/>
    <dc:date>2024-06-20T20:21:09.033914</dc:date>
    <dc:format>image/svg+xml</dc:format>
    <dc:creator>
     <cc:Agent>
      <dc:title>Matplotlib v3.9.0, https://matplotlib.org/</dc:title>
     </cc:Agent>
    </dc:creator>
   </cc:Work>
  </rdf:RDF>
 </metadata>
 <defs>
  <style type="text/css">*{stroke-linejoin: round; stroke-linecap: butt}</style>
 </defs>
 <g id="figure_1">
  <g id="patch_1">
   <path d="M 0 396 
L 360 396 
L 360 0 
L 0 0 
z
" style="fill: #ffffff"/>
  </g>
  <g id="axes_1">
   <g id="patch_2">
    <path d="M 324 199.98 
C 324 181.661028 320.391562 163.520185 313.381195 146.595661 
C 306.370828 129.671138 296.094865 114.292073 283.141396 101.338604 
C 270.187927 88.385135 254.808862 78.109172 237.884339 71.098805 
C 220.959815 64.088438 202.818972 60.48 184.5 60.48 
C 166.181028 60.48 148.040185 64.088438 131.115661 71.098805 
C 114.191138 78.109172 98.812073 88.385135 85.858604 101.338604 
C 72.905135 114.292073 62.629172 129.671138 55.618805 146.595661 
C 48.608438 163.520185 45 181.661028 45 199.98 
C 45 218.298972 48.608438 236.439815 55.618805 253.364339 
C 62.629172 270.288862 72.905135 285.667927 85.858604 298.621396 
C 98.812073 311.574865 114.191138 321.850828 131.115661 328.861195 
C 148.040185 335.871562 166.181028 339.48 184.5 339.48 
C 202.818972 339.48 220.959815 335.871562 237.884339 328.861195 
C 254.808862 321.850828 270.187927 311.574865 283.141396 298.621396 
C 296.094865 285.667927 306.370828 270.288862 313.381195 253.364339 
C 320.391562 236.439815 324 218.298972 324 199.98 
M 184.5 199.98 
C 184.5 199.98 184.5 199.98 184.5 199.98 
C 184.5 199.98 184.5 199.98 184.5 199.98 
C 184.5 199.98 184.5 199.98 184.5 199.98 
C 184.5 199.98 184.5 199.98 184.5 199.98 
C 184.5 199.98 184.5 199.98 184.5 199.98 
C 184.5 199.98 184.5 199.98 184.5 199.98 
C 184.5 199.98 184.5 199.98 184.5 199.98 
C 184.5 199.98 184.5 199.98 184.5 199.98 
C 184.5 199.98 184.5 199.98 184.5 199.98 
C 184.5 199.98 184.5 199.98 184.5 199.98 
C 184.5 199.98 184.5 199.98 184.5 199.98 
C 184.5 199.98 184.5 199.98 184.5 199.98 
C 184.5 199.98 184.5 199.98 184.5 199.98 
C 184.5 199.98 184.5 199.98 184.5 199.98 
C 184.5 199.98 184.5 199.98 184.5 199.98 
C 184.5 199.98 184.5 199.98 184.5 199.98 
z
" style="fill: #ffffff"/>
   </g>
   <g id="matplotlib.axis_1">
    <g id="xtick_1">
     <g id="line2d_1">
      <path d="M 184.5 199.98 
L 324 199.98 
" clip-path="url(#p72831619fd)" style="fill: none; stroke: #b0b0b0; stroke-width: 0.8; stroke-linecap: square"/>
     </g>
     <g id="text_1">
      <!-- 0° -->
      <g transform="translate(332.31875 202.739375) scale(0.1 -0.1)">
       <defs>
        <path id="DejaVuSans-30" d="M 2034 4250 
Q 1547 4250 1301 3770 
Q 1056 3291 1056 2328 
Q 1056 1369 1301 889 
Q 1547 409 2034 409 
Q 2525 409 2770 889 
Q 3016 1369 3016 2328 
Q 3016 3291 2770 3770 
Q 2525 4250 2034 4250 
z
M 2034 4750 
Q 2819 4750 3233 4129 
Q 3647 3509 3647 2328 
Q 3647 1150 3233 529 
Q 2819 -91 2034 -91 
Q 1250 -91 836 529 
Q 422 1150 422 2328 
Q 422 3509 836 4129 
Q 1250 4750 2034 4750 
z
" transform="scale(0.015625)"/>
        <path id="DejaVuSans-b0" d="M 1600 4347 
Q 1350 4347 1178 4173 
Q 1006 4000 1006 3750 
Q 1006 3503 1178 3333 
Q 1350 3163 1600 3163 
Q 1850 3163 2022 3333 
Q 2194 3503 2194 3750 
Q 2194 3997 2020 4172 
Q 1847 4347 1600 4347 
z
M 1600 4750 
Q 1800 4750 1984 4673 
Q 2169 4597 2303 4453 
Q 2447 4313 2519 4134 
Q 2591 3956 2591 3750 
Q 2591 3338 2302 3052 
Q 2013 2766 1594 2766 
Q 1172 2766 890 3047 
Q 609 3328 609 3750 
Q 609 4169 896 4459 
Q 1184 4750 1600 4750 
z
" transform="scale(0.015625)"/>
       </defs>
       <use xlink:href="#DejaVuSans-30"/>
       <use xlink:href="#DejaVuSans-b0" x="63.623047"/>
      </g>
     </g>
    </g>
    <g id="xtick_2">
     <g id="line2d_2">
      <path d="M 184.5 199.98 
L 283.141396 101.338604 
" clip-path="url(#p72831619fd)" style="fill: none; stroke: #b0b0b0; stroke-width: 0.8; stroke-linecap: square"/>
     </g>
     <g id="text_2">
      <!-- 45° -->
      <g transform="translate(284.178391 94.198484) scale(0.1 -0.1)">
       <defs>
        <path id="DejaVuSans-34" d="M 2419 4116 
L 825 1625 
L 2419 1625 
L 2419 4116 
z
M 2253 4666 
L 3047 4666 
L 3047 1625 
L 3713 1625 
L 3713 1100 
L 3047 1100 
L 3047 0 
L 2419 0 
L 2419 1100 
L 313 1100 
L 313 1709 
L 2253 4666 
z
" transform="scale(0.015625)"/>
        <path id="DejaVuSans-35" d="M 691 4666 
L 3169 4666 
L 3169 4134 
L 1269 4134 
L 1269 2991 
Q 1406 3038 1543 3061 
Q 1681 3084 1819 3084 
Q 2600 3084 3056 2656 
Q 3513 2228 3513 1497 
Q 3513 744 3044 326 
Q 2575 -91 1722 -91 
Q 1428 -91 1123 -41 
Q 819 9 494 109 
L 494 744 
Q 775 591 1075 516 
Q 1375 441 1709 441 
Q 2250 441 2565 725 
Q 2881 1009 2881 1497 
Q 2881 1984 2565 2268 
Q 2250 2553 1709 2553 
Q 1456 2553 1204 2497 
Q 953 2441 691 2322 
L 691 4666 
z
" transform="scale(0.015625)"/>
       </defs>
       <use xlink:href="#DejaVuSans-34"/>
       <use xlink:href="#DejaVuSans-35" x="63.623047"/>
       <use xlink:href="#DejaVuSans-b0" x="127.246094"/>
      </g>
     </g>
    </g>
    <g id="xtick_3">
     <g id="line2d_3">
      <path d="M 184.5 199.98 
L 184.5 60.48 
" clip-path="url(#p72831619fd)" style="fill: none; stroke: #b0b0b0; stroke-width: 0.8; stroke-linecap: square"/>
     </g>
     <g id="text_3">
      <!-- 90° -->
      <g transform="translate(175.6375 49.239375) scale(0.1 -0.1)">
       <defs>
        <path id="DejaVuSans-39" d="M 703 97 
L 703 672 
Q 941 559 1184 500 
Q 1428 441 1663 441 
Q 2288 441 2617 861 
Q 2947 1281 2994 2138 
Q 2813 1869 2534 1725 
Q 2256 1581 1919 1581 
Q 1219 1581 811 2004 
Q 403 2428 403 3163 
Q 403 3881 828 4315 
Q 1253 4750 1959 4750 
Q 2769 4750 3195 4129 
Q 3622 3509 3622 2328 
Q 3622 1225 3098 567 
Q 2575 -91 1691 -91 
Q 1453 -91 1209 -44 
Q 966 3 703 97 
z
M 1959 2075 
Q 2384 2075 2632 2365 
Q 2881 2656 2881 3163 
Q 2881 3666 2632 3958 
Q 2384 4250 1959 4250 
Q 1534 4250 1286 3958 
Q 1038 3666 1038 3163 
Q 1038 2656 1286 2365 
Q 1534 2075 1959 2075 
z
" transform="scale(0.015625)"/>
       </defs>
       <use xlink:href="#DejaVuSans-39"/>
       <use xlink:href="#DejaVuSans-30" x="63.623047"/>
       <use xlink:href="#DejaVuSans-b0" x="127.246094"/>
      </g>
     </g>
    </g>
    <g id="xtick_4">
     <g id="line2d_4">
      <path d="M 184.5 199.98 
L 85.858604 101.338604 
" clip-path="url(#p72831619fd)" style="fill: none; stroke: #b0b0b0; stroke-width: 0.8; stroke-linecap: square"/>
     </g>
     <g id="text_4">
      <!-- 135° -->
      <g transform="translate(63.915359 94.198484) scale(0.1 -0.1)">
       <defs>
        <path id="DejaVuSans-31" d="M 794 531 
L 1825 531 
L 1825 4091 
L 703 3866 
L 703 4441 
L 1819 4666 
L 2450 4666 
L 2450 531 
L 3481 531 
L 3481 0 
L 794 0 
L 794 531 
z
" transform="scale(0.015625)"/>
        <path id="DejaVuSans-33" d="M 2597 2516 
Q 3050 2419 3304 2112 
Q 3559 1806 3559 1356 
Q 3559 666 3084 287 
Q 2609 -91 1734 -91 
Q 1441 -91 1130 -33 
Q 819 25 488 141 
L 488 750 
Q 750 597 1062 519 
Q 1375 441 1716 441 
Q 2309 441 2620 675 
Q 2931 909 2931 1356 
Q 2931 1769 2642 2001 
Q 2353 2234 1838 2234 
L 1294 2234 
L 1294 2753 
L 1863 2753 
Q 2328 2753 2575 2939 
Q 2822 3125 2822 3475 
Q 2822 3834 2567 4026 
Q 2313 4219 1838 4219 
Q 1578 4219 1281 4162 
Q 984 4106 628 3988 
L 628 4550 
Q 988 4650 1302 4700 
Q 1616 4750 1894 4750 
Q 2613 4750 3031 4423 
Q 3450 4097 3450 3541 
Q 3450 3153 3228 2886 
Q 3006 2619 2597 2516 
z
" transform="scale(0.015625)"/>
       </defs>
       <use xlink:href="#DejaVuSans-31"/>
       <use xlink:href="#DejaVuSans-33" x="63.623047"/>
       <use xlink:href="#DejaVuSans-35" x="127.246094"/>
       <use xlink:href="#DejaVuSans-b0" x="190.869141"/>
      </g>
     </g>
    </g>
    <g id="xtick_5">
     <g id="line2d_5">
      <path d="M 184.5 199.98 
L 45 199.98 
" clip-path="url(#p72831619fd)" style="fill: none; stroke: #b0b0b0; stroke-width: 0.8; stroke-linecap: square"/>
     </g>
     <g id="text_5">
      <!-- 180° -->
      <g transform="translate(18.95625 202.739375) scale(0.1 -0.1)">
       <defs>
        <path id="DejaVuSans-38" d="M 2034 2216 
Q 1584 2216 1326 1975 
Q 1069 1734 1069 1313 
Q 1069 891 1326 650 
Q 1584 409 2034 409 
Q 2484 409 2743 651 
Q 3003 894 3003 1313 
Q 3003 1734 2745 1975 
Q 2488 2216 2034 2216 
z
M 1403 2484 
Q 997 2584 770 2862 
Q 544 3141 544 3541 
Q 544 4100 942 4425 
Q 1341 4750 2034 4750 
Q 2731 4750 3128 4425 
Q 3525 4100 3525 3541 
Q 3525 3141 3298 2862 
Q 3072 2584 2669 2484 
Q 3125 2378 3379 2068 
Q 3634 1759 3634 1313 
Q 3634 634 3220 271 
Q 2806 -91 2034 -91 
Q 1263 -91 848 271 
Q 434 634 434 1313 
Q 434 1759 690 2068 
Q 947 2378 1403 2484 
z
M 1172 3481 
Q 1172 3119 1398 2916 
Q 1625 2713 2034 2713 
Q 2441 2713 2670 2916 
Q 2900 3119 2900 3481 
Q 2900 3844 2670 4047 
Q 2441 4250 2034 4250 
Q 1625 4250 1398 4047 
Q 1172 3844 1172 3481 
z
" transform="scale(0.015625)"/>
       </defs>
       <use xlink:href="#DejaVuSans-31"/>
       <use xlink:href="#DejaVuSans-38" x="63.623047"/>
       <use xlink:href="#DejaVuSans-30" x="127.246094"/>
       <use xlink:href="#DejaVuSans-b0" x="190.869141"/>
      </g>
     </g>
    </g>
    <g id="xtick_6">
     <g id="line2d_6">
      <path d="M 184.5 199.98 
L 85.858604 298.621396 
" clip-path="url(#p72831619fd)" style="fill: none; stroke: #b0b0b0; stroke-width: 0.8; stroke-linecap: square"/>
     </g>
     <g id="text_6">
      <!-- 225° -->
      <g transform="translate(63.915359 311.280266) scale(0.1 -0.1)">
       <defs>
        <path id="DejaVuSans-32" d="M 1228 531 
L 3431 531 
L 3431 0 
L 469 0 
L 469 531 
Q 828 903 1448 1529 
Q 2069 2156 2228 2338 
Q 2531 2678 2651 2914 
Q 2772 3150 2772 3378 
Q 2772 3750 2511 3984 
Q 2250 4219 1831 4219 
Q 1534 4219 1204 4116 
Q 875 4013 500 3803 
L 500 4441 
Q 881 4594 1212 4672 
Q 1544 4750 1819 4750 
Q 2544 4750 2975 4387 
Q 3406 4025 3406 3419 
Q 3406 3131 3298 2873 
Q 3191 2616 2906 2266 
Q 2828 2175 2409 1742 
Q 1991 1309 1228 531 
z
" transform="scale(0.015625)"/>
       </defs>
       <use xlink:href="#DejaVuSans-32"/>
       <use xlink:href="#DejaVuSans-32" x="63.623047"/>
       <use xlink:href="#DejaVuSans-35" x="127.246094"/>
       <use xlink:href="#DejaVuSans-b0" x="190.869141"/>
      </g>
     </g>
    </g>
    <g id="xtick_7">
     <g id="line2d_7">
      <path d="M 184.5 199.98 
L 184.5 339.48 
" clip-path="url(#p72831619fd)" style="fill: none; stroke: #b0b0b0; stroke-width: 0.8; stroke-linecap: square"/>
     </g>
     <g id="text_7">
      <!-- 270° -->
      <g transform="translate(172.45625 356.239375) scale(0.1 -0.1)">
       <defs>
        <path id="DejaVuSans-37" d="M 525 4666 
L 3525 4666 
L 3525 4397 
L 1831 0 
L 1172 0 
L 2766 4134 
L 525 4134 
L 525 4666 
z
" transform="scale(0.015625)"/>
       </defs>
       <use xlink:href="#DejaVuSans-32"/>
       <use xlink:href="#DejaVuSans-37" x="63.623047"/>
       <use xlink:href="#DejaVuSans-30" x="127.246094"/>
       <use xlink:href="#DejaVuSans-b0" x="190.869141"/>
      </g>
     </g>
    </g>
    <g id="xtick_8">
     <g id="line2d_8">
      <path d="M 184.5 199.98 
L 283.141396 298.621396 
" clip-path="url(#p72831619fd)" style="fill: none; stroke: #b0b0b0; stroke-width: 0.8; stroke-linecap: square"/>
     </g>
     <g id="text_8">
      <!-- 315° -->
      <g transform="translate(280.997141 311.280266) scale(0.1 -0.1)">
       <use xlink:href="#DejaVuSans-33"/>
       <use xlink:href="#DejaVuSans-31" x="63.623047"/>
       <use xlink:href="#DejaVuSans-35" x="127.246094"/>
       <use xlink:href="#DejaVuSans-b0" x="190.869141"/>
      </g>
     </g>
    </g>
   </g>
   <g id="matplotlib.axis_2">
    <g id="ytick_1">
     <g id="line2d_9">
      <path d="M 207.75 199.98 
C 207.75 196.926838 207.148594 193.903364 205.980199 191.08261 
C 204.811805 188.261856 203.099144 185.698679 200.940233 183.539767 
C 198.781321 181.380856 196.218144 179.668195 193.39739 178.499801 
C 190.576636 177.331406 187.553162 176.73 184.5 176.73 
C 181.446838 176.73 178.423364 177.331406 175.60261 178.499801 
C 172.781856 179.668195 170.218679 181.380856 168.059767 183.539767 
C 165.900856 185.698679 164.188195 188.261856 163.019801 191.08261 
C 161.851406 193.903364 161.25 196.926838 161.25 199.98 
C 161.25 203.033162 161.851406 206.056636 163.019801 208.87739 
C 164.188195 211.698144 165.900856 214.261321 168.059767 216.420233 
C 170.218679 218.579144 172.781856 220.291805 175.60261 221.460199 
C 178.423364 222.628594 181.446838 223.23 184.5 223.23 
C 187.553162 223.23 190.576636 222.628594 193.39739 221.460199 
C 196.218144 220.291805 198.781321 218.579144 200.940233 216.420233 
C 203.099144 214.261321 204.811805 211.698144 205.980199 208.87739 
C 207.148594 206.056636 207.75 203.033162 207.75 199.98 
" clip-path="url(#p72831619fd)" style="fill: none; stroke: #b0b0b0; stroke-width: 0.8; stroke-linecap: square"/>
     </g>
    </g>
    <g id="ytick_2">
     <g id="line2d_10">
      <path d="M 231 199.98 
C 231 193.873676 229.797187 187.826728 227.460398 182.18522 
C 225.123609 176.543713 221.698288 171.417358 217.380465 167.099535 
C 213.062642 162.781712 207.936287 159.356391 202.29478 157.019602 
C 196.653272 154.682813 190.606324 153.48 184.5 153.48 
C 178.393676 153.48 172.346728 154.682813 166.70522 157.019602 
C 161.063713 159.356391 155.937358 162.781712 151.619535 167.099535 
C 147.301712 171.417358 143.876391 176.543713 141.539602 182.18522 
C 139.202813 187.826728 138 193.873676 138 199.98 
C 138 206.086324 139.202813 212.133272 141.539602 217.77478 
C 143.876391 223.416287 147.301712 228.542642 151.619535 232.860465 
C 155.937358 237.178288 161.063713 240.603609 166.70522 242.940398 
C 172.346728 245.277187 178.393676 246.48 184.5 246.48 
C 190.606324 246.48 196.653272 245.277187 202.29478 242.940398 
C 207.936287 240.603609 213.062642 237.178288 217.380465 232.860465 
C 221.698288 228.542642 225.123609 223.416287 227.460398 217.77478 
C 229.797187 212.133272 231 206.086324 231 199.98 
" clip-path="url(#p72831619fd)" style="fill: none; stroke: #b0b0b0; stroke-width: 0.8; stroke-linecap: square"/>
     </g>
     <g id="text_9">
      <!-- 0.1 -->
      <g transform="translate(223.048438 197.900312) scale(0.1 -0.1)">
       <defs>
        <path id="DejaVuSans-2e" d="M 684 794 
L 1344 794 
L 1344 0 
L 684 0 
L 684 794 
z
" transform="scale(0.015625)"/>
       </defs>
       <use xlink:href="#DejaVuSans-30"/>
       <use xlink:href="#DejaVuSans-2e" x="63.623047"/>
       <use xlink:href="#DejaVuSans-31" x="95.410156"/>
      </g>
     </g>
    </g>
    <g id="ytick_3">
     <g id="line2d_11">
      <path d="M 254.25 199.98 
C 254.25 190.820514 252.445781 181.750092 248.940597 173.287831 
C 245.435414 164.825569 240.297433 157.136037 233.820698 150.659302 
C 227.343963 144.182567 219.654431 139.044586 211.192169 135.539403 
C 202.729908 132.034219 193.659486 130.23 184.5 130.23 
C 175.340514 130.23 166.270092 132.034219 157.807831 135.539403 
C 149.345569 139.044586 141.656037 144.182567 135.179302 150.659302 
C 128.702567 157.136037 123.564586 164.825569 120.059403 173.287831 
C 116.554219 181.750092 114.75 190.820514 114.75 199.98 
C 114.75 209.139486 116.554219 218.209908 120.059403 226.672169 
C 123.564586 235.134431 128.702567 242.823963 135.179302 249.300698 
C 141.656037 255.777433 149.345569 260.915414 157.807831 264.420597 
C 166.270092 267.925781 175.340514 269.73 184.5 269.73 
C 193.659486 269.73 202.729908 267.925781 211.192169 264.420597 
C 219.654431 260.915414 227.343963 255.777433 233.820698 249.300698 
C 240.297433 242.823963 245.435414 235.134431 248.940597 226.672169 
C 252.445781 218.209908 254.25 209.139486 254.25 199.98 
" clip-path="url(#p72831619fd)" style="fill: none; stroke: #b0b0b0; stroke-width: 0.8; stroke-linecap: square"/>
     </g>
    </g>
    <g id="ytick_4">
     <g id="line2d_12">
      <path d="M 277.5 199.98 
C 277.5 187.767352 275.094375 175.673456 270.420797 164.390441 
C 265.747218 153.107425 258.896577 142.854716 250.260931 134.219069 
C 241.625284 125.583423 231.372575 118.732782 220.089559 114.059203 
C 208.806544 109.385625 196.712648 106.98 184.5 106.98 
C 172.287352 106.98 160.193456 109.385625 148.910441 114.059203 
C 137.627425 118.732782 127.374716 125.583423 118.739069 134.219069 
C 110.103423 142.854716 103.252782 153.107425 98.579203 164.390441 
C 93.905625 175.673456 91.5 187.767352 91.5 199.98 
C 91.5 212.192648 93.905625 224.286544 98.579203 235.569559 
C 103.252782 246.852575 110.103423 257.105284 118.739069 265.740931 
C 127.374716 274.376577 137.627425 281.227218 148.910441 285.900797 
C 160.193456 290.574375 172.287352 292.98 184.5 292.98 
C 196.712648 292.98 208.806544 290.574375 220.089559 285.900797 
C 231.372575 281.227218 241.625284 274.376577 250.260931 265.740931 
C 258.896577 257.105284 265.747218 246.852575 270.420797 235.569559 
C 275.094375 224.286544 277.5 212.192648 277.5 199.98 
" clip-path="url(#p72831619fd)" style="fill: none; stroke: #b0b0b0; stroke-width: 0.8; stroke-linecap: square"/>
     </g>
     <g id="text_10">
      <!-- 0.2 -->
      <g transform="translate(269.548437 197.900312) scale(0.1 -0.1)">
       <use xlink:href="#DejaVuSans-30"/>
       <use xlink:href="#DejaVuSans-2e" x="63.623047"/>
       <use xlink:href="#DejaVuSans-32" x="95.410156"/>
      </g>
     </g>
    </g>
    <g id="ytick_5">
     <g id="line2d_13">
      <path d="M 300.75 199.98 
C 300.75 184.71419 297.742968 169.596821 291.900996 155.493051 
C 286.059023 141.389281 277.495721 128.573395 266.701163 117.778837 
C 255.906605 106.984279 243.090719 98.420977 228.986949 92.579004 
C 214.883179 86.737032 199.76581 83.73 184.5 83.73 
C 169.23419 83.73 154.116821 86.737032 140.013051 92.579004 
C 125.909281 98.420977 113.093395 106.984279 102.298837 117.778837 
C 91.504279 128.573395 82.940977 141.389281 77.099004 155.493051 
C 71.257032 169.596821 68.25 184.71419 68.25 199.98 
C 68.25 215.24581 71.257032 230.363179 77.099004 244.466949 
C 82.940977 258.570719 91.504279 271.386605 102.298837 282.181163 
C 113.093395 292.975721 125.909281 301.539023 140.013051 307.380996 
C 154.116821 313.222968 169.23419 316.23 184.5 316.23 
C 199.76581 316.23 214.883179 313.222968 228.986949 307.380996 
C 243.090719 301.539023 255.906605 292.975721 266.701163 282.181163 
C 277.495721 271.386605 286.059023 258.570719 291.900996 244.466949 
C 297.742968 230.363179 300.75 215.24581 300.75 199.98 
" clip-path="url(#p72831619fd)" style="fill: none; stroke: #b0b0b0; stroke-width: 0.8; stroke-linecap: square"/>
     </g>
    </g>
    <g id="ytick_6">
     <g id="line2d_14">
      <path d="M 324 199.98 
C 324 181.661028 320.391562 163.520185 313.381195 146.595661 
C 306.370828 129.671138 296.094865 114.292073 283.141396 101.338604 
C 270.187927 88.385135 254.808862 78.109172 237.884339 71.098805 
C 220.959815 64.088438 202.818972 60.48 184.5 60.48 
C 166.181028 60.48 148.040185 64.088438 131.115661 71.098805 
C 114.191138 78.109172 98.812073 88.385135 85.858604 101.338604 
C 72.905135 114.292073 62.629172 129.671138 55.618805 146.595661 
C 48.608438 163.520185 45 181.661028 45 199.98 
C 45 218.298972 48.608438 236.439815 55.618805 253.364339 
C 62.629172 270.288862 72.905135 285.667927 85.858604 298.621396 
C 98.812073 311.574865 114.191138 321.850828 131.115661 328.861195 
C 148.040185 335.871562 166.181028 339.48 184.5 339.48 
C 202.818972 339.48 220.959815 335.871562 237.884339 328.861195 
C 254.808862 321.850828 270.187927 311.574865 283.141396 298.621396 
C 296.094865 285.667927 306.370828 270.288862 313.381195 253.364339 
C 320.391562 236.439815 324 218.298972 324 199.98 
" clip-path="url(#p72831619fd)" style="fill: none; stroke: #b0b0b0; stroke-width: 0.8; stroke-linecap: square"/>
     </g>
    </g>
   </g>
   <g id="PathCollection_1">
    <defs>
     <path id="m10bf8bb9f6" d="M 0 4.472136 
C 1.186024 4.472136 2.323632 4.000923 3.162278 3.162278 
C 4.000923 2.323632 4.472136 1.186024 4.472136 0 
C 4.472136 -1.186024 4.000923 -2.323632 3.162278 -3.162278 
C 2.323632 -4.000923 1.186024 -4.472136 0 -4.472136 
C -1.186024 -4.472136 -2.323632 -4.000923 -3.162278 -3.162278 
C -4.000923 -2.323632 -4.472136 -1.186024 -4.472136 0 
C -4.472136 1.186024 -4.000923 2.323632 -3.162278 3.162278 
C -2.323632 4.000923 -1.186024 4.472136 0 4.472136 
z
" style="stroke: #000000"/>
    </defs>
    <g clip-path="url(#p72831619fd)">
     <use xlink:href="#m10bf8bb9f6" x="261.695729" y="156.836765" style="fill: #aa0000; stroke: #000000"/>
    </g>
   </g>
   <g id="PathCollection_2">
    <defs>
     <path id="m6830db8192" d="M 0 4.472136 
C 1.186024 4.472136 2.323632 4.000923 3.162278 3.162278 
C 4.000923 2.323632 4.472136 1.186024 4.472136 0 
C 4.472136 -1.186024 4.000923 -2.323632 3.162278 -3.162278 
C 2.323632 -4.000923 1.186024 -4.472136 0 -4.472136 
C -1.186024 -4.472136 -2.323632 -4.000923 -3.162278 -3.162278 
C -4.000923 -2.323632 -4.472136 -1.186024 -4.472136 0 
C -4.472136 1.186024 -4.000923 2.323632 -3.162278 3.162278 
C -2.323632 4.000923 -1.186024 4.472136 0 4.472136 
z
" style="stroke: #000000"/>
    </defs>
    <g clip-path="url(#p72831619fd)">
     <use xlink:href="#m6830db8192" x="104.229025" y="138.385914" style="fill: #00aa00; stroke: #000000"/>
    </g>
   </g>
   <g id="PathCollection_3">
    <defs>
     <path id="m2a62278d0d" d="M 0 4.472136 
C 1.186024 4.472136 2.323632 4.000923 3.162278 3.162278 
C 4.000923 2.323632 4.472136 1.186024 4.472136 0 
C 4.472136 -1.186024 4.000923 -2.323632 3.162278 -3.162278 
C 2.323632 -4.000923 1.186024 -4.472136 0 -4.472136 
C -1.186024 -4.472136 -2.323632 -4.000923 -3.162278 -3.162278 
C -4.000923 -2.323632 -4.472136 -1.186024 -4.472136 0 
C -4.472136 1.186024 -4.000923 2.323632 -3.162278 3.162278 
C -2.323632 4.000923 -1.186024 4.472136 0 4.472136 
z
" style="stroke: #000000"/>
    </defs>
    <g clip-path="url(#p72831619fd)">
     <use xlink:href="#m2a62278d0d" x="221.554922" y="148.790634" style="fill: #aa5500; stroke: #000000"/>
    </g>
   </g>
   <g id="PathCollection_4">
    <defs>
     <path id="m016e2f7447" d="M 0 4.472136 
C 1.186024 4.472136 2.323632 4.000923 3.162278 3.162278 
C 4.000923 2.323632 4.472136 1.186024 4.472136 0 
C 4.472136 -1.186024 4.000923 -2.323632 3.162278 -3.162278 
C 2.323632 -4.000923 1.186024 -4.472136 0 -4.472136 
C -1.186024 -4.472136 -2.323632 -4.000923 -3.162278 -3.162278 
C -4.000923 -2.323632 -4.472136 -1.186024 -4.472136 0 
C -4.472136 1.186024 -4.000923 2.323632 -3.162278 3.162278 
C -2.323632 4.000923 -1.186024 4.472136 0 4.472136 
z
" style="stroke: #000000"/>
    </defs>
    <g clip-path="url(#p72831619fd)">
     <use xlink:href="#m016e2f7447" x="173.450892" y="306.900009" style="fill: #0000aa; stroke: #000000"/>
    </g>
   </g>
   <g id="PathCollection_5">
    <defs>
     <path id="m741264defb" d="M 0 4.472136 
C 1.186024 4.472136 2.323632 4.000923 3.162278 3.162278 
C 4.000923 2.323632 4.472136 1.186024 4.472136 0 
C 4.472136 -1.186024 4.000923 -2.323632 3.162278 -3.162278 
C 2.323632 -4.000923 1.186024 -4.472136 0 -4.472136 
C -1.186024 -4.472136 -2.323632 -4.000923 -3.162278 -3.162278 
C -4.000923 -2.323632 -4.472136 -1.186024 -4.472136 0 
C -4.472136 1.186024 -4.000923 2.323632 -3.162278 3.162278 
C -2.323632 4.000923 -1.186024 4.472136 0 4.472136 
z
" style="stroke: #000000"/>
    </defs>
    <g clip-path="url(#p72831619fd)">
     <use xlink:href="#m741264defb" x="278.76062" y="257.96952" style="fill: #aa00aa; stroke: #000000"/>
    </g>
   </g>
   <g id="PathCollection_6">
    <defs>
     <path id="mbba0bfb4eb" d="M 0 4.472136 
C 1.186024 4.472136 2.323632 4.000923 3.162278 3.162278 
C 4.000923 2.323632 4.472136 1.186024 4.472136 0 
C 4.472136 -1.186024 4.000923 -2.323632 3.162278 -3.162278 
C 2.323632 -4.000923 1.186024 -4.472136 0 -4.472136 
C -1.186024 -4.472136 -2.323632 -4.000923 -3.162278 -3.162278 
C -4.000923 -2.323632 -4.472136 -1.186024 -4.472136 0 
C -4.472136 1.186024 -4.000923 2.323632 -3.162278 3.162278 
C -2.323632 4.000923 -1.186024 4.472136 0 4.472136 
z
" style="stroke: #000000"/>
    </defs>
    <g clip-path="url(#p72831619fd)">
     <use xlink:href="#mbba0bfb4eb" x="133.221718" y="213.528307" style="fill: #00aaaa; stroke: #000000"/>
    </g>
   </g>
   <g id="PathCollection_7">
    <defs>
     <path id="m80e507b2a8" d="M 0 4.472136 
C 1.186024 4.472136 2.323632 4.000923 3.162278 3.162278 
C 4.000923 2.323632 4.472136 1.186024 4.472136 0 
C 4.472136 -1.186024 4.000923 -2.323632 3.162278 -3.162278 
C 2.323632 -4.000923 1.186024 -4.472136 0 -4.472136 
C -1.186024 -4.472136 -2.323632 -4.000923 -3.162278 -3.162278 
C -4.000923 -2.323632 -4.472136 -1.186024 -4.472136 0 
C -4.472136 1.186024 -4.000923 2.323632 -3.162278 3.162278 
C -2.323632 4.000923 -1.186024 4.472136 0 4.472136 
z
" style="stroke: #000000"/>
    </defs>
    <g clip-path="url(#p72831619fd)">
     <use xlink:href="#m80e507b2a8" x="271.874132" y="160.345336" style="fill: #ff5555; stroke: #000000"/>
    </g>
   </g>
   <g id="PathCollection_8">
    <defs>
     <path id="ma3faba9065" d="M 0 4.472136 
C 1.186024 4.472136 2.323632 4.000923 3.162278 3.162278 
C 4.000923 2.323632 4.472136 1.186024 4.472136 0 
C 4.472136 -1.186024 4.000923 -2.323632 3.162278 -3.162278 
C 2.323632 -4.000923 1.186024 -4.472136 0 -4.472136 
C -1.186024 -4.472136 -2.323632 -4.000923 -3.162278 -3.162278 
C -4.000923 -2.323632 -4.472136 -1.186024 -4.472136 0 
C -4.472136 1.186024 -4.000923 2.323632 -3.162278 3.162278 
C -2.323632 4.000923 -1.186024 4.472136 0 4.472136 
z
" style="stroke: #000000"/>
    </defs>
    <g clip-path="url(#p72831619fd)">
     <use xlink:href="#ma3faba9065" x="90.726018" y="129.572503" style="fill: #55ff55; stroke: #000000"/>
    </g>
   </g>
   <g id="PathCollection_9">
    <defs>
     <path id="mdae1775186" d="M 0 4.472136 
C 1.186024 4.472136 2.323632 4.000923 3.162278 3.162278 
C 4.000923 2.323632 4.472136 1.186024 4.472136 0 
C 4.472136 -1.186024 4.000923 -2.323632 3.162278 -3.162278 
C 2.323632 -4.000923 1.186024 -4.472136 0 -4.472136 
C -1.186024 -4.472136 -2.323632 -4.000923 -3.162278 -3.162278 
C -4.000923 -2.323632 -4.472136 -1.186024 -4.472136 0 
C -4.472136 1.186024 -4.000923 2.323632 -3.162278 3.162278 
C -2.323632 4.000923 -1.186024 4.472136 0 4.472136 
z
" style="stroke: #000000"/>
    </defs>
    <g clip-path="url(#p72831619fd)">
     <use xlink:href="#mdae1775186" x="156.200768" y="119.619976" style="fill: #ffff55; stroke: #000000"/>
    </g>
   </g>
   <g id="PathCollection_10">
    <defs>
     <path id="m545a9f9e96" d="M 0 4.472136 
C 1.186024 4.472136 2.323632 4.000923 3.162278 3.162278 
C 4.000923 2.323632 4.472136 1.186024 4.472136 0 
C 4.472136 -1.186024 4.000923 -2.323632 3.162278 -3.162278 
C 2.323632 -4.000923 1.186024 -4.472136 0 -4.472136 
C -1.186024 -4.472136 -2.323632 -4.000923 -3.162278 -3.162278 
C -4.000923 -2.323632 -4.472136 -1.186024 -4.472136 0 
C -4.472136 1.186024 -4.000923 2.323632 -3.162278 3.162278 
C -2.323632 4.000923 -1.186024 4.472136 0 4.472136 
z
" style="stroke: #000000"/>
    </defs>
    <g clip-path="url(#p72831619fd)">
     <use xlink:href="#m545a9f9e96" x="194.592147" y="313.060293" style="fill: #5555ff; stroke: #000000"/>
    </g>
   </g>
   <g id="PathCollection_11">
    <defs>
     <path id="m126025ba41" d="M 0 4.472136 
C 1.186024 4.472136 2.323632 4.000923 3.162278 3.162278 
C 4.000923 2.323632 4.472136 1.186024 4.472136 0 
C 4.472136 -1.186024 4.000923 -2.323632 3.162278 -3.162278 
C 2.323632 -4.000923 1.186024 -4.472136 0 -4.472136 
C -1.186024 -4.472136 -2.323632 -4.000923 -3.162278 -3.162278 
C -4.000923 -2.323632 -4.472136 -1.186024 -4.472136 0 
C -4.472136 1.186024 -4.000923 2.323632 -3.162278 3.162278 
C -2.323632 4.000923 -1.186024 4.472136 0 4.472136 
z
" style="stroke: #000000"/>
    </defs>
    <g clip-path="url(#p72831619fd)">
     <use xlink:href="#m126025ba41" x="291.573077" y="267.146814" style="fill: #ff55ff; stroke: #000000"/>
    </g>
   </g>
   <g id="PathCollection_12">
    <defs>
     <path id="m0cfd97b3f0" d="M 0 4.472136 
C 1.186024 4.472136 2.323632 4.000923 3.162278 3.162278 
C 4.000923 2.323632 4.472136 1.186024 4.472136 0 
C 4.472136 -1.186024 4.000923 -2.323632 3.162278 -3.162278 
C 2.323632 -4.000923 1.186024 -4.472136 0 -4.472136 
C -1.186024 -4.472136 -2.323632 -4.000923 -3.162278 -3.162278 
C -4.000923 -2.323632 -4.472136 -1.186024 -4.472136 0 
C -4.472136 1.186024 -4.000923 2.323632 -3.162278 3.162278 
C -2.323632 4.000923 -1.186024 4.472136 0 4.472136 
z
" style="stroke: #000000"/>
    </defs>
    <g clip-path="url(#p72831619fd)">
     <use xlink:href="#m0cfd97b3f0" x="123.194765" y="216.406688" style="fill: #55ffff; stroke: #000000"/>
    </g>
   </g>
   <g id="PathCollection_13">
    <defs>
     <path id="mbb42aed75f" d="M -0 5.477226 
L 3.286335 0 
L 0 -5.477226 
L -3.286335 -0 
z
" style="stroke: #000000"/>
    </defs>
    <g clip-path="url(#p72831619fd)">
     <use xlink:href="#mbb42aed75f" x="219.839703" y="148.367665" style="fill: #ffa563; stroke: #000000"/>
    </g>
   </g>
   <g id="PathCollection_14">
    <defs>
     <path id="m295c9fda0e" d="M -0 5.477226 
L 3.286335 0 
L 0 -5.477226 
L -3.286335 -0 
z
" style="stroke: #000000"/>
    </defs>
    <g clip-path="url(#p72831619fd)">
     <use xlink:href="#m295c9fda0e" x="221.283213" y="127.476326" style="fill: #ff9600; stroke: #000000"/>
    </g>
   </g>
   <g id="patch_3">
    <path d="M 324 199.98 
C 324 181.661028 320.391562 163.520185 313.381195 146.595661 
C 306.370828 129.671138 296.094865 114.292073 283.141396 101.338604 
C 270.187927 88.385135 254.808862 78.109172 237.884339 71.098805 
C 220.959815 64.088438 202.818972 60.48 184.5 60.48 
C 166.181028 60.48 148.040185 64.088438 131.115661 71.098805 
C 114.191138 78.109172 98.812073 88.385135 85.858604 101.338604 
C 72.905135 114.292073 62.629172 129.671138 55.618805 146.595661 
C 48.608438 163.520185 45 181.661028 45 199.98 
C 45 218.298972 48.608438 236.439815 55.618805 253.364339 
C 62.629172 270.288862 72.905135 285.667927 85.858604 298.621396 
C 98.812073 311.574865 114.191138 321.850828 131.115661 328.861195 
C 148.040185 335.871562 166.181028 339.48 184.5 339.48 
C 202.818972 339.48 220.959815 335.871562 237.884339 328.861195 
C 254.808862 321.850828 270.187927 311.574865 283.141396 298.621396 
C 296.094865 285.667927 306.370828 270.288862 313.381195 253.364339 
C 320.391562 236.439815 324 218.298972 324 199.98 
" style="fill: none; stroke: #000000; stroke-width: 0.8; stroke-linejoin: miter; stroke-linecap: square"/>
   </g>
   <g id="text_11">
    <!-- VGA: Hue &amp; Chroma for 12+2 ANSI Colors in Oklab -->
    <g transform="translate(13.812187 26.640938) scale(0.12 -0.12)">
     <defs>
      <path id="DejaVuSans-Bold-56" d="M 31 4666 
L 1241 4666 
L 2478 1222 
L 3713 4666 
L 4922 4666 
L 3194 0 
L 1759 0 
L 31 4666 
z
" transform="scale(0.015625)"/>
      <path id="DejaVuSans-Bold-47" d="M 4781 347 
Q 4331 128 3847 18 
Q 3363 -91 2847 -91 
Q 1681 -91 1000 561 
Q 319 1213 319 2328 
Q 319 3456 1012 4103 
Q 1706 4750 2913 4750 
Q 3378 4750 3804 4662 
Q 4231 4575 4609 4403 
L 4609 3438 
Q 4219 3659 3833 3768 
Q 3447 3878 3059 3878 
Q 2341 3878 1952 3476 
Q 1563 3075 1563 2328 
Q 1563 1588 1938 1184 
Q 2313 781 3003 781 
Q 3191 781 3352 804 
Q 3513 828 3641 878 
L 3641 1784 
L 2906 1784 
L 2906 2591 
L 4781 2591 
L 4781 347 
z
" transform="scale(0.015625)"/>
      <path id="DejaVuSans-Bold-41" d="M 3419 850 
L 1538 850 
L 1241 0 
L 31 0 
L 1759 4666 
L 3194 4666 
L 4922 0 
L 3713 0 
L 3419 850 
z
M 1838 1716 
L 3116 1716 
L 2478 3572 
L 1838 1716 
z
" transform="scale(0.015625)"/>
      <path id="DejaVuSans-Bold-3a" d="M 716 3500 
L 1844 3500 
L 1844 2291 
L 716 2291 
L 716 3500 
z
M 716 1209 
L 1844 1209 
L 1844 0 
L 716 0 
L 716 1209 
z
" transform="scale(0.015625)"/>
      <path id="DejaVuSans-Bold-20" transform="scale(0.015625)"/>
      <path id="DejaVuSans-Bold-48" d="M 588 4666 
L 1791 4666 
L 1791 2888 
L 3566 2888 
L 3566 4666 
L 4769 4666 
L 4769 0 
L 3566 0 
L 3566 1978 
L 1791 1978 
L 1791 0 
L 588 0 
L 588 4666 
z
" transform="scale(0.015625)"/>
      <path id="DejaVuSans-Bold-75" d="M 500 1363 
L 500 3500 
L 1625 3500 
L 1625 3150 
Q 1625 2866 1622 2436 
Q 1619 2006 1619 1863 
Q 1619 1441 1641 1255 
Q 1663 1069 1716 984 
Q 1784 875 1895 815 
Q 2006 756 2150 756 
Q 2500 756 2700 1025 
Q 2900 1294 2900 1772 
L 2900 3500 
L 4019 3500 
L 4019 0 
L 2900 0 
L 2900 506 
Q 2647 200 2364 54 
Q 2081 -91 1741 -91 
Q 1134 -91 817 281 
Q 500 653 500 1363 
z
" transform="scale(0.015625)"/>
      <path id="DejaVuSans-Bold-65" d="M 4031 1759 
L 4031 1441 
L 1416 1441 
Q 1456 1047 1700 850 
Q 1944 653 2381 653 
Q 2734 653 3104 758 
Q 3475 863 3866 1075 
L 3866 213 
Q 3469 63 3072 -14 
Q 2675 -91 2278 -91 
Q 1328 -91 801 392 
Q 275 875 275 1747 
Q 275 2603 792 3093 
Q 1309 3584 2216 3584 
Q 3041 3584 3536 3087 
Q 4031 2591 4031 1759 
z
M 2881 2131 
Q 2881 2450 2695 2645 
Q 2509 2841 2209 2841 
Q 1884 2841 1681 2658 
Q 1478 2475 1428 2131 
L 2881 2131 
z
" transform="scale(0.015625)"/>
      <path id="DejaVuSans-Bold-26" d="M 2497 3097 
L 3775 1691 
Q 3941 1909 4027 2181 
Q 4113 2453 4128 2797 
L 5100 2797 
Q 5053 2228 4879 1784 
Q 4706 1341 4397 1006 
L 5313 0 
L 3988 0 
L 3681 341 
Q 3353 122 2990 15 
Q 2628 -91 2222 -91 
Q 1400 -91 892 342 
Q 384 775 384 1459 
Q 384 1916 607 2267 
Q 831 2619 1338 2950 
Q 1206 3116 1143 3281 
Q 1081 3447 1081 3628 
Q 1081 4138 1478 4444 
Q 1875 4750 2534 4750 
Q 2819 4750 3126 4704 
Q 3434 4659 3769 4569 
L 3769 3700 
Q 3475 3850 3212 3922 
Q 2950 3994 2700 3994 
Q 2459 3994 2326 3901 
Q 2194 3809 2194 3641 
Q 2194 3534 2270 3398 
Q 2347 3263 2497 3097 
z
M 1875 2322 
Q 1672 2175 1569 1989 
Q 1466 1803 1466 1581 
Q 1466 1222 1731 969 
Q 1997 716 2369 716 
Q 2578 716 2759 780 
Q 2941 844 3097 972 
L 1875 2322 
z
" transform="scale(0.015625)"/>
      <path id="DejaVuSans-Bold-43" d="M 4288 256 
Q 3956 84 3597 -3 
Q 3238 -91 2847 -91 
Q 1681 -91 1000 561 
Q 319 1213 319 2328 
Q 319 3447 1000 4098 
Q 1681 4750 2847 4750 
Q 3238 4750 3597 4662 
Q 3956 4575 4288 4403 
L 4288 3438 
Q 3953 3666 3628 3772 
Q 3303 3878 2944 3878 
Q 2300 3878 1931 3465 
Q 1563 3053 1563 2328 
Q 1563 1606 1931 1193 
Q 2300 781 2944 781 
Q 3303 781 3628 887 
Q 3953 994 4288 1222 
L 4288 256 
z
" transform="scale(0.015625)"/>
      <path id="DejaVuSans-Bold-68" d="M 4056 2131 
L 4056 0 
L 2931 0 
L 2931 347 
L 2931 1625 
Q 2931 2084 2911 2256 
Q 2891 2428 2841 2509 
Q 2775 2619 2662 2680 
Q 2550 2741 2406 2741 
Q 2056 2741 1856 2470 
Q 1656 2200 1656 1722 
L 1656 0 
L 538 0 
L 538 4863 
L 1656 4863 
L 1656 2988 
Q 1909 3294 2193 3439 
Q 2478 3584 2822 3584 
Q 3428 3584 3742 3212 
Q 4056 2841 4056 2131 
z
" transform="scale(0.015625)"/>
      <path id="DejaVuSans-Bold-72" d="M 3138 2547 
Q 2991 2616 2845 2648 
Q 2700 2681 2553 2681 
Q 2122 2681 1889 2404 
Q 1656 2128 1656 1613 
L 1656 0 
L 538 0 
L 538 3500 
L 1656 3500 
L 1656 2925 
Q 1872 3269 2151 3426 
Q 2431 3584 2822 3584 
Q 2878 3584 2943 3579 
Q 3009 3575 3134 3559 
L 3138 2547 
z
" transform="scale(0.015625)"/>
      <path id="DejaVuSans-Bold-6f" d="M 2203 2784 
Q 1831 2784 1636 2517 
Q 1441 2250 1441 1747 
Q 1441 1244 1636 976 
Q 1831 709 2203 709 
Q 2569 709 2762 976 
Q 2956 1244 2956 1747 
Q 2956 2250 2762 2517 
Q 2569 2784 2203 2784 
z
M 2203 3584 
Q 3106 3584 3614 3096 
Q 4122 2609 4122 1747 
Q 4122 884 3614 396 
Q 3106 -91 2203 -91 
Q 1297 -91 786 396 
Q 275 884 275 1747 
Q 275 2609 786 3096 
Q 1297 3584 2203 3584 
z
" transform="scale(0.015625)"/>
      <path id="DejaVuSans-Bold-6d" d="M 3781 2919 
Q 3994 3244 4286 3414 
Q 4578 3584 4928 3584 
Q 5531 3584 5847 3212 
Q 6163 2841 6163 2131 
L 6163 0 
L 5038 0 
L 5038 1825 
Q 5041 1866 5042 1909 
Q 5044 1953 5044 2034 
Q 5044 2406 4934 2573 
Q 4825 2741 4581 2741 
Q 4263 2741 4089 2478 
Q 3916 2216 3909 1719 
L 3909 0 
L 2784 0 
L 2784 1825 
Q 2784 2406 2684 2573 
Q 2584 2741 2328 2741 
Q 2006 2741 1831 2477 
Q 1656 2213 1656 1722 
L 1656 0 
L 531 0 
L 531 3500 
L 1656 3500 
L 1656 2988 
Q 1863 3284 2130 3434 
Q 2397 3584 2719 3584 
Q 3081 3584 3359 3409 
Q 3638 3234 3781 2919 
z
" transform="scale(0.015625)"/>
      <path id="DejaVuSans-Bold-61" d="M 2106 1575 
Q 1756 1575 1579 1456 
Q 1403 1338 1403 1106 
Q 1403 894 1545 773 
Q 1688 653 1941 653 
Q 2256 653 2472 879 
Q 2688 1106 2688 1447 
L 2688 1575 
L 2106 1575 
z
M 3816 1997 
L 3816 0 
L 2688 0 
L 2688 519 
Q 2463 200 2181 54 
Q 1900 -91 1497 -91 
Q 953 -91 614 226 
Q 275 544 275 1050 
Q 275 1666 698 1953 
Q 1122 2241 2028 2241 
L 2688 2241 
L 2688 2328 
Q 2688 2594 2478 2717 
Q 2269 2841 1825 2841 
Q 1466 2841 1156 2769 
Q 847 2697 581 2553 
L 581 3406 
Q 941 3494 1303 3539 
Q 1666 3584 2028 3584 
Q 2975 3584 3395 3211 
Q 3816 2838 3816 1997 
z
" transform="scale(0.015625)"/>
      <path id="DejaVuSans-Bold-66" d="M 2841 4863 
L 2841 4128 
L 2222 4128 
Q 1984 4128 1890 4042 
Q 1797 3956 1797 3744 
L 1797 3500 
L 2753 3500 
L 2753 2700 
L 1797 2700 
L 1797 0 
L 678 0 
L 678 2700 
L 122 2700 
L 122 3500 
L 678 3500 
L 678 3744 
Q 678 4316 997 4589 
Q 1316 4863 1984 4863 
L 2841 4863 
z
" transform="scale(0.015625)"/>
      <path id="DejaVuSans-Bold-31" d="M 750 831 
L 1813 831 
L 1813 3847 
L 722 3622 
L 722 4441 
L 1806 4666 
L 2950 4666 
L 2950 831 
L 4013 831 
L 4013 0 
L 750 0 
L 750 831 
z
" transform="scale(0.015625)"/>
      <path id="DejaVuSans-Bold-32" d="M 1844 884 
L 3897 884 
L 3897 0 
L 506 0 
L 506 884 
L 2209 2388 
Q 2438 2594 2547 2791 
Q 2656 2988 2656 3200 
Q 2656 3528 2436 3728 
Q 2216 3928 1850 3928 
Q 1569 3928 1234 3808 
Q 900 3688 519 3450 
L 519 4475 
Q 925 4609 1322 4679 
Q 1719 4750 2100 4750 
Q 2938 4750 3402 4381 
Q 3866 4013 3866 3353 
Q 3866 2972 3669 2642 
Q 3472 2313 2841 1759 
L 1844 884 
z
" transform="scale(0.015625)"/>
      <path id="DejaVuSans-Bold-2b" d="M 3053 4013 
L 3053 2375 
L 4684 2375 
L 4684 1638 
L 3053 1638 
L 3053 0 
L 2309 0 
L 2309 1638 
L 678 1638 
L 678 2375 
L 2309 2375 
L 2309 4013 
L 3053 4013 
z
" transform="scale(0.015625)"/>
      <path id="DejaVuSans-Bold-4e" d="M 588 4666 
L 1931 4666 
L 3628 1466 
L 3628 4666 
L 4769 4666 
L 4769 0 
L 3425 0 
L 1728 3200 
L 1728 0 
L 588 0 
L 588 4666 
z
" transform="scale(0.015625)"/>
      <path id="DejaVuSans-Bold-53" d="M 3834 4519 
L 3834 3531 
Q 3450 3703 3084 3790 
Q 2719 3878 2394 3878 
Q 1963 3878 1756 3759 
Q 1550 3641 1550 3391 
Q 1550 3203 1689 3098 
Q 1828 2994 2194 2919 
L 2706 2816 
Q 3484 2659 3812 2340 
Q 4141 2022 4141 1434 
Q 4141 663 3683 286 
Q 3225 -91 2284 -91 
Q 1841 -91 1394 -6 
Q 947 78 500 244 
L 500 1259 
Q 947 1022 1364 901 
Q 1781 781 2169 781 
Q 2563 781 2772 912 
Q 2981 1044 2981 1288 
Q 2981 1506 2839 1625 
Q 2697 1744 2272 1838 
L 1806 1941 
Q 1106 2091 782 2419 
Q 459 2747 459 3303 
Q 459 4000 909 4375 
Q 1359 4750 2203 4750 
Q 2588 4750 2994 4692 
Q 3400 4634 3834 4519 
z
" transform="scale(0.015625)"/>
      <path id="DejaVuSans-Bold-49" d="M 588 4666 
L 1791 4666 
L 1791 0 
L 588 0 
L 588 4666 
z
" transform="scale(0.015625)"/>
      <path id="DejaVuSans-Bold-6c" d="M 538 4863 
L 1656 4863 
L 1656 0 
L 538 0 
L 538 4863 
z
" transform="scale(0.015625)"/>
      <path id="DejaVuSans-Bold-73" d="M 3272 3391 
L 3272 2541 
Q 2913 2691 2578 2766 
Q 2244 2841 1947 2841 
Q 1628 2841 1473 2761 
Q 1319 2681 1319 2516 
Q 1319 2381 1436 2309 
Q 1553 2238 1856 2203 
L 2053 2175 
Q 2913 2066 3209 1816 
Q 3506 1566 3506 1031 
Q 3506 472 3093 190 
Q 2681 -91 1863 -91 
Q 1516 -91 1145 -36 
Q 775 19 384 128 
L 384 978 
Q 719 816 1070 734 
Q 1422 653 1784 653 
Q 2113 653 2278 743 
Q 2444 834 2444 1013 
Q 2444 1163 2330 1236 
Q 2216 1309 1875 1350 
L 1678 1375 
Q 931 1469 631 1722 
Q 331 1975 331 2491 
Q 331 3047 712 3315 
Q 1094 3584 1881 3584 
Q 2191 3584 2531 3537 
Q 2872 3491 3272 3391 
z
" transform="scale(0.015625)"/>
      <path id="DejaVuSans-Bold-69" d="M 538 3500 
L 1656 3500 
L 1656 0 
L 538 0 
L 538 3500 
z
M 538 4863 
L 1656 4863 
L 1656 3950 
L 538 3950 
L 538 4863 
z
" transform="scale(0.015625)"/>
      <path id="DejaVuSans-Bold-6e" d="M 4056 2131 
L 4056 0 
L 2931 0 
L 2931 347 
L 2931 1631 
Q 2931 2084 2911 2256 
Q 2891 2428 2841 2509 
Q 2775 2619 2662 2680 
Q 2550 2741 2406 2741 
Q 2056 2741 1856 2470 
Q 1656 2200 1656 1722 
L 1656 0 
L 538 0 
L 538 3500 
L 1656 3500 
L 1656 2988 
Q 1909 3294 2193 3439 
Q 2478 3584 2822 3584 
Q 3428 3584 3742 3212 
Q 4056 2841 4056 2131 
z
" transform="scale(0.015625)"/>
      <path id="DejaVuSans-Bold-4f" d="M 2719 3878 
Q 2169 3878 1866 3472 
Q 1563 3066 1563 2328 
Q 1563 1594 1866 1187 
Q 2169 781 2719 781 
Q 3272 781 3575 1187 
Q 3878 1594 3878 2328 
Q 3878 3066 3575 3472 
Q 3272 3878 2719 3878 
z
M 2719 4750 
Q 3844 4750 4481 4106 
Q 5119 3463 5119 2328 
Q 5119 1197 4481 553 
Q 3844 -91 2719 -91 
Q 1597 -91 958 553 
Q 319 1197 319 2328 
Q 319 3463 958 4106 
Q 1597 4750 2719 4750 
z
" transform="scale(0.015625)"/>
      <path id="DejaVuSans-Bold-6b" d="M 538 4863 
L 1656 4863 
L 1656 2216 
L 2944 3500 
L 4244 3500 
L 2534 1894 
L 4378 0 
L 3022 0 
L 1656 1459 
L 1656 0 
L 538 0 
L 538 4863 
z
" transform="scale(0.015625)"/>
      <path id="DejaVuSans-Bold-62" d="M 2400 722 
Q 2759 722 2948 984 
Q 3138 1247 3138 1747 
Q 3138 2247 2948 2509 
Q 2759 2772 2400 2772 
Q 2041 2772 1848 2508 
Q 1656 2244 1656 1747 
Q 1656 1250 1848 986 
Q 2041 722 2400 722 
z
M 1656 2988 
Q 1888 3294 2169 3439 
Q 2450 3584 2816 3584 
Q 3463 3584 3878 3070 
Q 4294 2556 4294 1747 
Q 4294 938 3878 423 
Q 3463 -91 2816 -91 
Q 2450 -91 2169 54 
Q 1888 200 1656 506 
L 1656 0 
L 538 0 
L 538 4863 
L 1656 4863 
L 1656 2988 
z
" transform="scale(0.015625)"/>
     </defs>
     <use xlink:href="#DejaVuSans-Bold-56"/>
     <use xlink:href="#DejaVuSans-Bold-47" x="77.392578"/>
     <use xlink:href="#DejaVuSans-Bold-41" x="159.472656"/>
     <use xlink:href="#DejaVuSans-Bold-3a" x="238.740234"/>
     <use xlink:href="#DejaVuSans-Bold-20" x="278.730469"/>
     <use xlink:href="#DejaVuSans-Bold-48" x="313.544922"/>
     <use xlink:href="#DejaVuSans-Bold-75" x="397.236328"/>
     <use xlink:href="#DejaVuSans-Bold-65" x="468.427734"/>
     <use xlink:href="#DejaVuSans-Bold-20" x="536.25"/>
     <use xlink:href="#DejaVuSans-Bold-26" x="571.064453"/>
     <use xlink:href="#DejaVuSans-Bold-20" x="658.271484"/>
     <use xlink:href="#DejaVuSans-Bold-43" x="693.085938"/>
     <use xlink:href="#DejaVuSans-Bold-68" x="766.474609"/>
     <use xlink:href="#DejaVuSans-Bold-72" x="837.666016"/>
     <use xlink:href="#DejaVuSans-Bold-6f" x="886.982422"/>
     <use xlink:href="#DejaVuSans-Bold-6d" x="955.683594"/>
     <use xlink:href="#DejaVuSans-Bold-61" x="1059.882812"/>
     <use xlink:href="#DejaVuSans-Bold-20" x="1127.363281"/>
     <use xlink:href="#DejaVuSans-Bold-66" x="1162.177734"/>
     <use xlink:href="#DejaVuSans-Bold-6f" x="1205.683594"/>
     <use xlink:href="#DejaVuSans-Bold-72" x="1274.384766"/>
     <use xlink:href="#DejaVuSans-Bold-20" x="1323.701172"/>
     <use xlink:href="#DejaVuSans-Bold-31" x="1358.515625"/>
     <use xlink:href="#DejaVuSans-Bold-32" x="1428.095703"/>
     <use xlink:href="#DejaVuSans-Bold-2b" x="1497.675781"/>
     <use xlink:href="#DejaVuSans-Bold-32" x="1581.464844"/>
     <use xlink:href="#DejaVuSans-Bold-20" x="1651.044922"/>
     <use xlink:href="#DejaVuSans-Bold-41" x="1685.859375"/>
     <use xlink:href="#DejaVuSans-Bold-4e" x="1763.251953"/>
     <use xlink:href="#DejaVuSans-Bold-53" x="1846.943359"/>
     <use xlink:href="#DejaVuSans-Bold-49" x="1918.964844"/>
     <use xlink:href="#DejaVuSans-Bold-20" x="1956.171875"/>
     <use xlink:href="#DejaVuSans-Bold-43" x="1990.986328"/>
     <use xlink:href="#DejaVuSans-Bold-6f" x="2064.375"/>
     <use xlink:href="#DejaVuSans-Bold-6c" x="2133.076172"/>
     <use xlink:href="#DejaVuSans-Bold-6f" x="2167.353516"/>
     <use xlink:href="#DejaVuSans-Bold-72" x="2236.054688"/>
     <use xlink:href="#DejaVuSans-Bold-73" x="2285.371094"/>
     <use xlink:href="#DejaVuSans-Bold-20" x="2344.892578"/>
     <use xlink:href="#DejaVuSans-Bold-69" x="2379.707031"/>
     <use xlink:href="#DejaVuSans-Bold-6e" x="2413.984375"/>
     <use xlink:href="#DejaVuSans-Bold-20" x="2485.175781"/>
     <use xlink:href="#DejaVuSans-Bold-4f" x="2519.990234"/>
     <use xlink:href="#DejaVuSans-Bold-6b" x="2605"/>
     <use xlink:href="#DejaVuSans-Bold-6c" x="2671.503906"/>
     <use xlink:href="#DejaVuSans-Bold-61" x="2705.78125"/>
     <use xlink:href="#DejaVuSans-Bold-62" x="2773.261719"/>
    </g>
   </g>
  </g>
 </g>
 <defs>
  <clipPath id="p72831619fd">
   <path d="M 324 199.98 
C 324 181.661028 320.391562 163.520185 313.381195 146.595661 
C 306.370828 129.671138 296.094865 114.292073 283.141396 101.338604 
C 270.187927 88.385135 254.808862 78.109172 237.884339 71.098805 
C 220.959815 64.088438 202.818972 60.48 184.5 60.48 
C 166.181028 60.48 148.040185 64.088438 131.115661 71.098805 
C 114.191138 78.109172 98.812073 88.385135 85.858604 101.338604 
C 72.905135 114.292073 62.629172 129.671138 55.618805 146.595661 
C 48.608438 163.520185 45 181.661028 45 199.98 
C 45 218.298972 48.608438 236.439815 55.618805 253.364339 
C 62.629172 270.288862 72.905135 285.667927 85.858604 298.621396 
C 98.812073 311.574865 114.191138 321.850828 131.115661 328.861195 
C 148.040185 335.871562 166.181028 339.48 184.5 339.48 
C 202.818972 339.48 220.959815 335.871562 237.884339 328.861195 
C 254.808862 321.850828 270.187927 311.574865 283.141396 298.621396 
C 296.094865 285.667927 306.370828 270.288862 313.381195 253.364339 
C 320.391562 236.439815 324 218.298972 324 199.98 
M 184.5 199.98 
C 184.5 199.98 184.5 199.98 184.5 199.98 
C 184.5 199.98 184.5 199.98 184.5 199.98 
C 184.5 199.98 184.5 199.98 184.5 199.98 
C 184.5 199.98 184.5 199.98 184.5 199.98 
C 184.5 199.98 184.5 199.98 184.5 199.98 
C 184.5 199.98 184.5 199.98 184.5 199.98 
C 184.5 199.98 184.5 199.98 184.5 199.98 
C 184.5 199.98 184.5 199.98 184.5 199.98 
C 184.5 199.98 184.5 199.98 184.5 199.98 
C 184.5 199.98 184.5 199.98 184.5 199.98 
C 184.5 199.98 184.5 199.98 184.5 199.98 
C 184.5 199.98 184.5 199.98 184.5 199.98 
C 184.5 199.98 184.5 199.98 184.5 199.98 
C 184.5 199.98 184.5 199.98 184.5 199.98 
C 184.5 199.98 184.5 199.98 184.5 199.98 
C 184.5 199.98 184.5 199.98 184.5 199.98 
z
"/>
  </clipPath>
 </defs>
</svg>
