<?xml version="1.0" encoding="utf-8" standalone="no"?>
<!DOCTYPE svg PUBLIC "-//W3C//DTD SVG 1.1//EN"
  "http://www.w3.org/Graphics/SVG/1.1/DTD/svg11.dtd">
<svg xmlns:xlink="http://www.w3.org/1999/xlink" width="374.180625pt" height="353.39625pt" viewBox="0 0 374.180625 353.39625" xmlns="http://www.w3.org/2000/svg" version="1.1">
 <metadata>
  <rdf:RDF xmlns:dc="http://purl.org/dc/elements/1.1/" xmlns:cc="http://creativecommons.org/ns#" xmlns:rdf="http://www.w3.org/1999/02/22-rdf-syntax-ns#">
   <cc:Work>
    <dc:type rdf:resource="http://purl.org/dc/dcmitype/StillImage"/>
    <dc:date>2024-06-21T14:47:35.129997</dc:date>
    <dc:format>image/svg+xml</dc:format>
    <dc:creator>
     <cc:Agent>
      <dc:title>Matplotlib v3.9.0, https://matplotlib.org/</dc:title>
     </cc:Agent>
    </dc:creator>
   </cc:Work>
  </rdf:RDF>
 </metadata>
 <defs>
  <style type="text/css">*{stroke-linejoin: round; stroke-linecap: butt}</style>
 </defs>
 <g id="figure_1">
  <g id="patch_1">
   <path d="M 0 353.39625 
L 374.180625 353.39625 
L 374.180625 0 
L 0 0 
z
" style="fill: #ffffff"/>
  </g>
  <g id="axes_1">
   <g id="patch_2">
    <path d="M 325.690312 188.757188 
C 325.690312 170.556402 322.105155 152.532597 315.140016 135.717264 
C 308.174877 118.901931 297.965211 103.622086 285.095312 90.752188 
C 272.225414 77.882289 256.945569 67.672623 240.130236 60.707484 
C 223.314903 53.742345 205.291098 50.157188 187.090312 50.157188 
C 168.889527 50.157188 150.865722 53.742345 134.050389 60.707484 
C 117.235056 67.672623 101.955211 77.882289 89.085313 90.752188 
C 76.215414 103.622086 66.005748 118.901931 59.040609 135.717264 
C 52.07547 152.532597 48.490312 170.556402 48.490312 188.757188 
C 48.490312 206.957973 52.07547 224.981778 59.040609 241.797111 
C 66.005748 258.612444 76.215414 273.892289 89.085313 286.762187 
C 101.955211 299.632086 117.235056 309.841752 134.050389 316.806891 
C 150.865722 323.77203 168.889527 327.357188 187.090312 327.357188 
C 205.291098 327.357188 223.314903 323.77203 240.130236 316.806891 
C 256.945569 309.841752 272.225414 299.632086 285.095312 286.762187 
C 297.965211 273.892289 308.174877 258.612444 315.140016 241.797111 
C 322.105155 224.981778 325.690312 206.957973 325.690312 188.757188 
M 187.090312 188.757188 
C 187.090312 188.757188 187.090312 188.757188 187.090312 188.757188 
C 187.090312 188.757188 187.090312 188.757188 187.090312 188.757188 
C 187.090312 188.757188 187.090312 188.757188 187.090312 188.757188 
C 187.090312 188.757188 187.090312 188.757188 187.090312 188.757188 
C 187.090312 188.757188 187.090312 188.757188 187.090312 188.757188 
C 187.090312 188.757188 187.090312 188.757188 187.090312 188.757188 
C 187.090312 188.757188 187.090312 188.757188 187.090312 188.757188 
C 187.090312 188.757188 187.090312 188.757188 187.090312 188.757188 
C 187.090312 188.757188 187.090312 188.757188 187.090312 188.757188 
C 187.090312 188.757188 187.090312 188.757188 187.090312 188.757188 
C 187.090312 188.757188 187.090312 188.757188 187.090312 188.757188 
C 187.090312 188.757188 187.090312 188.757188 187.090312 188.757188 
C 187.090312 188.757188 187.090312 188.757188 187.090312 188.757188 
C 187.090312 188.757188 187.090312 188.757188 187.090312 188.757188 
C 187.090312 188.757188 187.090312 188.757188 187.090312 188.757188 
C 187.090312 188.757188 187.090312 188.757188 187.090312 188.757188 
z
" style="fill: #ffffff"/>
   </g>
   <g id="matplotlib.axis_1">
    <g id="xtick_1">
     <g id="line2d_1">
      <path d="M 187.090312 188.757188 
L 325.690312 188.757188 
" clip-path="url(#pe3e5d0a48f)" style="fill: none; stroke: #b0b0b0; stroke-width: 0.8; stroke-linecap: square"/>
     </g>
     <g id="text_1">
      <!-- 0° -->
      <g transform="translate(334.009062 191.516563) scale(0.1 -0.1)">
       <defs>
        <path id="DejaVuSans-30" d="M 2034 4250 
Q 1547 4250 1301 3770 
Q 1056 3291 1056 2328 
Q 1056 1369 1301 889 
Q 1547 409 2034 409 
Q 2525 409 2770 889 
Q 3016 1369 3016 2328 
Q 3016 3291 2770 3770 
Q 2525 4250 2034 4250 
z
M 2034 4750 
Q 2819 4750 3233 4129 
Q 3647 3509 3647 2328 
Q 3647 1150 3233 529 
Q 2819 -91 2034 -91 
Q 1250 -91 836 529 
Q 422 1150 422 2328 
Q 422 3509 836 4129 
Q 1250 4750 2034 4750 
z
" transform="scale(0.015625)"/>
        <path id="DejaVuSans-b0" d="M 1600 4347 
Q 1350 4347 1178 4173 
Q 1006 4000 1006 3750 
Q 1006 3503 1178 3333 
Q 1350 3163 1600 3163 
Q 1850 3163 2022 3333 
Q 2194 3503 2194 3750 
Q 2194 3997 2020 4172 
Q 1847 4347 1600 4347 
z
M 1600 4750 
Q 1800 4750 1984 4673 
Q 2169 4597 2303 4453 
Q 2447 4313 2519 4134 
Q 2591 3956 2591 3750 
Q 2591 3338 2302 3052 
Q 2013 2766 1594 2766 
Q 1172 2766 890 3047 
Q 609 3328 609 3750 
Q 609 4169 896 4459 
Q 1184 4750 1600 4750 
z
" transform="scale(0.015625)"/>
       </defs>
       <use xlink:href="#DejaVuSans-30"/>
       <use xlink:href="#DejaVuSans-b0" x="63.623047"/>
      </g>
     </g>
    </g>
    <g id="xtick_2">
     <g id="line2d_2">
      <path d="M 187.090312 188.757188 
L 285.095312 90.752188 
" clip-path="url(#pe3e5d0a48f)" style="fill: none; stroke: #b0b0b0; stroke-width: 0.8; stroke-linecap: square"/>
     </g>
     <g id="text_2">
      <!-- 45° -->
      <g transform="translate(286.132307 83.612068) scale(0.1 -0.1)">
       <defs>
        <path id="DejaVuSans-34" d="M 2419 4116 
L 825 1625 
L 2419 1625 
L 2419 4116 
z
M 2253 4666 
L 3047 4666 
L 3047 1625 
L 3713 1625 
L 3713 1100 
L 3047 1100 
L 3047 0 
L 2419 0 
L 2419 1100 
L 313 1100 
L 313 1709 
L 2253 4666 
z
" transform="scale(0.015625)"/>
        <path id="DejaVuSans-35" d="M 691 4666 
L 3169 4666 
L 3169 4134 
L 1269 4134 
L 1269 2991 
Q 1406 3038 1543 3061 
Q 1681 3084 1819 3084 
Q 2600 3084 3056 2656 
Q 3513 2228 3513 1497 
Q 3513 744 3044 326 
Q 2575 -91 1722 -91 
Q 1428 -91 1123 -41 
Q 819 9 494 109 
L 494 744 
Q 775 591 1075 516 
Q 1375 441 1709 441 
Q 2250 441 2565 725 
Q 2881 1009 2881 1497 
Q 2881 1984 2565 2268 
Q 2250 2553 1709 2553 
Q 1456 2553 1204 2497 
Q 953 2441 691 2322 
L 691 4666 
z
" transform="scale(0.015625)"/>
       </defs>
       <use xlink:href="#DejaVuSans-34"/>
       <use xlink:href="#DejaVuSans-35" x="63.623047"/>
       <use xlink:href="#DejaVuSans-b0" x="127.246094"/>
      </g>
     </g>
    </g>
    <g id="xtick_3">
     <g id="line2d_3">
      <path d="M 187.090312 188.757188 
L 187.090312 50.157188 
" clip-path="url(#pe3e5d0a48f)" style="fill: none; stroke: #b0b0b0; stroke-width: 0.8; stroke-linecap: square"/>
     </g>
     <g id="text_3">
      <!-- 90° -->
      <g transform="translate(178.227812 38.916563) scale(0.1 -0.1)">
       <defs>
        <path id="DejaVuSans-39" d="M 703 97 
L 703 672 
Q 941 559 1184 500 
Q 1428 441 1663 441 
Q 2288 441 2617 861 
Q 2947 1281 2994 2138 
Q 2813 1869 2534 1725 
Q 2256 1581 1919 1581 
Q 1219 1581 811 2004 
Q 403 2428 403 3163 
Q 403 3881 828 4315 
Q 1253 4750 1959 4750 
Q 2769 4750 3195 4129 
Q 3622 3509 3622 2328 
Q 3622 1225 3098 567 
Q 2575 -91 1691 -91 
Q 1453 -91 1209 -44 
Q 966 3 703 97 
z
M 1959 2075 
Q 2384 2075 2632 2365 
Q 2881 2656 2881 3163 
Q 2881 3666 2632 3958 
Q 2384 4250 1959 4250 
Q 1534 4250 1286 3958 
Q 1038 3666 1038 3163 
Q 1038 2656 1286 2365 
Q 1534 2075 1959 2075 
z
" transform="scale(0.015625)"/>
       </defs>
       <use xlink:href="#DejaVuSans-39"/>
       <use xlink:href="#DejaVuSans-30" x="63.623047"/>
       <use xlink:href="#DejaVuSans-b0" x="127.246094"/>
      </g>
     </g>
    </g>
    <g id="xtick_4">
     <g id="line2d_4">
      <path d="M 187.090312 188.757188 
L 89.085313 90.752188 
" clip-path="url(#pe3e5d0a48f)" style="fill: none; stroke: #b0b0b0; stroke-width: 0.8; stroke-linecap: square"/>
     </g>
     <g id="text_4">
      <!-- 135° -->
      <g transform="translate(67.142068 83.612068) scale(0.1 -0.1)">
       <defs>
        <path id="DejaVuSans-31" d="M 794 531 
L 1825 531 
L 1825 4091 
L 703 3866 
L 703 4441 
L 1819 4666 
L 2450 4666 
L 2450 531 
L 3481 531 
L 3481 0 
L 794 0 
L 794 531 
z
" transform="scale(0.015625)"/>
        <path id="DejaVuSans-33" d="M 2597 2516 
Q 3050 2419 3304 2112 
Q 3559 1806 3559 1356 
Q 3559 666 3084 287 
Q 2609 -91 1734 -91 
Q 1441 -91 1130 -33 
Q 819 25 488 141 
L 488 750 
Q 750 597 1062 519 
Q 1375 441 1716 441 
Q 2309 441 2620 675 
Q 2931 909 2931 1356 
Q 2931 1769 2642 2001 
Q 2353 2234 1838 2234 
L 1294 2234 
L 1294 2753 
L 1863 2753 
Q 2328 2753 2575 2939 
Q 2822 3125 2822 3475 
Q 2822 3834 2567 4026 
Q 2313 4219 1838 4219 
Q 1578 4219 1281 4162 
Q 984 4106 628 3988 
L 628 4550 
Q 988 4650 1302 4700 
Q 1616 4750 1894 4750 
Q 2613 4750 3031 4423 
Q 3450 4097 3450 3541 
Q 3450 3153 3228 2886 
Q 3006 2619 2597 2516 
z
" transform="scale(0.015625)"/>
       </defs>
       <use xlink:href="#DejaVuSans-31"/>
       <use xlink:href="#DejaVuSans-33" x="63.623047"/>
       <use xlink:href="#DejaVuSans-35" x="127.246094"/>
       <use xlink:href="#DejaVuSans-b0" x="190.869141"/>
      </g>
     </g>
    </g>
    <g id="xtick_5">
     <g id="line2d_5">
      <path d="M 187.090312 188.757188 
L 48.490312 188.757188 
" clip-path="url(#pe3e5d0a48f)" style="fill: none; stroke: #b0b0b0; stroke-width: 0.8; stroke-linecap: square"/>
     </g>
     <g id="text_5">
      <!-- 180° -->
      <g transform="translate(22.446562 191.516563) scale(0.1 -0.1)">
       <defs>
        <path id="DejaVuSans-38" d="M 2034 2216 
Q 1584 2216 1326 1975 
Q 1069 1734 1069 1313 
Q 1069 891 1326 650 
Q 1584 409 2034 409 
Q 2484 409 2743 651 
Q 3003 894 3003 1313 
Q 3003 1734 2745 1975 
Q 2488 2216 2034 2216 
z
M 1403 2484 
Q 997 2584 770 2862 
Q 544 3141 544 3541 
Q 544 4100 942 4425 
Q 1341 4750 2034 4750 
Q 2731 4750 3128 4425 
Q 3525 4100 3525 3541 
Q 3525 3141 3298 2862 
Q 3072 2584 2669 2484 
Q 3125 2378 3379 2068 
Q 3634 1759 3634 1313 
Q 3634 634 3220 271 
Q 2806 -91 2034 -91 
Q 1263 -91 848 271 
Q 434 634 434 1313 
Q 434 1759 690 2068 
Q 947 2378 1403 2484 
z
M 1172 3481 
Q 1172 3119 1398 2916 
Q 1625 2713 2034 2713 
Q 2441 2713 2670 2916 
Q 2900 3119 2900 3481 
Q 2900 3844 2670 4047 
Q 2441 4250 2034 4250 
Q 1625 4250 1398 4047 
Q 1172 3844 1172 3481 
z
" transform="scale(0.015625)"/>
       </defs>
       <use xlink:href="#DejaVuSans-31"/>
       <use xlink:href="#DejaVuSans-38" x="63.623047"/>
       <use xlink:href="#DejaVuSans-30" x="127.246094"/>
       <use xlink:href="#DejaVuSans-b0" x="190.869141"/>
      </g>
     </g>
    </g>
    <g id="xtick_6">
     <g id="line2d_6">
      <path d="M 187.090312 188.757188 
L 89.085313 286.762187 
" clip-path="url(#pe3e5d0a48f)" style="fill: none; stroke: #b0b0b0; stroke-width: 0.8; stroke-linecap: square"/>
     </g>
     <g id="text_6">
      <!-- 225° -->
      <g transform="translate(67.142068 299.421057) scale(0.1 -0.1)">
       <defs>
        <path id="DejaVuSans-32" d="M 1228 531 
L 3431 531 
L 3431 0 
L 469 0 
L 469 531 
Q 828 903 1448 1529 
Q 2069 2156 2228 2338 
Q 2531 2678 2651 2914 
Q 2772 3150 2772 3378 
Q 2772 3750 2511 3984 
Q 2250 4219 1831 4219 
Q 1534 4219 1204 4116 
Q 875 4013 500 3803 
L 500 4441 
Q 881 4594 1212 4672 
Q 1544 4750 1819 4750 
Q 2544 4750 2975 4387 
Q 3406 4025 3406 3419 
Q 3406 3131 3298 2873 
Q 3191 2616 2906 2266 
Q 2828 2175 2409 1742 
Q 1991 1309 1228 531 
z
" transform="scale(0.015625)"/>
       </defs>
       <use xlink:href="#DejaVuSans-32"/>
       <use xlink:href="#DejaVuSans-32" x="63.623047"/>
       <use xlink:href="#DejaVuSans-35" x="127.246094"/>
       <use xlink:href="#DejaVuSans-b0" x="190.869141"/>
      </g>
     </g>
    </g>
    <g id="xtick_7">
     <g id="line2d_7">
      <path d="M 187.090312 188.757188 
L 187.090312 327.357188 
" clip-path="url(#pe3e5d0a48f)" style="fill: none; stroke: #b0b0b0; stroke-width: 0.8; stroke-linecap: square"/>
     </g>
     <g id="text_7">
      <!-- 270° -->
      <g transform="translate(175.046562 344.116563) scale(0.1 -0.1)">
       <defs>
        <path id="DejaVuSans-37" d="M 525 4666 
L 3525 4666 
L 3525 4397 
L 1831 0 
L 1172 0 
L 2766 4134 
L 525 4134 
L 525 4666 
z
" transform="scale(0.015625)"/>
       </defs>
       <use xlink:href="#DejaVuSans-32"/>
       <use xlink:href="#DejaVuSans-37" x="63.623047"/>
       <use xlink:href="#DejaVuSans-30" x="127.246094"/>
       <use xlink:href="#DejaVuSans-b0" x="190.869141"/>
      </g>
     </g>
    </g>
    <g id="xtick_8">
     <g id="line2d_8">
      <path d="M 187.090312 188.757188 
L 285.095312 286.762187 
" clip-path="url(#pe3e5d0a48f)" style="fill: none; stroke: #b0b0b0; stroke-width: 0.8; stroke-linecap: square"/>
     </g>
     <g id="text_8">
      <!-- 315° -->
      <g transform="translate(282.951057 299.421057) scale(0.1 -0.1)">
       <use xlink:href="#DejaVuSans-33"/>
       <use xlink:href="#DejaVuSans-31" x="63.623047"/>
       <use xlink:href="#DejaVuSans-35" x="127.246094"/>
       <use xlink:href="#DejaVuSans-b0" x="190.869141"/>
      </g>
     </g>
    </g>
   </g>
   <g id="matplotlib.axis_2">
    <g id="ytick_1">
     <g id="line2d_9">
      <path d="M 210.190312 188.757188 
C 210.190312 185.723723 209.592786 182.719756 208.43193 179.9172 
C 207.271073 177.114645 205.569462 174.568004 203.424479 172.423021 
C 201.279496 170.278038 198.732855 168.576427 195.9303 167.41557 
C 193.127744 166.254714 190.123777 165.657188 187.090312 165.657188 
C 184.056848 165.657188 181.052881 166.254714 178.250325 167.41557 
C 175.44777 168.576427 172.901129 170.278038 170.756146 172.423021 
C 168.611163 174.568004 166.909552 177.114645 165.748695 179.9172 
C 164.587839 182.719756 163.990312 185.723723 163.990312 188.757188 
C 163.990312 191.790652 164.587839 194.794619 165.748695 197.597175 
C 166.909552 200.39973 168.611163 202.946371 170.756146 205.091354 
C 172.901129 207.236337 175.44777 208.937948 178.250325 210.098805 
C 181.052881 211.259661 184.056848 211.857188 187.090312 211.857188 
C 190.123777 211.857188 193.127744 211.259661 195.9303 210.098805 
C 198.732855 208.937948 201.279496 207.236337 203.424479 205.091354 
C 205.569462 202.946371 207.271073 200.39973 208.43193 197.597175 
C 209.592786 194.794619 210.190312 191.790652 210.190312 188.757188 
" clip-path="url(#pe3e5d0a48f)" style="fill: none; stroke: #b0b0b0; stroke-width: 0.8; stroke-linecap: square"/>
     </g>
     <g id="text_9">
      <!-- 0.05 -->
      <g transform="translate(199.0575 186.6775) scale(0.1 -0.1)">
       <defs>
        <path id="DejaVuSans-2e" d="M 684 794 
L 1344 794 
L 1344 0 
L 684 0 
L 684 794 
z
" transform="scale(0.015625)"/>
       </defs>
       <use xlink:href="#DejaVuSans-30"/>
       <use xlink:href="#DejaVuSans-2e" x="63.623047"/>
       <use xlink:href="#DejaVuSans-30" x="95.410156"/>
       <use xlink:href="#DejaVuSans-35" x="159.033203"/>
      </g>
     </g>
    </g>
    <g id="ytick_2">
     <g id="line2d_10">
      <path d="M 233.290312 188.757188 
C 233.290312 182.690259 232.09526 176.682324 229.773547 171.077213 
C 227.451834 165.472102 224.048612 160.37882 219.758646 156.088854 
C 215.46868 151.798888 210.375398 148.395666 204.770287 146.073953 
C 199.165176 143.75224 193.157241 142.557188 187.090312 142.557188 
C 181.023384 142.557188 175.015449 143.75224 169.410338 146.073953 
C 163.805227 148.395666 158.711945 151.798888 154.421979 156.088854 
C 150.132013 160.37882 146.728791 165.472102 144.407078 171.077213 
C 142.085365 176.682324 140.890312 182.690259 140.890312 188.757188 
C 140.890312 194.824116 142.085365 200.832051 144.407078 206.437162 
C 146.728791 212.042273 150.132013 217.135555 154.421979 221.425521 
C 158.711945 225.715487 163.805227 229.118709 169.410338 231.440422 
C 175.015449 233.762135 181.023384 234.957188 187.090312 234.957188 
C 193.157241 234.957188 199.165176 233.762135 204.770287 231.440422 
C 210.375398 229.118709 215.46868 225.715487 219.758646 221.425521 
C 224.048612 217.135555 227.451834 212.042273 229.773547 206.437162 
C 232.09526 200.832051 233.290312 194.824116 233.290312 188.757188 
" clip-path="url(#pe3e5d0a48f)" style="fill: none; stroke: #b0b0b0; stroke-width: 0.8; stroke-linecap: square"/>
     </g>
    </g>
    <g id="ytick_3">
     <g id="line2d_11">
      <path d="M 256.390312 188.757188 
C 256.390312 179.656795 254.597734 170.644892 251.115164 162.237226 
C 247.632595 153.829559 242.527762 146.189637 236.092812 139.754688 
C 229.657863 133.319738 222.017941 128.214905 213.610274 124.732336 
C 205.202608 121.249766 196.190705 119.457188 187.090312 119.457188 
C 177.98992 119.457188 168.978017 121.249766 160.570351 124.732336 
C 152.162684 128.214905 144.522762 133.319738 138.087813 139.754688 
C 131.652863 146.189637 126.54803 153.829559 123.065461 162.237226 
C 119.582891 170.644892 117.790312 179.656795 117.790312 188.757188 
C 117.790312 197.85758 119.582891 206.869483 123.065461 215.277149 
C 126.54803 223.684816 131.652863 231.324738 138.087813 237.759687 
C 144.522762 244.194637 152.162684 249.29947 160.570351 252.782039 
C 168.978017 256.264609 177.98992 258.057188 187.090312 258.057188 
C 196.190705 258.057188 205.202608 256.264609 213.610274 252.782039 
C 222.017941 249.29947 229.657863 244.194637 236.092812 237.759687 
C 242.527762 231.324738 247.632595 223.684816 251.115164 215.277149 
C 254.597734 206.869483 256.390312 197.85758 256.390312 188.757188 
" clip-path="url(#pe3e5d0a48f)" style="fill: none; stroke: #b0b0b0; stroke-width: 0.8; stroke-linecap: square"/>
     </g>
     <g id="text_10">
      <!-- 0.15 -->
      <g transform="translate(245.2575 186.6775) scale(0.1 -0.1)">
       <use xlink:href="#DejaVuSans-30"/>
       <use xlink:href="#DejaVuSans-2e" x="63.623047"/>
       <use xlink:href="#DejaVuSans-31" x="95.410156"/>
       <use xlink:href="#DejaVuSans-35" x="159.033203"/>
      </g>
     </g>
    </g>
    <g id="ytick_4">
     <g id="line2d_12">
      <path d="M 279.490312 188.757188 
C 279.490312 176.623331 277.100207 164.60746 272.456781 153.397238 
C 267.813355 142.187016 261.006912 132.000453 252.426979 123.420521 
C 243.847047 114.840588 233.660484 108.034145 222.450262 103.390719 
C 211.24004 98.747293 199.224169 96.357188 187.090312 96.357188 
C 174.956456 96.357188 162.940585 98.747293 151.730363 103.390719 
C 140.520141 108.034145 130.333578 114.840588 121.753646 123.420521 
C 113.173713 132.000453 106.36727 142.187016 101.723844 153.397238 
C 97.080418 164.60746 94.690312 176.623331 94.690312 188.757188 
C 94.690312 200.891044 97.080418 212.906915 101.723844 224.117137 
C 106.36727 235.327359 113.173713 245.513922 121.753646 254.093854 
C 130.333578 262.673787 140.520141 269.48023 151.730363 274.123656 
C 162.940585 278.767082 174.956456 281.157188 187.090312 281.157188 
C 199.224169 281.157188 211.24004 278.767082 222.450262 274.123656 
C 233.660484 269.48023 243.847047 262.673787 252.426979 254.093854 
C 261.006912 245.513922 267.813355 235.327359 272.456781 224.117137 
C 277.100207 212.906915 279.490312 200.891044 279.490312 188.757188 
" clip-path="url(#pe3e5d0a48f)" style="fill: none; stroke: #b0b0b0; stroke-width: 0.8; stroke-linecap: square"/>
     </g>
    </g>
    <g id="ytick_5">
     <g id="line2d_13">
      <path d="M 302.590312 188.757188 
C 302.590312 173.589866 299.602681 158.570029 293.798399 144.557251 
C 287.994116 130.544474 279.486061 117.81127 268.761146 107.086354 
C 258.03623 96.361439 245.303026 87.853384 231.290249 82.049101 
C 217.277471 76.244819 202.257634 73.257188 187.090312 73.257188 
C 171.922991 73.257188 156.903154 76.244819 142.890376 82.049101 
C 128.877599 87.853384 116.144395 96.361439 105.419479 107.086354 
C 94.694564 117.81127 86.186509 130.544474 80.382226 144.557251 
C 74.577944 158.570029 71.590312 173.589866 71.590312 188.757188 
C 71.590312 203.924509 74.577944 218.944346 80.382226 232.957124 
C 86.186509 246.969901 94.694564 259.703105 105.419479 270.428021 
C 116.144395 281.152936 128.877599 289.660991 142.890376 295.465274 
C 156.903154 301.269556 171.922991 304.257188 187.090312 304.257188 
C 202.257634 304.257188 217.277471 301.269556 231.290249 295.465274 
C 245.303026 289.660991 258.03623 281.152936 268.761146 270.428021 
C 279.486061 259.703105 287.994116 246.969901 293.798399 232.957124 
C 299.602681 218.944346 302.590312 203.924509 302.590312 188.757188 
" clip-path="url(#pe3e5d0a48f)" style="fill: none; stroke: #b0b0b0; stroke-width: 0.8; stroke-linecap: square"/>
     </g>
     <g id="text_11">
      <!-- 0.25 -->
      <g transform="translate(291.4575 186.6775) scale(0.1 -0.1)">
       <use xlink:href="#DejaVuSans-30"/>
       <use xlink:href="#DejaVuSans-2e" x="63.623047"/>
       <use xlink:href="#DejaVuSans-32" x="95.410156"/>
       <use xlink:href="#DejaVuSans-35" x="159.033203"/>
      </g>
     </g>
    </g>
    <g id="ytick_6">
     <g id="line2d_14">
      <path d="M 325.690312 188.757188 
C 325.690312 170.556402 322.105155 152.532597 315.140016 135.717264 
C 308.174877 118.901931 297.965211 103.622086 285.095312 90.752188 
C 272.225414 77.882289 256.945569 67.672623 240.130236 60.707484 
C 223.314903 53.742345 205.291098 50.157188 187.090312 50.157188 
C 168.889527 50.157188 150.865722 53.742345 134.050389 60.707484 
C 117.235056 67.672623 101.955211 77.882289 89.085313 90.752188 
C 76.215414 103.622086 66.005748 118.901931 59.040609 135.717264 
C 52.07547 152.532597 48.490312 170.556402 48.490312 188.757188 
C 48.490312 206.957973 52.07547 224.981778 59.040609 241.797111 
C 66.005748 258.612444 76.215414 273.892289 89.085313 286.762187 
C 101.955211 299.632086 117.235056 309.841752 134.050389 316.806891 
C 150.865722 323.77203 168.889527 327.357188 187.090312 327.357188 
C 205.291098 327.357188 223.314903 323.77203 240.130236 316.806891 
C 256.945569 309.841752 272.225414 299.632086 285.095312 286.762187 
C 297.965211 273.892289 308.174877 258.612444 315.140016 241.797111 
C 322.105155 224.981778 325.690312 206.957973 325.690312 188.757188 
" clip-path="url(#pe3e5d0a48f)" style="fill: none; stroke: #b0b0b0; stroke-width: 0.8; stroke-linecap: square"/>
     </g>
    </g>
   </g>
   <g id="PathCollection_1">
    <defs>
     <path id="mfd86b9228d" d="M 0 4.472136 
C 1.186024 4.472136 2.323632 4.000923 3.162278 3.162278 
C 4.000923 2.323632 4.472136 1.186024 4.472136 0 
C 4.472136 -1.186024 4.000923 -2.323632 3.162278 -3.162278 
C 2.323632 -4.000923 1.186024 -4.472136 0 -4.472136 
C -1.186024 -4.472136 -2.323632 -4.000923 -3.162278 -3.162278 
C -4.000923 -2.323632 -4.472136 -1.186024 -4.472136 0 
C -4.472136 1.186024 -4.000923 2.323632 -3.162278 3.162278 
C -2.323632 4.000923 -1.186024 4.472136 0 4.472136 
z
" style="stroke: #000000"/>
    </defs>
    <g clip-path="url(#pe3e5d0a48f)">
     <use xlink:href="#mfd86b9228d" x="263.760665" y="145.848059" style="fill: #aa0000; stroke: #000000"/>
    </g>
   </g>
   <g id="PathCollection_2">
    <defs>
     <path id="mecdfdf3859" d="M 0 4.472136 
C 1.186024 4.472136 2.323632 4.000923 3.162278 3.162278 
C 4.000923 2.323632 4.472136 1.186024 4.472136 0 
C 4.472136 -1.186024 4.000923 -2.323632 3.162278 -3.162278 
C 2.323632 -4.000923 1.186024 -4.472136 0 -4.472136 
C -1.186024 -4.472136 -2.323632 -4.000923 -3.162278 -3.162278 
C -4.000923 -2.323632 -4.472136 -1.186024 -4.472136 0 
C -4.472136 1.186024 -4.000923 2.323632 -3.162278 3.162278 
C -2.323632 4.000923 -1.186024 4.472136 0 4.472136 
z
" style="stroke: #000000"/>
    </defs>
    <g clip-path="url(#pe3e5d0a48f)">
     <use xlink:href="#mecdfdf3859" x="107.342921" y="127.554567" style="fill: #00aa00; stroke: #000000"/>
    </g>
   </g>
   <g id="PathCollection_3">
    <defs>
     <path id="m9acdb21003" d="M 0 4.472136 
C 1.186024 4.472136 2.323632 4.000923 3.162278 3.162278 
C 4.000923 2.323632 4.472136 1.186024 4.472136 0 
C 4.472136 -1.186024 4.000923 -2.323632 3.162278 -3.162278 
C 2.323632 -4.000923 1.186024 -4.472136 0 -4.472136 
C -1.186024 -4.472136 -2.323632 -4.000923 -3.162278 -3.162278 
C -4.000923 -2.323632 -4.472136 -1.186024 -4.472136 0 
C -4.472136 1.186024 -4.000923 2.323632 -3.162278 3.162278 
C -2.323632 4.000923 -1.186024 4.472136 0 4.472136 
z
" style="stroke: #000000"/>
    </defs>
    <g clip-path="url(#pe3e5d0a48f)">
     <use xlink:href="#m9acdb21003" x="223.865243" y="137.867419" style="fill: #aa5500; stroke: #000000"/>
    </g>
   </g>
   <g id="PathCollection_4">
    <defs>
     <path id="m8dfa1d99c5" d="M 0 4.472136 
C 1.186024 4.472136 2.323632 4.000923 3.162278 3.162278 
C 4.000923 2.323632 4.472136 1.186024 4.472136 0 
C 4.472136 -1.186024 4.000923 -2.323632 3.162278 -3.162278 
C 2.323632 -4.000923 1.186024 -4.472136 0 -4.472136 
C -1.186024 -4.472136 -2.323632 -4.000923 -3.162278 -3.162278 
C -4.000923 -2.323632 -4.472136 -1.186024 -4.472136 0 
C -4.472136 1.186024 -4.000923 2.323632 -3.162278 3.162278 
C -2.323632 4.000923 -1.186024 4.472136 0 4.472136 
z
" style="stroke: #000000"/>
    </defs>
    <g clip-path="url(#pe3e5d0a48f)">
     <use xlink:href="#m8dfa1d99c5" x="176.023632" y="294.977272" style="fill: #0000aa; stroke: #000000"/>
    </g>
   </g>
   <g id="PathCollection_5">
    <defs>
     <path id="md7ce001596" d="M 0 4.472136 
C 1.186024 4.472136 2.323632 4.000923 3.162278 3.162278 
C 4.000923 2.323632 4.472136 1.186024 4.472136 0 
C 4.472136 -1.186024 4.000923 -2.323632 3.162278 -3.162278 
C 2.323632 -4.000923 1.186024 -4.472136 0 -4.472136 
C -1.186024 -4.472136 -2.323632 -4.000923 -3.162278 -3.162278 
C -4.000923 -2.323632 -4.472136 -1.186024 -4.472136 0 
C -4.472136 1.186024 -4.000923 2.323632 -3.162278 3.162278 
C -2.323632 4.000923 -1.186024 4.472136 0 4.472136 
z
" style="stroke: #000000"/>
    </defs>
    <g clip-path="url(#pe3e5d0a48f)">
     <use xlink:href="#md7ce001596" x="280.70771" y="246.433429" style="fill: #aa00aa; stroke: #000000"/>
    </g>
   </g>
   <g id="PathCollection_6">
    <defs>
     <path id="md70670d86c" d="M 0 4.472136 
C 1.186024 4.472136 2.323632 4.000923 3.162278 3.162278 
C 4.000923 2.323632 4.472136 1.186024 4.472136 0 
C 4.472136 -1.186024 4.000923 -2.323632 3.162278 -3.162278 
C 2.323632 -4.000923 1.186024 -4.472136 0 -4.472136 
C -1.186024 -4.472136 -2.323632 -4.000923 -3.162278 -3.162278 
C -4.000923 -2.323632 -4.472136 -1.186024 -4.472136 0 
C -4.472136 1.186024 -4.000923 2.323632 -3.162278 3.162278 
C -2.323632 4.000923 -1.186024 4.472136 0 4.472136 
z
" style="stroke: #000000"/>
    </defs>
    <g clip-path="url(#pe3e5d0a48f)">
     <use xlink:href="#md70670d86c" x="136.135214" y="202.190577" style="fill: #00aaaa; stroke: #000000"/>
    </g>
   </g>
   <g id="PathCollection_7">
    <defs>
     <path id="macfc13403b" d="M 0 4.472136 
C 1.186024 4.472136 2.323632 4.000923 3.162278 3.162278 
C 4.000923 2.323632 4.472136 1.186024 4.472136 0 
C 4.472136 -1.186024 4.000923 -2.323632 3.162278 -3.162278 
C 2.323632 -4.000923 1.186024 -4.472136 0 -4.472136 
C -1.186024 -4.472136 -2.323632 -4.000923 -3.162278 -3.162278 
C -4.000923 -2.323632 -4.472136 -1.186024 -4.472136 0 
C -4.472136 1.186024 -4.000923 2.323632 -3.162278 3.162278 
C -2.323632 4.000923 -1.186024 4.472136 0 4.472136 
z
" style="stroke: #000000"/>
    </defs>
    <g clip-path="url(#pe3e5d0a48f)">
     <use xlink:href="#macfc13403b" x="273.878797" y="149.331627" style="fill: #ff5555; stroke: #000000"/>
    </g>
   </g>
   <g id="PathCollection_8">
    <defs>
     <path id="md74fbc3ea4" d="M 0 4.472136 
C 1.186024 4.472136 2.323632 4.000923 3.162278 3.162278 
C 4.000923 2.323632 4.472136 1.186024 4.472136 0 
C 4.472136 -1.186024 4.000923 -2.323632 3.162278 -3.162278 
C 2.323632 -4.000923 1.186024 -4.472136 0 -4.472136 
C -1.186024 -4.472136 -2.323632 -4.000923 -3.162278 -3.162278 
C -4.000923 -2.323632 -4.472136 -1.186024 -4.472136 0 
C -4.472136 1.186024 -4.000923 2.323632 -3.162278 3.162278 
C -2.323632 4.000923 -1.186024 4.472136 0 4.472136 
z
" style="stroke: #000000"/>
    </defs>
    <g clip-path="url(#pe3e5d0a48f)">
     <use xlink:href="#md74fbc3ea4" x="93.971681" y="118.736847" style="fill: #55ff55; stroke: #000000"/>
    </g>
   </g>
   <g id="PathCollection_9">
    <defs>
     <path id="m92a7cbe8af" d="M 0 4.472136 
C 1.186024 4.472136 2.323632 4.000923 3.162278 3.162278 
C 4.000923 2.323632 4.472136 1.186024 4.472136 0 
C 4.472136 -1.186024 4.000923 -2.323632 3.162278 -3.162278 
C 2.323632 -4.000923 1.186024 -4.472136 0 -4.472136 
C -1.186024 -4.472136 -2.323632 -4.000923 -3.162278 -3.162278 
C -4.000923 -2.323632 -4.472136 -1.186024 -4.472136 0 
C -4.472136 1.186024 -4.000923 2.323632 -3.162278 3.162278 
C -2.323632 4.000923 -1.186024 4.472136 0 4.472136 
z
" style="stroke: #000000"/>
    </defs>
    <g clip-path="url(#pe3e5d0a48f)">
     <use xlink:href="#m92a7cbe8af" x="159.006941" y="108.905244" style="fill: #ffff55; stroke: #000000"/>
    </g>
   </g>
   <g id="PathCollection_10">
    <defs>
     <path id="mc5a5157176" d="M 0 4.472136 
C 1.186024 4.472136 2.323632 4.000923 3.162278 3.162278 
C 4.000923 2.323632 4.472136 1.186024 4.472136 0 
C 4.472136 -1.186024 4.000923 -2.323632 3.162278 -3.162278 
C 2.323632 -4.000923 1.186024 -4.472136 0 -4.472136 
C -1.186024 -4.472136 -2.323632 -4.000923 -3.162278 -3.162278 
C -4.000923 -2.323632 -4.472136 -1.186024 -4.472136 0 
C -4.472136 1.186024 -4.000923 2.323632 -3.162278 3.162278 
C -2.323632 4.000923 -1.186024 4.472136 0 4.472136 
z
" style="stroke: #000000"/>
    </defs>
    <g clip-path="url(#pe3e5d0a48f)">
     <use xlink:href="#mc5a5157176" x="197.154961" y="301.104339" style="fill: #5555ff; stroke: #000000"/>
    </g>
   </g>
   <g id="PathCollection_11">
    <defs>
     <path id="mb8fb9a5f0c" d="M 0 4.472136 
C 1.186024 4.472136 2.323632 4.000923 3.162278 3.162278 
C 4.000923 2.323632 4.472136 1.186024 4.472136 0 
C 4.472136 -1.186024 4.000923 -2.323632 3.162278 -3.162278 
C 2.323632 -4.000923 1.186024 -4.472136 0 -4.472136 
C -1.186024 -4.472136 -2.323632 -4.000923 -3.162278 -3.162278 
C -4.000923 -2.323632 -4.472136 -1.186024 -4.472136 0 
C -4.472136 1.186024 -4.000923 2.323632 -3.162278 3.162278 
C -2.323632 4.000923 -1.186024 4.472136 0 4.472136 
z
" style="stroke: #000000"/>
    </defs>
    <g clip-path="url(#pe3e5d0a48f)">
     <use xlink:href="#mb8fb9a5f0c" x="293.467623" y="255.496587" style="fill: #ff55ff; stroke: #000000"/>
    </g>
   </g>
   <g id="PathCollection_12">
    <defs>
     <path id="m3beccbfc83" d="M 0 4.472136 
C 1.186024 4.472136 2.323632 4.000923 3.162278 3.162278 
C 4.000923 2.323632 4.472136 1.186024 4.472136 0 
C 4.472136 -1.186024 4.000923 -2.323632 3.162278 -3.162278 
C 2.323632 -4.000923 1.186024 -4.472136 0 -4.472136 
C -1.186024 -4.472136 -2.323632 -4.000923 -3.162278 -3.162278 
C -4.000923 -2.323632 -4.472136 -1.186024 -4.472136 0 
C -4.472136 1.186024 -4.000923 2.323632 -3.162278 3.162278 
C -2.323632 4.000923 -1.186024 4.472136 0 4.472136 
z
" style="stroke: #000000"/>
    </defs>
    <g clip-path="url(#pe3e5d0a48f)">
     <use xlink:href="#m3beccbfc83" x="126.189896" y="205.112117" style="fill: #55ffff; stroke: #000000"/>
    </g>
   </g>
   <g id="PathCollection_13">
    <defs>
     <path id="mdd8c17c9fe" d="M -0 5.477226 
L 3.286335 0 
L 0 -5.477226 
L -3.286335 -0 
z
" style="stroke: #000000"/>
    </defs>
    <g clip-path="url(#pe3e5d0a48f)">
     <use xlink:href="#mdd8c17c9fe" x="222.162633" y="137.452633" style="fill: #ffa563; stroke: #000000"/>
    </g>
   </g>
   <g id="PathCollection_14">
    <defs>
     <path id="m8e0d7ee445" d="M -0 5.477226 
L 3.286335 0 
L 0 -5.477226 
L -3.286335 -0 
z
" style="stroke: #000000"/>
    </defs>
    <g clip-path="url(#pe3e5d0a48f)">
     <use xlink:href="#m8e0d7ee445" x="223.680185" y="116.744618" style="fill: #ff9600; stroke: #000000"/>
    </g>
   </g>
   <g id="PathCollection_15">
    <defs>
     <path id="m72ecab2528" d="M 0 4.472136 
C 1.186024 4.472136 2.323632 4.000923 3.162278 3.162278 
C 4.000923 2.323632 4.472136 1.186024 4.472136 0 
C 4.472136 -1.186024 4.000923 -2.323632 3.162278 -3.162278 
C 2.323632 -4.000923 1.186024 -4.472136 0 -4.472136 
C -1.186024 -4.472136 -2.323632 -4.000923 -3.162278 -3.162278 
C -4.000923 -2.323632 -4.472136 -1.186024 -4.472136 0 
C -4.472136 1.186024 -4.000923 2.323632 -3.162278 3.162278 
C -2.323632 4.000923 -1.186024 4.472136 0 4.472136 
z
" style="stroke: #000000"/>
    </defs>
    <g clip-path="url(#pe3e5d0a48f)">
     <use xlink:href="#m72ecab2528" x="187.090312" y="188.757188" style="fill: #707070; stroke: #000000"/>
    </g>
   </g>
   <g id="patch_3">
    <path d="M 325.690312 188.757188 
C 325.690312 170.556402 322.105155 152.532597 315.140016 135.717264 
C 308.174877 118.901931 297.965211 103.622086 285.095312 90.752188 
C 272.225414 77.882289 256.945569 67.672623 240.130236 60.707484 
C 223.314903 53.742345 205.291098 50.157188 187.090312 50.157188 
C 168.889527 50.157188 150.865722 53.742345 134.050389 60.707484 
C 117.235056 67.672623 101.955211 77.882289 89.085313 90.752188 
C 76.215414 103.622086 66.005748 118.901931 59.040609 135.717264 
C 52.07547 152.532597 48.490312 170.556402 48.490312 188.757188 
C 48.490312 206.957973 52.07547 224.981778 59.040609 241.797111 
C 66.005748 258.612444 76.215414 273.892289 89.085313 286.762187 
C 101.955211 299.632086 117.235056 309.841752 134.050389 316.806891 
C 150.865722 323.77203 168.889527 327.357188 187.090312 327.357188 
C 205.291098 327.357188 223.314903 323.77203 240.130236 316.806891 
C 256.945569 309.841752 272.225414 299.632086 285.095312 286.762187 
C 297.965211 273.892289 308.174877 258.612444 315.140016 241.797111 
C 322.105155 224.981778 325.690312 206.957973 325.690312 188.757188 
" style="fill: none; stroke: #000000; stroke-width: 0.8; stroke-linejoin: miter; stroke-linecap: square"/>
   </g>
   <g id="text_12">
    <!-- VGA: Hue &amp; Chroma for 12+4+2 ANSI Colors in Oklab -->
    <g transform="translate(7.2 16.318125) scale(0.12 -0.12)">
     <defs>
      <path id="DejaVuSans-Bold-56" d="M 31 4666 
L 1241 4666 
L 2478 1222 
L 3713 4666 
L 4922 4666 
L 3194 0 
L 1759 0 
L 31 4666 
z
" transform="scale(0.015625)"/>
      <path id="DejaVuSans-Bold-47" d="M 4781 347 
Q 4331 128 3847 18 
Q 3363 -91 2847 -91 
Q 1681 -91 1000 561 
Q 319 1213 319 2328 
Q 319 3456 1012 4103 
Q 1706 4750 2913 4750 
Q 3378 4750 3804 4662 
Q 4231 4575 4609 4403 
L 4609 3438 
Q 4219 3659 3833 3768 
Q 3447 3878 3059 3878 
Q 2341 3878 1952 3476 
Q 1563 3075 1563 2328 
Q 1563 1588 1938 1184 
Q 2313 781 3003 781 
Q 3191 781 3352 804 
Q 3513 828 3641 878 
L 3641 1784 
L 2906 1784 
L 2906 2591 
L 4781 2591 
L 4781 347 
z
" transform="scale(0.015625)"/>
      <path id="DejaVuSans-Bold-41" d="M 3419 850 
L 1538 850 
L 1241 0 
L 31 0 
L 1759 4666 
L 3194 4666 
L 4922 0 
L 3713 0 
L 3419 850 
z
M 1838 1716 
L 3116 1716 
L 2478 3572 
L 1838 1716 
z
" transform="scale(0.015625)"/>
      <path id="DejaVuSans-Bold-3a" d="M 716 3500 
L 1844 3500 
L 1844 2291 
L 716 2291 
L 716 3500 
z
M 716 1209 
L 1844 1209 
L 1844 0 
L 716 0 
L 716 1209 
z
" transform="scale(0.015625)"/>
      <path id="DejaVuSans-Bold-20" transform="scale(0.015625)"/>
      <path id="DejaVuSans-Bold-48" d="M 588 4666 
L 1791 4666 
L 1791 2888 
L 3566 2888 
L 3566 4666 
L 4769 4666 
L 4769 0 
L 3566 0 
L 3566 1978 
L 1791 1978 
L 1791 0 
L 588 0 
L 588 4666 
z
" transform="scale(0.015625)"/>
      <path id="DejaVuSans-Bold-75" d="M 500 1363 
L 500 3500 
L 1625 3500 
L 1625 3150 
Q 1625 2866 1622 2436 
Q 1619 2006 1619 1863 
Q 1619 1441 1641 1255 
Q 1663 1069 1716 984 
Q 1784 875 1895 815 
Q 2006 756 2150 756 
Q 2500 756 2700 1025 
Q 2900 1294 2900 1772 
L 2900 3500 
L 4019 3500 
L 4019 0 
L 2900 0 
L 2900 506 
Q 2647 200 2364 54 
Q 2081 -91 1741 -91 
Q 1134 -91 817 281 
Q 500 653 500 1363 
z
" transform="scale(0.015625)"/>
      <path id="DejaVuSans-Bold-65" d="M 4031 1759 
L 4031 1441 
L 1416 1441 
Q 1456 1047 1700 850 
Q 1944 653 2381 653 
Q 2734 653 3104 758 
Q 3475 863 3866 1075 
L 3866 213 
Q 3469 63 3072 -14 
Q 2675 -91 2278 -91 
Q 1328 -91 801 392 
Q 275 875 275 1747 
Q 275 2603 792 3093 
Q 1309 3584 2216 3584 
Q 3041 3584 3536 3087 
Q 4031 2591 4031 1759 
z
M 2881 2131 
Q 2881 2450 2695 2645 
Q 2509 2841 2209 2841 
Q 1884 2841 1681 2658 
Q 1478 2475 1428 2131 
L 2881 2131 
z
" transform="scale(0.015625)"/>
      <path id="DejaVuSans-Bold-26" d="M 2497 3097 
L 3775 1691 
Q 3941 1909 4027 2181 
Q 4113 2453 4128 2797 
L 5100 2797 
Q 5053 2228 4879 1784 
Q 4706 1341 4397 1006 
L 5313 0 
L 3988 0 
L 3681 341 
Q 3353 122 2990 15 
Q 2628 -91 2222 -91 
Q 1400 -91 892 342 
Q 384 775 384 1459 
Q 384 1916 607 2267 
Q 831 2619 1338 2950 
Q 1206 3116 1143 3281 
Q 1081 3447 1081 3628 
Q 1081 4138 1478 4444 
Q 1875 4750 2534 4750 
Q 2819 4750 3126 4704 
Q 3434 4659 3769 4569 
L 3769 3700 
Q 3475 3850 3212 3922 
Q 2950 3994 2700 3994 
Q 2459 3994 2326 3901 
Q 2194 3809 2194 3641 
Q 2194 3534 2270 3398 
Q 2347 3263 2497 3097 
z
M 1875 2322 
Q 1672 2175 1569 1989 
Q 1466 1803 1466 1581 
Q 1466 1222 1731 969 
Q 1997 716 2369 716 
Q 2578 716 2759 780 
Q 2941 844 3097 972 
L 1875 2322 
z
" transform="scale(0.015625)"/>
      <path id="DejaVuSans-Bold-43" d="M 4288 256 
Q 3956 84 3597 -3 
Q 3238 -91 2847 -91 
Q 1681 -91 1000 561 
Q 319 1213 319 2328 
Q 319 3447 1000 4098 
Q 1681 4750 2847 4750 
Q 3238 4750 3597 4662 
Q 3956 4575 4288 4403 
L 4288 3438 
Q 3953 3666 3628 3772 
Q 3303 3878 2944 3878 
Q 2300 3878 1931 3465 
Q 1563 3053 1563 2328 
Q 1563 1606 1931 1193 
Q 2300 781 2944 781 
Q 3303 781 3628 887 
Q 3953 994 4288 1222 
L 4288 256 
z
" transform="scale(0.015625)"/>
      <path id="DejaVuSans-Bold-68" d="M 4056 2131 
L 4056 0 
L 2931 0 
L 2931 347 
L 2931 1625 
Q 2931 2084 2911 2256 
Q 2891 2428 2841 2509 
Q 2775 2619 2662 2680 
Q 2550 2741 2406 2741 
Q 2056 2741 1856 2470 
Q 1656 2200 1656 1722 
L 1656 0 
L 538 0 
L 538 4863 
L 1656 4863 
L 1656 2988 
Q 1909 3294 2193 3439 
Q 2478 3584 2822 3584 
Q 3428 3584 3742 3212 
Q 4056 2841 4056 2131 
z
" transform="scale(0.015625)"/>
      <path id="DejaVuSans-Bold-72" d="M 3138 2547 
Q 2991 2616 2845 2648 
Q 2700 2681 2553 2681 
Q 2122 2681 1889 2404 
Q 1656 2128 1656 1613 
L 1656 0 
L 538 0 
L 538 3500 
L 1656 3500 
L 1656 2925 
Q 1872 3269 2151 3426 
Q 2431 3584 2822 3584 
Q 2878 3584 2943 3579 
Q 3009 3575 3134 3559 
L 3138 2547 
z
" transform="scale(0.015625)"/>
      <path id="DejaVuSans-Bold-6f" d="M 2203 2784 
Q 1831 2784 1636 2517 
Q 1441 2250 1441 1747 
Q 1441 1244 1636 976 
Q 1831 709 2203 709 
Q 2569 709 2762 976 
Q 2956 1244 2956 1747 
Q 2956 2250 2762 2517 
Q 2569 2784 2203 2784 
z
M 2203 3584 
Q 3106 3584 3614 3096 
Q 4122 2609 4122 1747 
Q 4122 884 3614 396 
Q 3106 -91 2203 -91 
Q 1297 -91 786 396 
Q 275 884 275 1747 
Q 275 2609 786 3096 
Q 1297 3584 2203 3584 
z
" transform="scale(0.015625)"/>
      <path id="DejaVuSans-Bold-6d" d="M 3781 2919 
Q 3994 3244 4286 3414 
Q 4578 3584 4928 3584 
Q 5531 3584 5847 3212 
Q 6163 2841 6163 2131 
L 6163 0 
L 5038 0 
L 5038 1825 
Q 5041 1866 5042 1909 
Q 5044 1953 5044 2034 
Q 5044 2406 4934 2573 
Q 4825 2741 4581 2741 
Q 4263 2741 4089 2478 
Q 3916 2216 3909 1719 
L 3909 0 
L 2784 0 
L 2784 1825 
Q 2784 2406 2684 2573 
Q 2584 2741 2328 2741 
Q 2006 2741 1831 2477 
Q 1656 2213 1656 1722 
L 1656 0 
L 531 0 
L 531 3500 
L 1656 3500 
L 1656 2988 
Q 1863 3284 2130 3434 
Q 2397 3584 2719 3584 
Q 3081 3584 3359 3409 
Q 3638 3234 3781 2919 
z
" transform="scale(0.015625)"/>
      <path id="DejaVuSans-Bold-61" d="M 2106 1575 
Q 1756 1575 1579 1456 
Q 1403 1338 1403 1106 
Q 1403 894 1545 773 
Q 1688 653 1941 653 
Q 2256 653 2472 879 
Q 2688 1106 2688 1447 
L 2688 1575 
L 2106 1575 
z
M 3816 1997 
L 3816 0 
L 2688 0 
L 2688 519 
Q 2463 200 2181 54 
Q 1900 -91 1497 -91 
Q 953 -91 614 226 
Q 275 544 275 1050 
Q 275 1666 698 1953 
Q 1122 2241 2028 2241 
L 2688 2241 
L 2688 2328 
Q 2688 2594 2478 2717 
Q 2269 2841 1825 2841 
Q 1466 2841 1156 2769 
Q 847 2697 581 2553 
L 581 3406 
Q 941 3494 1303 3539 
Q 1666 3584 2028 3584 
Q 2975 3584 3395 3211 
Q 3816 2838 3816 1997 
z
" transform="scale(0.015625)"/>
      <path id="DejaVuSans-Bold-66" d="M 2841 4863 
L 2841 4128 
L 2222 4128 
Q 1984 4128 1890 4042 
Q 1797 3956 1797 3744 
L 1797 3500 
L 2753 3500 
L 2753 2700 
L 1797 2700 
L 1797 0 
L 678 0 
L 678 2700 
L 122 2700 
L 122 3500 
L 678 3500 
L 678 3744 
Q 678 4316 997 4589 
Q 1316 4863 1984 4863 
L 2841 4863 
z
" transform="scale(0.015625)"/>
      <path id="DejaVuSans-Bold-31" d="M 750 831 
L 1813 831 
L 1813 3847 
L 722 3622 
L 722 4441 
L 1806 4666 
L 2950 4666 
L 2950 831 
L 4013 831 
L 4013 0 
L 750 0 
L 750 831 
z
" transform="scale(0.015625)"/>
      <path id="DejaVuSans-Bold-32" d="M 1844 884 
L 3897 884 
L 3897 0 
L 506 0 
L 506 884 
L 2209 2388 
Q 2438 2594 2547 2791 
Q 2656 2988 2656 3200 
Q 2656 3528 2436 3728 
Q 2216 3928 1850 3928 
Q 1569 3928 1234 3808 
Q 900 3688 519 3450 
L 519 4475 
Q 925 4609 1322 4679 
Q 1719 4750 2100 4750 
Q 2938 4750 3402 4381 
Q 3866 4013 3866 3353 
Q 3866 2972 3669 2642 
Q 3472 2313 2841 1759 
L 1844 884 
z
" transform="scale(0.015625)"/>
      <path id="DejaVuSans-Bold-2b" d="M 3053 4013 
L 3053 2375 
L 4684 2375 
L 4684 1638 
L 3053 1638 
L 3053 0 
L 2309 0 
L 2309 1638 
L 678 1638 
L 678 2375 
L 2309 2375 
L 2309 4013 
L 3053 4013 
z
" transform="scale(0.015625)"/>
      <path id="DejaVuSans-Bold-34" d="M 2356 3675 
L 1038 1722 
L 2356 1722 
L 2356 3675 
z
M 2156 4666 
L 3494 4666 
L 3494 1722 
L 4159 1722 
L 4159 850 
L 3494 850 
L 3494 0 
L 2356 0 
L 2356 850 
L 288 850 
L 288 1881 
L 2156 4666 
z
" transform="scale(0.015625)"/>
      <path id="DejaVuSans-Bold-4e" d="M 588 4666 
L 1931 4666 
L 3628 1466 
L 3628 4666 
L 4769 4666 
L 4769 0 
L 3425 0 
L 1728 3200 
L 1728 0 
L 588 0 
L 588 4666 
z
" transform="scale(0.015625)"/>
      <path id="DejaVuSans-Bold-53" d="M 3834 4519 
L 3834 3531 
Q 3450 3703 3084 3790 
Q 2719 3878 2394 3878 
Q 1963 3878 1756 3759 
Q 1550 3641 1550 3391 
Q 1550 3203 1689 3098 
Q 1828 2994 2194 2919 
L 2706 2816 
Q 3484 2659 3812 2340 
Q 4141 2022 4141 1434 
Q 4141 663 3683 286 
Q 3225 -91 2284 -91 
Q 1841 -91 1394 -6 
Q 947 78 500 244 
L 500 1259 
Q 947 1022 1364 901 
Q 1781 781 2169 781 
Q 2563 781 2772 912 
Q 2981 1044 2981 1288 
Q 2981 1506 2839 1625 
Q 2697 1744 2272 1838 
L 1806 1941 
Q 1106 2091 782 2419 
Q 459 2747 459 3303 
Q 459 4000 909 4375 
Q 1359 4750 2203 4750 
Q 2588 4750 2994 4692 
Q 3400 4634 3834 4519 
z
" transform="scale(0.015625)"/>
      <path id="DejaVuSans-Bold-49" d="M 588 4666 
L 1791 4666 
L 1791 0 
L 588 0 
L 588 4666 
z
" transform="scale(0.015625)"/>
      <path id="DejaVuSans-Bold-6c" d="M 538 4863 
L 1656 4863 
L 1656 0 
L 538 0 
L 538 4863 
z
" transform="scale(0.015625)"/>
      <path id="DejaVuSans-Bold-73" d="M 3272 3391 
L 3272 2541 
Q 2913 2691 2578 2766 
Q 2244 2841 1947 2841 
Q 1628 2841 1473 2761 
Q 1319 2681 1319 2516 
Q 1319 2381 1436 2309 
Q 1553 2238 1856 2203 
L 2053 2175 
Q 2913 2066 3209 1816 
Q 3506 1566 3506 1031 
Q 3506 472 3093 190 
Q 2681 -91 1863 -91 
Q 1516 -91 1145 -36 
Q 775 19 384 128 
L 384 978 
Q 719 816 1070 734 
Q 1422 653 1784 653 
Q 2113 653 2278 743 
Q 2444 834 2444 1013 
Q 2444 1163 2330 1236 
Q 2216 1309 1875 1350 
L 1678 1375 
Q 931 1469 631 1722 
Q 331 1975 331 2491 
Q 331 3047 712 3315 
Q 1094 3584 1881 3584 
Q 2191 3584 2531 3537 
Q 2872 3491 3272 3391 
z
" transform="scale(0.015625)"/>
      <path id="DejaVuSans-Bold-69" d="M 538 3500 
L 1656 3500 
L 1656 0 
L 538 0 
L 538 3500 
z
M 538 4863 
L 1656 4863 
L 1656 3950 
L 538 3950 
L 538 4863 
z
" transform="scale(0.015625)"/>
      <path id="DejaVuSans-Bold-6e" d="M 4056 2131 
L 4056 0 
L 2931 0 
L 2931 347 
L 2931 1631 
Q 2931 2084 2911 2256 
Q 2891 2428 2841 2509 
Q 2775 2619 2662 2680 
Q 2550 2741 2406 2741 
Q 2056 2741 1856 2470 
Q 1656 2200 1656 1722 
L 1656 0 
L 538 0 
L 538 3500 
L 1656 3500 
L 1656 2988 
Q 1909 3294 2193 3439 
Q 2478 3584 2822 3584 
Q 3428 3584 3742 3212 
Q 4056 2841 4056 2131 
z
" transform="scale(0.015625)"/>
      <path id="DejaVuSans-Bold-4f" d="M 2719 3878 
Q 2169 3878 1866 3472 
Q 1563 3066 1563 2328 
Q 1563 1594 1866 1187 
Q 2169 781 2719 781 
Q 3272 781 3575 1187 
Q 3878 1594 3878 2328 
Q 3878 3066 3575 3472 
Q 3272 3878 2719 3878 
z
M 2719 4750 
Q 3844 4750 4481 4106 
Q 5119 3463 5119 2328 
Q 5119 1197 4481 553 
Q 3844 -91 2719 -91 
Q 1597 -91 958 553 
Q 319 1197 319 2328 
Q 319 3463 958 4106 
Q 1597 4750 2719 4750 
z
" transform="scale(0.015625)"/>
      <path id="DejaVuSans-Bold-6b" d="M 538 4863 
L 1656 4863 
L 1656 2216 
L 2944 3500 
L 4244 3500 
L 2534 1894 
L 4378 0 
L 3022 0 
L 1656 1459 
L 1656 0 
L 538 0 
L 538 4863 
z
" transform="scale(0.015625)"/>
      <path id="DejaVuSans-Bold-62" d="M 2400 722 
Q 2759 722 2948 984 
Q 3138 1247 3138 1747 
Q 3138 2247 2948 2509 
Q 2759 2772 2400 2772 
Q 2041 2772 1848 2508 
Q 1656 2244 1656 1747 
Q 1656 1250 1848 986 
Q 2041 722 2400 722 
z
M 1656 2988 
Q 1888 3294 2169 3439 
Q 2450 3584 2816 3584 
Q 3463 3584 3878 3070 
Q 4294 2556 4294 1747 
Q 4294 938 3878 423 
Q 3463 -91 2816 -91 
Q 2450 -91 2169 54 
Q 1888 200 1656 506 
L 1656 0 
L 538 0 
L 538 4863 
L 1656 4863 
L 1656 2988 
z
" transform="scale(0.015625)"/>
     </defs>
     <use xlink:href="#DejaVuSans-Bold-56"/>
     <use xlink:href="#DejaVuSans-Bold-47" x="77.392578"/>
     <use xlink:href="#DejaVuSans-Bold-41" x="159.472656"/>
     <use xlink:href="#DejaVuSans-Bold-3a" x="238.740234"/>
     <use xlink:href="#DejaVuSans-Bold-20" x="278.730469"/>
     <use xlink:href="#DejaVuSans-Bold-48" x="313.544922"/>
     <use xlink:href="#DejaVuSans-Bold-75" x="397.236328"/>
     <use xlink:href="#DejaVuSans-Bold-65" x="468.427734"/>
     <use xlink:href="#DejaVuSans-Bold-20" x="536.25"/>
     <use xlink:href="#DejaVuSans-Bold-26" x="571.064453"/>
     <use xlink:href="#DejaVuSans-Bold-20" x="658.271484"/>
     <use xlink:href="#DejaVuSans-Bold-43" x="693.085938"/>
     <use xlink:href="#DejaVuSans-Bold-68" x="766.474609"/>
     <use xlink:href="#DejaVuSans-Bold-72" x="837.666016"/>
     <use xlink:href="#DejaVuSans-Bold-6f" x="886.982422"/>
     <use xlink:href="#DejaVuSans-Bold-6d" x="955.683594"/>
     <use xlink:href="#DejaVuSans-Bold-61" x="1059.882812"/>
     <use xlink:href="#DejaVuSans-Bold-20" x="1127.363281"/>
     <use xlink:href="#DejaVuSans-Bold-66" x="1162.177734"/>
     <use xlink:href="#DejaVuSans-Bold-6f" x="1205.683594"/>
     <use xlink:href="#DejaVuSans-Bold-72" x="1274.384766"/>
     <use xlink:href="#DejaVuSans-Bold-20" x="1323.701172"/>
     <use xlink:href="#DejaVuSans-Bold-31" x="1358.515625"/>
     <use xlink:href="#DejaVuSans-Bold-32" x="1428.095703"/>
     <use xlink:href="#DejaVuSans-Bold-2b" x="1497.675781"/>
     <use xlink:href="#DejaVuSans-Bold-34" x="1581.464844"/>
     <use xlink:href="#DejaVuSans-Bold-2b" x="1651.044922"/>
     <use xlink:href="#DejaVuSans-Bold-32" x="1734.833984"/>
     <use xlink:href="#DejaVuSans-Bold-20" x="1804.414062"/>
     <use xlink:href="#DejaVuSans-Bold-41" x="1839.228516"/>
     <use xlink:href="#DejaVuSans-Bold-4e" x="1916.621094"/>
     <use xlink:href="#DejaVuSans-Bold-53" x="2000.3125"/>
     <use xlink:href="#DejaVuSans-Bold-49" x="2072.333984"/>
     <use xlink:href="#DejaVuSans-Bold-20" x="2109.541016"/>
     <use xlink:href="#DejaVuSans-Bold-43" x="2144.355469"/>
     <use xlink:href="#DejaVuSans-Bold-6f" x="2217.744141"/>
     <use xlink:href="#DejaVuSans-Bold-6c" x="2286.445312"/>
     <use xlink:href="#DejaVuSans-Bold-6f" x="2320.722656"/>
     <use xlink:href="#DejaVuSans-Bold-72" x="2389.423828"/>
     <use xlink:href="#DejaVuSans-Bold-73" x="2438.740234"/>
     <use xlink:href="#DejaVuSans-Bold-20" x="2498.261719"/>
     <use xlink:href="#DejaVuSans-Bold-69" x="2533.076172"/>
     <use xlink:href="#DejaVuSans-Bold-6e" x="2567.353516"/>
     <use xlink:href="#DejaVuSans-Bold-20" x="2638.544922"/>
     <use xlink:href="#DejaVuSans-Bold-4f" x="2673.359375"/>
     <use xlink:href="#DejaVuSans-Bold-6b" x="2758.369141"/>
     <use xlink:href="#DejaVuSans-Bold-6c" x="2824.873047"/>
     <use xlink:href="#DejaVuSans-Bold-61" x="2859.150391"/>
     <use xlink:href="#DejaVuSans-Bold-62" x="2926.630859"/>
    </g>
   </g>
  </g>
 </g>
 <defs>
  <clipPath id="pe3e5d0a48f">
   <path d="M 325.690312 188.757188 
C 325.690312 170.556402 322.105155 152.532597 315.140016 135.717264 
C 308.174877 118.901931 297.965211 103.622086 285.095312 90.752188 
C 272.225414 77.882289 256.945569 67.672623 240.130236 60.707484 
C 223.314903 53.742345 205.291098 50.157188 187.090312 50.157188 
C 168.889527 50.157188 150.865722 53.742345 134.050389 60.707484 
C 117.235056 67.672623 101.955211 77.882289 89.085313 90.752188 
C 76.215414 103.622086 66.005748 118.901931 59.040609 135.717264 
C 52.07547 152.532597 48.490312 170.556402 48.490312 188.757188 
C 48.490312 206.957973 52.07547 224.981778 59.040609 241.797111 
C 66.005748 258.612444 76.215414 273.892289 89.085313 286.762187 
C 101.955211 299.632086 117.235056 309.841752 134.050389 316.806891 
C 150.865722 323.77203 168.889527 327.357188 187.090312 327.357188 
C 205.291098 327.357188 223.314903 323.77203 240.130236 316.806891 
C 256.945569 309.841752 272.225414 299.632086 285.095312 286.762187 
C 297.965211 273.892289 308.174877 258.612444 315.140016 241.797111 
C 322.105155 224.981778 325.690312 206.957973 325.690312 188.757188 
M 187.090312 188.757188 
C 187.090312 188.757188 187.090312 188.757188 187.090312 188.757188 
C 187.090312 188.757188 187.090312 188.757188 187.090312 188.757188 
C 187.090312 188.757188 187.090312 188.757188 187.090312 188.757188 
C 187.090312 188.757188 187.090312 188.757188 187.090312 188.757188 
C 187.090312 188.757188 187.090312 188.757188 187.090312 188.757188 
C 187.090312 188.757188 187.090312 188.757188 187.090312 188.757188 
C 187.090312 188.757188 187.090312 188.757188 187.090312 188.757188 
C 187.090312 188.757188 187.090312 188.757188 187.090312 188.757188 
C 187.090312 188.757188 187.090312 188.757188 187.090312 188.757188 
C 187.090312 188.757188 187.090312 188.757188 187.090312 188.757188 
C 187.090312 188.757188 187.090312 188.757188 187.090312 188.757188 
C 187.090312 188.757188 187.090312 188.757188 187.090312 188.757188 
C 187.090312 188.757188 187.090312 188.757188 187.090312 188.757188 
C 187.090312 188.757188 187.090312 188.757188 187.090312 188.757188 
C 187.090312 188.757188 187.090312 188.757188 187.090312 188.757188 
C 187.090312 188.757188 187.090312 188.757188 187.090312 188.757188 
z
"/>
  </clipPath>
 </defs>
</svg>
