<?xml version="1.0" encoding="utf-8" standalone="no"?>
<!DOCTYPE svg PUBLIC "-//W3C//DTD SVG 1.1//EN"
  "http://www.w3.org/Graphics/SVG/1.1/DTD/svg11.dtd">
<svg xmlns:xlink="http://www.w3.org/1999/xlink" width="370.486875pt" height="353.39625pt" viewBox="0 0 370.486875 353.39625" xmlns="http://www.w3.org/2000/svg" version="1.1">
 <metadata>
  <rdf:RDF xmlns:dc="http://purl.org/dc/elements/1.1/" xmlns:cc="http://creativecommons.org/ns#" xmlns:rdf="http://www.w3.org/1999/02/22-rdf-syntax-ns#">
   <cc:Work>
    <dc:type rdf:resource="http://purl.org/dc/dcmitype/StillImage"/>
    <dc:date>2024-07-01T10:02:19.208696</dc:date>
    <dc:format>image/svg+xml</dc:format>
    <dc:creator>
     <cc:Agent>
      <dc:title>Matplotlib v3.9.0, https://matplotlib.org/</dc:title>
     </cc:Agent>
    </dc:creator>
   </cc:Work>
  </rdf:RDF>
 </metadata>
 <defs>
  <style type="text/css">*{stroke-linejoin: round; stroke-linecap: butt}</style>
 </defs>
 <g id="figure_1">
  <g id="patch_1">
   <path d="M 0 353.39625 
L 370.486875 353.39625 
L 370.486875 0 
L 0 0 
z
" style="fill: #ffffff"/>
  </g>
  <g id="axes_1">
   <g id="patch_2">
    <path d="M 323.843437 188.757188 
C 323.843437 170.556402 320.25828 152.532597 313.293141 135.717264 
C 306.328002 118.901931 296.118336 103.622086 283.248437 90.752188 
C 270.378539 77.882289 255.098694 67.672623 238.283361 60.707484 
C 221.468028 53.742345 203.444223 50.157188 185.243437 50.157188 
C 167.042652 50.157188 149.018847 53.742345 132.203514 60.707484 
C 115.388181 67.672623 100.108336 77.882289 87.238438 90.752188 
C 74.368539 103.622086 64.158873 118.901931 57.193734 135.717264 
C 50.228595 152.532597 46.643437 170.556402 46.643437 188.757188 
C 46.643437 206.957973 50.228595 224.981778 57.193734 241.797111 
C 64.158873 258.612444 74.368539 273.892289 87.238438 286.762187 
C 100.108336 299.632086 115.388181 309.841752 132.203514 316.806891 
C 149.018847 323.77203 167.042652 327.357188 185.243437 327.357188 
C 203.444223 327.357188 221.468028 323.77203 238.283361 316.806891 
C 255.098694 309.841752 270.378539 299.632086 283.248437 286.762187 
C 296.118336 273.892289 306.328002 258.612444 313.293141 241.797111 
C 320.25828 224.981778 323.843437 206.957973 323.843437 188.757188 
M 185.243437 188.757188 
C 185.243437 188.757188 185.243437 188.757188 185.243437 188.757188 
C 185.243437 188.757188 185.243437 188.757188 185.243437 188.757188 
C 185.243437 188.757188 185.243437 188.757188 185.243437 188.757188 
C 185.243437 188.757188 185.243437 188.757188 185.243437 188.757188 
C 185.243437 188.757188 185.243437 188.757188 185.243437 188.757188 
C 185.243437 188.757188 185.243437 188.757188 185.243437 188.757188 
C 185.243437 188.757188 185.243437 188.757188 185.243437 188.757188 
C 185.243437 188.757188 185.243437 188.757188 185.243437 188.757188 
C 185.243437 188.757188 185.243437 188.757188 185.243437 188.757188 
C 185.243437 188.757188 185.243437 188.757188 185.243437 188.757188 
C 185.243437 188.757188 185.243437 188.757188 185.243437 188.757188 
C 185.243437 188.757188 185.243437 188.757188 185.243437 188.757188 
C 185.243437 188.757188 185.243437 188.757188 185.243437 188.757188 
C 185.243437 188.757188 185.243437 188.757188 185.243437 188.757188 
C 185.243437 188.757188 185.243437 188.757188 185.243437 188.757188 
C 185.243437 188.757188 185.243437 188.757188 185.243437 188.757188 
z
" style="fill: #ffffff"/>
   </g>
   <g id="matplotlib.axis_1">
    <g id="xtick_1">
     <g id="line2d_1">
      <path d="M 185.243437 188.757188 
L 323.843437 188.757188 
" clip-path="url(#pe74404f112)" style="fill: none; stroke: #b0b0b0; stroke-width: 0.8; stroke-linecap: square"/>
     </g>
     <g id="text_1">
      <!-- 0° -->
      <g transform="translate(332.162187 191.516563) scale(0.1 -0.1)">
       <defs>
        <path id="DejaVuSans-30" d="M 2034 4250 
Q 1547 4250 1301 3770 
Q 1056 3291 1056 2328 
Q 1056 1369 1301 889 
Q 1547 409 2034 409 
Q 2525 409 2770 889 
Q 3016 1369 3016 2328 
Q 3016 3291 2770 3770 
Q 2525 4250 2034 4250 
z
M 2034 4750 
Q 2819 4750 3233 4129 
Q 3647 3509 3647 2328 
Q 3647 1150 3233 529 
Q 2819 -91 2034 -91 
Q 1250 -91 836 529 
Q 422 1150 422 2328 
Q 422 3509 836 4129 
Q 1250 4750 2034 4750 
z
" transform="scale(0.015625)"/>
        <path id="DejaVuSans-b0" d="M 1600 4347 
Q 1350 4347 1178 4173 
Q 1006 4000 1006 3750 
Q 1006 3503 1178 3333 
Q 1350 3163 1600 3163 
Q 1850 3163 2022 3333 
Q 2194 3503 2194 3750 
Q 2194 3997 2020 4172 
Q 1847 4347 1600 4347 
z
M 1600 4750 
Q 1800 4750 1984 4673 
Q 2169 4597 2303 4453 
Q 2447 4313 2519 4134 
Q 2591 3956 2591 3750 
Q 2591 3338 2302 3052 
Q 2013 2766 1594 2766 
Q 1172 2766 890 3047 
Q 609 3328 609 3750 
Q 609 4169 896 4459 
Q 1184 4750 1600 4750 
z
" transform="scale(0.015625)"/>
       </defs>
       <use xlink:href="#DejaVuSans-30"/>
       <use xlink:href="#DejaVuSans-b0" x="63.623047"/>
      </g>
     </g>
    </g>
    <g id="xtick_2">
     <g id="line2d_2">
      <path d="M 185.243437 188.757188 
L 283.248437 90.752188 
" clip-path="url(#pe74404f112)" style="fill: none; stroke: #b0b0b0; stroke-width: 0.8; stroke-linecap: square"/>
     </g>
     <g id="text_2">
      <!-- 45° -->
      <g transform="translate(284.285432 83.612068) scale(0.1 -0.1)">
       <defs>
        <path id="DejaVuSans-34" d="M 2419 4116 
L 825 1625 
L 2419 1625 
L 2419 4116 
z
M 2253 4666 
L 3047 4666 
L 3047 1625 
L 3713 1625 
L 3713 1100 
L 3047 1100 
L 3047 0 
L 2419 0 
L 2419 1100 
L 313 1100 
L 313 1709 
L 2253 4666 
z
" transform="scale(0.015625)"/>
        <path id="DejaVuSans-35" d="M 691 4666 
L 3169 4666 
L 3169 4134 
L 1269 4134 
L 1269 2991 
Q 1406 3038 1543 3061 
Q 1681 3084 1819 3084 
Q 2600 3084 3056 2656 
Q 3513 2228 3513 1497 
Q 3513 744 3044 326 
Q 2575 -91 1722 -91 
Q 1428 -91 1123 -41 
Q 819 9 494 109 
L 494 744 
Q 775 591 1075 516 
Q 1375 441 1709 441 
Q 2250 441 2565 725 
Q 2881 1009 2881 1497 
Q 2881 1984 2565 2268 
Q 2250 2553 1709 2553 
Q 1456 2553 1204 2497 
Q 953 2441 691 2322 
L 691 4666 
z
" transform="scale(0.015625)"/>
       </defs>
       <use xlink:href="#DejaVuSans-34"/>
       <use xlink:href="#DejaVuSans-35" x="63.623047"/>
       <use xlink:href="#DejaVuSans-b0" x="127.246094"/>
      </g>
     </g>
    </g>
    <g id="xtick_3">
     <g id="line2d_3">
      <path d="M 185.243437 188.757188 
L 185.243437 50.157188 
" clip-path="url(#pe74404f112)" style="fill: none; stroke: #b0b0b0; stroke-width: 0.8; stroke-linecap: square"/>
     </g>
     <g id="text_3">
      <!-- 90° -->
      <g transform="translate(176.380937 38.916563) scale(0.1 -0.1)">
       <defs>
        <path id="DejaVuSans-39" d="M 703 97 
L 703 672 
Q 941 559 1184 500 
Q 1428 441 1663 441 
Q 2288 441 2617 861 
Q 2947 1281 2994 2138 
Q 2813 1869 2534 1725 
Q 2256 1581 1919 1581 
Q 1219 1581 811 2004 
Q 403 2428 403 3163 
Q 403 3881 828 4315 
Q 1253 4750 1959 4750 
Q 2769 4750 3195 4129 
Q 3622 3509 3622 2328 
Q 3622 1225 3098 567 
Q 2575 -91 1691 -91 
Q 1453 -91 1209 -44 
Q 966 3 703 97 
z
M 1959 2075 
Q 2384 2075 2632 2365 
Q 2881 2656 2881 3163 
Q 2881 3666 2632 3958 
Q 2384 4250 1959 4250 
Q 1534 4250 1286 3958 
Q 1038 3666 1038 3163 
Q 1038 2656 1286 2365 
Q 1534 2075 1959 2075 
z
" transform="scale(0.015625)"/>
       </defs>
       <use xlink:href="#DejaVuSans-39"/>
       <use xlink:href="#DejaVuSans-30" x="63.623047"/>
       <use xlink:href="#DejaVuSans-b0" x="127.246094"/>
      </g>
     </g>
    </g>
    <g id="xtick_4">
     <g id="line2d_4">
      <path d="M 185.243437 188.757188 
L 87.238438 90.752188 
" clip-path="url(#pe74404f112)" style="fill: none; stroke: #b0b0b0; stroke-width: 0.8; stroke-linecap: square"/>
     </g>
     <g id="text_4">
      <!-- 135° -->
      <g transform="translate(65.295193 83.612068) scale(0.1 -0.1)">
       <defs>
        <path id="DejaVuSans-31" d="M 794 531 
L 1825 531 
L 1825 4091 
L 703 3866 
L 703 4441 
L 1819 4666 
L 2450 4666 
L 2450 531 
L 3481 531 
L 3481 0 
L 794 0 
L 794 531 
z
" transform="scale(0.015625)"/>
        <path id="DejaVuSans-33" d="M 2597 2516 
Q 3050 2419 3304 2112 
Q 3559 1806 3559 1356 
Q 3559 666 3084 287 
Q 2609 -91 1734 -91 
Q 1441 -91 1130 -33 
Q 819 25 488 141 
L 488 750 
Q 750 597 1062 519 
Q 1375 441 1716 441 
Q 2309 441 2620 675 
Q 2931 909 2931 1356 
Q 2931 1769 2642 2001 
Q 2353 2234 1838 2234 
L 1294 2234 
L 1294 2753 
L 1863 2753 
Q 2328 2753 2575 2939 
Q 2822 3125 2822 3475 
Q 2822 3834 2567 4026 
Q 2313 4219 1838 4219 
Q 1578 4219 1281 4162 
Q 984 4106 628 3988 
L 628 4550 
Q 988 4650 1302 4700 
Q 1616 4750 1894 4750 
Q 2613 4750 3031 4423 
Q 3450 4097 3450 3541 
Q 3450 3153 3228 2886 
Q 3006 2619 2597 2516 
z
" transform="scale(0.015625)"/>
       </defs>
       <use xlink:href="#DejaVuSans-31"/>
       <use xlink:href="#DejaVuSans-33" x="63.623047"/>
       <use xlink:href="#DejaVuSans-35" x="127.246094"/>
       <use xlink:href="#DejaVuSans-b0" x="190.869141"/>
      </g>
     </g>
    </g>
    <g id="xtick_5">
     <g id="line2d_5">
      <path d="M 185.243437 188.757188 
L 46.643437 188.757188 
" clip-path="url(#pe74404f112)" style="fill: none; stroke: #b0b0b0; stroke-width: 0.8; stroke-linecap: square"/>
     </g>
     <g id="text_5">
      <!-- 180° -->
      <g transform="translate(20.599687 191.516563) scale(0.1 -0.1)">
       <defs>
        <path id="DejaVuSans-38" d="M 2034 2216 
Q 1584 2216 1326 1975 
Q 1069 1734 1069 1313 
Q 1069 891 1326 650 
Q 1584 409 2034 409 
Q 2484 409 2743 651 
Q 3003 894 3003 1313 
Q 3003 1734 2745 1975 
Q 2488 2216 2034 2216 
z
M 1403 2484 
Q 997 2584 770 2862 
Q 544 3141 544 3541 
Q 544 4100 942 4425 
Q 1341 4750 2034 4750 
Q 2731 4750 3128 4425 
Q 3525 4100 3525 3541 
Q 3525 3141 3298 2862 
Q 3072 2584 2669 2484 
Q 3125 2378 3379 2068 
Q 3634 1759 3634 1313 
Q 3634 634 3220 271 
Q 2806 -91 2034 -91 
Q 1263 -91 848 271 
Q 434 634 434 1313 
Q 434 1759 690 2068 
Q 947 2378 1403 2484 
z
M 1172 3481 
Q 1172 3119 1398 2916 
Q 1625 2713 2034 2713 
Q 2441 2713 2670 2916 
Q 2900 3119 2900 3481 
Q 2900 3844 2670 4047 
Q 2441 4250 2034 4250 
Q 1625 4250 1398 4047 
Q 1172 3844 1172 3481 
z
" transform="scale(0.015625)"/>
       </defs>
       <use xlink:href="#DejaVuSans-31"/>
       <use xlink:href="#DejaVuSans-38" x="63.623047"/>
       <use xlink:href="#DejaVuSans-30" x="127.246094"/>
       <use xlink:href="#DejaVuSans-b0" x="190.869141"/>
      </g>
     </g>
    </g>
    <g id="xtick_6">
     <g id="line2d_6">
      <path d="M 185.243437 188.757188 
L 87.238438 286.762187 
" clip-path="url(#pe74404f112)" style="fill: none; stroke: #b0b0b0; stroke-width: 0.8; stroke-linecap: square"/>
     </g>
     <g id="text_6">
      <!-- 225° -->
      <g transform="translate(65.295193 299.421057) scale(0.1 -0.1)">
       <defs>
        <path id="DejaVuSans-32" d="M 1228 531 
L 3431 531 
L 3431 0 
L 469 0 
L 469 531 
Q 828 903 1448 1529 
Q 2069 2156 2228 2338 
Q 2531 2678 2651 2914 
Q 2772 3150 2772 3378 
Q 2772 3750 2511 3984 
Q 2250 4219 1831 4219 
Q 1534 4219 1204 4116 
Q 875 4013 500 3803 
L 500 4441 
Q 881 4594 1212 4672 
Q 1544 4750 1819 4750 
Q 2544 4750 2975 4387 
Q 3406 4025 3406 3419 
Q 3406 3131 3298 2873 
Q 3191 2616 2906 2266 
Q 2828 2175 2409 1742 
Q 1991 1309 1228 531 
z
" transform="scale(0.015625)"/>
       </defs>
       <use xlink:href="#DejaVuSans-32"/>
       <use xlink:href="#DejaVuSans-32" x="63.623047"/>
       <use xlink:href="#DejaVuSans-35" x="127.246094"/>
       <use xlink:href="#DejaVuSans-b0" x="190.869141"/>
      </g>
     </g>
    </g>
    <g id="xtick_7">
     <g id="line2d_7">
      <path d="M 185.243437 188.757188 
L 185.243437 327.357188 
" clip-path="url(#pe74404f112)" style="fill: none; stroke: #b0b0b0; stroke-width: 0.8; stroke-linecap: square"/>
     </g>
     <g id="text_7">
      <!-- 270° -->
      <g transform="translate(173.199687 344.116563) scale(0.1 -0.1)">
       <defs>
        <path id="DejaVuSans-37" d="M 525 4666 
L 3525 4666 
L 3525 4397 
L 1831 0 
L 1172 0 
L 2766 4134 
L 525 4134 
L 525 4666 
z
" transform="scale(0.015625)"/>
       </defs>
       <use xlink:href="#DejaVuSans-32"/>
       <use xlink:href="#DejaVuSans-37" x="63.623047"/>
       <use xlink:href="#DejaVuSans-30" x="127.246094"/>
       <use xlink:href="#DejaVuSans-b0" x="190.869141"/>
      </g>
     </g>
    </g>
    <g id="xtick_8">
     <g id="line2d_8">
      <path d="M 185.243437 188.757188 
L 283.248437 286.762187 
" clip-path="url(#pe74404f112)" style="fill: none; stroke: #b0b0b0; stroke-width: 0.8; stroke-linecap: square"/>
     </g>
     <g id="text_8">
      <!-- 315° -->
      <g transform="translate(281.104182 299.421057) scale(0.1 -0.1)">
       <use xlink:href="#DejaVuSans-33"/>
       <use xlink:href="#DejaVuSans-31" x="63.623047"/>
       <use xlink:href="#DejaVuSans-35" x="127.246094"/>
       <use xlink:href="#DejaVuSans-b0" x="190.869141"/>
      </g>
     </g>
    </g>
   </g>
   <g id="matplotlib.axis_2">
    <g id="ytick_1">
     <g id="line2d_9">
      <path d="M 208.343437 188.757188 
C 208.343437 185.723723 207.745911 182.719756 206.585055 179.9172 
C 205.424198 177.114645 203.722587 174.568004 201.577604 172.423021 
C 199.432621 170.278038 196.88598 168.576427 194.083425 167.41557 
C 191.280869 166.254714 188.276902 165.657188 185.243437 165.657188 
C 182.209973 165.657188 179.206006 166.254714 176.40345 167.41557 
C 173.600895 168.576427 171.054254 170.278038 168.909271 172.423021 
C 166.764288 174.568004 165.062677 177.114645 163.90182 179.9172 
C 162.740964 182.719756 162.143437 185.723723 162.143437 188.757188 
C 162.143437 191.790652 162.740964 194.794619 163.90182 197.597175 
C 165.062677 200.39973 166.764288 202.946371 168.909271 205.091354 
C 171.054254 207.236337 173.600895 208.937948 176.40345 210.098805 
C 179.206006 211.259661 182.209973 211.857188 185.243437 211.857188 
C 188.276902 211.857188 191.280869 211.259661 194.083425 210.098805 
C 196.88598 208.937948 199.432621 207.236337 201.577604 205.091354 
C 203.722587 202.946371 205.424198 200.39973 206.585055 197.597175 
C 207.745911 194.794619 208.343437 191.790652 208.343437 188.757188 
" clip-path="url(#pe74404f112)" style="fill: none; stroke: #b0b0b0; stroke-width: 0.8; stroke-linecap: square"/>
     </g>
     <g id="text_9">
      <!-- 0.05 -->
      <g transform="translate(197.210625 186.6775) scale(0.1 -0.1)">
       <defs>
        <path id="DejaVuSans-2e" d="M 684 794 
L 1344 794 
L 1344 0 
L 684 0 
L 684 794 
z
" transform="scale(0.015625)"/>
       </defs>
       <use xlink:href="#DejaVuSans-30"/>
       <use xlink:href="#DejaVuSans-2e" x="63.623047"/>
       <use xlink:href="#DejaVuSans-30" x="95.410156"/>
       <use xlink:href="#DejaVuSans-35" x="159.033203"/>
      </g>
     </g>
    </g>
    <g id="ytick_2">
     <g id="line2d_10">
      <path d="M 231.443437 188.757188 
C 231.443437 182.690259 230.248385 176.682324 227.926672 171.077213 
C 225.604959 165.472102 222.201737 160.37882 217.911771 156.088854 
C 213.621805 151.798888 208.528523 148.395666 202.923412 146.073953 
C 197.318301 143.75224 191.310366 142.557188 185.243437 142.557188 
C 179.176509 142.557188 173.168574 143.75224 167.563463 146.073953 
C 161.958352 148.395666 156.86507 151.798888 152.575104 156.088854 
C 148.285138 160.37882 144.881916 165.472102 142.560203 171.077213 
C 140.23849 176.682324 139.043437 182.690259 139.043437 188.757188 
C 139.043437 194.824116 140.23849 200.832051 142.560203 206.437162 
C 144.881916 212.042273 148.285138 217.135555 152.575104 221.425521 
C 156.86507 225.715487 161.958352 229.118709 167.563463 231.440422 
C 173.168574 233.762135 179.176509 234.957188 185.243437 234.957188 
C 191.310366 234.957188 197.318301 233.762135 202.923412 231.440422 
C 208.528523 229.118709 213.621805 225.715487 217.911771 221.425521 
C 222.201737 217.135555 225.604959 212.042273 227.926672 206.437162 
C 230.248385 200.832051 231.443437 194.824116 231.443437 188.757188 
" clip-path="url(#pe74404f112)" style="fill: none; stroke: #b0b0b0; stroke-width: 0.8; stroke-linecap: square"/>
     </g>
    </g>
    <g id="ytick_3">
     <g id="line2d_11">
      <path d="M 254.543437 188.757188 
C 254.543437 179.656795 252.750859 170.644892 249.268289 162.237226 
C 245.78572 153.829559 240.680887 146.189637 234.245937 139.754688 
C 227.810988 133.319738 220.171066 128.214905 211.763399 124.732336 
C 203.355733 121.249766 194.34383 119.457188 185.243437 119.457188 
C 176.143045 119.457188 167.131142 121.249766 158.723476 124.732336 
C 150.315809 128.214905 142.675887 133.319738 136.240938 139.754688 
C 129.805988 146.189637 124.701155 153.829559 121.218586 162.237226 
C 117.736016 170.644892 115.943437 179.656795 115.943437 188.757188 
C 115.943437 197.85758 117.736016 206.869483 121.218586 215.277149 
C 124.701155 223.684816 129.805988 231.324738 136.240938 237.759687 
C 142.675887 244.194637 150.315809 249.29947 158.723476 252.782039 
C 167.131142 256.264609 176.143045 258.057188 185.243437 258.057188 
C 194.34383 258.057188 203.355733 256.264609 211.763399 252.782039 
C 220.171066 249.29947 227.810988 244.194637 234.245937 237.759687 
C 240.680887 231.324738 245.78572 223.684816 249.268289 215.277149 
C 252.750859 206.869483 254.543437 197.85758 254.543437 188.757188 
" clip-path="url(#pe74404f112)" style="fill: none; stroke: #b0b0b0; stroke-width: 0.8; stroke-linecap: square"/>
     </g>
     <g id="text_10">
      <!-- 0.15 -->
      <g transform="translate(243.410625 186.6775) scale(0.1 -0.1)">
       <use xlink:href="#DejaVuSans-30"/>
       <use xlink:href="#DejaVuSans-2e" x="63.623047"/>
       <use xlink:href="#DejaVuSans-31" x="95.410156"/>
       <use xlink:href="#DejaVuSans-35" x="159.033203"/>
      </g>
     </g>
    </g>
    <g id="ytick_4">
     <g id="line2d_12">
      <path d="M 277.643437 188.757188 
C 277.643437 176.623331 275.253332 164.60746 270.609906 153.397238 
C 265.96648 142.187016 259.160037 132.000453 250.580104 123.420521 
C 242.000172 114.840588 231.813609 108.034145 220.603387 103.390719 
C 209.393165 98.747293 197.377294 96.357188 185.243437 96.357188 
C 173.109581 96.357188 161.09371 98.747293 149.883488 103.390719 
C 138.673266 108.034145 128.486703 114.840588 119.906771 123.420521 
C 111.326838 132.000453 104.520395 142.187016 99.876969 153.397238 
C 95.233543 164.60746 92.843437 176.623331 92.843437 188.757188 
C 92.843437 200.891044 95.233543 212.906915 99.876969 224.117137 
C 104.520395 235.327359 111.326838 245.513922 119.906771 254.093854 
C 128.486703 262.673787 138.673266 269.48023 149.883488 274.123656 
C 161.09371 278.767082 173.109581 281.157188 185.243437 281.157188 
C 197.377294 281.157188 209.393165 278.767082 220.603387 274.123656 
C 231.813609 269.48023 242.000172 262.673787 250.580104 254.093854 
C 259.160037 245.513922 265.96648 235.327359 270.609906 224.117137 
C 275.253332 212.906915 277.643437 200.891044 277.643437 188.757188 
" clip-path="url(#pe74404f112)" style="fill: none; stroke: #b0b0b0; stroke-width: 0.8; stroke-linecap: square"/>
     </g>
    </g>
    <g id="ytick_5">
     <g id="line2d_13">
      <path d="M 300.743437 188.757188 
C 300.743437 173.589866 297.755806 158.570029 291.951524 144.557251 
C 286.147241 130.544474 277.639186 117.81127 266.914271 107.086354 
C 256.189355 96.361439 243.456151 87.853384 229.443374 82.049101 
C 215.430596 76.244819 200.410759 73.257188 185.243437 73.257188 
C 170.076116 73.257188 155.056279 76.244819 141.043501 82.049101 
C 127.030724 87.853384 114.29752 96.361439 103.572604 107.086354 
C 92.847689 117.81127 84.339634 130.544474 78.535351 144.557251 
C 72.731069 158.570029 69.743437 173.589866 69.743437 188.757188 
C 69.743437 203.924509 72.731069 218.944346 78.535351 232.957124 
C 84.339634 246.969901 92.847689 259.703105 103.572604 270.428021 
C 114.29752 281.152936 127.030724 289.660991 141.043501 295.465274 
C 155.056279 301.269556 170.076116 304.257188 185.243437 304.257188 
C 200.410759 304.257188 215.430596 301.269556 229.443374 295.465274 
C 243.456151 289.660991 256.189355 281.152936 266.914271 270.428021 
C 277.639186 259.703105 286.147241 246.969901 291.951524 232.957124 
C 297.755806 218.944346 300.743437 203.924509 300.743437 188.757188 
" clip-path="url(#pe74404f112)" style="fill: none; stroke: #b0b0b0; stroke-width: 0.8; stroke-linecap: square"/>
     </g>
     <g id="text_11">
      <!-- 0.25 -->
      <g transform="translate(289.610625 186.6775) scale(0.1 -0.1)">
       <use xlink:href="#DejaVuSans-30"/>
       <use xlink:href="#DejaVuSans-2e" x="63.623047"/>
       <use xlink:href="#DejaVuSans-32" x="95.410156"/>
       <use xlink:href="#DejaVuSans-35" x="159.033203"/>
      </g>
     </g>
    </g>
    <g id="ytick_6">
     <g id="line2d_14">
      <path d="M 323.843437 188.757188 
C 323.843437 170.556402 320.25828 152.532597 313.293141 135.717264 
C 306.328002 118.901931 296.118336 103.622086 283.248437 90.752188 
C 270.378539 77.882289 255.098694 67.672623 238.283361 60.707484 
C 221.468028 53.742345 203.444223 50.157188 185.243437 50.157188 
C 167.042652 50.157188 149.018847 53.742345 132.203514 60.707484 
C 115.388181 67.672623 100.108336 77.882289 87.238438 90.752188 
C 74.368539 103.622086 64.158873 118.901931 57.193734 135.717264 
C 50.228595 152.532597 46.643437 170.556402 46.643437 188.757188 
C 46.643437 206.957973 50.228595 224.981778 57.193734 241.797111 
C 64.158873 258.612444 74.368539 273.892289 87.238438 286.762187 
C 100.108336 299.632086 115.388181 309.841752 132.203514 316.806891 
C 149.018847 323.77203 167.042652 327.357188 185.243437 327.357188 
C 203.444223 327.357188 221.468028 323.77203 238.283361 316.806891 
C 255.098694 309.841752 270.378539 299.632086 283.248437 286.762187 
C 296.118336 273.892289 306.328002 258.612444 313.293141 241.797111 
C 320.25828 224.981778 323.843437 206.957973 323.843437 188.757188 
" clip-path="url(#pe74404f112)" style="fill: none; stroke: #b0b0b0; stroke-width: 0.8; stroke-linecap: square"/>
     </g>
    </g>
   </g>
   <g id="PathCollection_1">
    <defs>
     <path id="m8fb4ad2972" d="M 0 4.472136 
C 1.186024 4.472136 2.323632 4.000923 3.162278 3.162278 
C 4.000923 2.323632 4.472136 1.186024 4.472136 0 
C 4.472136 -1.186024 4.000923 -2.323632 3.162278 -3.162278 
C 2.323632 -4.000923 1.186024 -4.472136 0 -4.472136 
C -1.186024 -4.472136 -2.323632 -4.000923 -3.162278 -3.162278 
C -4.000923 -2.323632 -4.472136 -1.186024 -4.472136 0 
C -4.472136 1.186024 -4.000923 2.323632 -3.162278 3.162278 
C -2.323632 4.000923 -1.186024 4.472136 0 4.472136 
z
" style="stroke: #000000"/>
    </defs>
    <g clip-path="url(#pe74404f112)">
     <use xlink:href="#m8fb4ad2972" x="265.229933" y="149.615405" style="fill: #cd3131; stroke: #000000"/>
    </g>
   </g>
   <g id="PathCollection_2">
    <defs>
     <path id="m79d7c32761" d="M 0 4.472136 
C 1.186024 4.472136 2.323632 4.000923 3.162278 3.162278 
C 4.000923 2.323632 4.472136 1.186024 4.472136 0 
C 4.472136 -1.186024 4.000923 -2.323632 3.162278 -3.162278 
C 2.323632 -4.000923 1.186024 -4.472136 0 -4.472136 
C -1.186024 -4.472136 -2.323632 -4.000923 -3.162278 -3.162278 
C -4.000923 -2.323632 -4.472136 -1.186024 -4.472136 0 
C -4.472136 1.186024 -4.000923 2.323632 -3.162278 3.162278 
C -2.323632 4.000923 -1.186024 4.472136 0 4.472136 
z
" style="stroke: #000000"/>
    </defs>
    <g clip-path="url(#pe74404f112)">
     <use xlink:href="#m79d7c32761" x="124.48422" y="142.417556" style="fill: #107c10; stroke: #000000"/>
    </g>
   </g>
   <g id="PathCollection_3">
    <defs>
     <path id="m40b6aed224" d="M 0 4.472136 
C 1.186024 4.472136 2.323632 4.000923 3.162278 3.162278 
C 4.000923 2.323632 4.472136 1.186024 4.472136 0 
C 4.472136 -1.186024 4.000923 -2.323632 3.162278 -3.162278 
C 2.323632 -4.000923 1.186024 -4.472136 0 -4.472136 
C -1.186024 -4.472136 -2.323632 -4.000923 -3.162278 -3.162278 
C -4.000923 -2.323632 -4.472136 -1.186024 -4.472136 0 
C -4.472136 1.186024 -4.000923 2.323632 -3.162278 3.162278 
C -2.323632 4.000923 -1.186024 4.472136 0 4.472136 
z
" style="stroke: #000000"/>
    </defs>
    <g clip-path="url(#pe74404f112)">
     <use xlink:href="#m40b6aed224" x="160.621659" y="126.711559" style="fill: #949800; stroke: #000000"/>
    </g>
   </g>
   <g id="PathCollection_4">
    <defs>
     <path id="m1575eba12e" d="M 0 4.472136 
C 1.186024 4.472136 2.323632 4.000923 3.162278 3.162278 
C 4.000923 2.323632 4.472136 1.186024 4.472136 0 
C 4.472136 -1.186024 4.000923 -2.323632 3.162278 -3.162278 
C 2.323632 -4.000923 1.186024 -4.472136 0 -4.472136 
C -1.186024 -4.472136 -2.323632 -4.000923 -3.162278 -3.162278 
C -4.000923 -2.323632 -4.472136 -1.186024 -4.472136 0 
C -4.472136 1.186024 -4.000923 2.323632 -3.162278 3.162278 
C -2.323632 4.000923 -1.186024 4.472136 0 4.472136 
z
" style="stroke: #000000"/>
    </defs>
    <g clip-path="url(#pe74404f112)">
     <use xlink:href="#m1575eba12e" x="168.722349" y="256.54722" style="fill: #0451a5; stroke: #000000"/>
    </g>
   </g>
   <g id="PathCollection_5">
    <defs>
     <path id="mc4e2c8a525" d="M 0 4.472136 
C 1.186024 4.472136 2.323632 4.000923 3.162278 3.162278 
C 4.000923 2.323632 4.472136 1.186024 4.472136 0 
C 4.472136 -1.186024 4.000923 -2.323632 3.162278 -3.162278 
C 2.323632 -4.000923 1.186024 -4.472136 0 -4.472136 
C -1.186024 -4.472136 -2.323632 -4.000923 -3.162278 -3.162278 
C -4.000923 -2.323632 -4.472136 -1.186024 -4.472136 0 
C -4.472136 1.186024 -4.000923 2.323632 -3.162278 3.162278 
C -2.323632 4.000923 -1.186024 4.472136 0 4.472136 
z
" style="stroke: #000000"/>
    </defs>
    <g clip-path="url(#pe74404f112)">
     <use xlink:href="#mc4e2c8a525" x="285.524582" y="250.579847" style="fill: #bc05bc; stroke: #000000"/>
    </g>
   </g>
   <g id="PathCollection_6">
    <defs>
     <path id="m77a625ea81" d="M 0 4.472136 
C 1.186024 4.472136 2.323632 4.000923 3.162278 3.162278 
C 4.000923 2.323632 4.472136 1.186024 4.472136 0 
C 4.472136 -1.186024 4.000923 -2.323632 3.162278 -3.162278 
C 2.323632 -4.000923 1.186024 -4.472136 0 -4.472136 
C -1.186024 -4.472136 -2.323632 -4.000923 -3.162278 -3.162278 
C -4.000923 -2.323632 -4.472136 -1.186024 -4.472136 0 
C -4.472136 1.186024 -4.000923 2.323632 -3.162278 3.162278 
C -2.323632 4.000923 -1.186024 4.472136 0 4.472136 
z
" style="stroke: #000000"/>
    </defs>
    <g clip-path="url(#pe74404f112)">
     <use xlink:href="#m77a625ea81" x="145.696739" y="225.149466" style="fill: #0598bc; stroke: #000000"/>
    </g>
   </g>
   <g id="PathCollection_7">
    <defs>
     <path id="m4e033f2057" d="M 0 4.472136 
C 1.186024 4.472136 2.323632 4.000923 3.162278 3.162278 
C 4.000923 2.323632 4.472136 1.186024 4.472136 0 
C 4.472136 -1.186024 4.000923 -2.323632 3.162278 -3.162278 
C 2.323632 -4.000923 1.186024 -4.472136 0 -4.472136 
C -1.186024 -4.472136 -2.323632 -4.000923 -3.162278 -3.162278 
C -4.000923 -2.323632 -4.472136 -1.186024 -4.472136 0 
C -4.472136 1.186024 -4.000923 2.323632 -3.162278 3.162278 
C -2.323632 4.000923 -1.186024 4.472136 0 4.472136 
z
" style="stroke: #000000"/>
    </defs>
    <g clip-path="url(#pe74404f112)">
     <use xlink:href="#m4e033f2057" x="94.922411" y="119.633948" style="fill: #14ce14; stroke: #000000"/>
    </g>
   </g>
   <g id="PathCollection_8">
    <defs>
     <path id="m7eb6a823c8" d="M 0 4.472136 
C 1.186024 4.472136 2.323632 4.000923 3.162278 3.162278 
C 4.000923 2.323632 4.472136 1.186024 4.472136 0 
C 4.472136 -1.186024 4.000923 -2.323632 3.162278 -3.162278 
C 2.323632 -4.000923 1.186024 -4.472136 0 -4.472136 
C -1.186024 -4.472136 -2.323632 -4.000923 -3.162278 -3.162278 
C -4.000923 -2.323632 -4.472136 -1.186024 -4.472136 0 
C -4.472136 1.186024 -4.000923 2.323632 -3.162278 3.162278 
C -2.323632 4.000923 -1.186024 4.472136 0 4.472136 
z
" style="stroke: #000000"/>
    </defs>
    <g clip-path="url(#pe74404f112)">
     <use xlink:href="#m7eb6a823c8" x="156.568453" y="116.752631" style="fill: #b5ba00; stroke: #000000"/>
    </g>
   </g>
   <g id="PathCollection_9">
    <defs>
     <path id="me0b134c55e" d="M 0 4.472136 
C 1.186024 4.472136 2.323632 4.000923 3.162278 3.162278 
C 4.000923 2.323632 4.472136 1.186024 4.472136 0 
C 4.472136 -1.186024 4.000923 -2.323632 3.162278 -3.162278 
C 2.323632 -4.000923 1.186024 -4.472136 0 -4.472136 
C -1.186024 -4.472136 -2.323632 -4.000923 -3.162278 -3.162278 
C -4.000923 -2.323632 -4.472136 -1.186024 -4.472136 0 
C -4.472136 1.186024 -4.000923 2.323632 -3.162278 3.162278 
C -2.323632 4.000923 -1.186024 4.472136 0 4.472136 
z
" style="stroke: #000000"/>
    </defs>
    <g clip-path="url(#pe74404f112)">
     <use xlink:href="#me0b134c55e" x="185.243437" y="188.757188" style="fill: #4d4d4d; stroke: #000000"/>
    </g>
   </g>
   <g id="patch_3">
    <path d="M 323.843437 188.757188 
C 323.843437 170.556402 320.25828 152.532597 313.293141 135.717264 
C 306.328002 118.901931 296.118336 103.622086 283.248437 90.752188 
C 270.378539 77.882289 255.098694 67.672623 238.283361 60.707484 
C 221.468028 53.742345 203.444223 50.157188 185.243437 50.157188 
C 167.042652 50.157188 149.018847 53.742345 132.203514 60.707484 
C 115.388181 67.672623 100.108336 77.882289 87.238438 90.752188 
C 74.368539 103.622086 64.158873 118.901931 57.193734 135.717264 
C 50.228595 152.532597 46.643437 170.556402 46.643437 188.757188 
C 46.643437 206.957973 50.228595 224.981778 57.193734 241.797111 
C 64.158873 258.612444 74.368539 273.892289 87.238438 286.762187 
C 100.108336 299.632086 115.388181 309.841752 132.203514 316.806891 
C 149.018847 323.77203 167.042652 327.357188 185.243437 327.357188 
C 203.444223 327.357188 221.468028 323.77203 238.283361 316.806891 
C 255.098694 309.841752 270.378539 299.632086 283.248437 286.762187 
C 296.118336 273.892289 306.328002 258.612444 313.293141 241.797111 
C 320.25828 224.981778 323.843437 206.957973 323.843437 188.757188 
" style="fill: none; stroke: #000000; stroke-width: 0.8; stroke-linejoin: miter; stroke-linecap: square"/>
   </g>
   <g id="text_12">
    <!-- VSCode: Hue &amp; Chroma for 8+4 ANSI Colors in Oklab -->
    <g transform="translate(7.2 16.318125) scale(0.12 -0.12)">
     <defs>
      <path id="DejaVuSans-Bold-56" d="M 31 4666 
L 1241 4666 
L 2478 1222 
L 3713 4666 
L 4922 4666 
L 3194 0 
L 1759 0 
L 31 4666 
z
" transform="scale(0.015625)"/>
      <path id="DejaVuSans-Bold-53" d="M 3834 4519 
L 3834 3531 
Q 3450 3703 3084 3790 
Q 2719 3878 2394 3878 
Q 1963 3878 1756 3759 
Q 1550 3641 1550 3391 
Q 1550 3203 1689 3098 
Q 1828 2994 2194 2919 
L 2706 2816 
Q 3484 2659 3812 2340 
Q 4141 2022 4141 1434 
Q 4141 663 3683 286 
Q 3225 -91 2284 -91 
Q 1841 -91 1394 -6 
Q 947 78 500 244 
L 500 1259 
Q 947 1022 1364 901 
Q 1781 781 2169 781 
Q 2563 781 2772 912 
Q 2981 1044 2981 1288 
Q 2981 1506 2839 1625 
Q 2697 1744 2272 1838 
L 1806 1941 
Q 1106 2091 782 2419 
Q 459 2747 459 3303 
Q 459 4000 909 4375 
Q 1359 4750 2203 4750 
Q 2588 4750 2994 4692 
Q 3400 4634 3834 4519 
z
" transform="scale(0.015625)"/>
      <path id="DejaVuSans-Bold-43" d="M 4288 256 
Q 3956 84 3597 -3 
Q 3238 -91 2847 -91 
Q 1681 -91 1000 561 
Q 319 1213 319 2328 
Q 319 3447 1000 4098 
Q 1681 4750 2847 4750 
Q 3238 4750 3597 4662 
Q 3956 4575 4288 4403 
L 4288 3438 
Q 3953 3666 3628 3772 
Q 3303 3878 2944 3878 
Q 2300 3878 1931 3465 
Q 1563 3053 1563 2328 
Q 1563 1606 1931 1193 
Q 2300 781 2944 781 
Q 3303 781 3628 887 
Q 3953 994 4288 1222 
L 4288 256 
z
" transform="scale(0.015625)"/>
      <path id="DejaVuSans-Bold-6f" d="M 2203 2784 
Q 1831 2784 1636 2517 
Q 1441 2250 1441 1747 
Q 1441 1244 1636 976 
Q 1831 709 2203 709 
Q 2569 709 2762 976 
Q 2956 1244 2956 1747 
Q 2956 2250 2762 2517 
Q 2569 2784 2203 2784 
z
M 2203 3584 
Q 3106 3584 3614 3096 
Q 4122 2609 4122 1747 
Q 4122 884 3614 396 
Q 3106 -91 2203 -91 
Q 1297 -91 786 396 
Q 275 884 275 1747 
Q 275 2609 786 3096 
Q 1297 3584 2203 3584 
z
" transform="scale(0.015625)"/>
      <path id="DejaVuSans-Bold-64" d="M 2919 2988 
L 2919 4863 
L 4044 4863 
L 4044 0 
L 2919 0 
L 2919 506 
Q 2688 197 2409 53 
Q 2131 -91 1766 -91 
Q 1119 -91 703 423 
Q 288 938 288 1747 
Q 288 2556 703 3070 
Q 1119 3584 1766 3584 
Q 2128 3584 2408 3439 
Q 2688 3294 2919 2988 
z
M 2181 722 
Q 2541 722 2730 984 
Q 2919 1247 2919 1747 
Q 2919 2247 2730 2509 
Q 2541 2772 2181 2772 
Q 1825 2772 1636 2509 
Q 1447 2247 1447 1747 
Q 1447 1247 1636 984 
Q 1825 722 2181 722 
z
" transform="scale(0.015625)"/>
      <path id="DejaVuSans-Bold-65" d="M 4031 1759 
L 4031 1441 
L 1416 1441 
Q 1456 1047 1700 850 
Q 1944 653 2381 653 
Q 2734 653 3104 758 
Q 3475 863 3866 1075 
L 3866 213 
Q 3469 63 3072 -14 
Q 2675 -91 2278 -91 
Q 1328 -91 801 392 
Q 275 875 275 1747 
Q 275 2603 792 3093 
Q 1309 3584 2216 3584 
Q 3041 3584 3536 3087 
Q 4031 2591 4031 1759 
z
M 2881 2131 
Q 2881 2450 2695 2645 
Q 2509 2841 2209 2841 
Q 1884 2841 1681 2658 
Q 1478 2475 1428 2131 
L 2881 2131 
z
" transform="scale(0.015625)"/>
      <path id="DejaVuSans-Bold-3a" d="M 716 3500 
L 1844 3500 
L 1844 2291 
L 716 2291 
L 716 3500 
z
M 716 1209 
L 1844 1209 
L 1844 0 
L 716 0 
L 716 1209 
z
" transform="scale(0.015625)"/>
      <path id="DejaVuSans-Bold-20" transform="scale(0.015625)"/>
      <path id="DejaVuSans-Bold-48" d="M 588 4666 
L 1791 4666 
L 1791 2888 
L 3566 2888 
L 3566 4666 
L 4769 4666 
L 4769 0 
L 3566 0 
L 3566 1978 
L 1791 1978 
L 1791 0 
L 588 0 
L 588 4666 
z
" transform="scale(0.015625)"/>
      <path id="DejaVuSans-Bold-75" d="M 500 1363 
L 500 3500 
L 1625 3500 
L 1625 3150 
Q 1625 2866 1622 2436 
Q 1619 2006 1619 1863 
Q 1619 1441 1641 1255 
Q 1663 1069 1716 984 
Q 1784 875 1895 815 
Q 2006 756 2150 756 
Q 2500 756 2700 1025 
Q 2900 1294 2900 1772 
L 2900 3500 
L 4019 3500 
L 4019 0 
L 2900 0 
L 2900 506 
Q 2647 200 2364 54 
Q 2081 -91 1741 -91 
Q 1134 -91 817 281 
Q 500 653 500 1363 
z
" transform="scale(0.015625)"/>
      <path id="DejaVuSans-Bold-26" d="M 2497 3097 
L 3775 1691 
Q 3941 1909 4027 2181 
Q 4113 2453 4128 2797 
L 5100 2797 
Q 5053 2228 4879 1784 
Q 4706 1341 4397 1006 
L 5313 0 
L 3988 0 
L 3681 341 
Q 3353 122 2990 15 
Q 2628 -91 2222 -91 
Q 1400 -91 892 342 
Q 384 775 384 1459 
Q 384 1916 607 2267 
Q 831 2619 1338 2950 
Q 1206 3116 1143 3281 
Q 1081 3447 1081 3628 
Q 1081 4138 1478 4444 
Q 1875 4750 2534 4750 
Q 2819 4750 3126 4704 
Q 3434 4659 3769 4569 
L 3769 3700 
Q 3475 3850 3212 3922 
Q 2950 3994 2700 3994 
Q 2459 3994 2326 3901 
Q 2194 3809 2194 3641 
Q 2194 3534 2270 3398 
Q 2347 3263 2497 3097 
z
M 1875 2322 
Q 1672 2175 1569 1989 
Q 1466 1803 1466 1581 
Q 1466 1222 1731 969 
Q 1997 716 2369 716 
Q 2578 716 2759 780 
Q 2941 844 3097 972 
L 1875 2322 
z
" transform="scale(0.015625)"/>
      <path id="DejaVuSans-Bold-68" d="M 4056 2131 
L 4056 0 
L 2931 0 
L 2931 347 
L 2931 1625 
Q 2931 2084 2911 2256 
Q 2891 2428 2841 2509 
Q 2775 2619 2662 2680 
Q 2550 2741 2406 2741 
Q 2056 2741 1856 2470 
Q 1656 2200 1656 1722 
L 1656 0 
L 538 0 
L 538 4863 
L 1656 4863 
L 1656 2988 
Q 1909 3294 2193 3439 
Q 2478 3584 2822 3584 
Q 3428 3584 3742 3212 
Q 4056 2841 4056 2131 
z
" transform="scale(0.015625)"/>
      <path id="DejaVuSans-Bold-72" d="M 3138 2547 
Q 2991 2616 2845 2648 
Q 2700 2681 2553 2681 
Q 2122 2681 1889 2404 
Q 1656 2128 1656 1613 
L 1656 0 
L 538 0 
L 538 3500 
L 1656 3500 
L 1656 2925 
Q 1872 3269 2151 3426 
Q 2431 3584 2822 3584 
Q 2878 3584 2943 3579 
Q 3009 3575 3134 3559 
L 3138 2547 
z
" transform="scale(0.015625)"/>
      <path id="DejaVuSans-Bold-6d" d="M 3781 2919 
Q 3994 3244 4286 3414 
Q 4578 3584 4928 3584 
Q 5531 3584 5847 3212 
Q 6163 2841 6163 2131 
L 6163 0 
L 5038 0 
L 5038 1825 
Q 5041 1866 5042 1909 
Q 5044 1953 5044 2034 
Q 5044 2406 4934 2573 
Q 4825 2741 4581 2741 
Q 4263 2741 4089 2478 
Q 3916 2216 3909 1719 
L 3909 0 
L 2784 0 
L 2784 1825 
Q 2784 2406 2684 2573 
Q 2584 2741 2328 2741 
Q 2006 2741 1831 2477 
Q 1656 2213 1656 1722 
L 1656 0 
L 531 0 
L 531 3500 
L 1656 3500 
L 1656 2988 
Q 1863 3284 2130 3434 
Q 2397 3584 2719 3584 
Q 3081 3584 3359 3409 
Q 3638 3234 3781 2919 
z
" transform="scale(0.015625)"/>
      <path id="DejaVuSans-Bold-61" d="M 2106 1575 
Q 1756 1575 1579 1456 
Q 1403 1338 1403 1106 
Q 1403 894 1545 773 
Q 1688 653 1941 653 
Q 2256 653 2472 879 
Q 2688 1106 2688 1447 
L 2688 1575 
L 2106 1575 
z
M 3816 1997 
L 3816 0 
L 2688 0 
L 2688 519 
Q 2463 200 2181 54 
Q 1900 -91 1497 -91 
Q 953 -91 614 226 
Q 275 544 275 1050 
Q 275 1666 698 1953 
Q 1122 2241 2028 2241 
L 2688 2241 
L 2688 2328 
Q 2688 2594 2478 2717 
Q 2269 2841 1825 2841 
Q 1466 2841 1156 2769 
Q 847 2697 581 2553 
L 581 3406 
Q 941 3494 1303 3539 
Q 1666 3584 2028 3584 
Q 2975 3584 3395 3211 
Q 3816 2838 3816 1997 
z
" transform="scale(0.015625)"/>
      <path id="DejaVuSans-Bold-66" d="M 2841 4863 
L 2841 4128 
L 2222 4128 
Q 1984 4128 1890 4042 
Q 1797 3956 1797 3744 
L 1797 3500 
L 2753 3500 
L 2753 2700 
L 1797 2700 
L 1797 0 
L 678 0 
L 678 2700 
L 122 2700 
L 122 3500 
L 678 3500 
L 678 3744 
Q 678 4316 997 4589 
Q 1316 4863 1984 4863 
L 2841 4863 
z
" transform="scale(0.015625)"/>
      <path id="DejaVuSans-Bold-38" d="M 2228 2088 
Q 1891 2088 1709 1903 
Q 1528 1719 1528 1375 
Q 1528 1031 1709 848 
Q 1891 666 2228 666 
Q 2563 666 2741 848 
Q 2919 1031 2919 1375 
Q 2919 1722 2741 1905 
Q 2563 2088 2228 2088 
z
M 1350 2484 
Q 925 2613 709 2878 
Q 494 3144 494 3541 
Q 494 4131 934 4440 
Q 1375 4750 2228 4750 
Q 3075 4750 3515 4442 
Q 3956 4134 3956 3541 
Q 3956 3144 3739 2878 
Q 3522 2613 3097 2484 
Q 3572 2353 3814 2058 
Q 4056 1763 4056 1313 
Q 4056 619 3595 264 
Q 3134 -91 2228 -91 
Q 1319 -91 855 264 
Q 391 619 391 1313 
Q 391 1763 633 2058 
Q 875 2353 1350 2484 
z
M 1631 3419 
Q 1631 3141 1786 2991 
Q 1941 2841 2228 2841 
Q 2509 2841 2662 2991 
Q 2816 3141 2816 3419 
Q 2816 3697 2662 3845 
Q 2509 3994 2228 3994 
Q 1941 3994 1786 3844 
Q 1631 3694 1631 3419 
z
" transform="scale(0.015625)"/>
      <path id="DejaVuSans-Bold-2b" d="M 3053 4013 
L 3053 2375 
L 4684 2375 
L 4684 1638 
L 3053 1638 
L 3053 0 
L 2309 0 
L 2309 1638 
L 678 1638 
L 678 2375 
L 2309 2375 
L 2309 4013 
L 3053 4013 
z
" transform="scale(0.015625)"/>
      <path id="DejaVuSans-Bold-34" d="M 2356 3675 
L 1038 1722 
L 2356 1722 
L 2356 3675 
z
M 2156 4666 
L 3494 4666 
L 3494 1722 
L 4159 1722 
L 4159 850 
L 3494 850 
L 3494 0 
L 2356 0 
L 2356 850 
L 288 850 
L 288 1881 
L 2156 4666 
z
" transform="scale(0.015625)"/>
      <path id="DejaVuSans-Bold-41" d="M 3419 850 
L 1538 850 
L 1241 0 
L 31 0 
L 1759 4666 
L 3194 4666 
L 4922 0 
L 3713 0 
L 3419 850 
z
M 1838 1716 
L 3116 1716 
L 2478 3572 
L 1838 1716 
z
" transform="scale(0.015625)"/>
      <path id="DejaVuSans-Bold-4e" d="M 588 4666 
L 1931 4666 
L 3628 1466 
L 3628 4666 
L 4769 4666 
L 4769 0 
L 3425 0 
L 1728 3200 
L 1728 0 
L 588 0 
L 588 4666 
z
" transform="scale(0.015625)"/>
      <path id="DejaVuSans-Bold-49" d="M 588 4666 
L 1791 4666 
L 1791 0 
L 588 0 
L 588 4666 
z
" transform="scale(0.015625)"/>
      <path id="DejaVuSans-Bold-6c" d="M 538 4863 
L 1656 4863 
L 1656 0 
L 538 0 
L 538 4863 
z
" transform="scale(0.015625)"/>
      <path id="DejaVuSans-Bold-73" d="M 3272 3391 
L 3272 2541 
Q 2913 2691 2578 2766 
Q 2244 2841 1947 2841 
Q 1628 2841 1473 2761 
Q 1319 2681 1319 2516 
Q 1319 2381 1436 2309 
Q 1553 2238 1856 2203 
L 2053 2175 
Q 2913 2066 3209 1816 
Q 3506 1566 3506 1031 
Q 3506 472 3093 190 
Q 2681 -91 1863 -91 
Q 1516 -91 1145 -36 
Q 775 19 384 128 
L 384 978 
Q 719 816 1070 734 
Q 1422 653 1784 653 
Q 2113 653 2278 743 
Q 2444 834 2444 1013 
Q 2444 1163 2330 1236 
Q 2216 1309 1875 1350 
L 1678 1375 
Q 931 1469 631 1722 
Q 331 1975 331 2491 
Q 331 3047 712 3315 
Q 1094 3584 1881 3584 
Q 2191 3584 2531 3537 
Q 2872 3491 3272 3391 
z
" transform="scale(0.015625)"/>
      <path id="DejaVuSans-Bold-69" d="M 538 3500 
L 1656 3500 
L 1656 0 
L 538 0 
L 538 3500 
z
M 538 4863 
L 1656 4863 
L 1656 3950 
L 538 3950 
L 538 4863 
z
" transform="scale(0.015625)"/>
      <path id="DejaVuSans-Bold-6e" d="M 4056 2131 
L 4056 0 
L 2931 0 
L 2931 347 
L 2931 1631 
Q 2931 2084 2911 2256 
Q 2891 2428 2841 2509 
Q 2775 2619 2662 2680 
Q 2550 2741 2406 2741 
Q 2056 2741 1856 2470 
Q 1656 2200 1656 1722 
L 1656 0 
L 538 0 
L 538 3500 
L 1656 3500 
L 1656 2988 
Q 1909 3294 2193 3439 
Q 2478 3584 2822 3584 
Q 3428 3584 3742 3212 
Q 4056 2841 4056 2131 
z
" transform="scale(0.015625)"/>
      <path id="DejaVuSans-Bold-4f" d="M 2719 3878 
Q 2169 3878 1866 3472 
Q 1563 3066 1563 2328 
Q 1563 1594 1866 1187 
Q 2169 781 2719 781 
Q 3272 781 3575 1187 
Q 3878 1594 3878 2328 
Q 3878 3066 3575 3472 
Q 3272 3878 2719 3878 
z
M 2719 4750 
Q 3844 4750 4481 4106 
Q 5119 3463 5119 2328 
Q 5119 1197 4481 553 
Q 3844 -91 2719 -91 
Q 1597 -91 958 553 
Q 319 1197 319 2328 
Q 319 3463 958 4106 
Q 1597 4750 2719 4750 
z
" transform="scale(0.015625)"/>
      <path id="DejaVuSans-Bold-6b" d="M 538 4863 
L 1656 4863 
L 1656 2216 
L 2944 3500 
L 4244 3500 
L 2534 1894 
L 4378 0 
L 3022 0 
L 1656 1459 
L 1656 0 
L 538 0 
L 538 4863 
z
" transform="scale(0.015625)"/>
      <path id="DejaVuSans-Bold-62" d="M 2400 722 
Q 2759 722 2948 984 
Q 3138 1247 3138 1747 
Q 3138 2247 2948 2509 
Q 2759 2772 2400 2772 
Q 2041 2772 1848 2508 
Q 1656 2244 1656 1747 
Q 1656 1250 1848 986 
Q 2041 722 2400 722 
z
M 1656 2988 
Q 1888 3294 2169 3439 
Q 2450 3584 2816 3584 
Q 3463 3584 3878 3070 
Q 4294 2556 4294 1747 
Q 4294 938 3878 423 
Q 3463 -91 2816 -91 
Q 2450 -91 2169 54 
Q 1888 200 1656 506 
L 1656 0 
L 538 0 
L 538 4863 
L 1656 4863 
L 1656 2988 
z
" transform="scale(0.015625)"/>
     </defs>
     <use xlink:href="#DejaVuSans-Bold-56"/>
     <use xlink:href="#DejaVuSans-Bold-53" x="77.392578"/>
     <use xlink:href="#DejaVuSans-Bold-43" x="149.414062"/>
     <use xlink:href="#DejaVuSans-Bold-6f" x="222.802734"/>
     <use xlink:href="#DejaVuSans-Bold-64" x="291.503906"/>
     <use xlink:href="#DejaVuSans-Bold-65" x="363.085938"/>
     <use xlink:href="#DejaVuSans-Bold-3a" x="430.908203"/>
     <use xlink:href="#DejaVuSans-Bold-20" x="470.898438"/>
     <use xlink:href="#DejaVuSans-Bold-48" x="505.712891"/>
     <use xlink:href="#DejaVuSans-Bold-75" x="589.404297"/>
     <use xlink:href="#DejaVuSans-Bold-65" x="660.595703"/>
     <use xlink:href="#DejaVuSans-Bold-20" x="728.417969"/>
     <use xlink:href="#DejaVuSans-Bold-26" x="763.232422"/>
     <use xlink:href="#DejaVuSans-Bold-20" x="850.439453"/>
     <use xlink:href="#DejaVuSans-Bold-43" x="885.253906"/>
     <use xlink:href="#DejaVuSans-Bold-68" x="958.642578"/>
     <use xlink:href="#DejaVuSans-Bold-72" x="1029.833984"/>
     <use xlink:href="#DejaVuSans-Bold-6f" x="1079.150391"/>
     <use xlink:href="#DejaVuSans-Bold-6d" x="1147.851562"/>
     <use xlink:href="#DejaVuSans-Bold-61" x="1252.050781"/>
     <use xlink:href="#DejaVuSans-Bold-20" x="1319.53125"/>
     <use xlink:href="#DejaVuSans-Bold-66" x="1354.345703"/>
     <use xlink:href="#DejaVuSans-Bold-6f" x="1397.851562"/>
     <use xlink:href="#DejaVuSans-Bold-72" x="1466.552734"/>
     <use xlink:href="#DejaVuSans-Bold-20" x="1515.869141"/>
     <use xlink:href="#DejaVuSans-Bold-38" x="1550.683594"/>
     <use xlink:href="#DejaVuSans-Bold-2b" x="1620.263672"/>
     <use xlink:href="#DejaVuSans-Bold-34" x="1704.052734"/>
     <use xlink:href="#DejaVuSans-Bold-20" x="1773.632812"/>
     <use xlink:href="#DejaVuSans-Bold-41" x="1808.447266"/>
     <use xlink:href="#DejaVuSans-Bold-4e" x="1885.839844"/>
     <use xlink:href="#DejaVuSans-Bold-53" x="1969.53125"/>
     <use xlink:href="#DejaVuSans-Bold-49" x="2041.552734"/>
     <use xlink:href="#DejaVuSans-Bold-20" x="2078.759766"/>
     <use xlink:href="#DejaVuSans-Bold-43" x="2113.574219"/>
     <use xlink:href="#DejaVuSans-Bold-6f" x="2186.962891"/>
     <use xlink:href="#DejaVuSans-Bold-6c" x="2255.664062"/>
     <use xlink:href="#DejaVuSans-Bold-6f" x="2289.941406"/>
     <use xlink:href="#DejaVuSans-Bold-72" x="2358.642578"/>
     <use xlink:href="#DejaVuSans-Bold-73" x="2407.958984"/>
     <use xlink:href="#DejaVuSans-Bold-20" x="2467.480469"/>
     <use xlink:href="#DejaVuSans-Bold-69" x="2502.294922"/>
     <use xlink:href="#DejaVuSans-Bold-6e" x="2536.572266"/>
     <use xlink:href="#DejaVuSans-Bold-20" x="2607.763672"/>
     <use xlink:href="#DejaVuSans-Bold-4f" x="2642.578125"/>
     <use xlink:href="#DejaVuSans-Bold-6b" x="2727.587891"/>
     <use xlink:href="#DejaVuSans-Bold-6c" x="2794.091797"/>
     <use xlink:href="#DejaVuSans-Bold-61" x="2828.369141"/>
     <use xlink:href="#DejaVuSans-Bold-62" x="2895.849609"/>
    </g>
   </g>
  </g>
 </g>
 <defs>
  <clipPath id="pe74404f112">
   <path d="M 323.843437 188.757188 
C 323.843437 170.556402 320.25828 152.532597 313.293141 135.717264 
C 306.328002 118.901931 296.118336 103.622086 283.248437 90.752188 
C 270.378539 77.882289 255.098694 67.672623 238.283361 60.707484 
C 221.468028 53.742345 203.444223 50.157188 185.243437 50.157188 
C 167.042652 50.157188 149.018847 53.742345 132.203514 60.707484 
C 115.388181 67.672623 100.108336 77.882289 87.238438 90.752188 
C 74.368539 103.622086 64.158873 118.901931 57.193734 135.717264 
C 50.228595 152.532597 46.643437 170.556402 46.643437 188.757188 
C 46.643437 206.957973 50.228595 224.981778 57.193734 241.797111 
C 64.158873 258.612444 74.368539 273.892289 87.238438 286.762187 
C 100.108336 299.632086 115.388181 309.841752 132.203514 316.806891 
C 149.018847 323.77203 167.042652 327.357188 185.243437 327.357188 
C 203.444223 327.357188 221.468028 323.77203 238.283361 316.806891 
C 255.098694 309.841752 270.378539 299.632086 283.248437 286.762187 
C 296.118336 273.892289 306.328002 258.612444 313.293141 241.797111 
C 320.25828 224.981778 323.843437 206.957973 323.843437 188.757188 
M 185.243437 188.757188 
C 185.243437 188.757188 185.243437 188.757188 185.243437 188.757188 
C 185.243437 188.757188 185.243437 188.757188 185.243437 188.757188 
C 185.243437 188.757188 185.243437 188.757188 185.243437 188.757188 
C 185.243437 188.757188 185.243437 188.757188 185.243437 188.757188 
C 185.243437 188.757188 185.243437 188.757188 185.243437 188.757188 
C 185.243437 188.757188 185.243437 188.757188 185.243437 188.757188 
C 185.243437 188.757188 185.243437 188.757188 185.243437 188.757188 
C 185.243437 188.757188 185.243437 188.757188 185.243437 188.757188 
C 185.243437 188.757188 185.243437 188.757188 185.243437 188.757188 
C 185.243437 188.757188 185.243437 188.757188 185.243437 188.757188 
C 185.243437 188.757188 185.243437 188.757188 185.243437 188.757188 
C 185.243437 188.757188 185.243437 188.757188 185.243437 188.757188 
C 185.243437 188.757188 185.243437 188.757188 185.243437 188.757188 
C 185.243437 188.757188 185.243437 188.757188 185.243437 188.757188 
C 185.243437 188.757188 185.243437 188.757188 185.243437 188.757188 
C 185.243437 188.757188 185.243437 188.757188 185.243437 188.757188 
z
"/>
  </clipPath>
 </defs>
</svg>
